<svg id="Layer_1" xmlns="http://www.w3.org/2000/svg" viewBox="0 0 34.9 31.3"><style>.st0{fill:#be529f}.st1{fill:#fff}</style><path class="st0" d="M0 0h34.9v31.3H0z"/><path class="st1" d="M24.9 11.4v10.7c0 .5-.2.9-.5 1.3-.4.4-.9.6-1.4.6H12.3c-.5 0-.9-.2-1.3-.5s-.5-.8-.5-1.3V11.4c0-.5.2-.9.5-1.3s.8-.5 1.3-.5H23c.5 0 .9.2 1.3.5s.6.8.6 1.3zm-1.7 10.3v-6.1H22c.1.4.2.8.2 1.2 0 .8-.2 1.5-.6 2.2-.4.7-.9 1.2-1.6 1.6-.7.4-1.4.6-2.3.6-1.2 0-2.3-.4-3.2-1.3s-1.3-1.9-1.3-3.1c0-.4.1-.8.2-1.2h-1.3v6.1c0 .2.1.3.2.4.1.1.2.2.4.2h10c.2 0 .3-.1.4-.2.1-.1.1-.2.1-.4zm-3.5-3c.6-.5.8-1.2.8-2s-.3-1.4-.8-2-1.3-.8-2.1-.8-1.5.3-2 .8c-.6.5-.9 1.2-.9 2s.3 1.4.9 2c.6.5 1.2.8 2 .8.9 0 1.6-.2 2.1-.8zm3.5-5.4v-1.6c0-.2-.1-.3-.2-.5-.1-.1-.3-.2-.5-.2H21c-.2 0-.3.1-.5.2-.1.1-.2.3-.2.5v1.6c0 .2.1.3.2.5.1.1.3.2.5.2h1.6c.2 0 .3-.1.5-.2s.1-.3.1-.5z"/></svg>