<svg id="Layer_1" xmlns="http://www.w3.org/2000/svg" viewBox="0 0 284.3 269.2"><style>.st0{fill:none;stroke:#3c3c3b;stroke-width:.5}.st1{fill:#be529f}</style><path class="st0" d="M198 53.1v43.4m-45.9-1H246m-93.6 1v43.3m93.8-44.1v142.2m-93.6-87.2H0"/><path class="st1" d="M209.4 115.5v71.8l74.9-71.8zm-93.1 0h70.4v70.4h-70.4zm5.7-39.7C122 33.9 155.9 0 197.8 0s75.8 33.9 75.8 75.8H122zm-96.7 49.6c14 0 25.3 11.3 25.3 25.3S39.2 176 25.3 176 0 164.7 0 150.7s11.3-25.3 25.3-25.3m131.6 93.2h127.4v50.5H156.9z"/></svg>