<svg id="Layer_1" data-name="Layer 1" xmlns="http://www.w3.org/2000/svg" viewBox="0 0 1399.5 426"><defs><style>.cls-1{fill:none}.cls-2{font-size:16px;fill:#898989;font-family:Montserrat-Regular,Montserrat}.cls-3{clip-path:url(#clip-path)}.cls-4{fill:#ee2a5a}</style><clipPath id="clip-path"><path class="cls-1" d="M0 0h1399.5v426H0z"/></clipPath></defs><title>shape-bkg</title><path class="cls-1" d="M0 0h1399.5v426H0z"/><g class="cls-3"><path class="cls-4" d="M1126 82.36a17.27 17.27 0 1 1-17.27-17.26A17.27 17.27 0 0 1 1126 82.36"/></g><path class="cls-4" d="M48.63 38.87h34.53v67.91H48.63zm949.41 285.27h67.91v34.53h-67.91z"/><g class="cls-3"><path class="cls-4" d="M102 251.41a17.26 17.26 0 1 1-17.26-17.26A17.26 17.26 0 0 1 102 251.41"/></g><path class="cls-4" transform="rotate(-45 267.129 348.562)" d="M249.86 331.29h34.53v34.53h-34.53z"/><path class="cls-4" d="M1324.5 258.56l24.42-24.42 24.41 24.42h-48.83zM372.03 106.78v34.53H337.5l34.53-34.53z"/></svg>