<?xml version="1.0" encoding="utf-8"?>
<!-- Generator: Adobe Illustrator 20.1.0, SVG Export Plug-In . SVG Version: 6.00 Build 0)  -->
<svg version="1.1" id="Layer_1" xmlns="http://www.w3.org/2000/svg" xmlns:xlink="http://www.w3.org/1999/xlink" x="0px" y="0px"
	 viewBox="0 0 34.9 31.3" style="enable-background:new 0 0 34.9 31.3;" xml:space="preserve">
<style type="text/css">
	.st0{fill:#BE529F;}
	.st1{fill:#FFFFFF;}
</style>
<g>
	<g>
		<rect class="st0" width="34.9" height="31.3"/>
	</g>
	<g>
		<path class="st1" d="M24.9,12.2v9c0,0.7-0.3,1.4-0.8,1.9c-0.5,0.5-1.2,0.8-1.9,0.8h-2.1c-0.1,0-0.2,0-0.2,0c-0.1,0-0.1,0-0.2,0
			c-0.1,0-0.1-0.1-0.1-0.1c0-0.1,0-0.2,0-0.3v-2.2c0-0.6-0.2-1.1-0.5-1.3c0.4,0,0.7-0.1,1-0.2s0.6-0.2,0.9-0.4
			c0.3-0.2,0.6-0.4,0.8-0.6s0.4-0.6,0.5-1s0.2-0.9,0.2-1.4c0-0.8-0.2-1.4-0.7-1.9c0.2-0.6,0.2-1.2-0.1-1.9c-0.2-0.1-0.4,0-0.8,0.1
			c-0.3,0.1-0.6,0.3-0.9,0.4l-0.4,0.2c-0.6-0.2-1.2-0.2-1.8-0.2s-1.2,0.1-1.8,0.2c-0.1-0.1-0.2-0.2-0.4-0.3
			c-0.2-0.1-0.4-0.2-0.8-0.4c-0.4-0.1-0.6-0.2-0.8-0.1c-0.3,0.7-0.3,1.3-0.1,1.9c-0.5,0.5-0.7,1.2-0.7,1.9c0,0.5,0.1,1,0.2,1.4
			c0.1,0.4,0.3,0.7,0.5,1c0.2,0.3,0.5,0.5,0.8,0.6c0.3,0.2,0.6,0.3,0.9,0.4s0.6,0.1,1,0.2c-0.3,0.2-0.4,0.5-0.5,1
			C15.8,21,15.6,21,15.5,21c-0.2,0-0.3,0-0.5,0s-0.4-0.1-0.6-0.2c-0.2-0.1-0.4-0.3-0.5-0.6c-0.1-0.2-0.3-0.4-0.5-0.5
			c-0.2-0.1-0.3-0.2-0.5-0.2l-0.2,0c-0.1,0-0.2,0-0.3,0c0,0-0.1,0.1,0,0.1c0,0,0,0.1,0.1,0.1s0.1,0.1,0.1,0.1l0.1,0
			c0.1,0.1,0.3,0.2,0.4,0.4c0.1,0.2,0.2,0.3,0.3,0.5l0.1,0.2c0.1,0.2,0.2,0.4,0.4,0.6c0.2,0.1,0.4,0.2,0.6,0.3
			c0.2,0,0.4,0.1,0.7,0.1c0.2,0,0.4,0,0.5,0l0.2,0c0,0.2,0,0.6,0,1c0,0.4,0,0.6,0,0.6c0,0.1,0,0.2-0.1,0.3c-0.1,0.1-0.1,0.1-0.2,0.1
			s-0.2,0-0.3,0h-2.1c-0.7,0-1.4-0.3-1.9-0.8c-0.5-0.5-0.8-1.2-0.8-1.9v-9c0-0.7,0.3-1.4,0.8-1.9s1.2-0.8,1.9-0.8h9
			c0.7,0,1.4,0.3,1.9,0.8S24.9,11.5,24.9,12.2z M13.2,19.9c0,0-0.1,0-0.1,0c-0.1,0-0.1-0.1-0.1-0.1c0,0,0.1,0,0.1,0
			C13.2,19.8,13.2,19.9,13.2,19.9z M13.5,20.2c0,0-0.1,0-0.2,0c-0.1-0.1-0.1-0.1,0-0.2c0,0,0.1,0,0.2,0
			C13.5,20.1,13.5,20.2,13.5,20.2z M13.8,20.5c0.1,0.1,0.1,0.1,0,0.2c-0.1,0-0.1,0-0.2-0.1c-0.1-0.1-0.1-0.1,0-0.2
			C13.7,20.4,13.7,20.4,13.8,20.5z M14.2,21c-0.1,0.1-0.1,0-0.2,0c-0.1-0.1-0.1-0.1,0-0.2c0.1-0.1,0.1,0,0.2,0
			C14.2,20.9,14.2,21,14.2,21z M14.7,21.3c0,0.1-0.1,0.1-0.2,0.1c-0.1,0-0.1-0.1-0.1-0.1c0-0.1,0.1-0.1,0.2-0.1
			C14.7,21.2,14.7,21.2,14.7,21.3z M15.3,21.3c0,0.1-0.1,0.1-0.2,0.1c-0.1,0-0.2,0-0.2-0.1c0-0.1,0.1-0.1,0.2-0.1
			C15.2,21.2,15.3,21.2,15.3,21.3z M15.8,21.2c0,0.1,0,0.1-0.1,0.1c-0.1,0-0.2,0-0.2-0.1s0-0.1,0.1-0.1
			C15.8,21.1,15.8,21.2,15.8,21.2z"/>
	</g>
</g>
</svg>
