<?xml version="1.0" encoding="utf-8"?>
<!-- Generator: Adobe Illustrator 20.1.0, SVG Export Plug-In . SVG Version: 6.00 Build 0)  -->
<svg version="1.1" id="Layer_1" xmlns="http://www.w3.org/2000/svg" xmlns:xlink="http://www.w3.org/1999/xlink" x="0px" y="0px"
	 viewBox="0 0 34.9 31.3" style="enable-background:new 0 0 34.9 31.3;" xml:space="preserve">
<style type="text/css">
	.st0{fill:#BE529F;}
	.st1{fill:#FFFFFF;}
</style>
<g>
	<rect class="st0" width="34.9" height="31.3"/>
</g>
<g>
	<path class="st1" d="M24.9,11.4v10.7c0,0.5-0.2,0.9-0.5,1.3C24,23.8,23.5,24,23,24H12.3c-0.5,0-0.9-0.2-1.3-0.5s-0.5-0.8-0.5-1.3
		V11.4c0-0.5,0.2-0.9,0.5-1.3s0.8-0.5,1.3-0.5H23c0.5,0,0.9,0.2,1.3,0.5C24.7,10.4,24.9,10.9,24.9,11.4z M23.2,21.7v-6.1H22
		c0.1,0.4,0.2,0.8,0.2,1.2c0,0.8-0.2,1.5-0.6,2.2c-0.4,0.7-0.9,1.2-1.6,1.6c-0.7,0.4-1.4,0.6-2.3,0.6c-1.2,0-2.3-0.4-3.2-1.3
		s-1.3-1.9-1.3-3.1c0-0.4,0.1-0.8,0.2-1.2h-1.3v6.1c0,0.2,0.1,0.3,0.2,0.4c0.1,0.1,0.2,0.2,0.4,0.2h10c0.2,0,0.3-0.1,0.4-0.2
		C23.2,22,23.2,21.9,23.2,21.7z M19.7,18.7c0.6-0.5,0.8-1.2,0.8-2s-0.3-1.4-0.8-2s-1.3-0.8-2.1-0.8c-0.8,0-1.5,0.3-2,0.8
		c-0.6,0.5-0.9,1.2-0.9,2s0.3,1.4,0.9,2c0.6,0.5,1.2,0.8,2,0.8C18.5,19.5,19.2,19.3,19.7,18.7z M23.2,13.3v-1.6
		c0-0.2-0.1-0.3-0.2-0.5c-0.1-0.1-0.3-0.2-0.5-0.2H21c-0.2,0-0.3,0.1-0.5,0.2c-0.1,0.1-0.2,0.3-0.2,0.5v1.6c0,0.2,0.1,0.3,0.2,0.5
		c0.1,0.1,0.3,0.2,0.5,0.2h1.6c0.2,0,0.3-0.1,0.5-0.2S23.2,13.5,23.2,13.3z"/>
</g>
</svg>
