<?xml version="1.0" encoding="utf-8"?>
<!-- Generator: Adobe Illustrator 20.1.0, SVG Export Plug-In . SVG Version: 6.00 Build 0)  -->
<svg version="1.1" id="Layer_1" xmlns="http://www.w3.org/2000/svg" xmlns:xlink="http://www.w3.org/1999/xlink" x="0px" y="0px"
	 viewBox="0 0 79.8 79.8" style="enable-background:new 0 0 79.8 79.8;" xml:space="preserve">
<style type="text/css">
	.st0{fill:#E8C4DD;}
	.st1{fill:#DBA1C9;}
	.st2{fill:#BE529F;}
</style>
<g>
	<path class="st0" d="M79.8,39.9c0,22-17.9,39.9-39.9,39.9S0,62,0,39.9S17.9,0,39.9,0S79.8,17.9,79.8,39.9"/>
	<path class="st1" d="M67.1,39.9c0,15.5-12.2,28-27.1,28s-27.1-12.5-27.1-28s12.2-28,27.1-28S67.1,24.5,67.1,39.9"/>
	<path class="st2" d="M55.1,39.9c0,8.4-6.8,15.1-15.1,15.1s-15.1-6.8-15.1-15.1s6.8-15.1,15.1-15.1S55.1,31.5,55.1,39.9"/>
</g>
</svg>
