<?xml version="1.0" encoding="utf-8"?>
<!-- Generator: Adobe Illustrator 20.1.0, SVG Export Plug-In . SVG Version: 6.00 Build 0)  -->
<svg version="1.1" id="Layer_1" xmlns="http://www.w3.org/2000/svg" xmlns:xlink="http://www.w3.org/1999/xlink" x="0px" y="0px"
	 viewBox="0 0 34.9 31.3" style="enable-background:new 0 0 34.9 31.3;" xml:space="preserve">
<style type="text/css">
	.st0{fill:#BE529F;}
	.st1{fill:#FFFFFF;}
</style>
<g>
	<rect class="st0" width="34.9" height="31.3"/>
</g>
<g>
	<path class="st1" d="M23.9,11.2c-0.4,0.6-0.8,1-1.4,1.4c0,0.1,0,0.2,0,0.4c0,0.7-0.1,1.5-0.3,2.2s-0.5,1.4-1,2.1
		c-0.4,0.7-1,1.3-1.6,1.8c-0.6,0.5-1.3,0.9-2.2,1.2c-0.9,0.3-1.8,0.5-2.8,0.5c-1.5,0-3-0.4-4.2-1.2c0.2,0,0.4,0,0.7,0
		c1.3,0,2.4-0.4,3.4-1.2c-0.6,0-1.1-0.2-1.6-0.6c-0.5-0.4-0.8-0.8-1-1.4c0.2,0,0.4,0,0.5,0c0.2,0,0.5,0,0.7-0.1
		c-0.6-0.1-1.2-0.4-1.6-1S11,14.4,11,13.7v0c0.4,0.2,0.8,0.3,1.2,0.3c-0.4-0.2-0.7-0.6-0.9-1c-0.2-0.4-0.3-0.8-0.3-1.3
		c0-0.5,0.1-1,0.4-1.4c0.7,0.8,1.5,1.5,2.5,2s2,0.8,3.2,0.8c0-0.2-0.1-0.4-0.1-0.6c0-0.8,0.3-1.4,0.8-2c0.5-0.5,1.2-0.8,2-0.8
		c0.8,0,1.5,0.3,2,0.9c0.6-0.1,1.2-0.3,1.8-0.7c-0.2,0.7-0.6,1.2-1.2,1.5C22.9,11.5,23.4,11.4,23.9,11.2z"/>
</g>
</svg>
