<svg id="Layer_1" data-name="Layer 1" xmlns="http://www.w3.org/2000/svg" viewBox="0 0 1400 800.25">
  <title>home-animation</title>
  <rect width="1400" height="800.25" fill="none"/>
  <g>
    <path d="M559.016,559.579a82.117,82.117,0,1,0,164.233,0Z" transform="translate(-142 -78)" fill="#fff"/>
    <path d="M554.4,413.972a27.614,27.614,0,1,0,27.574,27.613A27.593,27.593,0,0,0,554.4,413.972" transform="translate(-142 -78)" fill="#fff"/>
    <polygon points="636.927 315.405 561.809 315.405 561.809 394.065 636.927 315.405" fill="#fff"/>
    <rect x="473.367" y="315.405" width="51.529" height="142.316" fill="#fff"/>
    <rect x="374" y="228.167" width="76.809" height="76.92" fill="#fff"/>
  </g>
  <path d="M559.016,559.579a82.117,82.117,0,1,0,164.233,0ZM526.831,441.585A27.574,27.574,0,1,0,554.4,413.971a27.593,27.593,0,0,0-27.573,27.614m88.537,94.136H666.9V393.4H615.368ZM703.809,393.4v78.659L778.926,393.4ZM516,383.087h76.808v-76.92H516Z" transform="translate(-142 -78)" fill="#fff"/>
  <path d="M404.75,448.44a28,28,0,1,1-28-28,28,28,0,0,1,28,28" transform="translate(-142 -78)" fill="#fff"/>
  <polygon points="1319.054 485.577 1319.054 565.075 1236.078 565.075 1319.054 485.577" fill="#fff"/>
  <rect x="1167.159" y="684.72" width="78" height="78" fill="#fff"/>
  <rect x="47.929" y="525.326" width="56" height="141.184" fill="#fff"/>
  <path d="M1289.635,267.864a84,84,0,1,1,112.414,124.848Z" transform="translate(-142 -78)" fill="#fff"/>
  <path d="M1378.078,306.167S874,114.857,641.132,600.7" transform="translate(-142 -78)" fill="#fff"/>
  <path d="M1348.159,801.72S1217.665,187.948,554.4,339.974" transform="translate(-142 -78)" fill="#fff"/>
  <path d="M1436.857,619.143S984,740.965,729.714,415.768" transform="translate(-142 -78)" fill="#fff"/>
  <path d="M376.75,448.44S458.286,552,554.4,441.585" transform="translate(-142 -78)" fill="#fff"/>
  <path d="M217.929,673.918s298.907,81.779,423.2-209.355" transform="translate(-142 -78)" fill="#fff"/>
</svg>
