<svg id="Layer_1" xmlns="http://www.w3.org/2000/svg" viewBox="0 0 192.5 192.7"><style>.st0{fill:#3c3c3b}</style><path class="st0" d="M96.6 15.7c-44.3-1-80.9 36.5-81.1 80.3-.2 44.4 36.6 81.1 80.5 81.3 44.4.2 81-36.6 81.2-80.4.3-44.6-36.7-82-80.6-81.2m95.9 80.5c1.1 52.6-43.4 96-95.1 96.5-52.6.5-97.9-43-97.3-97.4C.5 43.3 43.7-.2 96.8 0c53.3.2 96.7 44.7 95.7 96.2"/><path class="st0" d="M57.1 117.1c-1.7-2.7-4.5-3.5-7.4-3.9-6.2-.8-12.6-1.8-19-2.9-6.4-1.1-11.1-7.2-11-14.1.1-7 4.7-12.7 11.1-13.8 6.2-1 12.3-2 19-2.9 4.1-.6 5.7-1.2 7.2-3.8 1.9 2.7 4.9 3.5 7.7 3.9 5.9.8 12 1.9 17.3 2.9 7.3 1.2 12 6.7 12 13.8 0 7.1-4.7 12.7-11.8 14-7.1 1.3-12.6 2.2-17.8 3-2.6.3-5.4 1.1-7.3 3.8m39.3 34.4c-2.2-3.1-5.7-3.6-8.6-4-.7-.1-1.3-.2-1.9-.3-2.6-.5-5.3-.9-7.9-1.4-2.1-.3-4.2-.7-6.3-1.1-7.5-1.3-12.3-6.8-12.3-14 0-7 5.2-12.7 12.5-14l3.6-.6c4.4-.8 8.9-1.6 13.4-2.2 2.5-.3 5.4-1.1 7.4-3.6 1.7 2.5 4.4 3.2 6.7 3.5 6.7.9 13.3 2 18.8 2.9 6.9 1.1 11.7 6.9 11.8 14 .1 7.3-4.4 12.9-11.4 14.1-3.9.7-7.9 1.3-11.8 1.9-2.6.4-5.3.8-7.9 1.2-3.3.5-4.8 1.3-6.1 3.6m-.1-68.7c-2.1-3-5.5-3.5-8.4-3.9-.7-.1-1.3-.2-1.9-.3-2.6-.5-5.3-.9-7.8-1.3-2.3-.4-4.8-.8-7.1-1.2-6.7-1.2-11.7-7.2-11.8-13.9-.1-6.9 4.5-12.5 11.4-13.9 3.5-.7 7.1-1.3 10.6-1.9 2.2-.4 4.5-.7 6.7-1.1 5-.9 6.1-1.2 8.3-4 1.7 2.8 4.7 3.6 7 3.9 6.5.9 13 1.9 19 2.9 6.4 1 11.2 6.7 11.3 13.3.1 7.4-4.4 13.4-11 14.6-4.4.8-8.9 1.5-13.3 2.2-2.3.4-4.7.7-7.1 1.1-3.1.5-4.6 1.3-5.9 3.5m39.6 34.1c-2.1-2.5-5-3.3-8.1-3.7-5.7-.8-11.3-1.8-17.1-2.9-6.8-1.3-11.9-7.3-11.9-14 0-7.1 4.9-12.7 12.2-13.9 2.9-.5 5.7-1 8.6-1.5 2.7-.5 5.4-.9 8.1-1.4 4.9-.8 6.1-1.2 8.1-3.9 1.6 2.6 4.4 3.4 7.1 3.8 6.6.9 13.3 2 19 2.9 6.5 1.1 11.1 6.7 11.2 13.7.1 7.3-4.5 13.2-11 14.3-5.7 1-12 2-19.3 3-2.5.3-5.3 1.1-6.9 3.6"/></svg>