<svg id="Layer_1" data-name="Layer 1" xmlns="http://www.w3.org/2000/svg" viewBox="0 0 96.32 80.9"><defs><style>.cls-1{fill:none}.cls-2{clip-path:url(#clip-path)}.cls-3{fill:#69c4a5}.cls-4{fill:#3f5579}</style><clipPath id="clip-path"><path class="cls-1" d="M0 0h96.32v80.9H0z"/></clipPath></defs><title>auto-icon</title><g class="cls-2"><path class="cls-3" d="M26.71 3.85a3.78 3.78 0 1 1-7.55 0 3.78 3.78 0 1 1 7.55 0m50.92 15.47a2.1 2.1 0 1 1-2.1-2.14 2.12 2.12 0 0 1 2.1 2.14m17.53 17.3a1.19 1.19 0 1 1 1.16-1.19 1.17 1.17 0 0 1-1.16 1.19M1.53 55.32a1.56 1.56 0 0 1 0-3.11 1.56 1.56 0 0 1 0 3.11m88.52-9.75h-5a1.8 1.8 0 0 1-1.78-1.81v-2.13a1 1 0 0 0-1-1h-.08a1 1 0 0 0-1 1v2.12a1.8 1.8 0 0 1-1.78 1.81h-5a1 1 0 0 0-1 1v.09a1 1 0 0 0 1 1h5a1.8 1.8 0 0 1 1.78 1.81v2.12a1 1 0 0 0 1 1h.08a1 1 0 0 0 1-1v-2.04a1.8 1.8 0 0 1 1.78-1.81h5a1 1 0 0 0 1-1v-.13a1 1 0 0 0-1-1M24.17 76.31H21a1.16 1.16 0 0 1-1.15-1.17v-1.37a.66.66 0 0 0-.65-.67h-.06a.66.66 0 0 0-.65.67v1.37a1.16 1.16 0 0 1-1.14 1.17h-3.22a.66.66 0 0 0-.65.67V77a.66.66 0 0 0 .65.67h3.19a1.16 1.16 0 0 1 1.14 1.17v1.37a.66.66 0 0 0 .65.67h.06a.66.66 0 0 0 .65-.67v-1.34A1.16 1.16 0 0 1 21 77.7h3.19a.66.66 0 0 0 .65-.67V77a.66.66 0 0 0-.65-.67M8.2 28.6h-2a.73.73 0 0 1-.72-.74V27a.42.42 0 0 0-.48-.42.42.42 0 0 0-.4.42v.86a.73.73 0 0 1-.72.74h-2a.42.42 0 0 0-.41.42.42.42 0 0 0 .41.42h2a.73.73 0 0 1 .72.74v.86a.42.42 0 0 0 .41.42H5a.42.42 0 0 0 .41-.42v-.86a.73.73 0 0 1 .72-.74h2a.42.42 0 0 0 .41-.42.42.42 0 0 0-.41-.42"/></g><path class="cls-4" d="M52.91 66.16h12.91v1.2H52.91zm-31.01 0h12.91v1.2H21.9zm20.87-4.89h2.18v3.75h6.96v3.63h-16.1v-3.63h6.96v-3.75z"/><g class="cls-2"><path class="cls-4" d="M27.8 28.5a1.93 1.93 0 1 1 1.94-1.93 1.93 1.93 0 0 1-1.94 1.93m27.25-7.58h-28a5.65 5.65 0 1 0 0 11.3H48a2.4 2.4 0 0 1 .1-.23zM27.8 42.12a1.93 1.93 0 1 1 1.94-1.93 1.94 1.94 0 0 1-1.94 1.93m21.74 2.27l4.24-8.47h-3.47a2.57 2.57 0 0 1-2.24-1.32v-.05h-21a5.65 5.65 0 1 0 0 11.29h22.22a2.55 2.55 0 0 1 .25-1.45m11.12 1.44a5.64 5.64 0 0 0 4.06-9.56l-9.56 9.56zM27.8 55.74a1.93 1.93 0 1 1 1.94-1.93 1.94 1.94 0 0 1-1.94 1.93m32.85-7.58H27.06a5.65 5.65 0 1 0 0 11.3h33.6a5.65 5.65 0 1 0 0-11.3"/></g><path class="cls-4" d="M68.59 21.16H57.93l-7.62 12.19h7.62l-6.1 12.18L67.06 30.3h-7.61l9.14-9.14z"/></svg>