<svg id="Layer_1" xmlns="http://www.w3.org/2000/svg" viewBox="0 0 240.3 207.6"><style>.st0{fill:#29edb5}.st1{fill:#a9f8e1}.st2{fill:none;stroke:#fff;stroke-width:3;stroke-linecap:round;stroke-miterlimit:10}</style><path class="st0" d="M67.4 49.5c0 2.8-2.2 5-4.9 5s-4.9-2.2-4.9-5 2.2-5 4.9-5c2.8 0 4.9 2.3 4.9 5M182 112.3c-2 0-3.6-1.6-3.6-3.6s1.6-3.6 3.6-3.6 3.6 1.6 3.6 3.6c-.1 2-1.6 3.6-3.6 3.6m-143.3 8H27.2c-2.3 0-4.1-1.9-4.1-4.2v-5c0-1.3-1.1-2.4-2.4-2.4h-.2c-1.3 0-2.4 1.1-2.4 2.4v5c0 2.3-1.9 4.2-4.1 4.2H2.4c-1.3 0-2.4 1.1-2.4 2.4v.2c0 1.3 1.1 2.4 2.4 2.4H14c2.3 0 4.1 1.9 4.1 4.2v5c0 1.3 1.1 2.4 2.4 2.4h.2c1.3 0 2.4-1.1 2.4-2.4v-5c0-2.3 1.9-4.2 4.1-4.2h11.6c1.3 0 2.4-1.1 2.4-2.4v-.2c-.1-1.3-1.2-2.4-2.5-2.4m200.1-25.9h-7.4c-1.5 0-2.7-1.2-2.7-2.7v-3.2c0-.9-.7-1.6-1.5-1.6h-.2c-.8 0-1.5.7-1.5 1.6v3.2c0 1.5-1.2 2.7-2.7 2.7h-7.4c-.8 0-1.5.7-1.5 1.6 0 .9.7 1.6 1.5 1.6h7.4c1.5 0 2.7 1.2 2.7 2.7v3.2c0 .9.7 1.6 1.5 1.6h.1c.8 0 1.5-.7 1.5-1.6v-3.2c0-1.5 1.2-2.7 2.7-2.7h7.4c.8 0 1.5-.7 1.5-1.6v-.1c.1-.8-.6-1.5-1.4-1.5m-8.5 61.9h-4.7c-.9 0-1.7-.8-1.7-1.7v-2c0-.5-.4-1-1-1h-.1c-.5 0-1 .4-1 1v2c0 .9-.8 1.7-1.7 1.7h-4.7c-.5 0-1 .4-1 1v.1c0 .5.4 1 1 1h4.7c.9 0 1.7.8 1.7 1.7v2c0 .5.4 1 1 1h.1c.5 0 1-.4 1-1v-2c0-.9.8-1.7 1.7-1.7h4.7c.5 0 1-.4 1-1v-.1c0-.6-.5-1-1-1"/><path class="st0" d="M120.1 0c14.8 0 27.6 31.6 34 77.9 16.4 10.6 27.2 28.7 27.2 49.1-17.8-13.5-38.8-21.2-61.2-21.2-22.3 0-43.2 7.7-61 21.1 0-20.4 10.7-38.3 27-48.9 6.3-46.3 19.2-78 34-78"/><path class="st1" d="M114.3 118.3v83.4c0 3.2 2.6 5.9 5.9 5.9 3.2 0 5.9-2.6 5.9-5.9v-83.4c-1.9-.1-3.9-.2-5.9-.2s-4 .1-5.9.2m21.2 63.3c0 3.2 2.6 5.9 5.9 5.9 3.2 0 5.9-2.6 5.9-5.9v-59.3c-3.8-1.2-7.8-2.2-11.7-2.9v62.2zm-42.4 0c0 3.2 2.6 5.9 5.9 5.9s5.9-2.6 5.9-5.9v-62.2c-4 .7-7.9 1.7-11.7 2.9v59.3zm63.6-55.6v35.6c0 3.2 2.6 5.9 5.9 5.9 3.2 0 5.9-2.6 5.9-5.9v-29.3c-3.8-2.4-7.7-4.5-11.8-6.3m-84.9 35.5c0 3.2 2.6 5.9 5.9 5.9 3.2 0 5.9-2.6 5.9-5.9V126c-4 1.8-8 3.9-11.7 6.2v29.3z"/><path class="st1" d="M120.1 0c14.8 0 27.6 31.6 34 77.9 16.4 10.6 27.2 28.7 27.2 49.1-17.8-13.5-38.8-21.2-61.2-21.2-22.3 0-43.2 7.7-61 21.1 0-20.4 10.7-38.3 27-48.9 6.3-46.3 19.2-78 34-78"/><path class="st2" d="M94 79.1C101.4 25.4 114.7 8 120.1 8"/><path class="st0" d="M163.1 60.1c-.7 0-1.3-.3-1.8-.8-1-1-1-2.6 0-3.6l12.2-12.1H165c-1.5 0-2.6-1.6-2.6-3s1.1-3 2.6-3h15.2c1.3 0 2.3 1.3 2.3 2.8v15.2c0 1.5-1.1 2.6-2.5 2.6s-2.5-1.1-2.5-2.6v-8.7L165 59.3c-.4.5-1.2.8-1.9.8zm-10.8-.5c-.7 0-1.2-.3-1.7-.8l-12-12.3V55c0 1.5-1.6 2.6-3 2.6s-3-1.1-3-2.6V40c0-1.4 1.1-2.4 2.6-2.4h15.2c1.5 0 2.6 1.1 2.6 2.5s-1.1 2.5-2.6 2.5h-8.6L154 55.1c1 1 1 2.8 0 3.8-.4.5-1.1.7-1.7.7zm-17.8 30c-1.3 0-2-1.9-2-3.5V70.9c0-1.5 1.1-2.6 2.5-2.6s2.5 1.1 2.5 2.6v8.6l12.3-12.3c.5-.5 1.1-.7 1.8-.7s1.4.3 1.9.8.7 1.2.7 1.9-.3 1.5-.8 2l-12.2 12.5h8.5c1.5 0 2.6 1.6 2.6 3s-1.1 3-2.6 3h-15.2zm29.9 0c-1.5 0-2.6-1.1-2.6-2.5s1.1-2.5 2.6-2.5h8.6l-12.3-12.8c-1-1-1.1-3.1 0-4.1.5-.5 1.1-.8 1.8-.8s1.4.3 1.9.7l12.2 12.2v-8.5c0-1.5 1.6-2.6 3-2.6s3 1.1 3 2.6v15.2c0 1.5-1.6 3.1-2.9 3.1h-15.3z"/></svg>