<svg id="Layer_1" xmlns="http://www.w3.org/2000/svg" viewBox="0 0 233.2 133.4"><style>.st0{fill:#29edb5}.st1{fill:none;stroke:#fff;stroke-width:3;stroke-linecap:round;stroke-miterlimit:10}.st2{fill:#a9f8e1}</style><path class="st0" d="M41.1 27.3c0 5-3.9 9-8.8 9s-8.8-4-8.8-9 3.9-9 8.8-9 8.8 4 8.8 9m160.6 8.9c0 2.8-2.2 5-4.9 5s-4.9-2.2-4.9-5 2.2-5 4.9-5 4.9 2.3 4.9 5m-26.8 80.4c-2 0-3.6-1.6-3.6-3.6s1.6-3.6 3.6-3.6 3.6 1.6 3.6 3.6-1.6 3.6-3.6 3.6m-136.2.2H27.2c-2.3 0-4.1-1.9-4.1-4.2v-5c0-1.3-1.1-2.4-2.4-2.4h-.2c-1.3 0-2.4 1.1-2.4 2.4v5c0 2.3-1.9 4.2-4.1 4.2H2.4c-1.3 0-2.4 1.1-2.4 2.4v.2c0 1.3 1.1 2.4 2.4 2.4H14c2.3 0 4.1 1.9 4.1 4.2v5c0 1.3 1.1 2.4 2.4 2.4h.2c1.3 0 2.4-1.1 2.4-2.4v-5c0-2.3 1.9-4.2 4.1-4.2h11.6c1.3 0 2.4-1.1 2.4-2.4v-.2c-.1-1.4-1.2-2.4-2.5-2.4m193-18.2h-7.4c-1.5 0-2.7-1.2-2.7-2.7v-3.2c0-.9-.7-1.6-1.5-1.6h-.1c-.8 0-1.5.7-1.5 1.6v3.2c0 1.5-1.2 2.7-2.7 2.7h-7.4c-.8 0-1.5.7-1.5 1.6v.1c0 .9.7 1.6 1.5 1.6h7.4c1.5 0 2.7 1.2 2.7 2.7v3.2c0 .9.7 1.6 1.5 1.6h.1c.8 0 1.5-.7 1.5-1.6v-3.2c0-1.5 1.2-2.7 2.7-2.7h7.4c.8 0 1.5-.7 1.5-1.6v-.1c0-.9-.7-1.6-1.5-1.6M148.2 4.7h-4.7c-.9 0-1.7-.8-1.7-1.7V1c0-.5-.4-1-1-1h-.1c-.5 0-1 .4-1 1v2c0 .9-.8 1.7-1.7 1.7h-4.7c-.5 0-1 .4-1 1v.1c0 .5.4 1 1 1h4.7c.9 0 1.7.8 1.7 1.7v2c0 .5.4 1 1 1h.1c.5 0 1-.4 1-1v-2c0-.9.8-1.7 1.7-1.7h4.7c.5 0 1-.4 1-1v-.1c-.1-.6-.5-1-1-1"/><path class="st1" d="M64 57.2c0-19.4 15.7-35.1 35.1-35.1"/><path class="st2" d="M170.7 62.7h-.8v-.8c0-12.3-10-22.3-22.3-22.3-2.9 0-5.7.6-8.3 1.6-6.4-16-22-27.2-40.3-27.2-24 0-43.4 19.4-43.4 43.4 0 2 .2 4 .4 6-12.5 2.9-21.9 14.1-21.9 27.4 0 14.4 10.8 26.6 24.8 28.2.7.1 110.6.1 111.6.1 15.6 0 28.2-12.7 28.2-28.2.2-15.5-12.4-28.2-28-28.2z"/><path class="st2" d="M170.7 62.7h-.8v-.8c0-12.3-10-22.3-22.3-22.3-2.9 0-5.7.6-8.3 1.6-6.4-16-22-27.2-40.3-27.2-24 0-43.4 19.4-43.4 43.4 0 2 .2 4 .4 6-12.5 2.9-21.9 14.1-21.9 27.4 0 14.4 10.8 26.6 24.8 28.2.7.1 110.6.1 111.6.1 15.6 0 28.2-12.7 28.2-28.2.2-15.5-12.4-28.2-28-28.2z"/><path class="st1" d="M42.3 91c0-9.5 6.5-17.6 15.7-19.7l7.2-1.7-1-7.3c-.2-1.7-.3-3.3-.3-4.9C63.9 37.9 79.8 22 99.3 22"/></svg>