<svg id="Layer_1" xmlns="http://www.w3.org/2000/svg" viewBox="0 0 1049 444"><style>.st0{fill:#fbb034}.st1{fill-rule:evenodd;clip-rule:evenodd}.st2{fill:#231f20}.st3{fill:#5a5b5e}.st4{fill:none;stroke:#5a5b5e;stroke-width:4;stroke-miterlimit:10}</style><path class="st0" d="M211.1 116.4L179 105.7V59.2l32.1 9.5zm8.4-47.7l32.1-9.5-.1 46.5-32 10.7V68.7M245 54.2l-29.9-9.3-29.5 9.3 29.6 7.9 29.8-7.9m47 62.2l-32.1-10.7V59.2l32.1 9.5zm8.3-47.7l32.1-9.5-.1 46.5-32 10.7V68.7m25.6-14.5L296 44.9l-29.6 9.3 29.6 7.9 29.9-7.9M89.8 136.7l-32.1-9.6v46.5l32.1 10.8zm8.4 0l32.1-9.6-.1 46.5-32 10.8v-47.7m25.5-14.6l-29.9-9.3-29.5 9.3 29.5 8 29.9-8m47 62.3l-32.1-10.8v-46.5l32.1 9.6zm8.3-47.7l32.1-9.6-.1 46.5-32 10.8v-47.7m25.6-14.6l-29.9-9.3-29.6 9.3 29.6 8 29.9-8m-74.4 130.2l-32-10.7v-46.5l32.1 9.5zm8.4-47.7l32.1-9.5-.1 46.4-32 10.8v-47.7m25.6-14.5l-30-9.3-29.5 9.3 29.6 7.9 29.9-7.9"/><path d="M272.3 211.2h-2.4c-.9 0-2 .6-2.2 1.5l-7.2 25.3-7.1-25.2c-.2-.8-1-1.6-2-1.6h-2.8c-1 0-1.7.8-1.9 1.6l-6.6 25-6.8-25c-.3-.9-1.4-1.5-2.3-1.5h-3.4c-.7 0-1.4.3-1.8.8-.2.3-.3.7-.2 1.1l10.5 37.3c.2.8.9 1.6 1.9 1.6h3.4c.9 0 1.7-.7 1.9-1.6l6.5-24.8 7 24.9c.2.8.9 1.6 1.9 1.6h3.3c.9 0 1.7-.6 1.9-1.6l10.1-37.3c.1-.4 0-.8-.2-1.1-.2-.7-.8-1-1.5-1zm20.5-.3c-12.1 0-17.5 10.7-17.5 20.6 0 12.4 6.8 20.4 17.4 20.4 7.6 0 13.3-3.8 15.8-10.5.1-.4.1-.8-.1-1.2-.2-.4-.7-.8-1.3-.9l-3.4-.6c-.9-.1-1.9.4-2.3 1.2-1.6 3.7-4.6 5.8-8.3 5.9-3.6-.1-6.9-2.2-8.4-5.4-1.2-2.6-1.4-5.2-1.4-7.8h24.2c.5 0 1-.2 1.4-.6.3-.3.5-.7.5-1.1-.1-9.7-4.5-20-16.6-20zm8.7 16.1h-17.8c.4-5 3.7-10.2 9.2-10.4 5.7.2 8.4 5.3 8.6 10.4zm30.4-16.4h-.6c-4 0-7.1 1.7-9.6 5.1V200c0-.9-.9-1.7-1.9-1.7h-3.5c-.9 0-1.9.7-1.9 1.7v49c0 .9.9 1.7 1.9 1.7h1c1 0 1.7-.8 1.9-1.5l1.1-3.5c2.5 3.6 6.3 5.7 10.4 5.7h.6c10.7 0 15.5-10.5 15.5-20.9 0-5.2-1.3-10.1-3.5-13.6-2.4-3.8-6.8-6.3-11.4-6.3zm7.3 21c0 2.3-.4 13.7-8.5 14-2.7-.1-5.4-1.7-7-4.1-1.1-1.8-1.8-4.3-1.9-7.3v-6.7c.1-5.1 3.7-10.8 8.9-11 8.1.3 8.5 12.6 8.5 15.1zm45.9-1.1c-2.3-1.6-5-2.2-7.7-2.7l-5.2-1c-3.8-.6-5.9-1.6-5.9-4.9 0-3.5 3.6-4.9 6.7-4.9 3.8.1 6.6 1.8 8 4.7.3.7 1 1.2 1.8 1.2h.4l3.3-.7c.5-.1 1-.5 1.3-1 .2-.4.3-.8.1-1.2-2-5.8-7.1-8.9-14.7-8.9-6.9 0-14.3 3.1-14.3 11.7 0 5.9 3.7 9.6 11 11.1l5.9 1.1c3.2.6 6.5 1.7 6.5 5.2 0 5.1-5.9 5.6-7.7 5.7-4-.1-8.6-1.9-9.7-5.7-.2-.8-1.3-1.4-2.2-1.2l-3.4.7c-.5.1-1 .4-1.3.9-.2.4-.3.8-.2 1.2 1.8 6.3 7.9 10.2 16.3 10.2h.2c7.6 0 15.6-3.2 15.6-12.3-.3-3.8-1.9-7.1-4.8-9.2zm25.8-19.5c-12.1 0-17.5 10.7-17.5 20.6 0 12.4 6.8 20.4 17.4 20.4 7.6 0 13.3-3.8 15.8-10.5.1-.4.1-.8-.1-1.2-.2-.5-.7-.8-1.3-.9l-3.3-.6c-.8-.1-1.9.3-2.3 1.2-1.6 3.7-4.6 5.8-8.3 5.9-3.6-.1-6.9-2.2-8.4-5.4-1.2-2.6-1.4-5.2-1.4-7.8h24.2c.5 0 1-.2 1.4-.6.3-.3.5-.7.5-1.1-.1-9.7-4.5-20-16.7-20zm8.7 16.1h-17.9c.4-5 3.7-10.2 9.2-10.4 5.9.2 8.6 5.2 8.7 10.4zm30.8-15.7c-.5-.1-.9-.1-1.4-.1-4.1 0-7.4 2.2-9.7 6.4V214c0-.9-.9-1.7-1.9-1.7h-3c-1 0-1.9.8-1.9 1.7v36c0 .9.9 1.7 1.9 1.7h3.5c.9 0 2-.7 2-1.7v-18.1c0-3 .3-5.2 1.7-7.9 2.1-3.8 4.9-5.7 8.7-5.7.9 0 1.8-.8 1.8-1.8v-3.4c0-.8-.7-1.6-1.7-1.7zm37-.7h-2.8c-.9 0-2 .6-2.3 1.5l-9 28.5-9.2-28.4c-.3-.9-1.4-1.6-2.3-1.6h-4c-.7 0-1.4.3-1.8.8-.2.3-.3.7-.2 1.1l12.6 37.5c.2.7.9 1.6 1.9 1.6h4.8c.9 0 1.6-.6 1.9-1.6l12.2-37.5c.1-.4.1-.7-.2-1.1-.1-.4-.8-.8-1.6-.8zm9.2-14.4c-2.6 0-4.7 2.1-4.7 4.7s2.1 4.7 4.7 4.7 4.7-2.1 4.7-4.7c-.1-2.6-2.1-4.7-4.7-4.7zm1.9 14.2h-3.8c-1 0-2 .8-2 1.8v38.2c0 .5.2.9.6 1.3.4.3.9.5 1.3.5h3.8c1 0 2-.8 2-1.7v-38.2c.1-1.1-.8-1.9-1.9-1.9zm35.7 25.9H531c-.9 0-1.6.5-2 1.5-1.2 5-3.8 7.7-7.8 7.8-7.8-.2-8.4-11.1-8.4-14.5 0-6.6 2.3-13.8 8.7-14 3.9.1 6.7 2.9 7.5 7.4.2.9.9 1.6 1.8 1.7h3.4c1-.1 1.8-.9 1.8-1.9-1.2-8.2-6.9-13.5-14.4-13.5h-.6c-11 0-15.9 10.3-15.9 20.5 0 9.4 4.2 20.3 15.9 20.3h.5c7.4 0 13-5.2 14.5-13.6 0-.4-.1-.8-.4-1.1-.2-.3-.7-.6-1.4-.6zM557 211c-12 0-17.5 10.7-17.5 20.6 0 12.4 6.8 20.4 17.4 20.4 7.6 0 13.3-3.8 15.8-10.5.1-.4.1-.8-.1-1.2-.3-.5-.7-.8-1.3-.9l-3.4-.6c-.8-.1-1.9.3-2.3 1.2-1.6 3.7-4.6 5.8-8.3 5.9-3.6-.1-6.9-2.2-8.4-5.4-1.2-2.6-1.4-5.2-1.4-7.8h24.2c.5 0 1-.2 1.4-.6.3-.3.5-.7.5-1.1 0-9.7-4.4-20-16.6-20zm8.7 16.1h-17.8c.4-5 3.6-10.2 9.2-10.4 5.8.2 8.5 5.2 8.6 10.4zm38.3 3.4c-2.3-1.6-5-2.2-7.7-2.7l-5.2-1c-3.7-.6-5.9-1.6-5.9-4.9 0-4.5 5.6-4.9 6.7-4.9 3.8.1 6.6 1.8 8 4.7.3.7 1 1.2 1.8 1.2h.4l3.3-.7c.5-.1 1-.5 1.3-1 .2-.4.3-.8.1-1.2-2-5.8-7.1-8.9-14.7-8.9-6.9 0-14.3 3.1-14.3 11.7 0 5.9 3.7 9.6 11 11.1l5.8 1.1c3.2.6 6.5 1.7 6.5 5.2 0 5.1-5.9 5.6-7.7 5.7-3.7-.1-8.5-1.6-9.7-5.7-.2-.8-1.3-1.4-2.2-1.2l-3.4.7c-.5.1-1 .4-1.3.9-.2.4-.3.8-.2 1.2 1.8 6.3 7.9 10.2 16.3 10.2h.2c7.5 0 15.6-3.2 15.6-12.3-.1-3.8-1.8-7.1-4.7-9.2z"/><path class="st1" d="M448.7 136.9v-8.7c0-1.3 1-2.2 2.2-2.2h38.8c1.2 0 2.2.9 2.2 2.2v7.4c0 1.2-1.1 2.9-2.9 5.5l-20.1 28.8c7.5-.2 15.4.9 22.1 4.8 1.5.9 1.9 2.1 2.1 3.4v9.3c0 1.3-1.4 2.8-2.9 2-11.9-6.3-27.8-7-41 .1-1.3.7-2.8-.7-2.8-2v-8.8c0-1.4 0-3.8 1.5-6l23.3-33.5h-20.3c-1.2-.1-2.2-1-2.2-2.3m-141.5 54.2h-11.8c-1.1-.1-2-.9-2.1-2v-60.7c0-1.2 1-2.2 2.3-2.2h11c1.1.1 2.1.9 2.1 2v7.9h.2c2.9-7.7 8.3-11.2 15.5-11.2 7.4 0 12 3.6 15.3 11.2 2.9-7.7 9.4-11.2 16.3-11.2 5 0 10.3 2 13.6 6.6 3.7 5.1 3 12.5 3 19v38.3c0 1.2-1 2.2-2.3 2.2h-11.8c-1.2-.1-2.1-1-2.1-2.2v-32.2c0-2.6.2-8.9-.3-11.4-.9-4.1-3.5-5.2-6.9-5.2-2.9 0-5.8 1.9-7.1 5-1.2 3.1-1.1 8.2-1.1 11.6v32.2c0 1.2-1 2.2-2.3 2.2H327c-1.2-.1-2.1-1-2.1-2.2v-32.2c0-6.8 1.1-16.7-7.3-16.7-8.5 0-8.1 9.7-8.1 16.7v32.2c0 1.3-1.1 2.3-2.3 2.3m218.1-66.2c17.5 0 27 15.1 27 34.2 0 18.5-10.5 33.2-27 33.2-17.2 0-26.5-15.1-26.5-33.9-.1-18.8 9.4-33.5 26.5-33.5m.1 12.4c-8.7 0-9.3 11.9-9.3 19.3s-.1 23.2 9.1 23.2c9.1 0 9.6-12.8 9.6-20.6 0-5.1-.2-11.2-1.8-16.1-1.2-4.1-3.9-5.8-7.6-5.8zm49.6 53.8h-11.7c-1.2-.1-2.1-1-2.1-2.2v-60.7c.1-1.1 1.1-2 2.3-2h11c1 .1 1.9.8 2.1 1.7v9.3h.2c3.3-8.3 7.9-12.3 16.1-12.3 5.3 0 10.5 1.9 13.8 7.1 3.1 4.9 3.1 13 3.1 18.9v38.2c-.1 1.1-1.1 1.9-2.3 1.9h-11.8c-1.1-.1-2-.9-2.1-1.9v-33c0-6.6.8-16.4-7.4-16.4-2.9 0-5.5 1.9-6.8 4.9-1.7 3.7-1.9 7.4-1.9 11.5v32.7c-.2 1.3-1.3 2.3-2.5 2.3m-157.3-29c0 4.6.1 8.5-2.2 12.5-1.9 3.3-4.9 5.4-8.2 5.4-4.5 0-7.2-3.5-7.2-8.6 0-10.1 9-11.9 17.6-11.9v2.6m11.9 28.8c-.8.7-1.9.7-2.8.3-3.9-3.3-4.6-4.8-6.8-7.9-6.5 6.6-11.1 8.6-19.5 8.6-9.9 0-17.7-6.1-17.7-18.4 0-9.6 5.2-16.1 12.6-19.3 6.4-2.8 15.4-3.3 22.2-4.1v-1.5c0-2.8.2-6.1-1.4-8.6-1.4-2.2-4.2-3.1-6.6-3.1-4.5 0-8.5 2.3-9.5 7.1-.2 1.1-1 2.1-2 2.2l-11.4-1.2c-1-.2-2-1-1.8-2.5 2.6-13.9 15.2-18.1 26.4-18.1 5.7 0 13.2 1.5 17.8 5.9 5.7 5.4 5.2 12.5 5.2 20.4V169c0 5.5 2.3 8 4.5 11 .7 1.1.9 2.3 0 3.1-2.5 2-6.8 5.8-9.2 7.8zM263 162.1c0 4.6.1 8.5-2.2 12.5-1.9 3.3-4.9 5.4-8.2 5.4-4.5 0-7.2-3.5-7.2-8.6 0-10.1 9-11.9 17.6-11.9v2.6m11.9 28.8c-.8.7-1.9.7-2.8.3-3.9-3.3-4.6-4.8-6.8-7.9-6.5 6.6-11.1 8.6-19.4 8.6-9.9 0-17.7-6.1-17.7-18.4 0-9.6 5.2-16.1 12.6-19.3 6.4-2.8 15.3-3.3 22.2-4.1v-1.5c0-2.8.2-6.1-1.4-8.6-1.4-2.2-4.2-3.1-6.6-3.1-4.5 0-8.5 2.3-9.5 7.1-.2 1.1-1 2.1-2 2.2l-11.4-1.2c-1-.2-2-1-1.8-2.5 2.6-13.9 15.2-18.1 26.4-18.1 5.7 0 13.3 1.5 17.8 5.9 5.7 5.4 5.2 12.5 5.2 20.4V169c0 5.5 2.3 8 4.4 11 .8 1.1.9 2.3 0 3.1-2.5 2-6.8 5.8-9.2 7.8z"/><path class="st2" d="M704.6 201h4.7l38.4 52h.2v-52h3.7v56.7h-4.4l-38.6-52.4h-.2v52.4h-3.7V201zm57.1 36.7c-.2 9.6 5.3 18.3 16.1 18.3 8.3 0 14.1-4.6 15.7-12.2h3.2c-1.7 9.5-8.5 14.8-18.9 14.8-12.8 0-19.5-9.4-19.3-20.7-.2-11.2 6.1-22.1 19.3-22.1 13.7 0 19.8 10.1 19.2 21.8h-35.3zm32.1-2.6c-.2-8.6-6-16.5-16-16.5-9.7 0-15.4 8.4-16.1 16.5h32.1zm26.5-15.6h-9.5V248c0 6.6 3.3 7.2 9.4 7.1v2.6c-6.6.4-13-.5-12.7-9.7v-28.5h-8.1v-2.6h8.1v-12.7h3.2v12.7h9.5v2.6zm17.2 34.8h.2l11.9-37.3h4.3l12 37.3h.2l12.3-37.3h3.6l-14 40.8h-4l-12-37h-.2l-12.1 37h-4.1L821.7 217h3.5l12.3 37.3zm65.6-38.3c12.9 0 20.1 9.8 20.1 21.4 0 11.6-7.2 21.4-20.1 21.4-12.8 0-20.1-9.8-20.1-21.4 0-11.7 7.3-21.4 20.1-21.4zm0 40.1c11 0 16.8-9 16.8-18.7 0-9.8-5.9-18.7-16.8-18.7-11 0-16.8 9-16.8 18.7s5.8 18.7 16.8 18.7zm30.5-30.1h.3c1.7-5.3 8.9-9.6 16.8-9.3v3c-3.4-.4-8.2.4-12.1 4-3.2 3.1-4.6 5.6-4.9 11.8v22.3h-3.2V217h3.2v9zm20.7-25h3.2v37.6l27-21.7h4.7L970 232.2l20.5 25.6h-4.4l-18.6-23.3-10 7.9v15.4h-3.2V201zm-249.2-74.1h25.5c6.8 0 17.4 2.3 17.4 15.6 0 9.8-6.9 15.3-18.8 15.3h-20.4v24.9h-3.7v-55.8zm3.7 28h21c10.8 0 14.5-6.6 14.5-12.4 0-4.1-2-12.6-14-12.6h-21.5v25zm77.1 20.4c0 2.3 0 4.8 2.8 4.8.6 0 1.3-.1 2.3-.2v2.5c-.9.2-1.8.3-2.6.3-5 0-5.8-2.6-5.8-5.9v-2.1h-.2c-2 4.8-7.8 8.9-16 8.9-8.1 0-14.4-2.9-14.4-11.3 0-9.4 8.7-11.3 15.8-11.9 14.2-.9 14.8-1.8 14.8-8.4 0-1.8-2.2-7.9-12-7.9-7.7 0-12.8 3.8-13.2 10.7h-3.2c.4-8.8 6.3-13.3 16.4-13.3 7.5 0 15.1 2.2 15.1 10.5v23.3zm-3.2-15.4c-2.5 2.7-9.4 2.3-15.6 3.1-7.5.8-11.8 3.3-11.8 9.3 0 4.8 3.8 8.8 11.3 8.8 14.5 0 16.1-11.6 16.1-13.7v-7.5zm16.7-8.4h.3c1.7-5.2 8.7-9.5 16.5-9.1v3c-3.4-.4-8 .4-11.9 3.9-3.2 3-4.5 5.6-4.9 11.6v22h-3.2v-40.2h3.2v8.8zm38.2-6.3h-9.4v28.1c0 6.5 3.3 7.1 9.3 7v2.6c-6.5.4-12.8-.5-12.5-9.5v-28.1h-8v-2.6h8v-12.5h3.2v12.5h9.4v2.5zm6-2.6h3.2v8.6h.2c2.2-6 8.7-9.5 15.4-9.5 15.2 0 15.3 11.3 15.3 16.3v24.9h-3.2v-25.4c0-4.1-.5-13.1-12.2-13.1-9.6 0-15.5 7-15.5 16.8v21.7h-3.2v-40.3zm44.9 20.5c-.2 9.5 5.2 18.1 15.8 18.1 8.1 0 13.9-4.5 15.4-12h3.2c-1.7 9.4-8.4 14.5-18.6 14.5-12.6 0-19.2-9.2-19-20.3-.2-11 6-21.7 19-21.7 13.5 0 19.5 9.9 18.9 21.4h-34.7zm31.6-2.6c-.2-8.4-5.9-16.3-15.7-16.3-9.5 0-15.2 8.3-15.8 16.3h31.5zm14-9h.3c1.7-5.2 8.7-9.5 16.5-9.1v3c-3.4-.4-8 .4-11.9 3.9-3.2 3-4.5 5.6-4.9 11.6v22h-3.2v-40.2h3.2v8.8zM658.3 84.2h3.5v218.5h-3.5z"/><path class="st3" d="M138.6 353.2l13.1 33.6h-4.9l-3.7-10.1h-14.2l-3.8 10.1h-4.6l13.1-33.6h5zm3.1 19.7l-5.6-15.7h-.1l-5.7 15.7h11.4zm24.8-19.7c5.2 0 9.1 1.3 11.9 3.9 2.8 2.6 4.2 6.6 4.2 12 0 2.8-.3 5.3-.9 7.5-.6 2.2-1.6 4-2.9 5.5-1.3 1.5-3 2.6-5 3.4-2 .8-4.4 1.2-7.2 1.2H155v-33.6h11.5zm.4 29.8c.5 0 1.1 0 1.9-.1.8-.1 1.6-.3 2.4-.6.8-.3 1.7-.7 2.5-1.3.8-.6 1.6-1.3 2.2-2.3.7-1 1.2-2.2 1.6-3.6.4-1.5.6-3.2.6-5.3 0-2-.2-3.8-.6-5.4-.4-1.6-1-2.9-1.9-4-.9-1.1-2-2-3.5-2.5-1.4-.6-3.1-.9-5.2-.9h-7.5v26h7.5zm29.3 3.8l-11.8-33.6h4.8l9.6 29.1h.1l9.7-29.1h4.7l-11.9 33.6h-5.2zm32.5-33.6l13.1 33.6h-4.9l-3.7-10.1H219l-3.8 10.1h-4.6l13.1-33.6h5zm3.1 19.7l-5.6-15.7h-.1l-5.7 15.7h11.4zm18-19.7l17.7 27.2h.1v-27.2h4.2v33.6h-4.9l-17.5-26.9h-.1v26.9H245v-33.6h4.8zm49.5 4.8c-1.7-1.2-3.7-1.8-6.1-1.8-2 0-3.7.4-5.1 1.1-1.4.8-2.6 1.8-3.5 3-.9 1.3-1.6 2.7-2 4.3-.4 1.6-.7 3.3-.7 5.1 0 1.9.2 3.7.7 5.4.4 1.7 1.1 3.2 2 4.5.9 1.3 2.1 2.3 3.5 3 1.4.8 3.2 1.1 5.2 1.1 1.5 0 2.8-.2 3.9-.7 1.1-.5 2.1-1.2 3-2 .8-.9 1.5-1.9 2-3.1.5-1.2.8-2.5.8-3.9h4.5c-.4 4.2-1.9 7.5-4.4 9.9-2.5 2.4-5.9 3.5-10.2 3.5-2.6 0-4.9-.4-6.8-1.3-1.9-.9-3.6-2.1-4.8-3.7-1.3-1.6-2.2-3.4-2.9-5.5-.6-2.1-1-4.4-1-6.9 0-2.4.3-4.7 1-6.9.7-2.1 1.7-4 3-5.6 1.3-1.6 3-2.9 5-3.8 2-.9 4.3-1.4 6.8-1.4 1.8 0 3.4.2 5 .7 1.6.5 3 1.2 4.2 2.1 1.2.9 2.2 2 3.1 3.4.8 1.4 1.3 2.9 1.6 4.7h-4.5c-.5-2.3-1.6-4-3.3-5.2zm36.8-4.8v3.8h-18.7v10.7h17.4v3.8h-17.4V383h18.8v3.8h-23.3v-33.6h23.2zm17.1 0c5.2 0 9.1 1.3 11.9 3.9 2.8 2.6 4.2 6.6 4.2 12 0 2.8-.3 5.3-.9 7.5-.6 2.2-1.6 4-2.9 5.5-1.3 1.5-3 2.6-5 3.4-2 .8-4.4 1.2-7.2 1.2h-11.5v-33.6h11.4zm.3 29.8c.5 0 1.1 0 1.9-.1.8-.1 1.6-.3 2.4-.6.8-.3 1.7-.7 2.5-1.3.8-.6 1.6-1.3 2.2-2.3.7-1 1.2-2.2 1.6-3.6.4-1.5.6-3.2.6-5.3 0-2-.2-3.8-.6-5.4-.4-1.6-1-2.9-1.9-4-.9-1.1-2-2-3.5-2.5-1.4-.6-3.1-.9-5.2-.9H346v26h7.5zm30.7-26v-3.8H411v3.8h-11.2v29.8h-4.5V357h-11.1zm53.8-3.8v3.8h-18.7v10.7h17.4v3.8h-17.4V383h18.8v3.8h-23.3v-33.6H438zm25.8 4.8c-1.7-1.2-3.7-1.8-6.1-1.8-2 0-3.7.4-5.1 1.1-1.4.8-2.6 1.8-3.5 3-.9 1.3-1.6 2.7-2 4.3-.4 1.6-.7 3.3-.7 5.1 0 1.9.2 3.7.7 5.4.4 1.7 1.1 3.2 2 4.5.9 1.3 2.1 2.3 3.5 3 1.4.8 3.2 1.1 5.2 1.1 1.5 0 2.8-.2 3.9-.7 1.1-.5 2.1-1.2 3-2 .8-.9 1.5-1.9 2-3.1.5-1.2.8-2.5.8-3.9h4.5c-.4 4.2-1.9 7.5-4.4 9.9-2.5 2.4-5.9 3.5-10.2 3.5-2.6 0-4.9-.4-6.8-1.3-1.9-.9-3.6-2.1-4.8-3.7-1.3-1.6-2.2-3.4-2.9-5.5-.6-2.1-1-4.4-1-6.9 0-2.4.3-4.7 1-6.9.7-2.1 1.7-4 3-5.6 1.3-1.6 3-2.9 5-3.8 2-.9 4.3-1.4 6.8-1.4 1.8 0 3.4.2 5 .7 1.6.5 3 1.2 4.2 2.1 1.2.9 2.2 2 3.1 3.4.8 1.4 1.3 2.9 1.6 4.7h-4.5c-.5-2.3-1.6-4-3.3-5.2zm18.1-4.8v14.4h17.7v-14.4h4.5v33.6h-4.5v-15.4h-17.7v15.4h-4.5v-33.6h4.5zm34.2 0l17.7 27.2h.1v-27.2h4.2v33.6h-4.9l-17.5-26.9h-.1v26.9h-4.2v-33.6h4.7zm28.3 10.2c.7-2.1 1.7-4 3-5.6 1.3-1.6 3-2.9 5-3.9s4.3-1.5 7-1.5 5 .5 7 1.5 3.7 2.3 5 3.9c1.3 1.6 2.4 3.5 3 5.6.7 2.1 1 4.3 1 6.6s-.3 4.5-1 6.6c-.7 2.1-1.7 4-3 5.6-1.3 1.6-3 2.9-5 3.9s-4.3 1.4-7 1.4-5-.5-7-1.4c-2-1-3.7-2.2-5-3.9-1.3-1.6-2.4-3.5-3-5.6-.7-2.1-1-4.3-1-6.6s.4-4.5 1-6.6zm4.1 11.6c.4 1.6 1.1 3.1 2.1 4.4.9 1.3 2.1 2.4 3.6 3.2 1.5.8 3.2 1.2 5.3 1.2 2 0 3.8-.4 5.3-1.2 1.5-.8 2.7-1.9 3.6-3.2.9-1.3 1.6-2.8 2.1-4.4.4-1.6.7-3.3.7-5 0-1.7-.2-3.4-.7-5-.4-1.6-1.1-3.1-2.1-4.4-.9-1.3-2.1-2.4-3.6-3.2-1.5-.8-3.2-1.2-5.3-1.2-2 0-3.8.4-5.3 1.2s-2.7 1.9-3.6 3.2c-.9 1.3-1.6 2.8-2.1 4.4-.4 1.6-.7 3.3-.7 5 .1 1.7.3 3.4.7 5zm37-21.8V383h17.8v3.8H581v-33.6h4.5zm20.8 10.2c.7-2.1 1.7-4 3-5.6 1.3-1.6 3-2.9 5-3.9s4.3-1.5 7-1.5 5 .5 7 1.5 3.7 2.3 5 3.9c1.3 1.6 2.4 3.5 3 5.6.7 2.1 1 4.3 1 6.6s-.3 4.5-1 6.6c-.7 2.1-1.7 4-3 5.6-1.3 1.6-3 2.9-5 3.9s-4.3 1.4-7 1.4-5-.5-7-1.4c-2-1-3.7-2.2-5-3.9-1.3-1.6-2.4-3.5-3-5.6-.7-2.1-1-4.3-1-6.6s.3-4.5 1-6.6zm4.1 11.6c.4 1.6 1.1 3.1 2.1 4.4.9 1.3 2.1 2.4 3.6 3.2 1.5.8 3.2 1.2 5.3 1.2 2 0 3.8-.4 5.3-1.2 1.5-.8 2.7-1.9 3.6-3.2.9-1.3 1.6-2.8 2.1-4.4.4-1.6.7-3.3.7-5 0-1.7-.2-3.4-.7-5-.4-1.6-1.1-3.1-2.1-4.4-.9-1.3-2.1-2.4-3.6-3.2-1.5-.8-3.2-1.2-5.3-1.2-2 0-3.8.4-5.3 1.2-1.5.8-2.7 1.9-3.6 3.2-.9 1.3-1.6 2.8-2.1 4.4-.4 1.6-.7 3.3-.7 5 0 1.7.3 3.4.7 5zm52.7 11.4c-1.9.8-3.9 1.2-5.9 1.2-2.5 0-4.7-.5-6.7-1.4-2-.9-3.7-2.2-5-3.7-1.4-1.6-2.4-3.4-3.1-5.4-.7-2-1.1-4.2-1.1-6.3 0-2.4.3-4.8 1-7s1.7-4.1 3-5.8c1.3-1.7 3-3 5-4s4.3-1.5 7-1.5c1.8 0 3.5.2 5.1.6 1.6.4 3.1 1.1 4.3 2 1.3.9 2.3 2.1 3.2 3.5.9 1.4 1.4 3.1 1.8 5.1h-4.5c-.2-1.3-.6-2.4-1.2-3.3-.6-.9-1.3-1.7-2.2-2.3-.9-.6-1.9-1-3-1.3-1.1-.3-2.3-.4-3.5-.4-2 0-3.8.4-5.2 1.2-1.5.8-2.6 1.9-3.6 3.2-.9 1.3-1.6 2.9-2 4.6-.4 1.7-.7 3.5-.7 5.2 0 1.8.3 3.4.8 5.1.5 1.6 1.2 3 2.2 4.3 1 1.2 2.2 2.2 3.6 3 1.4.7 3.1 1.1 5 1.1 1.8 0 3.3-.3 4.7-.8 1.3-.6 2.5-1.3 3.4-2.3.9-1 1.6-2.1 2.1-3.5.5-1.3.7-2.8.6-4.3h-10.7v-3.8H672v17.7h-2.8l-1.2-4.2c-1.3 1.4-3 2.7-4.9 3.5zm29.3.4h-4.5v-13.7l-13-19.8h5.3l10.1 16 9.8-16h5.1l-12.8 19.8v13.7zm44.4-33.6c3.4 0 5.9.9 7.7 2.6 1.7 1.7 2.6 4.2 2.6 7.3 0 3.1-.9 5.6-2.6 7.3-1.7 1.8-4.3 2.6-7.7 2.6h-10.2v13.7h-4.5v-33.6h14.7zm-1.5 16.1c2.5 0 4.4-.5 5.6-1.6 1.2-1.1 1.8-2.6 1.8-4.6 0-2-.6-3.5-1.8-4.6-1.2-1-3-1.6-5.6-1.6h-8.7v12.3h8.7zm27.8-16.1l13.1 33.6h-4.9l-3.7-10.1h-14.2l-3.8 10.1H745l13.1-33.6h5zm3.1 19.7l-5.6-15.7h-.1l-5.7 15.7h11.4zm29.1-19.7c3.2 0 5.7.8 7.5 2.4 1.8 1.6 2.7 3.7 2.7 6.4 0 2-.5 3.8-1.4 5.4-.9 1.5-2.4 2.6-4.4 3.1v.1c1 .2 1.8.5 2.4.9.6.4 1.1 1 1.5 1.6.4.6.6 1.3.8 2 .2.8.3 1.5.4 2.4.1.8.1 1.6.1 2.5 0 .8.1 1.7.2 2.5s.3 1.6.5 2.3c.2.7.6 1.4 1.1 2h-5c-.3-.3-.5-.8-.6-1.4-.1-.6-.2-1.3-.2-2s-.1-1.5-.1-2.4c0-.8-.1-1.7-.3-2.5-.1-.8-.3-1.6-.5-2.3-.2-.7-.5-1.4-.9-1.9s-.9-1-1.6-1.3-1.5-.5-2.6-.5H784v14.3h-4.5v-33.6h15.8zm.9 15.2c.9-.2 1.8-.5 2.5-.9.7-.5 1.3-1.1 1.7-1.8.4-.8.6-1.8.6-3 0-1.7-.5-3.1-1.4-4.1-.9-1.1-2.5-1.6-4.6-1.6h-11v11.7h9.3c1 0 2-.1 2.9-.3zm11.1-11.4v-3.8h26.8v3.8h-11.2v29.8h-4.5V357h-11.1zm35.2-3.8l17.7 27.2h.1v-27.2h4.2v33.6h-4.9l-17.5-26.9h-.1v26.9h-4.2v-33.6h4.7zm52.4 0v3.8h-18.7v10.7h17.4v3.8h-17.4V383H895v3.8h-23.3v-33.6h23.2zm21.4 0c3.2 0 5.7.8 7.5 2.4 1.8 1.6 2.7 3.7 2.7 6.4 0 2-.5 3.8-1.4 5.4-.9 1.5-2.4 2.6-4.4 3.1v.1c1 .2 1.8.5 2.4.9.6.4 1.1 1 1.5 1.6.4.6.6 1.3.8 2 .2.8.3 1.5.4 2.4.1.8.1 1.6.1 2.5s.1 1.7.2 2.5.3 1.6.5 2.3c.2.7.6 1.4 1.1 2h-5c-.3-.3-.5-.8-.6-1.4-.1-.6-.2-1.3-.2-2s-.1-1.5-.1-2.4c0-.8-.1-1.7-.3-2.5-.1-.8-.3-1.6-.5-2.3-.2-.7-.5-1.4-.9-1.9s-.9-1-1.6-1.3-1.5-.5-2.6-.5H905v14.3h-4.5v-33.6h15.8zm.9 15.2c.9-.2 1.8-.5 2.5-.9.7-.5 1.3-1.1 1.7-1.8.4-.8.6-1.8.6-3 0-1.7-.5-3.1-1.4-4.1-.9-1.1-2.5-1.6-4.6-1.6h-11.1v11.7h9.3c1.1 0 2.1-.1 3-.3z"/><path class="st4" d="M1047 20c0-9.9-8.1-18-18-18H20C10.1 2 2 10.1 2 20v404c0 9.9 8.1 18 18 18h1009c9.9 0 18-8.1 18-18V20z"/></svg>