<svg id="Layer_1" xmlns="http://www.w3.org/2000/svg" viewBox="0 0 95.2 77.1"><style>.st0{fill:#69c4a5}.st1{fill:#3f5579}</style><path class="st0" d="M95.2 41.5c0 2.1-1.7 3.9-3.8 3.9-2.1 0-3.8-1.7-3.8-3.9 0-2.1 1.7-3.9 3.8-3.9 2.1.1 3.8 1.8 3.8 3.9m-30-29.9c0 1.2-.9 2.1-2.1 2.1-1.2 0-2.1-1-2.1-2.1 0-1.2.9-2.1 2.1-2.1 1.1 0 2.1.9 2.1 2.1M16.5 45.4c-.6 0-1.2-.5-1.2-1.2s.5-1.2 1.2-1.2c.6 0 1.2.5 1.2 1.2-.1.6-.6 1.2-1.2 1.2M21 3.1c-.8 0-1.5-.7-1.5-1.6S20.2 0 21 0s1.5.7 1.5 1.6-.6 1.5-1.5 1.5M16.6 25h-5c-1 0-1.8-.8-1.8-1.8V21c0-.6-.5-1-1-1-.6 0-1 .5-1 1v2.1C7.8 24.2 7 25 6 25H1c-.6 0-1 .5-1 1v.1c0 .6.5 1 1 1h5c1 0 1.8.8 1.8 1.8V31c0 .6.5 1 1 1h.1c.6 0 1-.5 1-1v-2c0-1 .8-1.8 1.8-1.8h5c.6 0 1-.5 1-1V26c-.1-.6-.5-1-1.1-1m74-11.5h-3.2c-.6 0-1.1-.5-1.1-1.2V11c0-.4-.3-.7-.7-.7h-.1c-.4 0-.7.3-.7.7v1.4c0 .6-.5 1.2-1.1 1.2h-3.2c-.4 0-.7.3-.7.7v.1c0 .4.3.7.7.7h3.2c.6 0 1.1.5 1.1 1.2v1.4c0 .4.3.7.7.7h.1c.4 0 .7-.3.7-.7V16c0-.6.5-1.2 1.1-1.2h3.2c.4 0 .7-.3.7-.7V14c0-.2-.3-.5-.7-.5m3.8 60.7h-2c-.4 0-.7-.3-.7-.7v-.9c0-.2-.2-.4-.4-.4s-.4.2-.4.4v.9c0 .4-.3.7-.7.7h-2c-.2 0-.4.2-.4.4s.2.4.4.4h2c.4 0 .7.3.7.7v.9c0 .2.2.4.4.4s.4-.2.4-.4v-.9c0-.4.3-.7.7-.7h2c.2 0 .4-.2.4-.4s-.1-.4-.4-.4"/><path class="st1" d="M77.3 64.2h-3.6v-3.6h3.6v3.6zm-9.4.2c-1.1 0-2-.9-2-2s.9-2 2-2 2 .9 2 2-.9 2-2 2m-7.9-.6H28.2c-.7 0-1.3-.6-1.3-1.3 0-.7.6-1.3 1.3-1.3H60c.7 0 1.3.6 1.3 1.3 0 .7-.6 1.3-1.3 1.3m16.2-7.4H26.9c-3.3 0-5.9 2.7-5.9 6.1 0 3.4 2.7 6.1 5.9 6.1h49.3c3.3 0 5.9-2.7 5.9-6.1.1-3.3-2.6-6.1-5.9-6.1m-1-28.3c-1.4-4.8-5.1-6.9-8.9-6.9H46.4v8.9h4.5s1.4 0 .8 1.3l-7.3 9.7s-1.1 1.6-2.4-.1l-7.1-9.8c-.3-1.2.8-1.2.8-1.2h4.6v-8.9h-2.9c-4.5 0-8.2 2.3-9.4 6.9l-6.9 28c1.5-1.4 3.6-2.3 5.8-2.3h34v-8.8h-4.5s-1.4 0-.8-1.3l7.3-9.7s1.1-1.6 2.4.1l7.1 9.8c.3 1.2-.8 1.2-.8 1.2H67v8.8h9.2c2.2 0 4.3.9 5.8 2.3l-6.8-28zM39.8 16.4h6.6v2.8h-6.6zm0-4.8h6.6v2.8h-6.6z"/></svg>