<svg id="Layer_1" xmlns="http://www.w3.org/2000/svg" xmlns:xlink="http://www.w3.org/1999/xlink" viewBox="0 0 260.4 178.1"><style>.st0{fill:#a9f8e1}.st0,.st1{clip-path:url(#SVGID_2_)}.st2{fill:#29edb5}.st3,.st4{fill:#a9f8e1}.st4,.st5{clip-path:url(#SVGID_4_)}.st6{fill:none;stroke:#fff;stroke-width:3;stroke-linecap:round;stroke-miterlimit:10}</style><defs><circle id="SVGID_1_" cx="120.3" cy="95.1" r="81.3"/></defs><clipPath id="SVGID_2_"><use xlink:href="#SVGID_1_" overflow="visible"/></clipPath><circle class="st0" cx="120.3" cy="95.1" r="81.3"/><g class="st1"><path class="st2" d="M24.2 46.8h106.7v17.7H24.2z"/><circle class="st2" cx="130.9" cy="55.7" r="8.9"/></g><g class="st1"><path class="st2" d="M27.9 81.3h103V99h-103z"/><circle class="st2" cx="130.9" cy="90.1" r="8.9"/></g><g class="st1"><path class="st2" d="M31.2 64H111v17.7H31.2z"/><circle class="st2" cx="111" cy="72.9" r="8.9"/></g><g class="st1"><path transform="rotate(-180 157.863 72.87)" class="st3" d="M118 64h79.8v17.7H118z"/><circle class="st3" cx="118" cy="72.9" r="8.9"/></g><g class="st1"><path transform="rotate(-180 211.612 155.848)" class="st2" d="M171.7 147h79.8v17.7h-79.8z"/><circle class="st2" cx="171.7" cy="155.8" r="8.9"/><path transform="rotate(-180 188.422 121.4)" class="st2" d="M160.7 112.5h55.5v17.7h-55.5z"/><circle class="st2" cx="160.7" cy="121.4" r="8.9"/><circle class="st2" cx="216" cy="121.4" r="8.9"/><path transform="rotate(-180 220.54 138.677)" class="st2" d="M180.6 129.8h79.8v17.7h-79.8z"/><circle class="st2" cx="180.6" cy="138.7" r="8.9"/><path class="st3" d="M93.8 129.8h79.8v17.7H93.8z"/><circle class="st3" cx="173.6" cy="138.7" r="8.9"/></g><g class="st1"><path transform="rotate(-180 207.005 43.31)" class="st2" d="M167.1 34.4h79.8v17.7h-79.8z"/><circle class="st2" cx="167.1" cy="43.3" r="8.9"/><path transform="rotate(-180 183.815 8.861)" class="st2" d="M156.1 0h55.5v17.7h-55.5z"/><circle class="st2" cx="156.1" cy="8.9" r="8.9"/><circle class="st2" cx="211.4" cy="8.9" r="8.9"/><path transform="rotate(-180 215.934 26.138)" class="st2" d="M176 17.3h79.8V35H176z"/><circle class="st2" cx="176" cy="26.1" r="8.9"/><path class="st3" d="M151.3 17.3H169V35h-17.7z"/><circle class="st3" cx="169" cy="26.1" r="8.9"/></g><g class="st1"><path class="st2" d="M26.3 115.5h79.8v17.7H26.3z"/><circle class="st2" cx="106.1" cy="124.3" r="8.9"/><path class="st2" d="M15.5 98.2h79.8v17.7H15.5z"/><circle class="st2" cx="95.3" cy="107.1" r="8.9"/><path transform="rotate(-180 122.206 107.062)" class="st3" d="M102.3 98.2h39.9v17.7h-39.9z"/><circle class="st3" cx="102.3" cy="107.1" r="8.9"/><path class="st3" d="M1.9 98.2h39.9v17.7H1.9z"/><circle class="st3" cx="41.8" cy="107.1" r="8.9"/></g><defs><circle id="SVGID_3_" cx="120.3" cy="95.1" r="81.3"/></defs><clipPath id="SVGID_4_"><use xlink:href="#SVGID_3_" overflow="visible"/></clipPath><circle class="st4" cx="120.3" cy="95.1" r="81.3"/><g class="st5"><path transform="rotate(-180 157.863 72.87)" class="st3" d="M118 64h79.8v17.7H118z"/><circle class="st3" cx="118" cy="72.9" r="8.9"/></g><path class="st2" d="M38.4 49.2c0 5-3.9 9-8.8 9s-8.8-4-8.8-9 3.9-9 8.8-9c4.9.1 8.8 4.1 8.8 9m186.3 1.3c0 2.8-2.2 5-4.9 5s-4.9-2.2-4.9-5 2.2-5 4.9-5 4.9 2.2 4.9 5m-186 111H27.2c-2.3 0-4.1-1.9-4.1-4.2v-5c0-1.3-1.1-2.4-2.4-2.4h-.2c-1.3 0-2.4 1.1-2.4 2.4v5c0 2.3-1.9 4.2-4.1 4.2H2.4c-1.3 0-2.4 1.1-2.4 2.4v.2c0 1.3 1.1 2.4 2.4 2.4H14c2.3 0 4.1 1.9 4.1 4.2v5c0 1.3 1.1 2.4 2.4 2.4h.2c1.3 0 2.4-1.1 2.4-2.4v-5c0-2.3 1.9-4.2 4.1-4.2h11.6c1.3 0 2.4-1.1 2.4-2.4v-.2c-.1-1.3-1.2-2.4-2.5-2.4m200.3-5.3h-7.4c-1.5 0-2.7-1.2-2.7-2.7v-3.2c0-.9-.7-1.6-1.5-1.6h-.1c-.8 0-1.5.7-1.5 1.6v3.2c0 1.5-1.2 2.7-2.7 2.7h-7.4c-.8 0-1.5.7-1.5 1.6v.1c0 .9.7 1.6 1.5 1.6h7.4c1.5 0 2.7 1.2 2.7 2.7v3.2c0 .9.7 1.6 1.5 1.6h.1c.8 0 1.5-.7 1.5-1.6v-3.2c0-1.5 1.2-2.7 2.7-2.7h7.4c.8 0 1.5-.7 1.5-1.6v-.1c0-.9-.6-1.6-1.5-1.6M208.8 16.8h-4.7c-.9 0-1.7-.8-1.7-1.7v-2c0-.5-.4-1-1-1h-.1c-.5 0-1 .4-1 1v2c0 .9-.8 1.7-1.7 1.7H194c-.5 0-1 .4-1 1v.1c0 .5.4 1 1 1h4.7c.9 0 1.7.8 1.7 1.7v2c0 .5.4 1 1 1h.1c.5 0 1-.4 1-1v-2c0-.9.8-1.7 1.7-1.7h4.7c.5 0 1-.4 1-1v-.1c-.1-.6-.6-1-1.1-1"/><path class="st6" d="M187.8 105.7h30m-149 40h41"/><path class="st2" d="M160.3 112.2c-5 0-9 4-9 9s4 9 9 9h14c5 0 9 4 9 9s-4 9-9 9h-3c-5 0-9 3.8-9 8.8 0 2.4 1 4.5 2.6 6.2 6.5-4.3 12.3-9.5 17.3-15.3 4.6-5.4 8.6-11.3 11.6-17.8 2.7-5.7 4.7-11.8 6-17.8h-39.5zm13.2-78h-6.2c-5 0-9 4-9 9s4 9 9 9H189c-4.3-7-9.5-13-15.5-18z"/><path class="st3" d="M53.3 110.2c0-5-4-9-9-9h-5.1c.4 6 1.5 12 3.3 18h1.8c5 0 9-4 9-9z"/><path class="st2" d="M123.3 128.2c0-5-4-9-9-9h-24c-5 0-9-4-9-9s4-9 9-9h40c5 0 9-4 9-9s-4-9-9-9h-15c-5 0-9-4-9-9s4-9 9-9h10c5 0 9-4 9-9s-4-9-9-9H55c-10 13-16 30.2-16 48.4 0 1.9.1 3.6.2 5.6h5.1c5 0 9 4 9 9s-4 9-9 9h-1.8c1.9 6 4.6 12 8 18h63.8c5 0 9-4 9-9z"/><path class="st6" d="M51.8 39.7h74"/><path class="st2" d="M123.3 128.2c0-5-4-9-9-9h-24c-5 0-9-4-9-9s4-9 9-9h40c5 0 9-4 9-9s-4-9-9-9h-15c-5 0-9-4-9-9s4-9 9-9h10c5 0 9-4 9-9s-4-9-9-9H55c-10 13-16 30.2-16 48.4 0 1.9.1 3.6.2 5.6h5.1c5 0 9 4 9 9s-4 9-9 9h-1.8c1.9 6 4.6 12 8 18h63.8c5 0 9-4 9-9z"/></svg>