<svg id="Layer_1" xmlns="http://www.w3.org/2000/svg" viewBox="0 0 94.3 82.5"><style>.st0{fill:#69c4a5}.st1{fill:#3f5579}</style><path class="st0" d="M24.7 3.9c0 2.1-1.7 3.9-3.8 3.9-2.1 0-3.8-1.7-3.8-3.9 0-2.1 1.7-3.9 3.8-3.9 2.1 0 3.8 1.7 3.8 3.9m61.4 55.4c0 1.2-.9 2.1-2.1 2.1-1.2 0-2.1-1-2.1-2.1s.9-2.1 2.1-2.1c1.1 0 2.1.9 2.1 2.1m7-22.7c-.6 0-1.2-.5-1.2-1.2s.5-1.2 1.2-1.2c.6 0 1.2.5 1.2 1.2s-.5 1.2-1.2 1.2m-84.3 42c-.8 0-1.5-.7-1.5-1.6 0-.9.7-1.6 1.5-1.6s1.5.7 1.5 1.6c0 .9-.7 1.6-1.5 1.6M60.5 8.3h-4.2c-.8 0-1.5-.7-1.5-1.5V4.9c0-.5-.4-.9-.9-.9h-.1c-.5 0-.9.4-.9.9v1.8c0 .9-.7 1.5-1.5 1.5h-4.2c-.5 0-.9.4-.9.9v.1c0 .5.4.9.9.9h4.2c.8 0 1.5.7 1.5 1.5v1.8c0 .5.4.9.9.9h.1c.5 0 .9-.4.9-.9v-1.8c0-.9.7-1.5 1.5-1.5h4.2c.5 0 .9-.4.9-.9-.1-.5-.5-.9-.9-.9m10.9 69.6h-3.2c-.6 0-1.1-.5-1.1-1.2v-1.4c0-.4-.3-.7-.7-.7h-.1c-.4 0-.7.3-.7.7v1.4c0 .6-.5 1.2-1.1 1.2h-3.2c-.4 0-.7.3-.7.7v.1c0 .4.3.7.7.7h3.2c.6 0 1.1.5 1.1 1.2V82c0 .4.3.7.7.7h.1c.4 0 .7-.3.7-.7v-1.4c0-.6.5-1.2 1.1-1.2h3.2c.4 0 .7-.3.7-.7v-.1c0-.4-.3-.7-.7-.7M6.7 48.4h-2c-.4 0-.7-.4-.7-.8v-.9c0-.2-.2-.4-.4-.4s-.4.2-.4.4v.9c0 .4-.3.7-.7.7h-2c-.2 0-.4.2-.4.4s.2.4.4.4h2c.4 0 .7.3.7.7v.9c0 .2.2.4.4.4s.4-.2.4-.4V50c0-.4.3-.7.7-.7h2c.2 0 .4-.2.4-.4.1-.3-.1-.5-.4-.5"/><path class="st1" d="M74.8 68s0 .6-.6.6H57.6c-.6 0-.6-.6-.6-.6h17.8zM59.6 57.7h12.6v7.6H59.6v-7.6zM72.9 66v-8.6c0-.3-.2-.5-.5-.5H59.3c-.3 0-.5.2-.5.5V66h14.1zm1.9-32.7s0 .6-.6.6H57.6c-.6 0-.6-.6-.6-.6h17.8zM59.6 23h12.6v7.6H59.6V23zm13.3 8.3v-8.6c0-.3-.2-.5-.5-.5H59.3c-.3 0-.5.2-.5.5v8.6h14.1zm1.9 19.3s0 .6-.6.6H57.6c-.6 0-.6-.6-.6-.6h17.8zM59.6 40.4h12.6V48H59.6v-7.6zm13.3 8.2V40c0-.3-.2-.5-.5-.5H59.3c-.3 0-.5.2-.5.5v8.6h14.1zM44.1 32.8V44h-2.6v1.4h2.6v11.2c0 2 1.6 3.7 3.7 3.7h8.8v-1.2h-8.8c-1.3 0-2.4-1.1-2.4-2.4V45.3h9.3v-1.4h-9.3V32.8c0-1.3 1.1-2.4 2.4-2.4h8.8v-1.2h-8.8c-2-.1-3.7 1.5-3.7 3.6m-8.2 8.4H37v1.1h-1.1zm-1.8 0c-.3 0-.6.3-.6.6s.3.6.6.6.6-.3.6-.6c0-.4-.3-.6-.6-.6m-2.5-5h-10c-.2 0-.4.2-.4.4s.2.4.4.4h10c.2 0 .4-.2.4-.4 0-.3-.2-.4-.4-.4m0 5.2h-10c-.2 0-.4.2-.4.4s.2.4.4.4h10c.2 0 .4-.2.4-.4s-.2-.4-.4-.4m4.3 10.2H37v1.1h-1.1zm-1.8-15.7c-.3 0-.6.3-.6.6s.3.6.6.6.6-.3.6-.6-.3-.6-.6-.6m-2.5 10.7h-10c-.2 0-.4.2-.4.4s.2.4.4.4h10c.2 0 .4-.2.4-.4s-.2-.4-.4-.4m0 5.2h-10c-.2 0-.4.2-.4.4s.2.4.4.4h10c.2 0 .4-.2.4-.4s-.2-.4-.4-.4m4.3-5.4H37v1.1h-1.1zm-1.8 0c-.3 0-.6.3-.6.6s.3.6.6.6.6-.3.6-.6c0-.4-.3-.6-.6-.6m1.8-20.8H37v1.1h-1.1zm-1.8-.1c-.3 0-.6.3-.6.6s.3.6.6.6.6-.3.6-.6-.3-.6-.6-.6m-2.5.2h-10c-.2 0-.4.2-.4.4s.2.4.4.4h10c.2 0 .4-.2.4-.4s-.2-.4-.4-.4m2.5 25.9c-.3 0-.6.3-.6.6s.3.6.6.6.6-.3.6-.6-.3-.6-.6-.6"/><path class="st1" d="M36.7 28.1H21.3c-1 0-1.9-.9-1.9-1.9 0-1.1.8-1.9 1.9-1.9h15.4c1 0 1.9.9 1.9 1.9-.1 1-.9 1.9-1.9 1.9m0 5.2H21.3c-1 0-1.9-.9-1.9-1.9 0-1.1.8-1.9 1.9-1.9h15.4c1 0 1.9.9 1.9 1.9-.1 1-.9 1.9-1.9 1.9m0 5.2H21.3c-1 0-1.9-.9-1.9-1.9 0-1.1.8-1.9 1.9-1.9h15.4c1 0 1.9.9 1.9 1.9-.1 1.1-.9 1.9-1.9 1.9m0 5.2H21.3c-1 0-1.9-.9-1.9-1.9 0-1.1.8-1.9 1.9-1.9h15.4c1 0 1.9.9 1.9 1.9-.1 1.1-.9 1.9-1.9 1.9m0 5.2H21.3c-1 0-1.9-.9-1.9-1.9 0-1.1.8-1.9 1.9-1.9h15.4c1 0 1.9.9 1.9 1.9-.1 1.1-.9 1.9-1.9 1.9m0 5.2H21.3c-1 0-1.9-.9-1.9-1.9 0-1.1.8-1.9 1.9-1.9h15.4c1 0 1.9.9 1.9 1.9-.1 1.1-.9 1.9-1.9 1.9M29 65.2c-1.4 0-2.5-1.1-2.5-2.5s1.1-2.5 2.5-2.5 2.5 1.1 2.5 2.5-1.1 2.5-2.5 2.5m-11.5 3.5h22.9V20.9H17.5v47.8z"/><path class="st1" d="M35.9 30.8H37v1.1h-1.1zm-1.8-.1c-.3 0-.6.3-.6.6s.3.6.6.6.6-.3.6-.6-.3-.6-.6-.6m-2.5.2h-10c-.2 0-.4.2-.4.4s.2.4.4.4h10c.2 0 .4-.2.4-.4s-.2-.4-.4-.4m4.3 5.1H37v1.1h-1.1z"/></svg>