<svg id="Layer_1" xmlns="http://www.w3.org/2000/svg" viewBox="0 0 215.4 201.2"><style>.st0{fill:#69c4a5}.st1{fill:#c3e5d7}.st2{fill:none;stroke:#fff;stroke-width:3;stroke-linecap:round;stroke-miterlimit:10}.st3{fill:#3e5579}</style><path class="st0" d="M198.4 145.4c0-2.8 2.2-5 4.9-5s4.9 2.2 4.9 5-2.2 5-4.9 5-4.9-2.2-4.9-5M176.7 41.2h11.6c2.3 0 4.1 1.9 4.1 4.2v4.9c0 1.3 1.1 2.4 2.4 2.4h.2c1.3 0 2.4-1.1 2.4-2.4v-4.9c0-2.3 1.9-4.2 4.1-4.2H213c1.3 0 2.4-1.1 2.4-2.4v-.2c0-1.3-1.1-2.4-2.4-2.4h-11.6c-2.3 0-4.1-1.9-4.1-4.2v-5c0-1.3-1.1-2.4-2.4-2.4h-.2c-1.3 0-2.4 1.1-2.4 2.4v4.9c0 2.3-1.9 4.2-4.1 4.2h-11.6c-1.3 0-2.4 1.1-2.4 2.4v.2c.1 1.4 1.2 2.5 2.5 2.5M1.7 93.8h8.5c1.7 0 3 1.4 3 3.1v3.6c0 1 .8 1.8 1.7 1.8h.1c1 0 1.7-.8 1.7-1.8v-3.6c0-1.7 1.4-3.1 3-3.1h8.5c1 0 1.7-.8 1.7-1.8v-.1c0-1-.8-1.8-1.7-1.8h-8.5c-1.7 0-3-1.4-3-3.1v-3.6c0-1-.8-1.8-1.7-1.8h-.1c-1 0-1.7.8-1.7 1.8V87c0 1.7-1.4 3.1-3 3.1H1.7c-1 0-1.7.8-1.7 1.8v.1c0 1 .8 1.8 1.7 1.8m21 46.9h4.7c.9 0 1.7.8 1.7 1.7v2c0 .5.4 1 1 1h.1c.5 0 1-.4 1-1v-2c0-.9.8-1.7 1.7-1.7h4.7c.5 0 1-.4 1-1v-.1c0-.5-.4-1-1-1h-4.7c-.9 0-1.7-.8-1.7-1.7v-2c0-.5-.4-1-1-1H30c-.5 0-1 .4-1 1v2c0 .9-.8 1.7-1.7 1.7h-4.7c-.5 0-1 .4-1 1v.1c.1.6.5 1 1.1 1M52 6.7h4.7c.9 0 1.7.8 1.7 1.7v2c0 .5.4 1 1 1h.1c.5 0 1-.4 1-1v-2c0-.9.8-1.7 1.7-1.7h4.7c.5 0 1-.4 1-1 0-.5-.4-1-1-1H62c-.9 0-1.7-.8-1.7-1.7V1c0-.5-.4-1-1-1h-.1c-.5 0-1 .4-1 1v2c0 .9-.8 1.7-1.7 1.7H52c-.5 0-1 .4-1 1v.1c0 .5.4.9 1 .9"/><circle class="st1" cx="115.9" cy="40.5" r="23"/><path class="st2" d="M101 30.4c3.2-4.8 8.7-7.9 14.9-7.9"/><path class="st0" d="M177 68.2H53.9c-5 .5-9 4.8-9 9.9s4 10.9 9 10.9H177c5.5 0 10-4.9 10-10.5 0-5.4-4.5-10.3-10-10.3z"/><path class="st0" d="M51.1 69.1l40.8-24H140l40.7 24z"/><path class="st1" d="M187.9 183.1l-56.1-95h-30L44.4 183c-1.7 1.9-2.8 4.4-2.8 7.2 0 5.4 4.1 9.9 9.4 10.5l129.1.5c5.8 0 10.5-4.9 10.5-10.8.1-2.7-1-5.5-2.7-7.3z"/><path class="st2" d="M68.3 192.8l-16.5.2c-1.3-.1-2.2-1.3-2.2-2.6 0-.8.4-1.4.7-1.8l55.8-91.9"/></svg>