<svg id="Layer_1" xmlns="http://www.w3.org/2000/svg" viewBox="0 0 284.3 238.9"><style>.st0{fill:#be529f}.st1{fill:#fff}</style><path class="st0" d="M.1 48h83v191H.1zm90.6 0h192.4v125.3H90.7zM0 0h283v42.5H0zm90.7 180.3h59.2v58.6H90.7zm66.5 0h59.2v58.6h-59.2z"/><path class="st1" d="M210.7 66.9c0-4 3.2-7.2 7.2-7.2s7.2 3.2 7.2 7.2-3.2 7.2-7.2 7.2c-4-.1-7.2-3.3-7.2-7.2m22.5 0c0-4 3.2-7.2 7.2-7.2s7.2 3.2 7.2 7.2-3.2 7.2-7.2 7.2c-4-.1-7.2-3.3-7.2-7.2m22.5 0c0-4 3.2-7.2 7.2-7.2s7.2 3.2 7.2 7.2-3.2 7.2-7.2 7.2-7.2-3.3-7.2-7.2"/><path class="st0" d="M225.1 180.3v56.2l59.2-56.2z"/></svg>