<svg id="Layer_1" xmlns="http://www.w3.org/2000/svg" viewBox="0 0 228.7 196.7"><style>.st0{fill:#69c4a5}.st1{fill:#c3e5d7}.st2{fill:none;stroke:#fff;stroke-width:3;stroke-linecap:round;stroke-miterlimit:10}</style><path class="st0" d="M118.1 133.3c-2.3-2.3-2-6.3.3-8.6 2.1-2.1 5.8-2.5 8.2-.6 17.9 18 32 32.1 32.1 32.1 2.6 2.6 6.8 2.6 9.5 0 2.6-2.6 2.7-6.8.1-9.5l-58.4-58.5c-2.3-2.3-2-6.3.3-8.6 2.1-2.1 5.9-2.5 8.2-.6 22.6 22.7 42.6 42.6 42.6 42.7 2.6 2.6 6.8 2.6 9.5 0 2.6-2.6 2.7-6.8.1-9.5L78.4 19.9C60.5 2 31.6 2 13.7 19.9c-17.9 17.9-17.9 46.8 0 64.7l.3.3c6.9 6.9 91.9 92 92 92 2.6 2.6 6.8 2.6 9.5 0 2.6-2.6 2.7-7 .1-9.6l-26.1-26.2c-2.3-2.3-2-6.2.3-8.5 2.2-2.2 6-2.4 8.3-.5 29.4 29.4 62.7 62.8 62.8 62.8 2.6 2.6 6.8 2.6 9.5 0 2.6-2.6 2.7-6.8.1-9.5-.5-.1-52.4-52.1-52.4-52.1zM122.4 5c0 2.8-2.2 5-4.9 5s-4.9-2.2-4.9-5 2.2-5 4.9-5 4.9 2.2 4.9 5M38.7 144H27.1c-2.3 0-4.1-1.9-4.1-4.2v-4.9c0-1.3-1.1-2.4-2.4-2.4h-.2c-1.3 0-2.4 1.1-2.4 2.4v4.9c0 2.3-1.9 4.2-4.1 4.2H2.4c-1.3 0-2.4 1.1-2.4 2.4v.2c0 1.3 1.1 2.4 2.4 2.4H14c2.3 0 4.1 1.9 4.1 4.2v4.9c0 1.3 1.1 2.4 2.4 2.4h.2c1.3 0 2.4-1.1 2.4-2.4v-4.9c0-2.3 1.9-4.2 4.1-4.2h11.6c1.3 0 2.4-1.1 2.4-2.4v-.2c-.1-1.3-1.2-2.4-2.5-2.4M227 89.7h-8.5c-1.7 0-3-1.4-3-3.1V83c0-1-.8-1.8-1.7-1.8h-.1c-1 0-1.7.8-1.7 1.8v3.6c0 1.7-1.4 3.1-3 3.1h-8.5c-1 0-1.7.8-1.7 1.8v.1c0 1 .8 1.8 1.7 1.8h8.5c1.7 0 3 1.4 3 3.1v3.6c0 1 .8 1.8 1.7 1.8h.1c1 0 1.7-.8 1.7-1.8v-3.6c0-1.7 1.4-3.1 3-3.1h8.5c1 0 1.7-.8 1.7-1.8v-.1c0-1-.8-1.8-1.7-1.8m-47.2-66.8h-4.7c-.9 0-1.7-.8-1.7-1.7v-2c0-.5-.4-1-1-1h-.1c-.5 0-1 .4-1 1v2c0 .9-.8 1.7-1.7 1.7H165c-.5 0-1 .4-1 1v.1c0 .5.4 1 1 1h4.7c.9 0 1.7.8 1.7 1.7v2c0 .5.4 1 1 1h.1c.5 0 1-.4 1-1v-2c0-.9.8-1.7 1.7-1.7h4.7c.5 0 1-.4 1-1v-.1c-.2-.5-.6-1-1.1-1m34.6 118.7h-4.7c-.9 0-1.7-.8-1.7-1.7v-2c0-.5-.4-1-1-1-.5 0-1 .4-1 1v2c0 .9-.8 1.7-1.7 1.7h-4.7c-.5 0-1 .4-1 1v.1c0 .5.4 1 1 1h4.7c.9 0 1.7.8 1.7 1.7v2c0 .5.4 1 1 1h.1c.5 0 1-.4 1-1v-2c0-.9.8-1.7 1.7-1.7h4.7c.5 0 1-.4 1-1v-.1c-.2-.5-.6-1-1.1-1m-56-64.5c-.1-.1-.1-.2-.2-.2-.4-.4-.8-.7-1.2-.9l1.3 1.3.1-.2z"/><path class="st0" d="M159.1 78.1c-.2-.3-.5-.6-.7-.9l-.1.1.8.8zm-70.2 68.1l.2.2c-.1-.1-.1-.2-.2-.2zm20.5-20.5l.2.2c-.1-.1-.1-.2-.2-.2zm20.5-20.5l.2.2c0-.1-.1-.2-.2-.2zm20.5-20.5l.2.2c0-.1-.1-.2-.2-.2zm-11.8 12.2l-.2-.2c.1 0 .1.1.2.2z"/><ellipse transform="rotate(-45.001 45.867 52.139)" class="st1" cx="45.9" cy="52.1" rx="31.4" ry="31.4"/><path class="st2" d="M55.2 28.7c-2.5-1-5-1.6-7.5-1.8-9.3-.7-18.4 3.9-23.2 12.2-.6 1-1.1 2-1.5 3"/></svg>