<svg id="Layer_1" data-name="Layer 1" xmlns="http://www.w3.org/2000/svg" viewBox="0 0 123.81 61.71"><defs><style>.cls-1{fill:none}.cls-2{clip-path:url(#clip-path)}.cls-3{fill:#69c4a5}.cls-4{fill:#3f5579}</style><clipPath id="clip-path"><path class="cls-1" d="M0 0h123.81v61.71H0z"/></clipPath></defs><title>fast-icon</title><g class="cls-2"><path class="cls-3" d="M25.26 15.12a3.78 3.78 0 1 1-3.78-3.85 3.81 3.81 0 0 1 3.78 3.85M72 2.14a2.1 2.1 0 1 1-4.2 0 2.1 2.1 0 1 1 4.2 0m39.87 9.13a1.19 1.19 0 1 1 1.13-1.19 1.17 1.17 0 0 1-1.16 1.19m-5.66 39.55a1.56 1.56 0 1 1 1.52-1.56 1.54 1.54 0 0 1-1.52 1.56m16.62-17.95h-5a1.8 1.8 0 0 1-1.78-1.81v-2.12a1 1 0 0 0-1-1H115a1 1 0 0 0-1 1v2.12a1.8 1.8 0 0 1-1.78 1.81h-5a1 1 0 0 0-1 1V34a1 1 0 0 0 1 1h5a1.8 1.8 0 0 1 1.78 1.81V39a1 1 0 0 0 1 1 1 1 0 0 0 1-1v-2.15a1.8 1.8 0 0 1 1.83-1.85h5a1 1 0 0 0 1-1v-.09a1 1 0 0 0-1-1M52.66 9.39h-3.2a1.16 1.16 0 0 1-1.15-1.17V6.85a.66.66 0 0 0-.65-.67h-.06a.66.66 0 0 0-.65.67v1.37a1.16 1.16 0 0 1-1.14 1.17h-3.19a.66.66 0 0 0-.65.67v.06a.66.66 0 0 0 .65.67h3.19A1.16 1.16 0 0 1 47 11.94v1.37a.66.66 0 0 0 .65.67h.06a.66.66 0 0 0 .65-.67v-1.37a1.16 1.16 0 0 1 1.15-1.17h3.19a.66.66 0 0 0 .65-.67v-.06a.66.66 0 0 0-.65-.67M6.75 39.86h-2a.73.73 0 0 1-.75-.73v-.86a.42.42 0 0 0-.41-.42.42.42 0 0 0-.41.42v.86a.73.73 0 0 1-.72.74h-2a.42.42 0 0 0-.41.42.42.42 0 0 0 .41.42h2a.73.73 0 0 1 .72.74v.86a.42.42 0 0 0 .41.42.42.42 0 0 0 .41-.39v-.86a.73.73 0 0 1 .72-.74h2a.42.42 0 0 0 .41-.42.42.42 0 0 0-.41-.42"/></g><path class="cls-4" d="M72.73 58.7H88.7v1.44H72.73zm-38.35 0h15.97v1.44H34.38zm25.81-5.89v4.52h-8.61v4.38H71.5v-4.38h-8.61v-4.52h-2.7z"/><g class="cls-2"><path class="cls-4" d="M92 17.89v33.34H31.11V23.8a4 4 0 0 1 4-3.91h31A2.94 2.94 0 0 0 69 17.6a2 2 0 0 0 0-.24A4 4 0 0 1 73 14h15a4 4 0 0 1 4 3.91"/></g></svg>