<svg id="Layer_1" xmlns="http://www.w3.org/2000/svg" viewBox="0 0 1400 800"><style>.st0{fill:#fff}.st1,.st2{fill:none;stroke:#fff}.st1{stroke-miterlimit:10}.st2{stroke-width:3;stroke-linecap:round}.st3{stroke-dasharray:4.728,4.728}.st3,.st4,.st5,.st6,.st7{fill:none;stroke:#fff}.st5{stroke-dasharray:5.198,5.198}.st6{stroke-dasharray:4.541,4.541}.st7{stroke-dasharray:5.009,5.009}</style><path class="st0" d="M747.9 277.7c0 3.1-2.5 5.7-5.7 5.7-3.1 0-5.7-2.5-5.7-5.7 0-3.1 2.5-5.7 5.7-5.7 3.2.1 5.7 2.6 5.7 5.7M402.9 74c0 3.1-2.5 5.7-5.7 5.7-3.1 0-5.7-2.5-5.7-5.7 0-3.1 2.5-5.7 5.7-5.7 3.1 0 5.7 2.5 5.7 5.7m468.4-2.6c0 1.7-1.4 3.2-3.2 3.2-1.7 0-3.2-1.4-3.2-3.2 0-1.7 1.4-3.2 3.2-3.2 1.8.1 3.2 1.5 3.2 3.2m-238.6 199c-1 0-1.7-.8-1.7-1.7s.8-1.7 1.7-1.7c1 0 1.7.8 1.7 1.7s-.8 1.7-1.7 1.7M491.4 385.9c-1.3 0-2.3-1-2.3-2.3 0-1.3 1-2.3 2.3-2.3 1.3 0 2.3 1 2.3 2.3 0 1.3-1 2.3-2.3 2.3M606 292.8h-7.5c-1.5 0-2.7-1.2-2.7-2.7V287c0-.8-.7-1.5-1.5-1.5h-.1c-.8 0-1.5.7-1.5 1.5v3.1c0 1.5-1.2 2.7-2.7 2.7h-7.5c-.8 0-1.5.7-1.5 1.5v.1c0 .8.7 1.5 1.5 1.5h7.5c1.5 0 2.7 1.2 2.7 2.7v3.1c0 .8.7 1.5 1.5 1.5h.1c.8 0 1.5-.7 1.5-1.5v-3.1c0-1.5 1.2-2.7 2.7-2.7h7.5c.8 0 1.5-.7 1.5-1.5v-.1c.1-.8-.6-1.5-1.5-1.5m122.2-136.2h-4.8c-1 0-1.7-.8-1.7-1.7v-2c0-.5-.4-1-1-1h-.1c-.5 0-1 .4-1 1v2c0 1-.8 1.7-1.7 1.7h-4.8c-.5 0-1 .4-1 1v.1c0 .5.4 1 1 1h4.8c1 0 1.7.8 1.7 1.7v2c0 .5.4 1 1 1h.1c.5 0 1-.4 1-1v-2c0-1 .8-1.7 1.7-1.7h4.8c.5 0 1-.4 1-1v-.1c0-.6-.4-1-1-1m-139.6 483h-4.8c-1 0-1.7-.8-1.7-1.7v-2c0-.5-.4-1-1-1h-.1c-.5 0-1 .4-1 1v2c0 1-.8 1.7-1.7 1.7h-4.8c-.5 0-1 .4-1 1v.1c0 .5.4 1 1 1h4.8c1 0 1.7.8 1.7 1.7v2c0 .5.4 1 1 1h.1c.5 0 1-.4 1-1v-2c0-1 .8-1.7 1.7-1.7h4.8c.5 0 1-.4 1-1v-.1c0-.6-.5-1-1-1m176-238.7h-3c-.6 0-1.1-.5-1.1-1.1v-1.3c0-.3-.3-.6-.6-.6h-.1c-.3 0-.6.3-.6.6v1.3c0 .6-.5 1.1-1.1 1.1h-3c-.3 0-.6.3-.6.6v.1c0 .3.3.6.6.6h3c.6 0 1.1.5 1.1 1.1v1.3c0 .3.3.6.6.6h.1c.3 0 .6-.3.6-.6v-1.3c0-.6.5-1.1 1.1-1.1h3c.3 0 .6-.3.6-.6v-.1c0-.3-.2-.6-.6-.6m-632.3-99.2c0 4.4-3.5 8-7.8 8s-7.8-3.6-7.8-8 3.5-7.9 7.8-7.9c4.3-.1 7.8 3.5 7.8 7.9"/><ellipse class="st1" cx="124.5" cy="301.7" rx="7.8" ry="7.9"/><path class="st0" d="M1211.8 499.9c0 4.4-3.5 8-7.8 8s-7.8-3.6-7.8-8 3.5-7.9 7.8-7.9 7.8 3.5 7.8 7.9"/><ellipse class="st1" cx="1204" cy="499.9" rx="7.8" ry="7.9"/><path class="st0" d="M1092.5 170.1c0 2.1-1.6 3.7-3.6 3.7s-3.6-1.7-3.6-3.7c0-2.1 1.6-3.7 3.6-3.7 1.9 0 3.6 1.7 3.6 3.7"/><ellipse class="st1" cx="1088.8" cy="170.1" rx="3.6" ry="3.7"/><path class="st0" d="M1359.2 207.2c-1.7 0-3.1-1.4-3.1-3.2s1.4-3.2 3.1-3.2c1.7 0 3.1 1.4 3.1 3.2s-1.4 3.2-3.1 3.2"/><ellipse class="st1" cx="1359.2" cy="204" rx="3.1" ry="3.2"/><path class="st0" d="M1065.6 468c-1.7 0-3.1-1.4-3.1-3.2 0-1.8 1.4-3.2 3.1-3.2 1.7 0 3.1 1.4 3.1 3.2 0 1.8-1.4 3.2-3.1 3.2"/><ellipse class="st1" cx="1065.6" cy="464.8" rx="3.1" ry="3.2"/><path class="st0" d="M1259.5 669.3c-1.7 0-3.1-1.4-3.1-3.2 0-1.8 1.4-3.2 3.1-3.2 1.7 0 3.1 1.4 3.1 3.2 0 1.8-1.4 3.2-3.1 3.2"/><ellipse class="st1" cx="1259.5" cy="666.1" rx="3.1" ry="3.2"/><path class="st0" d="M1243.3 177.7c-1.7 0-3.1-1.4-3.1-3.2s1.4-3.2 3.1-3.2c1.7 0 3.1 1.4 3.1 3.2s-1.4 3.2-3.1 3.2"/><ellipse class="st1" cx="1243.3" cy="174.5" rx="3.1" ry="3.2"/><path class="st0" d="M1320.1 371c-1.7 0-3.1-1.4-3.1-3.2 0-1.8 1.4-3.2 3.1-3.2 1.7 0 3.1 1.4 3.1 3.2 0 1.8-1.4 3.2-3.1 3.2"/><ellipse class="st1" cx="1320.1" cy="367.8" rx="3.1" ry="3.2"/><path class="st0" d="M529.7 230.4c-1.7 0-3.1-1.4-3.1-3.2s1.4-3.2 3.1-3.2c1.7 0 3.1 1.4 3.1 3.2s-1.4 3.2-3.1 3.2"/><ellipse class="st1" cx="529.7" cy="227.2" rx="3.1" ry="3.2"/><path class="st0" d="M215.5 588.4c-1.7 0-3.1-1.4-3.1-3.2s1.4-3.2 3.1-3.2c1.7 0 3.1 1.4 3.1 3.2s-1.3 3.2-3.1 3.2"/><ellipse class="st1" cx="215.5" cy="585.1" rx="3.1" ry="3.2"/><path class="st0" d="M369.3 728c-1.7 0-3.1-1.4-3.1-3.2s1.4-3.2 3.1-3.2c1.7 0 3.1 1.4 3.1 3.2s-1.4 3.2-3.1 3.2"/><ellipse class="st1" cx="369.3" cy="724.8" rx="3.1" ry="3.2"/><path class="st0" d="M855 731.7c-1.7 0-3.1-1.4-3.1-3.2s1.4-3.2 3.1-3.2c1.7 0 3.1 1.4 3.1 3.2s-1.4 3.2-3.1 3.2"/><ellipse class="st1" cx="855" cy="728.5" rx="3.1" ry="3.2"/><path class="st0" d="M854.9 495.5c-3.4 0-6.1-2.8-6.1-6.3s2.7-6.3 6.1-6.3c3.4 0 6.1 2.8 6.1 6.3.1 3.5-2.7 6.3-6.1 6.3"/><ellipse class="st1" cx="854.9" cy="489.2" rx="6.1" ry="6.3"/><path class="st0" d="M250.2 550.2c-.9 0-1.6-.7-1.6-1.6s.7-1.6 1.6-1.6c.9 0 1.6.7 1.6 1.6s-.8 1.6-1.6 1.6"/><ellipse class="st1" cx="250.2" cy="548.6" rx="1.6" ry="1.6"/><path class="st0" d="M425.7 568.5c-.9 0-1.6-.7-1.6-1.6s.7-1.6 1.6-1.6c.9 0 1.6.7 1.6 1.6s-.7 1.6-1.6 1.6"/><ellipse class="st1" cx="425.7" cy="566.9" rx="1.6" ry="1.6"/><path class="st0" d="M83.7 359c-.9 0-1.6-.7-1.6-1.6s.7-1.6 1.6-1.6c.9 0 1.6.7 1.6 1.6s-.7 1.6-1.6 1.6"/><ellipse class="st1" cx="83.7" cy="357.4" rx="1.6" ry="1.6"/><path class="st0" d="M443.8 669.3c-.9 0-1.6-.7-1.6-1.6s.7-1.6 1.6-1.6c.9 0 1.6.7 1.6 1.6s-.7 1.6-1.6 1.6"/><ellipse class="st1" cx="443.8" cy="667.7" rx="1.6" ry="1.6"/><path class="st0" d="M1275.4 162.6c-.9 0-1.6-.7-1.6-1.6 0-.9.7-1.6 1.6-1.6.9 0 1.6.7 1.6 1.6 0 .8-.7 1.6-1.6 1.6"/><ellipse class="st1" cx="1275.4" cy="160.9" rx="1.6" ry="1.6"/><path class="st0" d="M873.4 713.6c-.9 0-1.6-.7-1.6-1.6 0-.9.7-1.6 1.6-1.6.9 0 1.6.7 1.6 1.6-.1.9-.8 1.6-1.6 1.6"/><ellipse class="st1" cx="873.4" cy="712" rx="1.6" ry="1.6"/><path class="st0" d="M103.5 598.7c-.9 0-1.6-.7-1.6-1.6 0-.9.7-1.6 1.6-1.6.9 0 1.6.7 1.6 1.6 0 .9-.7 1.6-1.6 1.6"/><ellipse class="st1" cx="103.5" cy="597.1" rx="1.6" ry="1.6"/><path class="st0" d="M354.8 250.9h-10.2c-2 0-3.7-1.7-3.7-3.7v-4.4c0-1.2-.9-2.1-2.1-2.1h-.2c-1.2 0-2.1 1-2.1 2.1v4.4c0 2.1-1.6 3.7-3.7 3.7h-10.2c-1.2 0-2.1 1-2.1 2.1v.2c0 1.2.9 2.1 2.1 2.1h10.2c2 0 3.7 1.7 3.7 3.7v4.4c0 1.2.9 2.1 2.1 2.1h.2c1.2 0 2.1-1 2.1-2.1V259c0-2.1 1.6-3.7 3.7-3.7h10.2c1.2 0 2.1-1 2.1-2.1v-.2c0-1.2-1-2.1-2.1-2.1"/><path class="st1" d="M354.8 250.9h-10.2c-2 0-3.7-1.7-3.7-3.7v-4.4c0-1.2-.9-2.1-2.1-2.1h-.2c-1.2 0-2.1 1-2.1 2.1v4.4c0 2.1-1.6 3.7-3.7 3.7h-10.2c-1.2 0-2.1 1-2.1 2.1v.2c0 1.2.9 2.1 2.1 2.1h10.2c2 0 3.7 1.7 3.7 3.7v4.4c0 1.2.9 2.1 2.1 2.1h.2c1.2 0 2.1-1 2.1-2.1V259c0-2.1 1.6-3.7 3.7-3.7h10.2c1.2 0 2.1-1 2.1-2.1v-.2c0-1.2-1-2.1-2.1-2.1z"/><path class="st0" d="M1008.2 274h-7.4c-1.5 0-2.7-1.2-2.7-2.7v-3.2c0-.9-.7-1.5-1.5-1.5h-.1c-.8 0-1.5.7-1.5 1.5v3.2c0 1.5-1.2 2.7-2.7 2.7H985c-.8 0-1.5.7-1.5 1.5v.1c0 .9.7 1.5 1.5 1.5h7.4c1.5 0 2.7 1.2 2.7 2.7v3.2c0 .9.7 1.5 1.5 1.5h.1c.8 0 1.5-.7 1.5-1.5v-3c0-1.5 1.2-2.7 2.7-2.7h7.4c.8 0 1.5-.7 1.5-1.5v-.1c0-1-.7-1.7-1.6-1.7"/><path class="st1" d="M1008.2 274h-7.4c-1.5 0-2.7-1.2-2.7-2.7v-3.2c0-.9-.7-1.5-1.5-1.5h-.1c-.8 0-1.5.7-1.5 1.5v3.2c0 1.5-1.2 2.7-2.7 2.7H985c-.8 0-1.5.7-1.5 1.5v.1c0 .9.7 1.5 1.5 1.5h7.4c1.5 0 2.7 1.2 2.7 2.7v3.2c0 .9.7 1.5 1.5 1.5h.1c.8 0 1.5-.7 1.5-1.5v-3c0-1.5 1.2-2.7 2.7-2.7h7.4c.8 0 1.5-.7 1.5-1.5v-.1c0-1-.7-1.7-1.6-1.7z"/><path class="st0" d="M1354.1 341.5h-9.2c-1.8 0-3.3-1.5-3.3-3.4v-3.9c0-1.1-.8-1.9-1.9-1.9h-.2c-1 0-1.9.9-1.9 1.9v3.9c0 1.9-1.5 3.4-3.3 3.4h-9.2c-1 0-1.9.9-1.9 1.9v.2c0 1.1.8 1.9 1.9 1.9h9.2c1.8 0 3.3 1.5 3.3 3.4v3.9c0 1.1.8 1.9 1.9 1.9h.2c1 0 1.9-.9 1.9-1.9v-3.9c0-1.9 1.5-3.4 3.3-3.4h9.2c1 0 1.9-.9 1.9-1.9v-.2c0-1.1-.8-1.9-1.9-1.9"/><path class="st1" d="M1354.1 341.5h-9.2c-1.8 0-3.3-1.5-3.3-3.4v-3.9c0-1.1-.8-1.9-1.9-1.9h-.2c-1 0-1.9.9-1.9 1.9v3.9c0 1.9-1.5 3.4-3.3 3.4h-9.2c-1 0-1.9.9-1.9 1.9v.2c0 1.1.8 1.9 1.9 1.9h9.2c1.8 0 3.3 1.5 3.3 3.4v3.9c0 1.1.8 1.9 1.9 1.9h.2c1 0 1.9-.9 1.9-1.9v-3.9c0-1.9 1.5-3.4 3.3-3.4h9.2c1 0 1.9-.9 1.9-1.9v-.2c0-1.1-.8-1.9-1.9-1.9z"/><path class="st0" d="M246.2 687.8h-6.8c-1.4 0-2.5-1.1-2.5-2.5v-2.9c0-.8-.6-1.4-1.4-1.4h-.1c-.8 0-1.4.6-1.4 1.4v2.9c0 1.4-1.1 2.5-2.4 2.5h-6.8c-.8 0-1.4.6-1.4 1.4v.1c0 .8.6 1.4 1.4 1.4h6.8c1.4 0 2.4 1.1 2.4 2.5v2.9c0 .8.6 1.4 1.4 1.4h.1c.8 0 1.4-.6 1.4-1.4v-2.9c0-1.4 1.1-2.5 2.5-2.5h6.8c.8 0 1.4-.6 1.4-1.4v-.1c0-.8-.6-1.4-1.4-1.4"/><path class="st1" d="M246.2 687.8h-6.8c-1.4 0-2.5-1.1-2.5-2.5v-2.9c0-.8-.6-1.4-1.4-1.4h-.1c-.8 0-1.4.6-1.4 1.4v2.9c0 1.4-1.1 2.5-2.4 2.5h-6.8c-.8 0-1.4.6-1.4 1.4v.1c0 .8.6 1.4 1.4 1.4h6.8c1.4 0 2.4 1.1 2.4 2.5v2.9c0 .8.6 1.4 1.4 1.4h.1c.8 0 1.4-.6 1.4-1.4v-2.9c0-1.4 1.1-2.5 2.5-2.5h6.8c.8 0 1.4-.6 1.4-1.4v-.1c0-.8-.6-1.4-1.4-1.4z"/><path class="st0" d="M63 118.9h-5.6c-1.1 0-2-.8-2-1.8V115c0-.6-.5-1-1.2-1h-.1c-.6 0-1.2.5-1.2 1v2.1c0 1-.9 1.8-2 1.8h-5.6c-.6 0-1.2.5-1.2 1v.1c0 .6.5 1 1.2 1h5.6c1.1 0 2 .8 2 1.8v2.1c0 .6.5 1 1.2 1h.1c.6 0 1.2-.5 1.2-1v-2.1c0-1 .9-1.8 2-1.8H63c.6 0 1.2-.5 1.2-1v-.1c0-.6-.5-1-1.2-1"/><path class="st1" d="M63 118.9h-5.6c-1.1 0-2-.8-2-1.8V115c0-.6-.5-1-1.2-1h-.1c-.6 0-1.2.5-1.2 1v2.1c0 1-.9 1.8-2 1.8h-5.6c-.6 0-1.2.5-1.2 1v.1c0 .6.5 1 1.2 1h5.6c1.1 0 2 .8 2 1.8v2.1c0 .6.5 1 1.2 1h.1c.6 0 1.2-.5 1.2-1v-2.1c0-1 .9-1.8 2-1.8H63c.6 0 1.2-.5 1.2-1v-.1c0-.6-.5-1-1.2-1z"/><path class="st0" d="M1083.9 675.5h-9.3c-1.8 0-3.3-1.5-3.3-3.4v-4c0-1.1-.8-2-1.9-2h-.2c-1.1 0-1.9.9-1.9 1.9v4c0 1.9-1.5 3.4-3.3 3.4h-9.3c-1.1 0-1.9.9-1.9 1.9v.2c0 1.1.9 2 1.9 2h9.3c1.8 0 3.3 1.5 3.3 3.4v4c0 1.1.9 2 1.9 2h.2c1.1 0 1.9-.9 1.9-1.9v-4c0-1.9 1.5-3.4 3.3-3.4h9.3c1 0 1.9-.9 1.9-2v-.2c0-1.1-.9-1.9-1.9-1.9"/><path class="st1" d="M1083.9 675.5h-9.3c-1.8 0-3.3-1.5-3.3-3.4v-4c0-1.1-.8-2-1.9-2h-.2c-1.1 0-1.9.9-1.9 1.9v4c0 1.9-1.5 3.4-3.3 3.4h-9.3c-1.1 0-1.9.9-1.9 1.9v.2c0 1.1.9 2 1.9 2h9.3c1.8 0 3.3 1.5 3.3 3.4v4c0 1.1.9 2 1.9 2h.2c1.1 0 1.9-.9 1.9-1.9v-4c0-1.9 1.5-3.4 3.3-3.4h9.3c1 0 1.9-.9 1.9-2v-.2c0-1.1-.9-1.9-1.9-1.9z"/><path class="st0" d="M166.2 491.6c-9.8 0-17.8-8.1-17.8-18.2 0-10 8-18.2 17.8-18.2s17.8 8.1 17.8 18.2-8 18.2-17.8 18.2"/><ellipse class="st1" cx="166.2" cy="473.4" rx="17.8" ry="18.2"/><path class="st2" d="M129.1 473.4h74.2"/><path class="st3" d="M1211.1 535.4c15.1-3 26.8-15.3 28.8-30.7m-.4-11.8c-3-15.1-15.3-26.8-30.7-28.8m-11.8.4c-15.1 3-26.8 15.3-28.8 30.7m.4 11.8c3 15.1 15.3 26.8 30.7 28.8"/><path class="st4" d="M1201.7 536c.8 0 1.6.1 2.4.1.8 0 1.6 0 2.4-.1m-38.5-38.4c-.1.8-.1 1.6-.1 2.4 0 .8 0 1.6.1 2.4m38.4-38.5c-.8 0-1.6-.1-2.4-.1-.8 0-1.6 0-2.4.1m38.5 38.4c0-.8.1-1.6.1-2.4 0-.8 0-1.6-.1-2.4"/><path class="st5" d="M1096.6 242.5c34.8-3.7 62.3-32 64.8-67.2m-.2-13c-3.7-34.8-32-62.3-67.2-64.8m-12.9.2c-34.8 3.7-62.3 32-64.8 67.2m.2 13c3.7 34.8 32 62.3 67.2 64.8"/><path class="st4" d="M1086.2 242.9h5.2m-75.3-75.4v5.2m75.3-75.3h-5.2m75.4 75.3v-5.2"/><path class="st6" d="M536.4 249.9c7.8-2.6 13.8-9.6 15.4-18.2m-.6-11.2c-2.3-8.4-8.9-14.8-17-16.6m-11.2.6c-7.8 2.6-13.8 9.6-15.4 18.2m.5 11.2c2.3 8.4 8.9 14.8 17 16.6"/><path class="st4" d="M527.4 250.9c.7.1 1.5.1 2.3.1s1.5 0 2.3-.1M507.3 225c-.1.7-.1 1.5-.1 2.3 0 .8 0 1.5.1 2.3m24.7-26c-.7-.1-1.5-.1-2.3-.1s-1.5 0-2.3.1m24.6 25.9c.1-.7.1-1.5.1-2.3 0-.8 0-1.5-.1-2.3"/><path class="st7" d="M132 393.1c42.9-3.9 76.8-40.7 79.2-86.4m-.2-12.5c-3.5-45.4-38.2-81.5-81.5-84.1m-12.5.2c-42.9 3.9-76.8 40.7-79.2 86.4m.2 12.5c3.5 45.4 38.2 81.5 81.5 84.1"/><path class="st4" d="M122 393.4h5m-89.3-94.2v5M127 210h-5m89.2 94.2v-5"/></svg>