<svg id="Layer_1" xmlns="http://www.w3.org/2000/svg" viewBox="0 0 1369.4 335.7"><style>.st0{fill:#29edb5}.st1{fill:none;stroke:#29edb5;stroke-width:3;stroke-linecap:round}.st2{stroke-dasharray:4.728,4.728}.st2,.st3,.st4,.st5{fill:none;stroke:#29edb5}.st4{stroke-dasharray:4.541,4.541}.st5{stroke-dasharray:5.009,5.009}</style><path class="st0" d="M95.1 151.8c0 4.4-3.5 8-7.8 8s-7.8-3.6-7.8-8 3.5-7.9 7.8-7.9c4.3-.1 7.8 3.5 7.8 7.9m1123.8 147.3c0 4.4-3.5 7.9-7.8 7.9s-7.8-3.6-7.8-7.9c0-4.4 3.5-7.9 7.8-7.9s7.8 3.5 7.8 7.9M893.1 11.8c0 4.7-3.8 8.5-8.5 8.5s-8.5-3.8-8.5-8.5 3.8-8.5 8.5-8.5c4.7-.1 8.5 3.7 8.5 8.5m473.1-5.4c-1.7 0-3.1-1.4-3.1-3.2 0-1.8 1.4-3.2 3.1-3.2 1.7 0 3.1 1.4 3.1 3.2.1 1.8-1.4 3.2-3.1 3.2m-293.6 260.8c-1.7 0-3.1-1.4-3.1-3.2s1.4-3.2 3.1-3.2c1.7 0 3.1 1.4 3.1 3.2s-1.3 3.2-3.1 3.2m254.5-97c-1.7 0-3.1-1.4-3.1-3.2s1.4-3.2 3.1-3.2c1.7 0 3.1 1.4 3.1 3.2s-1.3 3.2-3.1 3.2M281.4 29.6c-1.7 0-3.1-1.4-3.1-3.2 0-1.8 1.4-3.2 3.1-3.2 1.7 0 3.1 1.4 3.1 3.2 0 1.8-1.4 3.2-3.1 3.2m580.6 265c-3.4 0-6.1-2.8-6.1-6.3s2.7-6.3 6.1-6.3c3.4 0 6.1 2.8 6.1 6.3s-2.7 6.3-6.1 6.3m-581.7-17.4c-.9 0-1.6-.7-1.6-1.6 0-.9.7-1.6 1.6-1.6.9 0 1.6.7 1.6 1.6-.1.9-.8 1.6-1.6 1.6m-105.2-65.9c-.9 0-1.6-.7-1.6-1.6 0-.9.7-1.6 1.6-1.6.9 0 1.6.7 1.6 1.6-.1.9-.8 1.6-1.6 1.6M361.8 50.1h-10.2c-2 0-3.7-1.7-3.7-3.7V42c0-1.2-.9-2.1-2.1-2.1h-.2c-1.2 0-2.1 1-2.1 2.1v4.4c0 2.1-1.6 3.7-3.7 3.7h-10.2c-1.2 0-2.1 1-2.1 2.1v.2c0 1.2.9 2.1 2.1 2.1h10.2c2 0 3.7 1.7 3.7 3.7v4.4c0 1.2.9 2.1 2.1 2.1h.2c1.2 0 2.1-1 2.1-2.1v-4.4c0-2.1 1.6-3.7 3.7-3.7h10.2c1.2 0 2.1-1 2.1-2.1v-.2c0-1.2-.9-2.1-2.1-2.1m834.7-8.4h-7.4c-1.5 0-2.7-1.2-2.7-2.7v-3.2c0-.9-.7-1.5-1.5-1.5h-.1c-.8 0-1.5.7-1.5 1.5V39c0 1.5-1.2 2.7-2.7 2.7h-7.4c-.8 0-1.5.7-1.5 1.5v.1c0 .9.7 1.5 1.5 1.5h7.4c1.5 0 2.7 1.2 2.7 2.7v3.2c0 .9.7 1.5 1.5 1.5h.1c.8 0 1.5-.7 1.5-1.5v-3.2c0-1.5 1.2-2.7 2.7-2.7h7.4c.8 0 1.5-.7 1.5-1.5v-.1c0-.8-.7-1.5-1.5-1.5m164.7 99h-9.2c-1.8 0-3.3-1.5-3.3-3.4v-3.9c0-1.1-.8-1.9-1.9-1.9h-.2c-1 0-1.9.9-1.9 1.9v3.9c0 1.9-1.5 3.4-3.3 3.4h-9.2c-1 0-1.9.9-1.9 1.9v.2c0 1.1.8 1.9 1.9 1.9h9.2c1.8 0 3.3 1.5 3.3 3.4v3.9c0 1.1.8 1.9 1.9 1.9h.2c1 0 1.9-.9 1.9-1.9v-3.9c0-1.9 1.5-3.4 3.3-3.4h9.2c1 0 1.9-.9 1.9-1.9v-.2c0-1.1-.9-1.9-1.9-1.9M61.4 40h-5.6c-1.1 0-2-.8-2-1.8V36c0-.6-.5-1-1.2-1h-.1c-.6 0-1.2.5-1.2 1v2.1c0 1-.9 1.8-2 1.8h-5.6c-.6 0-1.2.5-1.2 1v.1c0 .6.5 1 1.2 1h5.6c1.1 0 2 .8 2 1.8V46c0 .6.5 1 1.2 1h.1c.6 0 1.2-.5 1.2-1v-2.1c0-1 .9-1.8 2-1.8h5.6c.6 0 1.2-.5 1.2-1V41c-.1-.6-.6-1-1.2-1m242.8 169H301c-.6 0-1.1-.5-1.1-1.1v-1.3c0-.4-.3-.7-.7-.7h-.1c-.4 0-.7.3-.7.7v1.3c0 .6-.5 1.1-1.1 1.1h-3.2c-.4 0-.7.3-.7.7v.1c0 .4.3.7.7.7h3.2c.6 0 1.1.5 1.1 1.1v1.3c0 .4.3.7.7.7h.1c.4 0 .7-.3.7-.7v-1.3c0-.6.5-1.1 1.1-1.1h3.2c.4 0 .7-.3.7-.7v-.1c-.1-.4-.4-.7-.7-.7m-77 67.1c-10.9 0-19.7-9-19.7-20.1 0-11.1 8.8-20.1 19.7-20.1 10.9 0 19.7 9 19.7 20.1 0 11.1-8.9 20.1-19.7 20.1"/><path class="st1" d="M186 256h82.3"/><path class="st2" d="M1218.1 334.6c15.1-3 26.8-15.3 28.8-30.7m-.4-11.8c-3-15.1-15.3-26.8-30.7-28.8m-11.8.4c-15.1 3-26.8 15.3-28.8 30.7m.5 11.8c3 15.1 15.3 26.8 30.7 28.8"/><path class="st3" d="M1208.7 335.2c.8.1 1.6.1 2.4.1.8 0 1.6 0 2.4-.1m-38.5-38.4c-.1.8-.1 1.6-.1 2.4 0 .8 0 1.6.1 2.4m38.4-38.5c-.8 0-1.6-.1-2.4-.1-.8 0-1.6 0-2.4.1m38.5 38.4c0-.8.1-1.6.1-2.4 0-.8 0-1.6-.1-2.4"/><path class="st4" d="M288.1 49.1c7.8-2.6 13.8-9.6 15.4-18.2m-.6-11.2c-2.3-8.4-8.9-14.8-17-16.6m-11.2.6c-7.8 2.6-13.8 9.6-15.4 18.2m.5 11.2c2.3 8.4 8.9 14.8 17 16.6"/><path class="st3" d="M279.1 50.1c.7.1 1.5.1 2.3.1.8 0 1.5 0 2.3-.1m-24.7-26c-.1.7-.1 1.5-.1 2.3 0 .8 0 1.5.1 2.3m24.6-25.9c-.7-.1-1.5-.1-2.3-.1-.8 0-1.5 0-2.3.1m24.7 25.9c.1-.7.1-1.5.1-2.3 0-.8 0-1.5-.1-2.3"/><path class="st5" d="M94.8 243.2c42.9-3.9 76.8-40.7 79.2-86.4m-.2-12.5c-3.5-45.4-38.2-81.5-81.5-84.1m-12.5.2C36.9 64.3 3 101.1.6 146.8m.2 12.5c3.5 45.4 38.2 81.5 81.5 84.1"/><path class="st3" d="M84.8 243.5h5M.5 149.3v5m89.3-94.2h-5m89.2 94.2v-5"/></svg>