<?xml version="1.0" encoding="utf-8"?>
<!-- Generator: Adobe Illustrator 20.1.0, SVG Export Plug-In . SVG Version: 6.00 Build 0)  -->
<svg version="1.1" id="Layer_1" xmlns="http://www.w3.org/2000/svg" xmlns:xlink="http://www.w3.org/1999/xlink" x="0px" y="0px"
	 viewBox="0 0 34.9 31.3" style="enable-background:new 0 0 34.9 31.3;" xml:space="preserve">
<style type="text/css">
	.st0{fill:#33EFB7;}
	.st1{fill:#FFFFFF;}
</style>
<path class="st0" d="M0,0h34.9v31.3H0V0z"/>
<path class="st1" d="M24.9,12.2v9c0,1.5-1.2,2.7-2.7,2.7h-2.5c-0.1,0-0.1-0.1-0.1-0.1v-2.5c0-0.6-0.2-1.1-0.5-1.3
	c0.4,0,0.7-0.1,1-0.2s0.6-0.2,0.9-0.4c0.3-0.2,0.6-0.4,0.8-0.6s0.4-0.6,0.5-1s0.2-0.9,0.2-1.4c0-0.8-0.2-1.4-0.7-1.9
	c0.2-0.6,0.2-1.2-0.1-1.9c-0.2-0.1-0.4,0-0.8,0.1c-0.3,0.1-0.6,0.3-0.9,0.4l-0.4,0.2c-0.6-0.2-1.2-0.2-1.8-0.2s-1.2,0.1-1.8,0.2
	c-0.1-0.1-0.2-0.2-0.4-0.3l-0.8-0.4c-0.4-0.1-0.6-0.2-0.8-0.1c-0.3,0.7-0.3,1.3-0.1,1.9c-0.5,0.5-0.7,1.2-0.7,1.9
	c0,0.5,0.1,1,0.2,1.4c0.1,0.4,0.3,0.7,0.5,1s0.5,0.5,0.8,0.6c0.3,0.2,0.6,0.3,0.9,0.4s0.6,0.1,1,0.2c-0.3,0.2-0.4,0.5-0.5,1
	C15.8,21,15.6,21,15.5,21H15c-0.2,0-0.4-0.1-0.6-0.2c-0.2-0.1-0.4-0.3-0.5-0.6c-0.1-0.2-0.3-0.4-0.5-0.5s-0.3-0.2-0.5-0.2h-0.5
	c0,0-0.1,0.1,0,0.1c0,0,0,0.1,0.1,0.1s0.1,0.1,0.1,0.1h0.1c0.1,0.1,0.3,0.2,0.4,0.4c0.1,0.2,0.2,0.3,0.3,0.5l0.1,0.2
	c0.1,0.2,0.2,0.4,0.4,0.6l0.6,0.3c0.2,0,0.4,0.1,0.7,0.1h0.7v1.6c0,0.1,0,0.2-0.1,0.3c-0.1,0.1-0.1,0.1-0.2,0.1h-2.4
	c-1.5,0-2.7-1.2-2.7-2.7v-9c0-1.5,1.2-2.7,2.7-2.7h9C23.7,9.5,24.9,10.7,24.9,12.2z M13.2,19.9h-0.1c-0.1,0-0.1-0.1-0.1-0.1h0.1
	C13.2,19.8,13.2,19.9,13.2,19.9z M13.5,20.2h-0.2c-0.1-0.1-0.1-0.1,0-0.2h0.2V20.2z M13.8,20.5c0.1,0.1,0.1,0.1,0,0.2
	c-0.1,0-0.1,0-0.2-0.1s-0.1-0.1,0-0.2C13.7,20.4,13.7,20.4,13.8,20.5z M14.2,21c-0.1,0.1-0.1,0-0.2,0c-0.1-0.1-0.1-0.1,0-0.2
	s0.1,0,0.2,0V21z M14.7,21.3c0,0.1-0.1,0.1-0.2,0.1s-0.1-0.1-0.1-0.1c0-0.1,0.1-0.1,0.2-0.1S14.7,21.2,14.7,21.3z M15.3,21.3
	c0,0.1-0.1,0.1-0.2,0.1s-0.2,0-0.2-0.1s0.1-0.1,0.2-0.1S15.3,21.2,15.3,21.3z M15.8,21.2c0,0.1,0,0.1-0.1,0.1s-0.2,0-0.2-0.1
	s0-0.1,0.1-0.1C15.8,21.1,15.8,21.2,15.8,21.2z"/>
</svg>
