<svg id="Layer_1" xmlns="http://www.w3.org/2000/svg" viewBox="0 0 34.9 31.3"><style>.st0{fill:#be529f}.st1{fill:#fff}</style><path class="st0" d="M0 0h34.9v31.3H0z"/><path class="st1" d="M24.9 12.2v9a2.732 2.732 0 0 1-2.7 2.7h-2.5c-.1 0-.1-.1-.1-.1v-2.5c0-.6-.2-1.1-.5-1.3.4 0 .7-.1 1-.2s.6-.2.9-.4c.3-.2.6-.4.8-.6s.4-.6.5-1 .2-.9.2-1.4c0-.8-.2-1.4-.7-1.9.2-.6.2-1.2-.1-1.9-.2-.1-.4 0-.8.1-.3.1-.6.3-.9.4l-.4.2c-.6-.2-1.2-.2-1.8-.2s-1.2.1-1.8.2c-.1-.1-.2-.2-.4-.3l-.8-.4c-.4-.1-.6-.2-.8-.1-.3.7-.3 1.3-.1 1.9-.5.5-.7 1.2-.7 1.9 0 .5.1 1 .2 1.4.1.4.3.7.5 1 .2.3.5.5.8.6.3.2.6.3.9.4s.6.1 1 .2c-.3.2-.4.5-.5 1-.3.1-.5.1-.6.1H15c-.2 0-.4-.1-.6-.2-.2-.1-.4-.3-.5-.6-.1-.2-.3-.4-.5-.5-.2-.1-.3-.2-.5-.2h-.5s-.1.1 0 .1c0 0 0 .1.1.1s.1.1.1.1h.1c.1.1.3.2.4.4.1.2.2.3.3.5l.1.2c.1.2.2.4.4.6l.6.3c.2 0 .4.1.7.1h.7v1.6c0 .1 0 .2-.1.3-.1.1-.1.1-.2.1h-2.4a2.732 2.732 0 0 1-2.7-2.7v-9a2.732 2.732 0 0 1 2.7-2.7h9a2.732 2.732 0 0 1 2.7 2.7zm-11.7 7.7h-.1c-.1 0-.1-.1-.1-.1h.1c.1 0 .1.1.1.1zm.3.3h-.2c-.1-.1-.1-.1 0-.2h.2v.2zm.3.3c.1.1.1.1 0 .2-.1 0-.1 0-.2-.1s-.1-.1 0-.2c.1 0 .1 0 .2.1zm.4.5c-.1.1-.1 0-.2 0-.1-.1-.1-.1 0-.2s.1 0 .2 0v.2zm.5.3c0 .1-.1.1-.2.1s-.1-.1-.1-.1c0-.1.1-.1.2-.1s.1 0 .1.1zm.6 0c0 .1-.1.1-.2.1s-.2 0-.2-.1.1-.1.2-.1.2 0 .2.1zm.5-.1c0 .1 0 .1-.1.1s-.2 0-.2-.1 0-.1.1-.1c.2 0 .2.1.2.1z"/></svg>