<svg xmlns="http://www.w3.org/2000/svg" viewBox="0 0 40 40"><path d="M40 40H0V0h40v40zM2.2 37.8h35.7V2.2H2.2v35.6z"/><path d="M18.1 24.1c-.1.6-.3 1.1-.7 1.6-.3.5-.8.9-1.5 1.2-.6.3-1.5.5-2.6.5-.6 0-1.2-.1-1.8-.3-.6-.2-1.1-.4-1.5-.8-.3-.3-.7-.7-1-1.3-.3-.6-.4-1.2-.4-2.1v-1.3h2.9v.7c0 .4 0 .7.1 1 .1.3.1.6.3.8.1.2.3.4.6.5.2.1.5.2.9.2s.7-.1 1-.2c.2-.2.4-.3.5-.6.1-.2.2-.5.2-.8V12.5h3.2v10c0 .5-.1 1-.2 1.6zm2.6-8.1c.2-.7.5-1.3 1-1.8.4-.5 1-.9 1.6-1.2.7-.3 1.4-.4 2.3-.4.7 0 1.3.1 1.9.3.6.2 1.1.5 1.6.9s.8.9 1.1 1.4c.3.6.4 1.2.4 1.9s-.1 1.3-.3 1.9c-.2.5-.5 1-.9 1.4-.4.4-.8.8-1.3 1.1-.5.3-1 .7-1.5 1-.5.3-1 .7-1.4 1-.5.4-.9.8-1.2 1.3h6.8v2.5H20.1c0-.8.1-1.6.4-2.2.2-.6.6-1.2 1-1.6.4-.5.9-.9 1.4-1.3.6-.4 1.1-.8 1.7-1.2.3-.2.6-.4 1-.7.4-.2.7-.5 1-.7.3-.3.5-.6.7-.9.2-.3.3-.7.3-1.2 0-.7-.2-1.2-.6-1.6-.4-.4-.9-.6-1.5-.6-.4 0-.8.1-1.1.3-.3.2-.5.5-.7.8-.2.3-.3.7-.4 1.1-.1.4-.1.8-.1 1.2h-2.8c0-1.2.1-2 .3-2.7z"/></svg>