<svg id="Layer_1" xmlns="http://www.w3.org/2000/svg" viewBox="0 0 210.5 218.5"><style>.st0{fill:#69c4a5}.st1,.st2{fill:none;stroke:#69c4a5;stroke-width:3;stroke-miterlimit:10}.st2{stroke:#fff;stroke-linecap:round}</style><path class="st0" d="M157.7 204.7c0 2.4-1.9 4.3-4.3 4.3-2.3 0-4.3-1.9-4.3-4.3s1.9-4.3 4.3-4.3c2.4-.1 4.3 1.9 4.3 4.3M23.4 192.4c-1.7 0-3.1-1.4-3.1-3.2 0-1.7 1.4-3.2 3.1-3.2 1.7 0 3.1 1.4 3.1 3.2 0 1.8-1.4 3.2-3.1 3.2M54.8 204H44.7c-2 0-3.6-1.6-3.6-3.7V196c0-1.2-.9-2.1-2.1-2.1h-.2c-1.1 0-2.1.9-2.1 2.1v4.3c0 2-1.6 3.7-3.6 3.7h-10c-1.1 0-2.1.9-2.1 2.1v.2c0 1.2.9 2.1 2.1 2.1h10.1c2 0 3.6 1.6 3.6 3.7v4.3c0 1.2.9 2.1 2.1 2.1h.1c1.1 0 2.1-.9 2.1-2.1v-4.3c0-2 1.6-3.7 3.6-3.7h10.1c1.1 0 2.1-.9 2.1-2.1v-.2c-.1-1.2-1-2.1-2.1-2.1m154.4-86.4h-6.5c-1.3 0-2.3-1.1-2.3-2.4v-2.8c0-.7-.6-1.4-1.3-1.4h-.1c-.7 0-1.3.6-1.3 1.4v2.8c0 1.3-1 2.4-2.3 2.4h-6.5c-.7 0-1.3.6-1.3 1.4v.1c0 .7.6 1.4 1.3 1.4h6.5c1.3 0 2.3 1.1 2.3 2.4v2.8c0 .7.6 1.4 1.3 1.4h.1c.7 0 1.3-.6 1.3-1.4v-2.8c0-1.3 1-2.4 2.3-2.4h6.5c.7 0 1.3-.6 1.3-1.4v-.1c0-.8-.6-1.4-1.3-1.4M3.1 54.3c1.7 0 3.1 1.4 3.1 3.2 0 1.7-1.4 3.2-3.1 3.2-1.7 0-3.1-1.4-3.1-3.2 0-1.7 1.4-3.2 3.1-3.2m125.3-45h6.5c1.3 0 2.3 1.1 2.3 2.4v2.8c0 .7.6 1.4 1.3 1.4h.1c.7 0 1.3-.6 1.3-1.4v-2.8c0-1.3 1-2.4 2.3-2.4h6.5c.7 0 1.3-.6 1.3-1.4v-.1c0-.7-.6-1.4-1.3-1.4h-6.5c-1.3 0-2.3-1.1-2.3-2.4V1.4c0-.7-.6-1.4-1.3-1.4h-.1c-.7 0-1.3.6-1.3 1.4v2.8c0 1.3-1 2.4-2.3 2.4h-6.5c-.7 0-1.3.6-1.3 1.4 0 .7.6 1.3 1.3 1.3M12.8 23h4.1c.8 0 1.5.7 1.5 1.5v1.7c0 .5.4.9.8.9h.1c.5 0 .8-.4.8-.9v-1.7c0-.8.7-1.5 1.5-1.5h4.1c.5 0 .8-.4.8-.9V22c0-.5-.4-.9-.8-.9h-4.1c-.8 0-1.5-.7-1.5-1.5V18c0-.5-.4-.9-.8-.9h-.1c-.5 0-.8.4-.8.9v1.7c0 .8-.7 1.5-1.5 1.5h-4.1c-.5 0-.8.4-.8.9v.1c0 .4.4.8.8.8"/><circle class="st1" cx="88.6" cy="109.6" r="50"/><circle class="st1" cx="88.6" cy="109.6" r="80"/><circle class="st0" cx="88.6" cy="109.6" r="20"/><circle class="st0" cx="46" cy="133.9" r="7"/><circle class="st0" cx="128" cy="39.6" r="7"/><circle class="st0" cx="88.6" cy="109.6" r="20"/><path class="st2" d="M73.6 109.6c0-8.3 6.7-15 15-15"/></svg>