<svg id="Layer_1" data-name="Layer 1" xmlns="http://www.w3.org/2000/svg" viewBox="0 0 103.08 76.32"><defs><style>.cls-1{fill:#69c4a5}.cls-2{fill:#3f5579}</style></defs><title>managed-icon</title><path class="cls-1" d="M38.11 3.85a3.78 3.78 0 1 1-7.55 0 3.78 3.78 0 1 1 7.55 0m45.68.53a2.1 2.1 0 1 1-2.1-2.14 2.12 2.12 0 0 1 2.1 2.14m-5.73 26.94a1.56 1.56 0 1 1 1.52-1.56 1.54 1.54 0 0 1-1.52 1.56m-61.44 3.42h-5a1.8 1.8 0 0 1-1.78-1.81V30.8a1 1 0 0 0-1-1h-.07a1 1 0 0 0-1 1v2.12A1.8 1.8 0 0 1 6 34.74H1a1 1 0 0 0-1 1v.09a1 1 0 0 0 1 1h5a1.8 1.8 0 0 1 1.78 1.81v2.12a1 1 0 0 0 1 1h.09a1 1 0 0 0 1-1v-2.05a1.8 1.8 0 0 1 1.78-1.81h5a1 1 0 0 0 1-1v-.09a1 1 0 0 0-1-1m85.78-11.19h-3.2a1.16 1.16 0 0 1-1.15-1.17v-1.37a.66.66 0 0 0-.65-.67h-.06a.66.66 0 0 0-.65.67v1.37a1.16 1.16 0 0 1-1.14 1.17h-3.19a.66.66 0 0 0-.65.67v.06a.66.66 0 0 0 .65.67h3.19a1.16 1.16 0 0 1 1.14 1.17v1.37a.66.66 0 0 0 .65.67h.06a.66.66 0 0 0 .65-.67v-1.39A1.16 1.16 0 0 1 99.23 25h3.19a.66.66 0 0 0 .65-.67v-.06a.66.66 0 0 0-.65-.67m-1.49 26.58h-2a.73.73 0 0 1-.72-.74v-.86a.42.42 0 0 0-.41-.42.42.42 0 0 0-.41.42v.86a.73.73 0 0 1-.72.74h-2a.42.42 0 0 0-.41.42.42.42 0 0 0 .41.42h2a.73.73 0 0 1 .72.74v.86a.42.42 0 0 0 .41.42.42.42 0 0 0 .41-.42v-.86a.73.73 0 0 1 .72-.74h2a.42.42 0 0 0 .41-.42.42.42 0 0 0-.41-.42"/><path class="cls-2" d="M34.33 63.29H18.62v8.87h15.71zm1-.73v11.25a.53.53 0 0 1-.49.55H18.12a.53.53 0 0 1-.49-.55V62.56a.49.49 0 0 1 .49-.49h16.75a.49.49 0 0 1 .49.49M24 75.67l-.24.5s0 .15.12.15h5.66c.1 0 .1-.15.1-.15l-.24-.5zm5.4-.12H24v-1h5.42zm33.23-12.26H46.92v8.87h15.71zm1-.73v11.25a.53.53 0 0 1-.49.55H46.42a.53.53 0 0 1-.49-.55V62.56a.49.49 0 0 1 .49-.49h16.75a.49.49 0 0 1 .49.49M52.29 75.67l-.24.5s0 .15.12.15h5.66c.1 0 .1-.15.1-.15l-.24-.5zm5.4-.12h-5.42v-1h5.42zM90.7 63.29H75v8.87h15.7zm1-.73v11.25a.53.53 0 0 1-.49.55H74.5a.53.53 0 0 1-.49-.55V62.56a.49.49 0 0 1 .49-.49h16.74a.49.49 0 0 1 .49.49M80.36 75.67l-.24.5s0 .15.12.15h5.66c.1 0 .1-.15.1-.15l-.24-.5zm5.4-.12h-5.42v-1h5.42zM26.11 45.37h1.18v1.49h-1.18zm0 2.98h1.18v1.49h-1.18zm0 2.98h1.18v1.49h-1.18zm0 2.99h1.18v1.49h-1.18zm0 2.98h1.18v1.49h-1.18zm0-14.76v1.34h1.18v-.15h.15v-1.19h-1.33zm2.82 0h1.49v1.19h-1.49zm2.99 0h1.49v1.19h-1.49zm2.98 0h1.49v1.19H34.9zm2.98 0h1.49v1.19h-1.49zm2.99 0h1.49v1.19h-1.49zm41.31 2.83h1.18v1.49h-1.18zm0 2.98h1.18v1.49h-1.18zm0 2.98h1.18v1.49h-1.18zm0 2.99h1.18v1.49h-1.18zm0 2.98h1.18v1.49h-1.18zm1.18-14.76v1.34h-1.18v-.15h-.15v-1.19h1.33zm-4.31 0h1.49v1.19h-1.49zm-2.99 0h1.49v1.19h-1.49zm-2.98 0h1.49v1.19h-1.49zm-2.98 0h1.49v1.19H70.1zm-2.99 0h1.49v1.19h-1.49zM54.44 54.32h1.18v1.49h-1.18zm0 2.98h1.18v1.49h-1.18zm0-29.58h1.18v1.49h-1.18zm0 2.98h1.18v1.49h-1.18zm-7.18 19.5a.91.91 0 1 1 .91-.91.91.91 0 0 1-.91.91m15.42-3.56H46.91a2.65 2.65 0 1 0 0 5.3h15.77a2.65 2.65 0 1 0 0-5.3m-15.42-2.83a.91.91 0 1 1 .91-.9.91.91 0 0 1-.91.9m15.42-3.56H46.91a2.65 2.65 0 1 0 0 5.3h15.77a2.65 2.65 0 1 0 0-5.3m-15.42-2.83a.91.91 0 1 1 .91-.91.91.91 0 0 1-.91.91m15.42-3.56H46.91a2.65 2.65 0 1 0 0 5.3h15.77a2.65 2.65 0 1 0 0-5.3m.66-21.35H46.2v9.68h17.14zm1.12-.8V24a.58.58 0 0 1-.54.6H45.66a.58.58 0 0 1-.54-.6V11.71a.54.54 0 0 1 .54-.54h18.27a.54.54 0 0 1 .54.54M52.06 26l-.26.55s0 .16.13.16h6.18c.11 0 .11-.16.11-.16L58 26zm5.9-.14H52v-1h6z"/></svg>