<svg id="Layer_1" xmlns="http://www.w3.org/2000/svg" viewBox="0 0 1387.4 680"><style>.st0{fill:#3b3b3b}.st1{fill:#29ecb4}.st2{fill:none;stroke:#00b7df;stroke-width:2}.st3{fill:none;stroke:#29ecb4;stroke-dasharray:4.944,4.944}.st4{stroke-dasharray:4.923,4.923}.st4,.st5,.st6,.st7,.st8{fill:none;stroke:#29ecb4}.st5{stroke-dasharray:4.903,4.903}.st6{stroke-dasharray:5.017,5.017}.st7{stroke-dasharray:4.842,4.842}.st8{stroke-dasharray:5.041,5.041}.st9{stroke-dasharray:4.832,4.832}.st10,.st9{fill:none;stroke:#29ecb4}</style><path class="st0" d="M-4.8 0h1400v680H-4.8z"/><path class="st1" d="M824.9 273.3c0 11.2-8.6 20.2-19.3 20.2-10.6 0-19.2-9-19.2-20.2s8.6-20.2 19.2-20.2c10.7 0 19.3 9.1 19.3 20.2m54.6 26.5c-1.7 0-3.1-1.4-3.1-3.2s1.4-3.2 3.1-3.2c1.7 0 3.1 1.4 3.1 3.2s-1.3 3.2-3.1 3.2m-724.3-88.6c-4.7 0-8.5-3.8-8.5-8.5s3.8-8.5 8.5-8.5 8.5 3.8 8.5 8.5-3.8 8.5-8.5 8.5m264.5 30.2c-3.2 0-5.8-2.5-5.8-5.6 0-3.1 2.6-5.6 5.8-5.6 3.2 0 5.7 2.5 5.7 5.6 0 3.1-2.6 5.6-5.7 5.6M527 435.9c-1.7 0-3.1-1.4-3.1-3.2s1.4-3.2 3.1-3.2c1.7 0 3.1 1.4 3.1 3.2s-1.4 3.2-3.1 3.2M123.5 279.7c-1.7 0-3.1-1.4-3.1-3.2s1.4-3.2 3.1-3.2c1.7 0 3.1 1.4 3.1 3.2s-1.3 3.2-3.1 3.2m1155-38.5c-1.7 0-3.1-1.4-3.1-3.2 0-1.8 1.4-3.2 3.1-3.2 1.7 0 3.1 1.4 3.1 3.2.1 1.8-1.3 3.2-3.1 3.2"/><path class="st3" d="M-17.2 269.5l135.8 6.8"/><path class="st4" d="M126.5 269.8l26.7-60.9m9.3-3.7L414.4 234"/><path class="st5" d="M422.8 241.1l101.8 187.3"/><path class="st6" d="M533.5 429l267.8-153.2"/><path class="st7" d="M812.6 275.5l62.3 19.6"/><path class="st8" d="M887 295.5l386.6-56.8"/><path class="st9" d="M1285.8 238.6l122.8 9.9"/><path class="st10" d="M1411 248.7l2.4.2m-137.3-10.5l2.5-.4 2.4.2m-403.8 57.6l2.3.7 2.5-.4m-78.5-21.5l2.2-1.2 2.3.7M525.8 430.6l1.2 2.2 2.2-1.2M416.8 234.3l2.4.3 1.2 2.2m-266.2-30.2l1-2.3 2.4.3m-36.5 71.8l2.5.1 1-2.3m-149.2-5.1l2.5.1"/></svg>