<svg id="Layer_1" xmlns="http://www.w3.org/2000/svg" viewBox="0 0 385.1 655.5"><style>.st0{fill:#29ecb4}.st1{fill:#231f20}.st2{fill:none;stroke:#00b7df;stroke-width:2}</style><path class="st0" d="M49.1 13.5h-7.4c-1.5 0-2.7-1.2-2.7-2.7V7.6c0-.9-.7-1.5-1.5-1.5h-.1c-.8 0-1.5.7-1.5 1.5v3.2c0 1.5-1.2 2.7-2.7 2.7h-7.4c-.8 0-1.5.7-1.5 1.5v.1c0 .9.7 1.5 1.5 1.5h7.4c1.5 0 2.7 1.2 2.7 2.7v3.2c0 .9.7 1.5 1.5 1.5h.1c.8 0 1.5-.7 1.5-1.5v-3.2c0-1.5 1.2-2.7 2.7-2.7h7.4c.8 0 1.5-.7 1.5-1.5V15c0-.8-.7-1.5-1.5-1.5m311.3 104.8h-9.2c-1.8 0-3.3-1.5-3.3-3.4V111c0-1.1-.8-1.9-1.9-1.9h-.2c-1 0-1.9.9-1.9 1.9v3.9c0 1.9-1.5 3.4-3.3 3.4h-9.2c-1 0-1.9.9-1.9 1.9v.2c0 1.1.8 1.9 1.9 1.9h9.2c1.8 0 3.3 1.5 3.3 3.4v3.9c0 1.1.8 1.9 1.9 1.9h.2c1 0 1.9-.9 1.9-1.9v-3.9c0-1.9 1.5-3.4 3.3-3.4h9.2c1 0 1.9-.9 1.9-1.9v-.2c0-1-.9-1.9-1.9-1.9m-167.8 16.6c-30.6 0-55.4 24.8-55.4 55.4s24.8 55.4 55.4 55.4c30.6 0 55.4-24.8 55.4-55.4s-24.8-55.4-55.4-55.4M192.2 0c46.6 0 87 99.8 107.1 245.9 51.7 33.4 85.8 90.6 85.8 155.2-56.1-42.7-122.2-67-192.9-67-70.4 0-136.2 24.4-192.2 66.8 0-64.3 33.8-121.1 85.1-154.5C105.2 100 145.6 0 192.2 0"/><path class="st0" d="M174.1 373.7V637c0 10.2 8.3 18.5 18.5 18.5s18.5-8.3 18.5-18.5V373.7c-6.1-.4-12.3-.6-18.5-.6-6.3-.1-12.4.2-18.5.6m66.8 199.9c0 10.2 8.3 18.5 18.5 18.5s18.5-8.3 18.5-18.5V386.4c-12.1-3.9-24.4-6.9-37-9.1v196.3zm-133.7 0c0 10.2 8.3 18.5 18.5 18.5s18.5-8.3 18.5-18.5V377.3c-12.6 2.2-24.9 5.3-37 9.1v187.2zm200.6-175.7v112.3c0 10.2 8.3 18.5 18.5 18.5s18.5-8.3 18.5-18.5v-92.6c-11.9-7.5-24.3-14.1-37-19.7M40.3 510.2c0 10.2 8.3 18.5 18.5 18.5s18.5-8.3 18.5-18.5V397.9c-12.7 5.7-25.1 12.3-37 19.7v92.6z"/></svg>