<svg id="Layer_1" xmlns="http://www.w3.org/2000/svg" viewBox="0 0 167.6 209.1"><style>.st0{fill:#3c3c3b}</style><path class="st0" d="M88.4 66.7c-8.2 0-14.9 6.8-14.9 15.2S80.2 97 88.4 97s14.8-6.8 14.8-15.2-6.6-15.1-14.8-15.1m-.1-36.9c12.5 0 23.3 27.3 28.7 67.3 13.9 9.1 23 24.8 23 42.5-15-11.7-32.8-18.3-51.7-18.3-18.9 0-36.5 6.7-51.5 18.3 0-17.6 9.1-33.1 22.8-42.3C65 57.2 75.8 29.8 88.3 29.8"/><path class="st0" d="M83.4 132v72c0 2.8 2.2 5.1 5 5.1 2.7 0 5-2.3 5-5.1v-72c-1.6-.1-3.3-.2-5-.2-1.7.1-3.3.1-5 .2m18 54.7c0 2.8 2.2 5.1 5 5.1 2.7 0 5-2.3 5-5.1v-51.2c-3.2-1.1-6.6-1.9-9.9-2.5v53.7zm-35.9 0c0 2.8 2.2 5.1 5 5.1 2.7 0 5-2.3 5-5.1V133c-3.4.6-6.7 1.4-9.9 2.5v51.2zm53.8-48v30.7c0 2.8 2.2 5.1 5 5.1 2.7 0 5-2.3 5-5.1V144c-3.3-2-6.6-3.8-10-5.3m-71.7 30.7c0 2.8 2.2 5.1 5 5.1 2.7 0 5-2.3 5-5.1v-30.7c-3.4 1.6-6.7 3.4-9.9 5.4v25.3zM151.8 69.2c0 2.9-2.3 5.3-5.2 5.3-2.9 0-5.2-2.4-5.2-5.3s2.3-5.3 5.2-5.3c2.9 0 5.2 2.4 5.2 5.3M112.1 2.9c0 1.6-1.3 2.9-2.9 2.9-1.6 0-2.9-1.3-2.9-2.9 0-1.6 1.3-2.9 2.9-2.9 1.6 0 2.9 1.3 2.9 2.9M47 62.4c-.9 0-1.6-.7-1.6-1.6s.7-1.6 1.6-1.6c.9 0 1.6.7 1.6 1.6s-.7 1.6-1.6 1.6M9.1 136.1c-1.2 0-2.1-1-2.1-2.1s.9-2.1 2.1-2.1 2.1 1 2.1 2.1-1 2.1-2.1 2.1m13.7-52.9H16c-1.3 0-2.4-1.1-2.4-2.5v-2.9c0-.8-.6-1.4-1.4-1.4H12c-.8 0-1.4.6-1.4 1.4v2.9c0 1.4-1.1 2.5-2.4 2.5H1.4c-.8 0-1.4.6-1.4 1.4v.1c0 .8.6 1.4 1.4 1.4h6.8c1.3 0 2.4 1.1 2.4 2.5v2.9c0 .8.6 1.4 1.4 1.4h.1c.8 0 1.4-.6 1.4-1.4v-2.9c0-1.4 1.1-2.5 2.4-2.5h6.8c.8 0 1.4-.6 1.4-1.4v-.1c0-.7-.6-1.4-1.3-1.4m124.1-66h-4.4c-.9 0-1.6-.7-1.6-1.6v-1.9c0-.5-.4-.9-.9-.9s-.9.4-.9.9v1.9c0 .9-.7 1.6-1.6 1.6h-4.4c-.5 0-.9.4-.9.9v.1c0 .5.4.9.9.9h4.4c.9 0 1.6.7 1.6 1.6v1.9c0 .5.4.9.9.9h.1c.5 0 .9-.4.9-.9v-1.9c0-.9.7-1.6 1.6-1.6h4.4c.5 0 .9-.4.9-.9v-.1c-.1-.5-.5-.9-1-.9M167 183.6h-2.8c-.5 0-1-.5-1-1v-1.2c0-.3-.3-.6-.6-.6s-.6.3-.6.6v1.2c0 .6-.4 1-1 1h-2.8c-.3 0-.6.3-.6.6s.3.6.6.6h2.8c.5 0 1 .5 1 1v1.2c0 .3.3.6.6.6s.6-.3.6-.6v-1.2c0-.6.4-1 1-1h2.8c.3 0 .6-.3.6-.6 0-.4-.3-.6-.6-.6"/></svg>