<svg id="Layer_1" xmlns="http://www.w3.org/2000/svg" viewBox="0 0 94.7 39.2"><style>.st0{fill:#fff}</style><path class="st0" d="M10 14c-.9 0-1.7.2-2.5.5s-1.5.8-2.1 1.4c-.6.6-1.1 1.3-1.4 2.1-.3.8-.5 1.6-.5 2.5 0 .9.2 1.7.5 2.5s.8 1.5 1.4 2.1c.6.6 1.3 1.1 2.1 1.4.8.3 1.6.5 2.5.5.9 0 1.7-.2 2.5-.5s1.5-.8 2.1-1.4c.6-.6 1.1-1.3 1.4-2.1.3-.8.5-1.6.5-2.5 0-.9-.2-1.7-.5-2.5s-.8-1.5-1.4-2.1c-.6-.6-1.3-1.1-2.1-1.4-.8-.3-1.6-.5-2.5-.5m0 16.5c-1.2 0-2.4-.2-3.5-.6-1.1-.4-2.1-1-3-1.8v9.4c0 .5-.2.9-.5 1.2-.3.3-.7.5-1.2.5s-.9-.2-1.2-.5c-.4-.3-.6-.7-.6-1.2V12.3c0-.5.2-.9.5-1.2.3-.3.7-.5 1.2-.5s.9.2 1.2.5c.3.3.5.7.5 1.2v.7c.9-.8 1.9-1.4 3-1.8 1.1-.4 2.3-.6 3.5-.6 1.4 0 2.7.3 3.9.8 1.2.5 2.3 1.2 3.2 2.1.9.9 1.6 2 2.1 3.2.5 1.2.8 2.5.8 3.9s-.3 2.7-.8 3.9c-.5 1.2-1.2 2.3-2.1 3.2s-2 1.6-3.2 2.1-2.4.7-3.8.7m16.9 0c-.5 0-.9-.2-1.2-.5-.3-.3-.5-.7-.5-1.2V12.3c0-.5.2-.9.5-1.2.3-.3.7-.5 1.2-.5s.9.2 1.2.5c.3.3.5.7.5 1.2v16.5c0 .5-.2.9-.5 1.2-.3.4-.7.5-1.2.5m0-22.5c-.6 0-1.2-.2-1.6-.7-.5-.5-.7-1-.7-1.6 0-.6.2-1.2.7-1.6.5-.4 1-.6 1.6-.6.6 0 1.2.2 1.6.6.4.4.7 1 .7 1.6 0 .6-.2 1.2-.7 1.6-.4.4-.9.7-1.6.7m10.5 22.5c-.5 0-.9-.2-1.2-.5-.3-.3-.5-.7-.5-1.2V1.7c0-.5.2-.9.5-1.2.3-.3.7-.5 1.2-.5s.9.2 1.2.5c.3.3.5.7.5 1.2v27.1c0 .5-.2.9-.5 1.2-.4.4-.8.5-1.2.5M53.8 14c-.9 0-1.7.2-2.5.5s-1.5.8-2.1 1.4c-.6.6-1.1 1.3-1.4 2.1-.3.8-.5 1.6-.5 2.5 0 .9.2 1.7.5 2.5s.8 1.5 1.4 2.1c.6.6 1.3 1.1 2.1 1.4.8.3 1.6.5 2.5.5.9 0 1.7-.2 2.5-.5s1.5-.8 2.1-1.4c.6-.6 1.1-1.3 1.4-2.1.3-.8.5-1.6.5-2.5 0-.9-.2-1.7-.5-2.5s-.8-1.5-1.4-2.1c-.6-.6-1.3-1.1-2.1-1.4-.8-.3-1.6-.5-2.5-.5m0 16.5c-1.4 0-2.7-.3-3.9-.8-1.2-.5-2.3-1.2-3.2-2.1s-1.6-2-2.1-3.2c-.5-1.2-.8-2.5-.8-3.9s.3-2.7.8-3.9c.5-1.2 1.2-2.3 2.1-3.2.9-.9 2-1.6 3.2-2.1 1.2-.5 2.5-.8 3.9-.8s2.7.3 3.9.8c1.2.5 2.3 1.2 3.2 2.1.9.9 1.6 2 2.1 3.2.5 1.2.8 2.5.8 3.9s-.3 2.7-.8 3.9c-.5 1.2-1.2 2.3-2.1 3.2-.9.9-2 1.6-3.2 2.1-1.2.6-2.5.8-3.9.8M77.5 14h-3.1v14.8c0 .5-.2.9-.5 1.2-.3.3-.7.5-1.2.5s-.9-.2-1.2-.5c-.3-.3-.5-.7-.5-1.2V14h-3.2c-.5 0-.9-.2-1.2-.5-.3-.3-.5-.7-.5-1.2s.2-.9.5-1.2c.3-.3.7-.5 1.2-.5H71V4.9c0-.5.2-.9.5-1.2.3-.3.7-.5 1.2-.5s.9.2 1.2.5c.3.3.5.7.5 1.2v5.7h3.1c.5 0 .9.2 1.2.5.3.3.5.7.5 1.2s-.2.9-.5 1.2c-.3.4-.7.5-1.2.5M93 14h-3.1v14.8c0 .5-.2.9-.5 1.2-.3.3-.7.5-1.2.5s-.9-.2-1.2-.5c-.3-.3-.5-.7-.5-1.2V14h-3.2c-.5 0-.9-.2-1.2-.5-.3-.3-.5-.7-.5-1.2s.2-.9.5-1.2c.3-.3.7-.5 1.2-.5h3.2V4.9c0-.5.2-.9.5-1.2.3-.3.7-.5 1.2-.5s.9.2 1.2.5c.3.3.5.7.5 1.2v5.7H93c.5 0 .9.2 1.2.5.3.3.5.7.5 1.2s-.2.9-.5 1.2c-.3.4-.7.5-1.2.5"/></svg>