<svg id="Layer_1" xmlns="http://www.w3.org/2000/svg" viewBox="0 0 93.4 68.6"><style>.st0{fill:#69c4a5}.st1{fill:#3f5579}</style><path class="st0" d="M92.1 11.6c0 2.1-1.7 3.9-3.8 3.9-2.1 0-3.8-1.7-3.8-3.9 0-2.1 1.7-3.9 3.8-3.9 2.1.1 3.8 1.8 3.8 3.9m-26.3 0c0 1.2-.9 2.1-2.1 2.1-1.2 0-2.1-1-2.1-2.1 0-1.2.9-2.1 2.1-2.1 1.2 0 2.1.9 2.1 2.1M17.1 45.4c-.6 0-1.2-.5-1.2-1.2s.5-1.2 1.2-1.2c.6 0 1.2.5 1.2 1.2s-.5 1.2-1.2 1.2m4.6-42.3c-.8 0-1.5-.7-1.5-1.6S20.8 0 21.7 0c.8 0 1.5.7 1.5 1.6s-.7 1.5-1.5 1.5m-5.1 58.4h-5c-1 0-1.8-.8-1.8-1.8v-2.1c0-.6-.5-1-1-1-.6 0-1 .5-1 1v2.1c0 1-.8 1.8-1.8 1.8H1c-.6 0-1 .5-1 1v.1c0 .6.5 1 1 1h5c1 0 1.8.8 1.8 1.8v2.1c0 .6.5 1 1 1h.1c.6 0 1-.5 1-1v-2.1c0-1 .8-1.8 1.8-1.8h5c.6 0 1-.5 1-1v-.1c-.1-.6-.5-1-1.1-1m2.9-33.7h-3.2c-.6 0-1.1-.5-1.1-1.2v-1.4c0-.4-.3-.7-.7-.7h-.1c-.4 0-.7.3-.7.7v1.4c0 .6-.5 1.2-1.1 1.2H9.5c-.4 0-.7.3-.7.7v.1c0 .4.3.7.7.7h3.2c.6 0 1.1.5 1.1 1.2v1.4c0 .4.3.7.7.7h.1c.4 0 .7-.3.7-.7v-1.4c0-.6.5-1.2 1.1-1.2h3.2c.4 0 .7-.3.7-.7v-.1c-.1-.4-.4-.7-.8-.7M93 46.2h-2c-.4 0-.7-.3-.7-.7v-.9c0-.2-.2-.4-.4-.4s-.4.2-.4.4v.9c0 .4-.3.7-.7.7h-2c-.2 0-.4.2-.4.4s.2.4.4.4h2c.4 0 .7.3.7.7v.9c0 .2.2.4.4.4s.4-.2.4-.4v-.9c0-.4.3-.7.7-.7h2c.2 0 .4-.2.4-.4s-.2-.4-.4-.4"/><path class="st1" d="M75.2 54.4h-3.1v-3.2h3.1v3.2zm-8.1.2c-1 0-1.7-.8-1.7-1.8s.8-1.8 1.7-1.8c1 0 1.7.8 1.7 1.8s-.8 1.8-1.7 1.8m-6.9-.6H32.6c-.6 0-1.1-.5-1.1-1.2s.5-1.2 1.1-1.2h27.6c.6 0 1.1.5 1.1 1.2s-.5 1.2-1.1 1.2m14.1-6.5H31.5c-2.8 0-5.1 2.4-5.1 5.4 0 3 2.3 5.4 5.1 5.4h42.8c2.8 0 5.1-2.4 5.1-5.4 0-3-2.3-5.4-5.1-5.4m.9-6.4h-3.1v-3.2h3.1v3.2zm-8.1.2c-1 0-1.7-.8-1.7-1.8s.8-1.8 1.7-1.8c1 0 1.7.8 1.7 1.8s-.8 1.8-1.7 1.8m-6.9-.6H32.6c-.6 0-1.1-.5-1.1-1.2s.5-1.2 1.1-1.2h27.6c.6 0 1.1.5 1.1 1.2s-.5 1.2-1.1 1.2m14.1-6.5H31.5c-2.8 0-5.1 2.4-5.1 5.4 0 3 2.3 5.4 5.1 5.4h42.8c2.8 0 5.1-2.4 5.1-5.4 0-3-2.3-5.4-5.1-5.4m.9-6.4h-3.1v-3.2h3.1v3.2zm-8.1.2c-1 0-1.7-.8-1.7-1.8s.8-1.8 1.7-1.8c1 0 1.7.8 1.7 1.8S68 28 67.1 28m-6.9-.6H32.6c-.6 0-1.1-.5-1.1-1.2S32 25 32.6 25h27.6c.6 0 1.1.5 1.1 1.2s-.5 1.2-1.1 1.2m14.1-6.5H31.5c-2.8 0-5.1 2.4-5.1 5.4 0 3 2.3 5.4 5.1 5.4h42.8c2.8 0 5.1-2.4 5.1-5.4 0-3-2.3-5.4-5.1-5.4m-11 44.8h14.8v1.4H63.3zm-35.5 0h14.8v1.4H27.8zm23.9-5.8v4.4h-8v4.3h18.4v-4.3h-7.9v-4.4z"/></svg>