<svg id="Layer_1" data-name="Layer 1" xmlns="http://www.w3.org/2000/svg" viewBox="0 0 222.2 206.21"><defs><style>.cls-1{fill:#69c4a5}.cls-2,.cls-3{fill:none;stroke-linecap:round;stroke-miterlimit:10;stroke-width:3px}.cls-2{stroke:#69c4a5}.cls-3{stroke:#fff}.cls-4{fill:#c3e5d7}</style></defs><title>scalability-icon</title><path class="cls-1" d="M34.91 60.32a8.8 8.8 0 1 1-8.8-9 8.89 8.89 0 0 1 8.8 9m187.21-1.49a4.9 4.9 0 1 1-4.9-5 4.94 4.94 0 0 1 4.9 5m-41.66 99.8A3.63 3.63 0 1 1 184 155a3.59 3.59 0 0 1-3.56 3.63M102.2 7.26a3.59 3.59 0 0 1-3.56-3.63 3.56 3.56 0 1 1 7.11 0 3.59 3.59 0 0 1-3.56 3.63M38.74 130.69H27.16a4.19 4.19 0 0 1-4.16-4.23v-5a2.39 2.39 0 0 0-2.37-2.42h-.2a2.39 2.39 0 0 0-2.37 2.42v5a4.19 4.19 0 0 1-4.15 4.23H2.36A2.39 2.39 0 0 0 0 133.1v.2a2.39 2.39 0 0 0 2.36 2.42h11.58a4.19 4.19 0 0 1 4.15 4.28v5a2.39 2.39 0 0 0 2.37 2.42h.2A2.39 2.39 0 0 0 23 144.9v-5a4.19 4.19 0 0 1 4.14-4.23h11.6a2.39 2.39 0 0 0 2.37-2.42v-.2a2.39 2.39 0 0 0-2.37-2.42m181.04 10.04h-7.45a2.69 2.69 0 0 1-2.67-2.72v-3.19a1.54 1.54 0 0 0-1.52-1.55H208a1.54 1.54 0 0 0-1.52 1.55v3.19a2.69 2.69 0 0 1-2.67 2.72h-7.45a1.54 1.54 0 0 0-1.52 1.55v.13a1.54 1.54 0 0 0 1.52 1.55h7.45a2.69 2.69 0 0 1 2.67 2.72v3.19a1.54 1.54 0 0 0 1.52 1.55h.13a1.54 1.54 0 0 0 1.52-1.55v-3.19a2.69 2.69 0 0 1 2.67-2.72h7.45a1.54 1.54 0 0 0 1.52-1.55v-.13a1.54 1.54 0 0 0-1.52-1.55m-54.08 58.49H161a1.7 1.7 0 0 1-1.68-1.72v-2a1 1 0 0 0-1-1h-.08a1 1 0 0 0-1 1v2a1.7 1.7 0 0 1-1.68 1.72h-4.7a1 1 0 0 0-1 1v.08a1 1 0 0 0 1 1h4.7a1.7 1.7 0 0 1 1.68 1.72v2a1 1 0 0 0 1 1h.08a1 1 0 0 0 1-1v-2a1.7 1.7 0 0 1 1.68-1.72h4.7a1 1 0 0 0 1-1v-.08a1 1 0 0 0-1-1M141.77 64c-24.83-.23-35.92 20.14-34.13 36a27.8 27.8 0 0 1 3.44-55.39 2.71 2.71 0 1 0 0-5.43c-5.84 0-40 2.44-39.78 34.21.16 24.1 17.88 33.07 32.43 33.07a32.29 32.29 0 0 0 4.45-.32A27.8 27.8 0 0 1 52.76 103a2.71 2.71 0 1 0-5.43 0c0 5.08 1.71 39.82 34.73 39.52 19.9-.18 34.26-20.5 32.14-36.62a27.8 27.8 0 0 1-3.2 55.38 2.71 2.71 0 0 0 0 5.43c5.36 0 36.61-1.54 39.35-32.22 1.78-20-20.3-36.91-36.33-34.93 2-13.39 13.57-24 27.5-23.69 16.08.3 27.8 12.47 27.8 27.8a2.71 2.71 0 0 0 5.43 0c.09-6.72-2.18-39.41-32.98-39.67z"/><path class="cls-2" d="M111.07 103.08a21.8 21.8 0 0 1-30.83-.08m30.83.08a21.8 21.8 0 0 1-.12 30.83m.05-30.81a21.8 21.8 0 0 1 30.83.12m-30.42.25a21.8 21.8 0 0 1 .12-30.83"/><path class="cls-3" d="M111.09 103.39a26.63 26.63 0 0 1-30.37-22.27c-2.24-14.54 7.16-30.82 21.7-33.06"/><path class="cls-3" d="M111 103a26.63 26.63 0 0 1-22.27 30.37C74.22 135.6 58.28 126.1 56 111.56m55.06-8.4a26.63 26.63 0 0 1 30.37 22.27c2.24 14.54-7.6 29.26-22.13 31.5"/><path class="cls-3" d="M111.09 103.39A26.63 26.63 0 0 1 133.36 73c14.54-2.24 30.7 7.13 32.94 21.67"/><path class="cls-4" d="M111.71 101.85s.34 0 1 .13c.31 0 .68.12 1.12.21.22 0 .45.08.71.15l.85.31c.59.23 1.28.49 2 .83s1.37.76 2.13 1.21a27.33 27.33 0 0 1 2.25 1.69 28.73 28.73 0 0 1 2.23 2.2 30.68 30.68 0 0 1 2 2.74 24.35 24.35 0 0 1 1.71 3.25 26.92 26.92 0 0 1 2.13 7.61 27.92 27.92 0 0 1-.26 8.42 26.81 26.81 0 0 1-1.16 4.15 15.3 15.3 0 0 1-.8 2l-1 2.09-1 1.6c-.18.28-.3.51-.54.82l-.67.9a28 28 0 0 1-2.79 3.24 31.19 31.19 0 0 1-6.41 4.82 29.66 29.66 0 0 1-6.85 2.76 27.37 27.37 0 0 1-3.33.68c-1.09.14-2.15.2-3.15.25s-2 0-2.9-.08-1.79-.17-2.59-.33l-2.28-.5c-.68-.19-1.29-.4-1.85-.57a10.11 10.11 0 0 1-1.46-.53l-1.06-.45-.88-.38a1.5 1.5 0 0 1 1.14-2.76l.15.06.8.3 1 .36a8.28 8.28 0 0 0 1.32.41l1.65.43 2 .3c.71.09 1.48.08 2.27.14s1.64-.07 2.51-.09 1.77-.24 2.69-.44a23.26 23.26 0 0 0 2.79-.81 21.37 21.37 0 0 0 5.5-2.84 22.32 22.32 0 0 0 4.67-4.54l.93-1.37a13 13 0 0 0 .78-1.36l.37-.67c.12-.2.25-.55.37-.82l.75-1.74c-.15.31 0 .07-.07.13v-.17l.06-.2.12-.39.24-.78a10.46 10.46 0 0 0 .39-1.57 13.57 13.57 0 0 0 .29-1.57c0-.53.11-1.05.18-1.57s0-1 .05-1.56v-.77l-.06-.77c-.05-.51 0-1-.11-1.51s-.15-1-.22-1.47a24.64 24.64 0 0 0-1.6-5.42c-.31-.85-.76-1.61-1.11-2.38s-.83-1.45-1.21-2.16-.83-1.34-1.27-1.93-.83-1.19-1.25-1.72-.83-1-1.2-1.5-.72-.82-1-1.2l-.45-.56-.51-.5c-.32-.32-.59-.57-.8-.8-.43-.45-.65-.71-.65-.71a1.62 1.62 0 0 1 1.4-2.66z"/><path class="cls-4" d="M109.77 102.76s0-.34.13-1c0-.31.12-.68.21-1.12 0-.22.08-.45.15-.71l.31-.85c.23-.59.49-1.28.83-2s.76-1.37 1.21-2.13a27.33 27.33 0 0 1 1.69-2.25 28.73 28.73 0 0 1 2.2-2.23 30.68 30.68 0 0 1 2.74-2 24.35 24.35 0 0 1 3.25-1.71 26.92 26.92 0 0 1 7.61-2.13 27.92 27.92 0 0 1 8.42.26 26.81 26.81 0 0 1 4.15 1.16 15.29 15.29 0 0 1 2 .8l2.09 1 1.6 1c.28.18.51.3.82.54l.9.67a28 28 0 0 1 3.24 2.79 31.19 31.19 0 0 1 4.82 6.41 29.66 29.66 0 0 1 2.76 6.85 27.37 27.37 0 0 1 .68 3.33c.14 1.09.2 2.15.25 3.15s0 2-.08 2.9-.17 1.79-.33 2.59l-.48 2.24c-.19.68-.4 1.29-.57 1.85a10.11 10.11 0 0 1-.53 1.46l-.45 1.06-.38.88a1.5 1.5 0 0 1-2.78-1.11l.06-.15.3-.8.36-1a8.28 8.28 0 0 0 .41-1.32l.43-1.65.3-2c.09-.71.08-1.48.14-2.27s-.07-1.64-.09-2.51-.24-1.77-.44-2.69a23.26 23.26 0 0 0-.81-2.79 21.37 21.37 0 0 0-2.84-5.5 22.32 22.32 0 0 0-4.54-4.67l-1.37-.93a13 13 0 0 0-1.36-.78l-.67-.37c-.2-.12-.55-.25-.82-.37l-1.77-.66.13.07h-.17l-.2-.06-.39-.12-.78-.24a10.46 10.46 0 0 0-1.57-.39 13.57 13.57 0 0 0-1.57-.29c-.53 0-1.05-.11-1.57-.18s-1 0-1.56-.05h-.77l-.77.06c-.51.05-1 0-1.51.11s-1 .15-1.47.22a24.64 24.64 0 0 0-5.42 1.6c-.85.31-1.61.76-2.38 1.11s-1.45.83-2.16 1.21-1.34.83-1.93 1.27-1.19.83-1.72 1.25-1 .83-1.5 1.2-.82.72-1.2 1l-.56.45-.5.51c-.32.32-.57.59-.8.8-.45.43-.71.65-.71.65a1.62 1.62 0 0 1-2.66-1.4z"/><path class="cls-4" d="M110.36 104.69s-.34 0-1-.13c-.31 0-.68-.12-1.12-.21-.22 0-.45-.08-.71-.15l-.85-.31c-.59-.23-1.28-.49-2-.83s-1.37-.76-2.13-1.21a27.33 27.33 0 0 1-2.25-1.69A28.73 28.73 0 0 1 98.14 98a30.68 30.68 0 0 1-2-2.74A24.35 24.35 0 0 1 94.38 92a26.92 26.92 0 0 1-2.13-7.61 27.92 27.92 0 0 1 .26-8.39 26.81 26.81 0 0 1 1.16-4.15 15.3 15.3 0 0 1 .8-2l1-2.09 1-1.6c.18-.28.3-.51.54-.82l.67-.9a28 28 0 0 1 2.79-3.24 31.19 31.19 0 0 1 6.41-4.82 29.66 29.66 0 0 1 6.85-2.76 27.37 27.37 0 0 1 3.33-.68c1.09-.14 2.15-.2 3.15-.25s2 0 2.9.08 1.79.17 2.59.33l2.24.48c.68.19 1.29.4 1.85.57a10.11 10.11 0 0 1 1.46.53l1.06.45.88.38a1.5 1.5 0 0 1-1.11 2.78l-.15-.06-.8-.3-1-.36a8.28 8.28 0 0 0-1.32-.41l-1.65-.43-2-.3c-.71-.09-1.48-.08-2.27-.14s-1.64.07-2.51.09-1.77.24-2.69.44a23.26 23.26 0 0 0-2.79.81 21.37 21.37 0 0 0-5.5 2.84 22.32 22.32 0 0 0-4.59 4.53l-.93 1.37a13 13 0 0 0-.78 1.36l-.37.67c-.12.2-.25.55-.37.82l-.75 1.74c.15-.31 0-.07.07-.13V71l-.06.2-.12.39-.24.78a10.46 10.46 0 0 0-.39 1.57 13.57 13.57 0 0 0-.29 1.57c0 .53-.11 1.05-.18 1.57s0 1-.05 1.56v.77l.06.77c.05.51 0 1 .11 1.51s.15 1 .22 1.47a24.64 24.64 0 0 0 1.6 5.42c.31.85.76 1.61 1.11 2.38s.83 1.45 1.21 2.16.83 1.34 1.27 1.93.83 1.19 1.25 1.72.83 1 1.2 1.5.72.82 1 1.2l.45.56.51.5c.32.32.59.57.8.8.43.45.65.71.65.71a1.62 1.62 0 0 1-1.4 2.66z"/><path class="cls-4" d="M112.33 103.89s0 .34-.13 1c0 .31-.12.68-.21 1.12 0 .22-.08.45-.15.71l-.31.85c-.23.59-.49 1.28-.83 2s-.76 1.37-1.21 2.13a27.33 27.33 0 0 1-1.69 2.25 28.73 28.73 0 0 1-2.2 2.23 30.68 30.68 0 0 1-2.74 2 24.35 24.35 0 0 1-3.25 1.71A26.92 26.92 0 0 1 92 122a27.92 27.92 0 0 1-8.42-.26 26.81 26.81 0 0 1-4.15-1.16 15.29 15.29 0 0 1-2-.8l-2.09-1-1.6-1c-.28-.18-.51-.3-.82-.54l-.9-.67a28 28 0 0 1-3.24-2.79 31.19 31.19 0 0 1-4.78-6.43 29.66 29.66 0 0 1-2.76-6.85 27.37 27.37 0 0 1-.68-3.33c-.14-1.09-.2-2.15-.25-3.15s0-2 .08-2.9.17-1.79.33-2.59l.48-2.24c.19-.68.4-1.29.57-1.85a10.11 10.11 0 0 1 .5-1.44l.45-1.06.38-.94a1.5 1.5 0 0 1 2.78 1.11l-.06.15-.3.8-.36 1a8.28 8.28 0 0 0-.41 1.32L64.33 87 64 89c-.09.71-.08 1.48-.14 2.27s.14 1.66.14 2.53.24 1.77.44 2.69a23.26 23.26 0 0 0 .81 2.79 21.37 21.37 0 0 0 2.84 5.5 22.32 22.32 0 0 0 4.54 4.67l1.37.93a13 13 0 0 0 1.36.78l.67.37c.2.12.55.25.82.37l1.74.75-.13-.07h.17l.2.06.39.12.78.24a10.46 10.46 0 0 0 1.57.39 13.57 13.57 0 0 0 1.57.29c.53 0 1.05.11 1.57.18s1 0 1.56.05h.77l.77-.06c.51-.05 1 0 1.51-.11s1-.15 1.47-.22a24.64 24.64 0 0 0 5.42-1.6c.85-.31 1.61-.76 2.38-1.11s1.45-.83 2.16-1.21 1.34-.83 1.93-1.27 1.19-.83 1.72-1.25 1-.83 1.5-1.2.82-.72 1.2-1l.56-.45.5-.51c.32-.32.57-.59.8-.8.45-.43.71-.65.71-.65a1.62 1.62 0 0 1 2.66 1.4z"/><circle class="cls-4" cx="111.06" cy="103.28" r="17.58"/><path class="cls-1" d="M35 60.61a8.8 8.8 0 1 1-8.8-9 8.89 8.89 0 0 1 8.8 9m187.2-1.49a4.9 4.9 0 1 1-4.9-5 4.94 4.94 0 0 1 4.9 5m-41.66 99.8a3.63 3.63 0 1 1 3.56-3.63 3.59 3.59 0 0 1-3.56 3.63M102.28 7.55a3.59 3.59 0 0 1-3.56-3.63 3.56 3.56 0 1 1 7.11 0 3.59 3.59 0 0 1-3.56 3.63M38.82 131H27.24a4.19 4.19 0 0 1-4.14-4.23v-5a2.39 2.39 0 0 0-2.37-2.42h-.2a2.39 2.39 0 0 0-2.37 2.42v5A4.19 4.19 0 0 1 14 131H2.45a2.39 2.39 0 0 0-2.37 2.4v.2a2.39 2.39 0 0 0 2.37 2.4H14a4.19 4.19 0 0 1 4.15 4.23v5a2.39 2.39 0 0 0 2.37 2.42h.2a2.39 2.39 0 0 0 2.37-2.42v-5a4.19 4.19 0 0 1 4.15-4.23h11.58a2.39 2.39 0 0 0 2.37-2.42v-.2a2.39 2.39 0 0 0-2.37-2.38m181.04 10h-7.45a2.69 2.69 0 0 1-2.67-2.72v-3.19a1.54 1.54 0 0 0-1.52-1.55h-.13a1.54 1.54 0 0 0-1.52 1.55v3.19a2.69 2.69 0 0 1-2.67 2.72h-7.45a1.54 1.54 0 0 0-1.52 1.55v.13a1.54 1.54 0 0 0 1.52 1.55h7.45a2.69 2.69 0 0 1 2.67 2.72v3.19a1.54 1.54 0 0 0 1.52 1.55h.13a1.54 1.54 0 0 0 1.52-1.55v-3.19a2.69 2.69 0 0 1 2.67-2.72h7.45a1.54 1.54 0 0 0 1.52-1.55v-.13a1.54 1.54 0 0 0-1.52-1.55m-54.09 58.46h-4.7a1.7 1.7 0 0 1-1.68-1.72v-2a1 1 0 0 0-1-1h-.08a1 1 0 0 0-1 1v2a1.7 1.7 0 0 1-1.68 1.72H151a1 1 0 0 0-1 1v.08a1 1 0 0 0 1 1h4.7a1.7 1.7 0 0 1 1.68 1.72v2a1 1 0 0 0 1 1h.08a1 1 0 0 0 1-1v-2a1.7 1.7 0 0 1 1.68-1.72h4.7a1 1 0 0 0 1-1v-.08a1 1 0 0 0-1-1M141.85 64.27c-24.83-.23-35.92 20.14-34.13 36a27.8 27.8 0 0 1 3.44-55.39 2.71 2.71 0 1 0 0-5.43c-5.84 0-40 2.44-39.78 34.21.16 24.1 17.88 33.07 32.43 33.07a32.29 32.29 0 0 0 4.45-.32 27.8 27.8 0 0 1-55.42-3.21 2.71 2.71 0 1 0-5.43 0c0 5.08 1.71 39.82 34.73 39.52 19.9-.18 34.26-20.5 32.14-36.62a27.8 27.8 0 0 1-3.15 55.42 2.71 2.71 0 0 0 0 5.43c5.36 0 36.61-1.54 39.35-32.22 1.78-20-20.3-36.91-36.33-34.93 2-13.39 13.57-24 27.5-23.69 16.08.3 27.8 12.47 27.8 27.8a2.71 2.71 0 1 0 5.43 0c.04-6.67-2.23-39.35-33.03-39.64z"/><path class="cls-2" d="M111.15 103.38a21.8 21.8 0 0 1-30.83-.12m30.83.12a21.8 21.8 0 0 1-.15 30.82m.13-30.8a21.8 21.8 0 0 1 30.83.12m-30.47.24a21.8 21.8 0 0 1 .12-30.83"/><path class="cls-3" d="M111.17 103.68A26.63 26.63 0 0 1 80.8 81.41c-2.24-14.53 7.2-30.82 21.7-33.06"/><path class="cls-3" d="M111.11 103.29a26.63 26.63 0 0 1-22.27 30.37c-14.54 2.24-30.48-7.27-32.72-21.8"/><path class="cls-3" d="M111.14 103.46a26.63 26.63 0 0 1 30.37 22.27c2.24 14.54-7.6 29.26-22.13 31.5"/><path class="cls-3" d="M111.17 103.68a26.63 26.63 0 0 1 22.27-30.37c14.56-2.24 30.7 7.13 32.94 21.69"/><path class="cls-4" d="M111.79 102.14s.34 0 1 .13c.31 0 .68.12 1.12.21.22 0 .45.08.71.15l.85.31c.59.23 1.28.49 2 .83s1.37.76 2.13 1.21a27.33 27.33 0 0 1 2.25 1.69 28.73 28.73 0 0 1 2.23 2.2 30.68 30.68 0 0 1 2 2.74 24.35 24.35 0 0 1 1.71 3.25 26.92 26.92 0 0 1 2.13 7.61 27.92 27.92 0 0 1-.26 8.42 26.81 26.81 0 0 1-1.16 4.15 15.29 15.29 0 0 1-.8 2l-1 2.09-1 1.6c-.18.28-.3.51-.54.82l-.67.9a28 28 0 0 1-2.79 3.24 31.19 31.19 0 0 1-6.41 4.82 29.66 29.66 0 0 1-6.85 2.76 27.37 27.37 0 0 1-3.33.68c-1.09.14-2.15.2-3.15.25s-2 0-2.9-.08-1.79-.17-2.59-.33l-2.24-.48c-.68-.19-1.29-.4-1.85-.57a10.11 10.11 0 0 1-1.46-.53l-1.06-.45-.88-.38a1.5 1.5 0 0 1 1.11-2.78l.15.06.8.3 1 .36a8.28 8.28 0 0 0 1.32.41l1.65.43 2 .3c.71.09 1.48.08 2.27.14s1.64-.07 2.51-.09 1.77-.24 2.69-.44a23.26 23.26 0 0 0 2.79-.81 21.37 21.37 0 0 0 5.5-2.84 22.32 22.32 0 0 0 4.67-4.54l.93-1.37a13 13 0 0 0 .78-1.36l.37-.67c.12-.2.25-.55.37-.82l.75-1.74c-.15.31 0 .07-.07.13v-.15l.06-.2.12-.39.24-.78a10.46 10.46 0 0 0 .39-1.57 13.57 13.57 0 0 0 .29-1.57c0-.53.11-1.05.18-1.57s0-1 .05-1.56v-.77l-.06-.77c-.05-.51 0-1-.11-1.51s-.15-1-.22-1.47a24.64 24.64 0 0 0-1.6-5.42c-.31-.85-.76-1.61-1.11-2.38s-.83-1.45-1.21-2.16-.83-1.34-1.27-1.93-.83-1.19-1.25-1.72-.83-1-1.2-1.5-.72-.82-1-1.2l-.45-.56-.51-.5c-.32-.32-.59-.57-.8-.8-.43-.45-.65-.71-.65-.71a1.62 1.62 0 0 1 1.4-2.66z"/><path class="cls-4" d="M109.85 103.06s0-.34.13-1c0-.31.12-.68.21-1.12 0-.22.08-.45.15-.71l.31-.85c.23-.59.49-1.28.83-2s.76-1.37 1.21-2.13a27.33 27.33 0 0 1 1.69-2.25 28.73 28.73 0 0 1 2.2-2.23 30.68 30.68 0 0 1 2.74-2 24.35 24.35 0 0 1 3.25-1.71 26.92 26.92 0 0 1 7.61-2.13 27.92 27.92 0 0 1 8.42.26 26.81 26.81 0 0 1 4.15 1.16 15.29 15.29 0 0 1 2 .8l2.09 1 1.6 1c.28.18.51.3.82.54l.9.67a28 28 0 0 1 3.24 2.79 31.19 31.19 0 0 1 4.82 6.41 29.66 29.66 0 0 1 2.76 6.85 27.37 27.37 0 0 1 .68 3.33c.14 1.09.2 2.15.25 3.15s0 2-.08 2.9-.17 1.79-.33 2.59l-.48 2.24c-.19.68-.4 1.29-.57 1.85a10.11 10.11 0 0 1-.53 1.46l-.45 1.06-.38.88a1.5 1.5 0 0 1-2.78-1.11l.06-.15.3-.8.36-1a8.28 8.28 0 0 0 .41-1.32l.43-1.65.3-2c.09-.71.08-1.48.14-2.27s-.07-1.64-.09-2.51-.24-1.77-.44-2.69a23.26 23.26 0 0 0-.81-2.79 21.37 21.37 0 0 0-2.84-5.5 22.32 22.32 0 0 0-4.54-4.67l-1.37-.93a13 13 0 0 0-1.36-.78l-.67-.37c-.2-.12-.55-.25-.82-.37l-1.74-.75.13.07h-.17l-.2-.06-.39-.12-.78-.24a10.46 10.46 0 0 0-1.57-.39 13.57 13.57 0 0 0-1.57-.29c-.53 0-1.05-.11-1.57-.18s-1 0-1.56-.05h-.77l-.77.06c-.51.05-1 0-1.51.11s-1 .15-1.47.22A24.64 24.64 0 0 0 126 95c-.85.31-1.61.76-2.38 1.11s-1.45.83-2.16 1.21-1.34.83-1.93 1.27-1.19.83-1.72 1.25-1 .83-1.5 1.2-.82.72-1.2 1l-.56.45-.5.51c-.32.32-.57.59-.8.8-.45.43-.71.65-.71.65a1.62 1.62 0 0 1-2.66-1.4z"/><path class="cls-4" d="M110.45 105s-.34 0-1-.13c-.31 0-.68-.12-1.12-.21-.22 0-.45-.08-.71-.15l-.85-.31c-.59-.23-1.28-.49-2-.83s-1.37-.76-2.13-1.21a27.33 27.33 0 0 1-2.25-1.69 28.73 28.73 0 0 1-2.23-2.2 30.68 30.68 0 0 1-2-2.74 24.35 24.35 0 0 1-1.71-3.25 26.92 26.92 0 0 1-2.13-7.61 27.92 27.92 0 0 1 .26-8.42 26.81 26.81 0 0 1 1.16-4.15 15.29 15.29 0 0 1 .8-2l1-2.09 1-1.6c.18-.28.3-.51.54-.82l.67-.9a28 28 0 0 1 2.79-3.24 31.19 31.19 0 0 1 6.46-4.82 29.66 29.66 0 0 1 6.85-2.76 27.37 27.37 0 0 1 3.33-.68c1.09-.14 2.15-.2 3.15-.25s2 0 2.9.08 1.79.17 2.59.33l2.24.48c.68.19 1.29.4 1.85.57a10.11 10.11 0 0 1 1.46.53l1.06.45.88.38a1.5 1.5 0 0 1-1.11 2.78l-.15-.06-.8-.3-1-.36a8.28 8.28 0 0 0-1.32-.41l-1.62-.41-2-.3c-.71-.09-1.48-.08-2.27-.14s-1.64.07-2.51.09-1.77.24-2.69.44a23.26 23.26 0 0 0-2.79.81 21.37 21.37 0 0 0-5.5 2.84 22.32 22.32 0 0 0-4.67 4.54l-.88 1.37a13 13 0 0 0-.78 1.36l-.37.67c-.12.2-.25.55-.37.82l-.75 1.74c.15-.31 0-.07.07-.13v.17l-.06.2-.12.39-.24.78a10.46 10.46 0 0 0-.39 1.57 13.57 13.57 0 0 0-.29 1.57c0 .53-.11 1.05-.18 1.57s0 1-.05 1.56v.77l.06.77c.05.51 0 1 .11 1.51s.15 1 .22 1.47a24.64 24.64 0 0 0 1.6 5.42c.31.85.76 1.61 1.11 2.38s.83 1.45 1.21 2.16.83 1.34 1.27 1.93.83 1.19 1.25 1.72.83 1 1.2 1.5.72.82 1 1.2l.45.56.51.5c.32.32.59.57.8.8.43.45.65.71.65.71a1.62 1.62 0 0 1-1.4 2.66z"/><path class="cls-4" d="M112.42 104.18s0 .34-.13 1c0 .31-.12.68-.21 1.12 0 .22-.08.45-.15.71l-.31.85c-.23.59-.49 1.28-.83 2s-.76 1.37-1.21 2.13a27.33 27.33 0 0 1-1.69 2.25 28.73 28.73 0 0 1-2.2 2.23 30.68 30.68 0 0 1-2.74 2 24.35 24.35 0 0 1-3.25 1.71 26.92 26.92 0 0 1-7.61 2.13 27.92 27.92 0 0 1-8.42-.26 26.81 26.81 0 0 1-4.15-1.16 15.29 15.29 0 0 1-2-.8l-2.09-1-1.6-1c-.28-.18-.51-.3-.82-.54l-.9-.67a28 28 0 0 1-3.24-2.79 31.19 31.19 0 0 1-4.82-6.41 29.66 29.66 0 0 1-2.76-6.85 27.37 27.37 0 0 1-.68-3.33c-.14-1.09-.2-2.15-.25-3.15s0-2 .08-2.9.17-1.79.33-2.59l.48-2.24c.19-.68.4-1.29.57-1.85a10.11 10.11 0 0 1 .53-1.46l.45-1.06.38-.88A1.5 1.5 0 0 1 66 82.44l-.06.15-.3.8-.36 1a8.28 8.28 0 0 0-.41 1.32l-.43 1.65-.3 2C64 90 64 90.78 64 91.58s.07 1.64.09 2.51.24 1.77.44 2.69a23.26 23.26 0 0 0 .81 2.79 21.37 21.37 0 0 0 2.84 5.5 22.32 22.32 0 0 0 4.54 4.67l1.37.93a13 13 0 0 0 1.36.78l.67.37c.2.12.55.25.82.37l1.74.75-.13-.07h.17l.2.06.39.12.78.24a10.46 10.46 0 0 0 1.57.39 13.57 13.57 0 0 0 1.57.29c.53 0 1.05.11 1.57.18s1 0 1.56.05h.77l.77-.06c.51-.05 1 0 1.51-.11s1-.15 1.47-.22a24.64 24.64 0 0 0 5.42-1.6c.85-.31 1.61-.76 2.38-1.11s1.45-.83 2.16-1.21 1.34-.83 1.93-1.27 1.19-.83 1.72-1.25 1-.83 1.5-1.2.82-.72 1.2-1l.56-.45.5-.51c.32-.32.57-.59.8-.8.45-.43.71-.65.71-.65a1.62 1.62 0 0 1 2.66 1.4z"/><circle class="cls-4" cx="111.14" cy="103.57" r="17.58"/><path class="cls-1" d="M35 60.61a8.8 8.8 0 1 1-8.8-9 8.89 8.89 0 0 1 8.8 9m187.2-1.49a4.9 4.9 0 1 1-4.9-5 4.94 4.94 0 0 1 4.9 5m-41.66 99.8a3.63 3.63 0 1 1 3.56-3.63 3.59 3.59 0 0 1-3.56 3.63M102.28 7.55a3.59 3.59 0 0 1-3.56-3.63 3.56 3.56 0 1 1 7.11 0 3.59 3.59 0 0 1-3.56 3.63M38.82 131H27.24a4.19 4.19 0 0 1-4.14-4.23v-5a2.39 2.39 0 0 0-2.37-2.42h-.2a2.39 2.39 0 0 0-2.37 2.42v5A4.19 4.19 0 0 1 14 131H2.45a2.39 2.39 0 0 0-2.37 2.4v.2a2.39 2.39 0 0 0 2.37 2.4H14a4.19 4.19 0 0 1 4.15 4.23v5a2.39 2.39 0 0 0 2.37 2.42h.2a2.39 2.39 0 0 0 2.37-2.42v-5a4.19 4.19 0 0 1 4.15-4.23h11.58a2.39 2.39 0 0 0 2.37-2.42v-.2a2.39 2.39 0 0 0-2.37-2.38m181.04 10h-7.45a2.69 2.69 0 0 1-2.67-2.72v-3.19a1.54 1.54 0 0 0-1.52-1.55h-.13a1.54 1.54 0 0 0-1.52 1.55v3.19a2.69 2.69 0 0 1-2.67 2.72h-7.45a1.54 1.54 0 0 0-1.52 1.55v.13a1.54 1.54 0 0 0 1.52 1.55h7.45a2.69 2.69 0 0 1 2.67 2.72v3.19a1.54 1.54 0 0 0 1.52 1.55h.13a1.54 1.54 0 0 0 1.52-1.55v-3.19a2.69 2.69 0 0 1 2.67-2.72h7.45a1.54 1.54 0 0 0 1.52-1.55v-.13a1.54 1.54 0 0 0-1.52-1.55m-54.09 58.46h-4.7a1.7 1.7 0 0 1-1.68-1.72v-2a1 1 0 0 0-1-1h-.08a1 1 0 0 0-1 1v2a1.7 1.7 0 0 1-1.68 1.72H151a1 1 0 0 0-1 1v.08a1 1 0 0 0 1 1h4.7a1.7 1.7 0 0 1 1.68 1.72v2a1 1 0 0 0 1 1h.08a1 1 0 0 0 1-1v-2a1.7 1.7 0 0 1 1.68-1.72h4.7a1 1 0 0 0 1-1v-.08a1 1 0 0 0-1-1M141.85 64.27c-24.83-.23-35.92 20.14-34.13 36a27.8 27.8 0 0 1 3.44-55.39 2.71 2.71 0 1 0 0-5.43c-5.84 0-40 2.44-39.78 34.21.16 24.1 17.88 33.07 32.43 33.07a32.29 32.29 0 0 0 4.45-.32 27.8 27.8 0 0 1-55.42-3.21 2.71 2.71 0 1 0-5.43 0c0 5.08 1.71 39.82 34.73 39.52 19.9-.18 34.26-20.5 32.14-36.62a27.8 27.8 0 0 1-3.15 55.42 2.71 2.71 0 0 0 0 5.43c5.36 0 36.61-1.54 39.35-32.22 1.78-20-20.3-36.91-36.33-34.93 2-13.39 13.57-24 27.5-23.69 16.08.3 27.8 12.47 27.8 27.8a2.71 2.71 0 1 0 5.43 0c.04-6.67-2.23-39.35-33.03-39.64z"/><path class="cls-2" d="M111.15 103.38a21.8 21.8 0 0 1-30.83-.12m30.83.12a21.8 21.8 0 0 1-.15 30.82m.13-30.8a21.8 21.8 0 0 1 30.83.12m-30.47.24a21.8 21.8 0 0 1 .12-30.83"/><path class="cls-3" d="M111.17 103.68A26.63 26.63 0 0 1 80.8 81.41c-2.24-14.53 7.2-30.82 21.7-33.06"/><path class="cls-3" d="M111.11 103.29a26.63 26.63 0 0 1-22.27 30.37c-14.54 2.24-30.48-7.27-32.72-21.8"/><path class="cls-3" d="M111.14 103.46a26.63 26.63 0 0 1 30.37 22.27c2.24 14.54-7.6 29.26-22.13 31.5"/><path class="cls-3" d="M111.17 103.68a26.63 26.63 0 0 1 22.27-30.37c14.56-2.24 30.7 7.13 32.94 21.69"/><path class="cls-4" d="M111.79 102.14s.34 0 1 .13c.31 0 .68.12 1.12.21.22 0 .45.08.71.15l.85.31c.59.23 1.28.49 2 .83s1.37.76 2.13 1.21a27.33 27.33 0 0 1 2.25 1.69 28.73 28.73 0 0 1 2.23 2.2 30.68 30.68 0 0 1 2 2.74 24.35 24.35 0 0 1 1.71 3.25 26.92 26.92 0 0 1 2.13 7.61 27.92 27.92 0 0 1-.26 8.42 26.81 26.81 0 0 1-1.16 4.15 15.29 15.29 0 0 1-.8 2l-1 2.09-1 1.6c-.18.28-.3.51-.54.82l-.67.9a28 28 0 0 1-2.79 3.24 31.19 31.19 0 0 1-6.41 4.82 29.66 29.66 0 0 1-6.85 2.76 27.37 27.37 0 0 1-3.33.68c-1.09.14-2.15.2-3.15.25s-2 0-2.9-.08-1.79-.17-2.59-.33l-2.24-.48c-.68-.19-1.29-.4-1.85-.57a10.11 10.11 0 0 1-1.46-.53l-1.06-.45-.88-.38a1.5 1.5 0 0 1 1.11-2.78l.15.06.8.3 1 .36a8.28 8.28 0 0 0 1.32.41l1.65.43 2 .3c.71.09 1.48.08 2.27.14s1.64-.07 2.51-.09 1.77-.24 2.69-.44a23.26 23.26 0 0 0 2.79-.81 21.37 21.37 0 0 0 5.5-2.84 22.32 22.32 0 0 0 4.67-4.54l.93-1.37a13 13 0 0 0 .78-1.36l.37-.67c.12-.2.25-.55.37-.82l.75-1.74c-.15.31 0 .07-.07.13v-.15l.06-.2.12-.39.24-.78a10.46 10.46 0 0 0 .39-1.57 13.57 13.57 0 0 0 .29-1.57c0-.53.11-1.05.18-1.57s0-1 .05-1.56v-.77l-.06-.77c-.05-.51 0-1-.11-1.51s-.15-1-.22-1.47a24.64 24.64 0 0 0-1.6-5.42c-.31-.85-.76-1.61-1.11-2.38s-.83-1.45-1.21-2.16-.83-1.34-1.27-1.93-.83-1.19-1.25-1.72-.83-1-1.2-1.5-.72-.82-1-1.2l-.45-.56-.51-.5c-.32-.32-.59-.57-.8-.8-.43-.45-.65-.71-.65-.71a1.62 1.62 0 0 1 1.4-2.66z"/><path class="cls-4" d="M109.85 103.06s0-.34.13-1c0-.31.12-.68.21-1.12 0-.22.08-.45.15-.71l.31-.85c.23-.59.49-1.28.83-2s.76-1.37 1.21-2.13a27.33 27.33 0 0 1 1.69-2.25 28.73 28.73 0 0 1 2.2-2.23 30.68 30.68 0 0 1 2.74-2 24.35 24.35 0 0 1 3.25-1.71 26.92 26.92 0 0 1 7.61-2.13 27.92 27.92 0 0 1 8.42.26 26.81 26.81 0 0 1 4.15 1.16 15.29 15.29 0 0 1 2 .8l2.09 1 1.6 1c.28.18.51.3.82.54l.9.67a28 28 0 0 1 3.24 2.79 31.19 31.19 0 0 1 4.82 6.41 29.66 29.66 0 0 1 2.76 6.85 27.37 27.37 0 0 1 .68 3.33c.14 1.09.2 2.15.25 3.15s0 2-.08 2.9-.17 1.79-.33 2.59l-.48 2.24c-.19.68-.4 1.29-.57 1.85a10.11 10.11 0 0 1-.53 1.46l-.45 1.06-.38.88a1.5 1.5 0 0 1-2.78-1.11l.06-.15.3-.8.36-1a8.28 8.28 0 0 0 .41-1.32l.43-1.65.3-2c.09-.71.08-1.48.14-2.27s-.07-1.64-.09-2.51-.24-1.77-.44-2.69a23.26 23.26 0 0 0-.81-2.79 21.37 21.37 0 0 0-2.84-5.5 22.32 22.32 0 0 0-4.54-4.67l-1.37-.93a13 13 0 0 0-1.36-.78l-.67-.37c-.2-.12-.55-.25-.82-.37l-1.74-.75.13.07h-.17l-.2-.06-.39-.12-.78-.24a10.46 10.46 0 0 0-1.57-.39 13.57 13.57 0 0 0-1.57-.29c-.53 0-1.05-.11-1.57-.18s-1 0-1.56-.05h-.77l-.77.06c-.51.05-1 0-1.51.11s-1 .15-1.47.22A24.64 24.64 0 0 0 126 95c-.85.31-1.61.76-2.38 1.11s-1.45.83-2.16 1.21-1.34.83-1.93 1.27-1.19.83-1.72 1.25-1 .83-1.5 1.2-.82.72-1.2 1l-.56.45-.5.51c-.32.32-.57.59-.8.8-.45.43-.71.65-.71.65a1.62 1.62 0 0 1-2.66-1.4z"/><path class="cls-4" d="M110.45 105s-.34 0-1-.13c-.31 0-.68-.12-1.12-.21-.22 0-.45-.08-.71-.15l-.85-.31c-.59-.23-1.28-.49-2-.83s-1.37-.76-2.13-1.21a27.33 27.33 0 0 1-2.25-1.69 28.73 28.73 0 0 1-2.23-2.2 30.68 30.68 0 0 1-2-2.74 24.35 24.35 0 0 1-1.71-3.25 26.92 26.92 0 0 1-2.13-7.61 27.92 27.92 0 0 1 .26-8.42 26.81 26.81 0 0 1 1.16-4.15 15.29 15.29 0 0 1 .8-2l1-2.09 1-1.6c.18-.28.3-.51.54-.82l.67-.9a28 28 0 0 1 2.79-3.24 31.19 31.19 0 0 1 6.46-4.82 29.66 29.66 0 0 1 6.85-2.76 27.37 27.37 0 0 1 3.33-.68c1.09-.14 2.15-.2 3.15-.25s2 0 2.9.08 1.79.17 2.59.33l2.24.48c.68.19 1.29.4 1.85.57a10.11 10.11 0 0 1 1.46.53l1.06.45.88.38a1.5 1.5 0 0 1-1.11 2.78l-.15-.06-.8-.3-1-.36a8.28 8.28 0 0 0-1.32-.41l-1.62-.41-2-.3c-.71-.09-1.48-.08-2.27-.14s-1.64.07-2.51.09-1.77.24-2.69.44a23.26 23.26 0 0 0-2.79.81 21.37 21.37 0 0 0-5.5 2.84 22.32 22.32 0 0 0-4.67 4.54l-.88 1.37a13 13 0 0 0-.78 1.36l-.37.67c-.12.2-.25.55-.37.82l-.75 1.74c.15-.31 0-.07.07-.13v.17l-.06.2-.12.39-.24.78a10.46 10.46 0 0 0-.39 1.57 13.57 13.57 0 0 0-.29 1.57c0 .53-.11 1.05-.18 1.57s0 1-.05 1.56v.77l.06.77c.05.51 0 1 .11 1.51s.15 1 .22 1.47a24.64 24.64 0 0 0 1.6 5.42c.31.85.76 1.61 1.11 2.38s.83 1.45 1.21 2.16.83 1.34 1.27 1.93.83 1.19 1.25 1.72.83 1 1.2 1.5.72.82 1 1.2l.45.56.51.5c.32.32.59.57.8.8.43.45.65.71.65.71a1.62 1.62 0 0 1-1.4 2.66z"/><path class="cls-4" d="M112.42 104.18s0 .34-.13 1c0 .31-.12.68-.21 1.12 0 .22-.08.45-.15.71l-.31.85c-.23.59-.49 1.28-.83 2s-.76 1.37-1.21 2.13a27.33 27.33 0 0 1-1.69 2.25 28.73 28.73 0 0 1-2.2 2.23 30.68 30.68 0 0 1-2.74 2 24.35 24.35 0 0 1-3.25 1.71 26.92 26.92 0 0 1-7.61 2.13 27.92 27.92 0 0 1-8.42-.26 26.81 26.81 0 0 1-4.15-1.16 15.29 15.29 0 0 1-2-.8l-2.09-1-1.6-1c-.28-.18-.51-.3-.82-.54l-.9-.67a28 28 0 0 1-3.24-2.79 31.19 31.19 0 0 1-4.82-6.41 29.66 29.66 0 0 1-2.76-6.85 27.37 27.37 0 0 1-.68-3.33c-.14-1.09-.2-2.15-.25-3.15s0-2 .08-2.9.17-1.79.33-2.59l.48-2.24c.19-.68.4-1.29.57-1.85a10.11 10.11 0 0 1 .53-1.46l.45-1.06.38-.88A1.5 1.5 0 0 1 66 82.44l-.06.15-.3.8-.36 1a8.28 8.28 0 0 0-.41 1.32l-.43 1.65-.3 2C64 90 64 90.78 64 91.58s.07 1.64.09 2.51.24 1.77.44 2.69a23.26 23.26 0 0 0 .81 2.79 21.37 21.37 0 0 0 2.84 5.5 22.32 22.32 0 0 0 4.54 4.67l1.37.93a13 13 0 0 0 1.36.78l.67.37c.2.12.55.25.82.37l1.74.75-.13-.07h.17l.2.06.39.12.78.24a10.46 10.46 0 0 0 1.57.39 13.57 13.57 0 0 0 1.57.29c.53 0 1.05.11 1.57.18s1 0 1.56.05h.77l.77-.06c.51-.05 1 0 1.51-.11s1-.15 1.47-.22a24.64 24.64 0 0 0 5.42-1.6c.85-.31 1.61-.76 2.38-1.11s1.45-.83 2.16-1.21 1.34-.83 1.93-1.27 1.19-.83 1.72-1.25 1-.83 1.5-1.2.82-.72 1.2-1l.56-.45.5-.51c.32-.32.57-.59.8-.8.45-.43.71-.65.71-.65a1.62 1.62 0 0 1 2.66 1.4z"/><circle class="cls-4" cx="111.14" cy="103.57" r="17.58"/></svg>