<svg id="Layer_1" data-name="Layer 1" xmlns="http://www.w3.org/2000/svg" viewBox="0 0 99.66 127.23"><defs><style>.cls-1{fill:none}.cls-2{fill:#fff}.cls-3{clip-path:url(#clip-path)}.cls-4{fill:url(#linear-gradient)}</style><clipPath id="clip-path"><path class="cls-1" d="M16.31 96.06a31.13 31.13 0 1 0 62.25 0zM4.11 51.33a10.45 10.45 0 1 0 10.45-10.47A10.46 10.46 0 0 0 4.11 51.33M37.67 87H57.2V33.07H37.67zm33.52-53.93v29.81l28.47-29.81zM0 29.16h29.11V0H0z"/></clipPath><linearGradient id="linear-gradient" x1="-168.29" y1="481.42" x2="-167.29" y2="481.42" gradientTransform="matrix(99.66 0 0 -99.66 16772.6 48043.8)" gradientUnits="userSpaceOnUse"><stop offset="0" stop-color="#be529f"/><stop offset=".99" stop-color="#ee2a5a"/><stop offset="1" stop-color="#ee2a5a"/></linearGradient></defs><title>shifter-logo--color</title><path class="cls-2" d="M16.31 96.06a31.13 31.13 0 1 0 62.25 0zm-1.75-55.2A10.47 10.47 0 1 0 25 51.33a10.46 10.46 0 0 0-10.44-10.47m85.11-7.8H71.19v29.82zm-42.47 0H37.67V87H57.2zm-28.09-3.9H0V0h29.11z"/><g class="cls-3"><path class="cls-4" d="M0 0h99.66v127.23H0z"/></g></svg>