<svg id="Layer_1" xmlns="http://www.w3.org/2000/svg" viewBox="0 0 130.5 30.3"><style>.st0{fill:#fff}</style><path class="st0" d="M58.4 8.9h-4.5v21.2h4.5V8.9zm-51.5.4c0-1.9 1.8-2.9 4.5-2.9 2.1 0 5.1.8 8.2 2.6l2-4.2C19 3.1 15.4 2 11.8 2 5.7 2 1.6 5 1.6 9.7c0 9.9 15.1 6.5 15.1 12.7 0 2.2-2 3.4-5.2 3.4-3 0-6.6-1.4-9.4-4.1l-2 4.1c2.9 2.6 7 4.4 11.4 4.4 6.1 0 10.5-3.1 10.5-8.1 0-10-15.1-6.7-15.1-12.8m36.2 20.8h4.6V16.9c0-5.1-2.9-8.2-7.9-8.2-3.6 0-6.3 1.3-7.9 4.3V.5h-4.6v29.6h4.6V19.6c0-3.8 2.3-6.6 6.1-6.6 3.2 0 5.1 2 5.1 5.1v12zM58.8 2.8c0-1.6-1.2-2.8-2.7-2.8-1.5 0-2.7 1.2-2.7 2.8 0 1.6 1.2 2.8 2.7 2.8 1.5-.1 2.7-1.2 2.7-2.8m25.7 20.5V13.1h6.3V9.7h-6.3V3.8H80v5.8h-9.4V7.1c0-2 1.3-2.9 2.9-2.9 1 0 2 .4 2.9 1l1.8-3.5C76.8.7 75.1.2 73.4.2c-3.7 0-7.3 2.4-7.3 7.3v2.1h-2.8V13H66v17h4.5V13H80v11c0 4.4 2.8 6.2 5.9 6.2 1.8 0 3.5-.6 5.2-1.6L90 25.2c-1.2.6-2.2.9-3.2.9-1.4 0-2.3-.6-2.3-2.8m25.3-5.4H97.7c.5-3.4 2.9-5.5 6.2-5.5 3.5 0 5.8 2.1 5.9 5.5m4 3.3c.6-7.7-2.5-12.5-9.9-12.5-6.3 0-10.7 4.4-10.7 10.8s4.3 10.7 10.8 10.7c3.7 0 6.7-1.3 8.8-3.6l-2.4-2.6c-1.6 1.6-3.7 2.5-6 2.5-3.3 0-5.9-2-6.6-5.3h16zm16.7-8.1V8.7c-3.3 0-5.9 1.5-7.3 4.4V8.9h-4.6v21.2h4.6V19c.3-3.6 3-6.1 7.3-5.9"/></svg>