<svg id="Layer_1" xmlns="http://www.w3.org/2000/svg" xmlns:xlink="http://www.w3.org/1999/xlink" viewBox="0 0 1395.6 312.3"><style>.st0{fill:#29ecb4}.st1,.st2,.st3{clip-path:url(#SVGID_2_);fill:#a8f7e0}.st2,.st3{fill:none;stroke:#a8f7e0;stroke-width:2;stroke-dasharray:6.184,6.184}.st3{stroke-dasharray:5.986,5.986}.st4{font-family:&amp;apos;Montserrat-Regular&amp;apos;}.st5{font-size:10px}.st6{letter-spacing:1}.st7{clip-path:url(#SVGID_4_);stroke-dasharray:5.916,5.916}.st7,.st8,.st9{fill:none;stroke:#a8f7e0;stroke-width:2}.st8{clip-path:url(#SVGID_4_);stroke-dasharray:6.001,6.001}.st9{stroke-dasharray:5.945,5.945}.st10,.st11,.st9{clip-path:url(#SVGID_4_)}.st10{stroke:#a8f7e0;stroke-width:2;fill:none}.st11{fill:#a8f7e0}</style><path class="st0" d="M0 .3h1400v315.5H0z"/><defs><path id="SVGID_1_" d="M0 0h1409.1v325.2H0z"/></defs><clipPath id="SVGID_2_"><use xlink:href="#SVGID_1_" overflow="visible"/></clipPath><path class="st1" d="M328 229.2c0 4.4-3.5 8-7.8 8s-7.8-3.6-7.8-8 3.5-7.9 7.8-7.9c4.4-.1 7.8 3.5 7.8 7.9m812.6-73.9c0 4.4-3.5 8-7.8 8s-7.8-3.6-7.8-8 3.5-7.9 7.8-7.9c4.3-.1 7.8 3.5 7.8 7.9m150.7-105.4c0 9.9-8.1 18-18.2 18-10 0-18.2-8.1-18.2-18s8.1-18 18.2-18 18.2 8 18.2 18m-224.9 176c-1.7 0-3.1-1.4-3.1-3.2s1.4-3.2 3.1-3.2c1.7 0 3.1 1.4 3.1 3.2s-1.3 3.2-3.1 3.2m232.7-189.7c-1.7 0-3.1-1.4-3.1-3.2 0-1.8 1.4-3.2 3.1-3.2 1.7 0 3.1 1.4 3.1 3.2.1 1.7-1.3 3.2-3.1 3.2M239.4 274c-1.7 0-3.1-1.4-3.1-3.2 0-1.8 1.4-3.2 3.1-3.2 1.7 0 3.1 1.4 3.1 3.2 0 1.7-1.4 3.2-3.1 3.2m616.4-20.7c-3.4 0-6.1-2.8-6.1-6.3s2.7-6.3 6.1-6.3c3.4 0 6.1 2.8 6.1 6.3s-2.8 6.3-6.1 6.3M274 235.9c-.9 0-1.6-.7-1.6-1.6 0-.9.7-1.6 1.6-1.6.9 0 1.6.7 1.6 1.6 0 .9-.7 1.6-1.6 1.6m-200.7-1.6c-.9 0-1.6-.7-1.6-1.6 0-.9.7-1.6 1.6-1.6.9 0 1.6.7 1.6 1.6-.1.8-.8 1.6-1.6 1.6m354.8 37.3c-.9 0-1.6-.7-1.6-1.6 0-.9.7-1.6 1.6-1.6.9 0 1.6.7 1.6 1.6 0 .9-.7 1.6-1.6 1.6m51.1-229.4H469c-2 0-3.7-1.7-3.7-3.7V34c0-1.2-.9-2.1-2.1-2.1h-.2c-1.2 0-2.1 1-2.1 2.1v4.4c0 2.1-1.6 3.7-3.7 3.7H447c-1.2 0-2.1 1-2.1 2.1v.2c0 1.2.9 2.1 2.1 2.1h10.2c2 0 3.7 1.7 3.7 3.7v4.4c0 1.2.9 2.1 2.1 2.1h.2c1.2 0 2.1-1 2.1-2.1v-4.4c0-2.1 1.6-3.7 3.7-3.7h10.2c1.2 0 2.1-1 2.1-2.1v-.2c0-1.1-.9-2-2.1-2m805.6 223.7h-7.4c-1.5 0-2.7-1.2-2.7-2.7V260c0-.9-.7-1.5-1.5-1.5h-.1c-.8 0-1.5.7-1.5 1.5v3.2c0 1.5-1.2 2.7-2.7 2.7h-7.4c-.8 0-1.5.7-1.5 1.5v.1c0 .9.7 1.5 1.5 1.5h7.4c1.5 0 2.7 1.2 2.7 2.7v3.2c0 .9.7 1.5 1.5 1.5h.1c.8 0 1.5-.7 1.5-1.5v-3.2c0-1.5 1.2-2.7 2.7-2.7h7.4c.8 0 1.5-.7 1.5-1.5v-.1c0-.8-.7-1.5-1.5-1.5m86.5-65.9h-9.2c-1.8 0-3.3-1.5-3.3-3.4v-3.9c0-1.1-.8-1.9-1.9-1.9h-.2c-1 0-1.9.9-1.9 1.9v3.9c0 1.9-1.5 3.4-3.3 3.4h-9.2c-1 0-1.9.9-1.9 1.9v.2c0 1.1.8 1.9 1.9 1.9h9.2c1.8 0 3.3 1.5 3.3 3.4v3.9c0 1.1.8 1.9 1.9 1.9h.2c1 0 1.9-.9 1.9-1.9v-3.9c0-1.9 1.5-3.4 3.3-3.4h9.2c1 0 1.9-.9 1.9-1.9v-.2c0-1-.8-1.9-1.9-1.9M53.8 49.7h-5.6c-1.1 0-2-.8-2-1.8v-2.1c0-.6-.5-1-1.2-1h-.1c-.6 0-1.2.5-1.2 1v2.1c0 1-.9 1.8-2 1.8H36c-.6 0-1.2.5-1.2 1v.1c0 .6.5 1 1.2 1h5.6c1.1 0 2 .8 2 1.8v2.1c0 .6.5 1 1.2 1h.2c.6 0 1.2-.5 1.2-1v-2.1c0-1 .9-1.8 2-1.8h5.6c.6 0 1.2-.5 1.2-1v-.1c-.1-.5-.6-1-1.2-1m244.2 118h-3.2c-.6 0-1.1-.5-1.1-1.1v-1.3c0-.4-.3-.7-.7-.7h-.1c-.4 0-.7.3-.7.7v1.3c0 .6-.5 1.1-1.1 1.1h-3.2c-.4 0-.7.3-.7.7v.1c0 .4.3.7.7.7h3.2c.6 0 1.1.5 1.1 1.1v1.3c0 .4.3.7.7.7h.1c.4 0 .7-.3.7-.7v-1.3c0-.6.5-1.1 1.1-1.1h3.2c.4 0 .7-.3.7-.7v-.1c-.1-.4-.4-.7-.7-.7m-89.2-41c-3.5-2.4-8.1-1.7-10.5 1.6-2.3 3.3-1.4 8 2.1 10.4 3.5 2.4 8.1 1.7 10.5-1.6 2.3-3.3 1.4-8-2.1-10.4m10.2-14.6c5.3 3.7 2.3 17.7-6.5 35.1 3.3 7.7 2.8 16.6-2.1 23.6-3.1-9.1-8.7-16.9-16.7-22.5-8-5.6-17.2-8.1-26.8-8 4.9-7 13-10.4 21.3-10 13.4-14.3 25.6-21.9 30.8-18.2"/><path class="st1" d="M188.7 151.1l-19.9 28.5c-.8 1.1-.5 2.7.7 3.5 1.2.8 2.7.6 3.5-.5l19.9-28.5c-.7-.5-1.3-1-2-1.5-.8-.6-1.5-1.1-2.2-1.5m-7.6 26.9c-.8 1.1-.5 2.7.7 3.5 1.2.8 2.7.6 3.5-.5l14.2-20.2c-1.1-1.4-2.2-2.7-3.5-3.9L181.1 178zM166 167.4c-.8 1.1-.5 2.7.7 3.5 1.2.8 2.7.6 3.5-.5l14.9-21.2c-1.6-.8-3.2-1.4-4.9-1.9L166 167.4zm36-3.1l-8.5 12.1c-.8 1.1-.5 2.7.7 3.5 1.2.8 2.7.6 3.5-.5l7-10c-.8-1.8-1.7-3.5-2.7-5.1m-38.8-9.1c-.8 1.1-.5 2.7.7 3.5 1.2.8 2.7.6 3.5-.5l8.5-12.1c-1.9-.4-3.8-.7-5.7-.8l-7 9.9z"/><path class="st2" d="M225.4 101.3C237.6 77.5 249 40.3 251.9.2"/><path class="st3" d="M165 190.7c-36 50.1-88 106.6-143 133.6"/><text transform="translate(657.21 213.79)"><tspan x="0" y="0" class="st0 st4 st5 st6">G</tspan><tspan x="8.6" y="0" class="st0 st4 st5 st6">E</tspan><tspan x="16.2" y="0" class="st0 st4 st5 st6">T</tspan><tspan x="23.1" y="0" class="st0 st4 st5 st6"> </tspan><tspan x="26.7" y="0" class="st0 st4 st5 st6">I</tspan><tspan x="30.8" y="0" class="st0 st4 st5 st6">N</tspan><tspan x="39.8" y="0" class="st0 st4 st5 st6"> </tspan><tspan x="43.4" y="0" class="st0 st4 st5">T</tspan><tspan x="49.9" y="0" class="st0 st4 st5 st6">O</tspan><tspan x="59.1" y="0" class="st0 st4 st5 st6">UC</tspan><tspan x="75.9" y="0" class="st0 st4 st5">H</tspan></text><defs><path id="SVGID_3_" d="M0 0h1409.1v325.2H0z"/></defs><clipPath id="SVGID_4_"><use xlink:href="#SVGID_3_" overflow="visible"/></clipPath><path class="st7" d="M350 .3c-37.5 126.1-9 240.5 57.2 318.1"/><path class="st8" d="M880.3 308.4c195.4-270.1 297.1-200.5 344.1-139.9"/><path class="st9" d="M1233.4 180.4c43.9 55.8 107.4 94.3 169.7 87.9"/><path class="st10" d="M1406.1 268c1-.1 2-.3 2.9-.4m-182.8-96.7l1.8 2.4 1.8 2.4M875 315.7c.6-.8 1.2-1.6 1.7-2.4"/><path class="st11" d="M711.3 284c-95.2 0-187.9 11-276.8 31.7h553.6C899.2 295 806.5 284 711.3 284"/></svg>