<svg id="Layer_1" xmlns="http://www.w3.org/2000/svg" viewBox="0 0 246.2 239.2"><style>.st0{fill:#c3e5d7}.st1{fill:#69c4a5}.st2{stroke-linejoin:round}.st2,.st3{fill:none;stroke:#fff;stroke-width:3;stroke-linecap:round;stroke-miterlimit:10}</style><path class="st0" d="M112.5 191.4c-1.1-1.1-.9-2.9.1-4 1-1 2.7-1.1 3.8-.3 8.3 8.4 33.1 33.1 33.1 33.2 1.2 1.2 3.2 1.2 4.4 0 1.2-1.2 1.2-3.2 0-4.4l-27.2-27.2c-1.1-1.1-.9-2.9.1-4 1-1 2.7-1.2 3.8-.3l19.8 19.8c1.2 1.2 3.2 1.2 4.4 0 1.2-1.2 1.2-3.2 0-4.4l-91.7-91.7c-8.3-8.3-21.8-8.3-30.1 0s-8.3 21.8 0 30.1l.1.1c3.2 3.2 91.5 91.6 91.6 91.6 1.2 1.2 3.2 1.2 4.4 0 1.2-1.2 1.2-3.2 0-4.5l-12.2-12.2c-1.1-1.1-.9-2.9.1-4 1-1 2.8-1.1 3.9-.2l29.2 29.2c1.2 1.2 3.2 1.2 4.4 0 1.2-1.2 1.2-3.2 0-4.4.4 0-42-42.4-42-42.4zm23.9-60.9c-1.1-1.1-2.9-.9-4 .1-1 1-1.1 2.7-.3 3.8 8.4 8.3 33.1 33.1 33.2 33.1 1.2 1.2 1.2 3.2 0 4.4-1.2 1.2-3.2 1.2-4.4 0l-27.2-27.2c-1.1-1.1-2.9-.9-4 .1-1 1-1.2 2.7-.3 3.8l19.8 19.8c1.2 1.2 1.2 3.2 0 4.4-1.2 1.2-3.2 1.2-4.4 0L53.1 81.1c-8.3-8.3-8.3-21.8 0-30.1s21.8-8.3 30.1 0l.1.1c3.2 3.2 91.6 91.5 91.6 91.6 1.2 1.2 1.2 3.2 0 4.4-1.2 1.2-3.2 1.2-4.5 0l-12.2-12.2c-1.1-1.1-2.9-.9-4 .1-1 1-1.1 2.8-.2 3.9l29.2 29.2c1.2 1.2 1.2 3.2 0 4.4-1.2 1.2-3.2 1.2-4.4 0 0 .4-42.4-42-42.4-42zm62-15c-1.1-1.1-2.9-.9-4 .1-1 1-1.1 2.7-.3 3.8 8.4 8.3 33.1 33.1 33.2 33.1 1.2 1.2 1.2 3.2 0 4.4-1.2 1.2-3.2 1.2-4.4 0l-27.2-27.2c-1.1-1.1-2.9-.9-4 .1-1 1-1.2 2.7-.3 3.8l19.8 19.8c1.2 1.2 1.2 3.2 0 4.4-1.2 1.2-3.2 1.2-4.4 0l-91.7-91.7c-8.3-8.3-8.3-21.8 0-30.1s21.8-8.3 30.1 0l.1.1c3.2 3.2 91.6 91.5 91.6 91.6 1.2 1.2 1.2 3.2 0 4.4-1.2 1.2-3.2 1.2-4.5 0l-12.2-12.2c-1.1-1.1-2.9-.9-4 .1-1 1-1.1 2.8-.2 3.9l29.2 29.2c1.2 1.2 1.2 3.2 0 4.4-1.2 1.2-3.2 1.2-4.4 0 0 .4-42.4-42-42.4-42z"/><path class="st1" d="M210.1 53c0 2.3 1.8 4.1 4 4.1s4-1.8 4-4.1-1.8-4.1-4-4.1-4 1.8-4 4.1M0 112.5c0 2.8 2.2 5 4.9 5s4.9-2.2 4.9-5-2.2-5-4.9-5-4.9 2.2-4.9 5m65.9 16c2 0 3.6-1.6 3.6-3.6s-1.6-3.6-3.6-3.6-3.6 1.6-3.6 3.6c.1 2 1.7 3.6 3.6 3.6M181 200.2h11.6c2.3 0 4.1-1.9 4.1-4.2v-5c0-1.3 1.1-2.4 2.4-2.4h.2c1.3 0 2.4 1.1 2.4 2.4v5c0 2.3 1.9 4.2 4.1 4.2h11.6c1.3 0 2.4 1.1 2.4 2.4v.2c0 1.3-1.1 2.4-2.4 2.4h-11.6c-2.3 0-4.1 1.9-4.1 4.2v5c0 1.3-1.1 2.4-2.4 2.4h-.2c-1.3 0-2.4-1.1-2.4-2.4v-5c0-2.3-1.9-4.2-4.1-4.2H181c-1.3 0-2.4-1.1-2.4-2.4v-.2c0-1.4 1.1-2.4 2.4-2.4M11.3 167.4h7.4c1.5 0 2.7-1.2 2.7-2.7v-3.2c0-.9.7-1.6 1.5-1.6h.1c.8 0 1.5.7 1.5 1.6v3.2c0 1.5 1.2 2.7 2.7 2.7h7.4c.8 0 1.5.7 1.5 1.6v.1c0 .9-.7 1.6-1.5 1.6h-7.4c-1.5 0-2.7 1.2-2.7 2.7v3.2c0 .9-.7 1.6-1.5 1.6s-1.5-.7-1.5-1.6v-3.2c0-1.5-1.2-2.7-2.7-2.7h-7.4c-.8 0-1.5-.7-1.5-1.6v-.1c-.1-.9.6-1.6 1.4-1.6M71 4.7h4.7c.9 0 1.7-.8 1.7-1.7V1c0-.5.4-1 1-1h.1c.5 0 1 .4 1 1v2c0 .9.8 1.7 1.7 1.7h4.7c.5 0 1 .4 1 1v.1c0 .5-.4 1-1 1H81c-.9 0-1.7.8-1.7 1.7v2c0 .5-.4 1-1 1h-.1c-.5 0-1-.4-1-1v-2c0-.9-.8-1.7-1.7-1.7H71c-.5 0-1-.4-1-1v-.1c0-.6.4-1 1-1m13.1 81.2c-1.1-1.1-.9-2.9.1-4 1-1 2.7-1.1 3.8-.3 8.3 8.4 33.1 33.1 33.1 33.2 1.2 1.2 3.2 1.2 4.4 0 1.2-1.2 1.2-3.2 0-4.4L98.3 83.2c-1.1-1.1-.9-2.9.1-4 1-1 2.7-1.2 3.8-.3L122 98.7c1.2 1.2 3.2 1.2 4.4 0 1.2-1.2 1.2-3.2 0-4.4L65.3 33.1c-8.3-8.3-21.8-8.3-30.1 0s-8.3 21.8 0 30.1l.1.1 61 61c1.2 1.2 3.2 1.2 4.4 0 1.2-1.2 1.2-3.2 0-4.5l-12.2-12.2c-1.1-1.1-.9-2.9.1-4 1-1 2.8-1.1 3.9-.2l29.2 29.2c1.2 1.2 3.2 1.2 4.4 0 1.2-1.2 1.2-3.2 0-4.4.4.1-42-42.3-42-42.3z"/><ellipse transform="rotate(-45.001 51.094 48.896)" class="st0" cx="51.1" cy="48.9" rx="14.4" ry="14.4"/><path class="st1" d="M73.4 152.3c-1.1-1.1-.9-2.9.1-4 1-1 2.7-1.1 3.8-.3 8.3 8.4 33.1 33.1 33.1 33.2 1.2 1.2 3.2 1.2 4.4 0 1.2-1.2 1.2-3.2 0-4.4l-18.6-18.7c-1.1-1.1-.9-2.9.1-4 1-1 2.7-1.2 3.8-.3l11.3 11.3c1.2 1.2 3.2 1.2 4.4 0 1.2-1.2 1.2-3.2 0-4.4l-52.6-52.6c-8.3-8.3-21.8-8.3-30.1 0s-8.3 21.8 0 30.1l.1.1 52.5 52.5c1.2 1.2 3.2 1.2 4.4 0 1.2-1.2 1.2-3.2 0-4.5l-12.2-12.2c-1.1-1.1-.9-2.9.1-4 1-1 2.8-1.1 3.9-.2l29.2 29.2c1.2 1.2 3.2 1.2 4.4 0 1.2-1.2 1.2-3.2 0-4.4.2 0-42.1-42.4-42.1-42.4z"/><ellipse transform="rotate(-45.001 48.927 123.86)" class="st0" cx="48.9" cy="123.9" rx="14.4" ry="14.4"/><path class="st1" d="M164 88.1c-1.1-1.1-.9-2.9.1-4 1-1 2.7-1.1 3.8-.3 8.3 8.4 33.1 33.1 33.1 33.2 1.2 1.2 3.2 1.2 4.4 0 1.2-1.2 1.2-3.2 0-4.4l-27.2-27.2c-1.1-1.1-.9-2.9.1-4 1-1 2.7-1.2 3.8-.3l19.8 19.8c1.2 1.2 3.2 1.2 4.4 0 1.2-1.2 1.2-3.2 0-4.4l-61.1-61.2c-8.3-8.3-21.8-8.3-30.1 0s-8.3 21.8 0 30.1l.1.1 61 61c1.2 1.2 3.2 1.2 4.4 0 1.2-1.2 1.2-3.2 0-4.5l-12.2-12.2c-1.1-1.1-.9-2.9.1-4 1-1 2.8-1.1 3.9-.2l29.2 29.2c1.2 1.2 3.2 1.2 4.4 0 1.2-1.2 1.2-3.2 0-4.4.3.1-42-42.3-42-42.3z"/><ellipse transform="rotate(-45.001 130.983 51.07)" class="st0" cx="131" cy="51.1" rx="14.4" ry="14.4"/><path class="st3" d="M54.1 36.6c-1-.4-2-.6-3-.7-3.7-.3-7.3 1.6-9.2 4.8l-.6 1.2m93.3-3.1c-1-.4-2-.6-3-.7-3.7-.3-7.3 1.6-9.2 4.8l-.6 1.2m-69.9 68c-1-.4-2-.6-3-.7-3.7-.3-7.3 1.6-9.2 4.8l-.6 1.2"/></svg>