<svg id="Layer_1" xmlns="http://www.w3.org/2000/svg" viewBox="0 0 34.9 31.3"><style>.st0{fill:#be529f}.st1{fill:#fff}</style><path class="st0" d="M0 0h34.9v31.3H0z"/><path class="st1" d="M23.9 11.2c-.4.6-.8 1-1.4 1.4v.4c0 .7-.1 1.5-.3 2.2s-.5 1.4-1 2.1c-.4.7-1 1.3-1.6 1.8-.6.5-1.3.9-2.2 1.2-.9.3-1.8.5-2.8.5-1.5 0-3-.4-4.2-1.2h.7c1.3 0 2.4-.4 3.4-1.2-.6 0-1.1-.2-1.6-.6-.5-.4-.8-.8-1-1.4h.5c.2 0 .5 0 .7-.1-.6-.1-1.2-.4-1.6-1s-.5-.9-.5-1.6c.4.2.8.3 1.2.3-.4-.2-.7-.6-.9-1-.2-.4-.3-.8-.3-1.3s.1-1 .4-1.4c.7.8 1.5 1.5 2.5 2s2 .8 3.2.8c0-.2-.1-.4-.1-.6 0-.8.3-1.4.8-2 .5-.5 1.2-.8 2-.8s1.5.3 2 .9c.6-.1 1.2-.3 1.8-.7-.2.7-.6 1.2-1.2 1.5.5.1 1 0 1.5-.2z"/></svg>