<?xml version="1.0" encoding="utf-8"?>
<!-- Generator: Adobe Illustrator 20.1.0, SVG Export Plug-In . SVG Version: 6.00 Build 0)  -->
<svg version="1.1" id="Layer_1" xmlns="http://www.w3.org/2000/svg" xmlns:xlink="http://www.w3.org/1999/xlink" x="0px" y="0px"
	 viewBox="0 0 192.5 192.7" style="enable-background:new 0 0 192.5 192.7;" xml:space="preserve">
<style type="text/css">
	.st0{fill:#3C3C3B;}
</style>
<g>
	<path class="st0" d="M96.6,15.7C52.3,14.7,15.7,52.2,15.5,96c-0.2,44.4,36.6,81.1,80.5,81.3c44.4,0.2,81-36.6,81.2-80.4
		C177.5,52.3,140.5,14.9,96.6,15.7 M192.5,96.2c1.1,52.6-43.4,96-95.1,96.5c-52.6,0.5-97.9-43-97.3-97.4C0.5,43.3,43.7-0.2,96.8,0
		C150.1,0.2,193.5,44.7,192.5,96.2"/>
	<path class="st0" d="M57.1,117.1c-1.7-2.7-4.5-3.5-7.4-3.9c-6.2-0.8-12.6-1.8-19-2.9c-6.4-1.1-11.1-7.2-11-14.1
		c0.1-7,4.7-12.7,11.1-13.8c6.2-1,12.3-2,19-2.9c4.1-0.6,5.7-1.2,7.2-3.8c1.9,2.7,4.9,3.5,7.7,3.9c5.9,0.8,12,1.9,17.3,2.9
		C89.3,83.7,94,89.2,94,96.3c0,7.1-4.7,12.7-11.8,14c-7.1,1.3-12.6,2.2-17.8,3C61.8,113.6,59,114.4,57.1,117.1"/>
	<path class="st0" d="M96.4,151.5c-2.2-3.1-5.7-3.6-8.6-4c-0.7-0.1-1.3-0.2-1.9-0.3c-2.6-0.5-5.3-0.9-7.9-1.4
		c-2.1-0.3-4.2-0.7-6.3-1.1c-7.5-1.3-12.3-6.8-12.3-14c0-7,5.2-12.7,12.5-14c1.2-0.2,2.4-0.4,3.6-0.6c4.4-0.8,8.9-1.6,13.4-2.2
		c2.5-0.3,5.4-1.1,7.4-3.6c1.7,2.5,4.4,3.2,6.7,3.5c6.7,0.9,13.3,2,18.8,2.9c6.9,1.1,11.7,6.9,11.8,14c0.1,7.3-4.4,12.9-11.4,14.1
		c-3.9,0.7-7.9,1.3-11.8,1.9c-2.6,0.4-5.3,0.8-7.9,1.2C99.2,148.4,97.7,149.2,96.4,151.5"/>
	<path class="st0" d="M96.3,82.8c-2.1-3-5.5-3.5-8.4-3.9c-0.7-0.1-1.3-0.2-1.9-0.3c-2.6-0.5-5.3-0.9-7.8-1.3
		c-2.3-0.4-4.8-0.8-7.1-1.2c-6.7-1.2-11.7-7.2-11.8-13.9c-0.1-6.9,4.5-12.5,11.4-13.9c3.5-0.7,7.1-1.3,10.6-1.9
		c2.2-0.4,4.5-0.7,6.7-1.1c5-0.9,6.1-1.2,8.3-4c1.7,2.8,4.7,3.6,7,3.9c6.5,0.9,13,1.9,19,2.9c6.4,1,11.2,6.7,11.3,13.3
		c0.1,7.4-4.4,13.4-11,14.6c-4.4,0.8-8.9,1.5-13.3,2.2c-2.3,0.4-4.7,0.7-7.1,1.1C99.1,79.8,97.6,80.6,96.3,82.8"/>
	<path class="st0" d="M135.9,116.9c-2.1-2.5-5-3.3-8.1-3.7c-5.7-0.8-11.3-1.8-17.1-2.9c-6.8-1.3-11.9-7.3-11.9-14
		c0-7.1,4.9-12.7,12.2-13.9c2.9-0.5,5.7-1,8.6-1.5c2.7-0.5,5.4-0.9,8.1-1.4c4.9-0.8,6.1-1.2,8.1-3.9c1.6,2.6,4.4,3.4,7.1,3.8
		c6.6,0.9,13.3,2,19,2.9c6.5,1.1,11.1,6.7,11.2,13.7c0.1,7.3-4.5,13.2-11,14.3c-5.7,1-12,2-19.3,3
		C140.3,113.6,137.5,114.4,135.9,116.9"/>
</g>
</svg>
