<?xml version="1.0" encoding="utf-8"?>
<!-- Generator: Adobe Illustrator 20.1.0, SVG Export Plug-In . SVG Version: 6.00 Build 0)  -->
<svg version="1.1" id="Layer_1" xmlns="http://www.w3.org/2000/svg" xmlns:xlink="http://www.w3.org/1999/xlink" x="0px" y="0px"
	 viewBox="0 0 38.5 38.5" style="enable-background:new 0 0 38.5 38.5;" xml:space="preserve">
<style type="text/css">
	.st0{fill:#69C4A5;}
</style>
<g>
	<g>
		<path class="st0" d="M32.8,38.5h-27c-4.5,0-5.8-3.8-5.8-5.8v-27C0,1.2,3.8,0,5.8,0h27c4.5,0,5.8,3.8,5.8,5.8v27
			C38.5,37.3,34.7,38.5,32.8,38.5z M5.8,1.5c-0.4,0-4.3,0.2-4.3,4.2v27c0,0.4,0.1,4.2,4.2,4.2h27c0.4,0,4.2-0.1,4.2-4.2v-27
			c0-0.4-0.1-4.2-4.2-4.2H5.8z"/>
	</g>
</g>
<g>
	<polygon class="st0" points="16.8,27 15.4,25.6 21.7,19.2 15.4,12.9 16.8,11.5 24.5,19.2 	"/>
</g>
</svg>
