<?xml version="1.0" encoding="utf-8"?>
<!-- Generator: Adobe Illustrator 20.1.0, SVG Export Plug-In . SVG Version: 6.00 Build 0)  -->
<svg version="1.1" id="Layer_1" xmlns="http://www.w3.org/2000/svg" xmlns:xlink="http://www.w3.org/1999/xlink" x="0px" y="0px"
	 viewBox="0 0 240.3 207.6" style="enable-background:new 0 0 240.3 207.6;" xml:space="preserve">
<style type="text/css">
	.st0{fill:#29EDB5;}
	.st1{fill:#A9F8E1;}
	.st2{fill:none;stroke:#FFFFFF;stroke-width:3;stroke-linecap:round;stroke-miterlimit:10;}
</style>
<g>
	<path class="st0" d="M67.4,49.5c0,2.8-2.2,5-4.9,5c-2.7,0-4.9-2.2-4.9-5c0-2.8,2.2-5,4.9-5C65.3,44.5,67.4,46.8,67.4,49.5"/>
	<path class="st0" d="M182,112.3c-2,0-3.6-1.6-3.6-3.6c0-2,1.6-3.6,3.6-3.6c2,0,3.6,1.6,3.6,3.6C185.5,110.7,184,112.3,182,112.3"/>
	<path class="st0" d="M38.7,120.3H27.2c-2.3,0-4.1-1.9-4.1-4.2v-5c0-1.3-1.1-2.4-2.4-2.4h-0.2c-1.3,0-2.4,1.1-2.4,2.4v5
		c0,2.3-1.9,4.2-4.1,4.2H2.4c-1.3,0-2.4,1.1-2.4,2.4v0.2c0,1.3,1.1,2.4,2.4,2.4h11.6c2.3,0,4.1,1.9,4.1,4.2v5c0,1.3,1.1,2.4,2.4,2.4
		h0.2c1.3,0,2.4-1.1,2.4-2.4v-5c0-2.3,1.9-4.2,4.1-4.2h11.6c1.3,0,2.4-1.1,2.4-2.4v-0.2C41.1,121.4,40,120.3,38.7,120.3"/>
	<path class="st0" d="M238.8,94.4h-7.4c-1.5,0-2.7-1.2-2.7-2.7v-3.2c0-0.9-0.7-1.6-1.5-1.6H227c-0.8,0-1.5,0.7-1.5,1.6v3.2
		c0,1.5-1.2,2.7-2.7,2.7h-7.4c-0.8,0-1.5,0.7-1.5,1.6V96c0,0.9,0.7,1.6,1.5,1.6h7.4c1.5,0,2.7,1.2,2.7,2.7v3.2
		c0,0.9,0.7,1.6,1.5,1.6h0.1c0.8,0,1.5-0.7,1.5-1.6v-3.2c0-1.5,1.2-2.7,2.7-2.7h7.4c0.8,0,1.5-0.7,1.5-1.6v-0.1
		C240.3,95.1,239.6,94.4,238.8,94.4"/>
	<path class="st0" d="M230.3,156.3h-4.7c-0.9,0-1.7-0.8-1.7-1.7v-2c0-0.5-0.4-1-1-1h-0.1c-0.5,0-1,0.4-1,1v2c0,0.9-0.8,1.7-1.7,1.7
		h-4.7c-0.5,0-1,0.4-1,1v0.1c0,0.5,0.4,1,1,1h4.7c0.9,0,1.7,0.8,1.7,1.7v2c0,0.5,0.4,1,1,1h0.1c0.5,0,1-0.4,1-1v-2
		c0-0.9,0.8-1.7,1.7-1.7h4.7c0.5,0,1-0.4,1-1v-0.1C231.3,156.7,230.8,156.3,230.3,156.3"/>
</g>
<g>
	<path class="st0" d="M120.1,0c14.8,0,27.6,31.6,34,77.9c16.4,10.6,27.2,28.7,27.2,49.1c-17.8-13.5-38.8-21.2-61.2-21.2
		c-22.3,0-43.2,7.7-61,21.1c0-20.4,10.7-38.3,27-48.9C92.4,31.7,105.3,0,120.1,0"/>
	<path class="st1" d="M114.3,118.3v83.4c0,3.2,2.6,5.9,5.9,5.9c3.2,0,5.9-2.6,5.9-5.9v-83.4c-1.9-0.1-3.9-0.2-5.9-0.2
		S116.2,118.2,114.3,118.3"/>
	<path class="st1" d="M135.5,181.6c0,3.2,2.6,5.9,5.9,5.9c3.2,0,5.9-2.6,5.9-5.9v-59.3c-3.8-1.2-7.8-2.2-11.7-2.9V181.6z"/>
	<path class="st1" d="M93.1,181.6c0,3.2,2.6,5.9,5.9,5.9s5.9-2.6,5.9-5.9v-62.2c-4,0.7-7.9,1.7-11.7,2.9V181.6z"/>
	<path class="st1" d="M156.7,126v35.6c0,3.2,2.6,5.9,5.9,5.9c3.2,0,5.9-2.6,5.9-5.9v-29.3C164.7,129.9,160.8,127.8,156.7,126"/>
	<path class="st1" d="M71.8,161.5c0,3.2,2.6,5.9,5.9,5.9c3.2,0,5.9-2.6,5.9-5.9V126c-4,1.8-8,3.9-11.7,6.2V161.5z"/>
</g>
<path class="st1" d="M120.1,0c14.8,0,27.6,31.6,34,77.9c16.4,10.6,27.2,28.7,27.2,49.1c-17.8-13.5-38.8-21.2-61.2-21.2
	c-22.3,0-43.2,7.7-61,21.1c0-20.4,10.7-38.3,27-48.9C92.4,31.7,105.3,0,120.1,0"/>
<path class="st2" d="M94,79.1C101.4,25.4,114.7,8,120.1,8"/>
<path class="st0" d="M163.1,60.1c-0.7,0-1.3-0.3-1.8-0.8c-1-1-1-2.6,0-3.6l12.2-12.1H165c-1.5,0-2.6-1.6-2.6-3s1.1-3,2.6-3h15.2
	c1.3,0,2.3,1.3,2.3,2.8v15.2c0,1.5-1.1,2.6-2.5,2.6s-2.5-1.1-2.5-2.6v-8.7l-12.5,12.4C164.6,59.8,163.8,60.1,163.1,60.1z"/>
<path class="st0" d="M152.3,59.6c-0.7,0-1.2-0.3-1.7-0.8l-12-12.3v8.5c0,1.5-1.6,2.6-3,2.6c-1.4,0-3-1.1-3-2.6V40
	c0-1.4,1.1-2.4,2.6-2.4h15.2c1.5,0,2.6,1.1,2.6,2.5s-1.1,2.5-2.6,2.5h-8.6L154,55.1c1,1,1,2.8,0,3.8
	C153.6,59.4,152.9,59.6,152.3,59.6z"/>
<path class="st0" d="M134.5,89.6c-1.3,0-2-1.9-2-3.5V70.9c0-1.5,1.1-2.6,2.5-2.6s2.5,1.1,2.5,2.6v8.6l12.3-12.3
	c0.5-0.5,1.1-0.7,1.8-0.7c0.7,0,1.4,0.3,1.9,0.8c0.5,0.5,0.7,1.2,0.7,1.9s-0.3,1.5-0.8,2l-12.2,12.5h8.5c1.5,0,2.6,1.6,2.6,3
	s-1.1,3-2.6,3H134.5z"/>
<path class="st0" d="M164.4,89.6c-1.5,0-2.6-1.1-2.6-2.5s1.1-2.5,2.6-2.5h8.6l-12.3-12.8c-1-1-1.1-3.1,0-4.1
	c0.5-0.5,1.1-0.8,1.8-0.8s1.4,0.3,1.9,0.7l12.2,12.2v-8.5c0-1.5,1.6-2.6,3-2.6s3,1.1,3,2.6v15.2c0,1.5-1.6,3.1-2.9,3.1H164.4z"/>
</svg>
