<svg id="Layer_1" data-name="Layer 1" xmlns="http://www.w3.org/2000/svg" xmlns:xlink="http://www.w3.org/1999/xlink" viewBox="0 0 96.32 80.9"><defs><style>.cls-1{fill:none;}.cls-2{clip-path:url(#clip-path);}.cls-3{fill:#69c4a5;}.cls-4{fill:#3f5579;}</style><clipPath id="clip-path" transform="translate(0 0)"><rect class="cls-1" width="96.32" height="80.9"/></clipPath></defs><title>auto-icon</title><g class="cls-2"><path class="cls-3" d="M26.71,3.85a3.78,3.78,0,1,1-7.55,0,3.78,3.78,0,1,1,7.55,0" transform="translate(0 0)"/><path class="cls-3" d="M77.63,19.32a2.1,2.1,0,1,1-2.1-2.14,2.12,2.12,0,0,1,2.1,2.14" transform="translate(0 0)"/><path class="cls-3" d="M95.16,36.62a1.19,1.19,0,1,1,1.16-1.19,1.17,1.17,0,0,1-1.16,1.19" transform="translate(0 0)"/><path class="cls-3" d="M1.53,55.32a1.56,1.56,0,0,1,0-3.11,1.56,1.56,0,0,1,0,3.11" transform="translate(0 0)"/><path class="cls-3" d="M90.05,45.57h-5a1.8,1.8,0,0,1-1.78-1.81V41.63a1,1,0,0,0-1-1h-.08a1,1,0,0,0-1,1v2.12a1.8,1.8,0,0,1-1.78,1.81h-5a1,1,0,0,0-1,1v.09a1,1,0,0,0,1,1h5a1.8,1.8,0,0,1,1.78,1.81v2.12a1,1,0,0,0,1,1h.08a1,1,0,0,0,1-1V49.54a1.8,1.8,0,0,1,1.78-1.81h5a1,1,0,0,0,1-1V46.6a1,1,0,0,0-1-1" transform="translate(0 0)"/><path class="cls-3" d="M24.17,76.31H21a1.16,1.16,0,0,1-1.15-1.17V73.77a.66.66,0,0,0-.65-.67h-.06a.66.66,0,0,0-.65.67v1.37a1.16,1.16,0,0,1-1.14,1.17H14.13a.66.66,0,0,0-.65.67V77a.66.66,0,0,0,.65.67h3.19a1.16,1.16,0,0,1,1.14,1.17v1.37a.66.66,0,0,0,.65.67h.06a.66.66,0,0,0,.65-.67V78.87A1.16,1.16,0,0,1,21,77.7h3.19a.66.66,0,0,0,.65-.67V77a.66.66,0,0,0-.65-.67" transform="translate(0 0)"/><path class="cls-3" d="M8.2,28.6h-2a.73.73,0,0,1-.72-.74V27A.42.42,0,0,0,5,26.58H5A.42.42,0,0,0,4.6,27v.86a.73.73,0,0,1-.72.74h-2a.42.42,0,0,0-.41.42v0a.42.42,0,0,0,.41.42h2a.73.73,0,0,1,.72.74v.86a.42.42,0,0,0,.41.42H5a.42.42,0,0,0,.41-.42v-.86a.73.73,0,0,1,.72-.74h2a.42.42,0,0,0,.41-.42v0a.42.42,0,0,0-.41-.42" transform="translate(0 0)"/></g><rect class="cls-4" x="52.91" y="66.16" width="12.91" height="1.2"/><rect class="cls-4" x="21.9" y="66.16" width="12.91" height="1.2"/><polygon class="cls-4" points="42.77 61.27 44.95 61.27 44.95 65.02 51.91 65.02 51.91 68.65 35.81 68.65 35.81 65.02 42.77 65.02 42.77 61.27"/><g class="cls-2"><path class="cls-4" d="M27.8,28.5a1.93,1.93,0,1,1,1.94-1.93A1.93,1.93,0,0,1,27.8,28.5m27.25-7.58h-28a5.65,5.65,0,1,0,0,11.3H48a2.4,2.4,0,0,1,.1-.23Z" transform="translate(0 0)"/><path class="cls-4" d="M27.8,42.12a1.93,1.93,0,1,1,1.94-1.93,1.94,1.94,0,0,1-1.94,1.93m21.74,2.27,4.24-8.47H50.31a2.57,2.57,0,0,1-2.24-1.32l0-.05h-21a5.65,5.65,0,1,0,0,11.29H49.29a2.55,2.55,0,0,1,.25-1.45" transform="translate(0 0)"/><path class="cls-4" d="M60.66,45.83a5.64,5.64,0,0,0,4.06-9.56l-9.56,9.56Z" transform="translate(0 0)"/><path class="cls-4" d="M27.8,55.74a1.93,1.93,0,1,1,1.94-1.93,1.94,1.94,0,0,1-1.94,1.93m32.85-7.58H27.06a5.65,5.65,0,1,0,0,11.3H60.66a5.65,5.65,0,1,0,0-11.3" transform="translate(0 0)"/></g><polygon class="cls-4" points="68.59 21.16 57.93 21.16 50.31 33.35 57.93 33.35 51.83 45.53 67.06 30.3 59.45 30.3 68.59 21.16"/></svg>