<?xml version="1.0" encoding="utf-8"?>
<!-- Generator: Adobe Illustrator 20.1.0, SVG Export Plug-In . SVG Version: 6.00 Build 0)  -->
<svg version="1.1" id="Layer_1" xmlns="http://www.w3.org/2000/svg" xmlns:xlink="http://www.w3.org/1999/xlink" x="0px" y="0px"
	 viewBox="0 0 233.2 133.4" style="enable-background:new 0 0 233.2 133.4;" xml:space="preserve">
<style type="text/css">
	.st0{fill:#29EDB5;}
	.st1{fill:none;stroke:#FFFFFF;stroke-width:3;stroke-linecap:round;stroke-miterlimit:10;}
	.st2{fill:#A9F8E1;}
</style>
<g>
	<path class="st0" d="M41.1,27.3c0,5-3.9,9-8.8,9c-4.9,0-8.8-4-8.8-9c0-5,3.9-9,8.8-9C37.2,18.3,41.1,22.3,41.1,27.3"/>
	<path class="st0" d="M201.7,36.2c0,2.8-2.2,5-4.9,5c-2.7,0-4.9-2.2-4.9-5c0-2.8,2.2-5,4.9-5C199.5,31.2,201.7,33.5,201.7,36.2"/>
	<path class="st0" d="M174.9,116.6c-2,0-3.6-1.6-3.6-3.6s1.6-3.6,3.6-3.6c2,0,3.6,1.6,3.6,3.6S176.9,116.6,174.9,116.6"/>
	<path class="st0" d="M38.7,116.8H27.2c-2.3,0-4.1-1.9-4.1-4.2v-5c0-1.3-1.1-2.4-2.4-2.4h-0.2c-1.3,0-2.4,1.1-2.4,2.4v5
		c0,2.3-1.9,4.2-4.1,4.2H2.4c-1.3,0-2.4,1.1-2.4,2.4v0.2c0,1.3,1.1,2.4,2.4,2.4h11.6c2.3,0,4.1,1.9,4.1,4.2v5c0,1.3,1.1,2.4,2.4,2.4
		h0.2c1.3,0,2.4-1.1,2.4-2.4v-5c0-2.3,1.9-4.2,4.1-4.2h11.6c1.3,0,2.4-1.1,2.4-2.4v-0.2C41.1,117.8,40,116.8,38.7,116.8"/>
	<path class="st0" d="M231.7,98.6h-7.4c-1.5,0-2.7-1.2-2.7-2.7v-3.2c0-0.9-0.7-1.6-1.5-1.6h-0.1c-0.8,0-1.5,0.7-1.5,1.6v3.2
		c0,1.5-1.2,2.7-2.7,2.7h-7.4c-0.8,0-1.5,0.7-1.5,1.6v0.1c0,0.9,0.7,1.6,1.5,1.6h7.4c1.5,0,2.7,1.2,2.7,2.7v3.2
		c0,0.9,0.7,1.6,1.5,1.6h0.1c0.8,0,1.5-0.7,1.5-1.6v-3.2c0-1.5,1.2-2.7,2.7-2.7h7.4c0.8,0,1.5-0.7,1.5-1.6v-0.1
		C233.2,99.3,232.5,98.6,231.7,98.6"/>
	<path class="st0" d="M148.2,4.7h-4.7c-0.9,0-1.7-0.8-1.7-1.7V1c0-0.5-0.4-1-1-1h-0.1c-0.5,0-1,0.4-1,1v2c0,0.9-0.8,1.7-1.7,1.7
		h-4.7c-0.5,0-1,0.4-1,1v0.1c0,0.5,0.4,1,1,1h4.7c0.9,0,1.7,0.8,1.7,1.7v2c0,0.5,0.4,1,1,1h0.1c0.5,0,1-0.4,1-1v-2
		c0-0.9,0.8-1.7,1.7-1.7h4.7c0.5,0,1-0.4,1-1V5.7C149.1,5.1,148.7,4.7,148.2,4.7"/>
</g>
<path class="st1" d="M64,57.2c0-19.4,15.7-35.1,35.1-35.1"/>
<path class="st2" d="M170.7,62.7c-0.3,0-0.5,0-0.8,0c0-0.3,0-0.5,0-0.8c0-12.3-10-22.3-22.3-22.3c-2.9,0-5.7,0.6-8.3,1.6
	c-6.4-16-22-27.2-40.3-27.2c-24,0-43.4,19.4-43.4,43.4c0,2,0.2,4,0.4,6c-12.5,2.9-21.9,14.1-21.9,27.4c0,14.4,10.8,26.6,24.8,28.2
	c0.7,0.1,110.6,0.1,111.6,0.1c15.6,0,28.2-12.7,28.2-28.2C198.9,75.4,186.3,62.7,170.7,62.7z"/>
<path class="st2" d="M170.7,62.7c-0.3,0-0.5,0-0.8,0c0-0.3,0-0.5,0-0.8c0-12.3-10-22.3-22.3-22.3c-2.9,0-5.7,0.6-8.3,1.6
	c-6.4-16-22-27.2-40.3-27.2c-24,0-43.4,19.4-43.4,43.4c0,2,0.2,4,0.4,6c-12.5,2.9-21.9,14.1-21.9,27.4c0,14.4,10.8,26.6,24.8,28.2
	c0.7,0.1,110.6,0.1,111.6,0.1c15.6,0,28.2-12.7,28.2-28.2C198.9,75.4,186.3,62.7,170.7,62.7z"/>
<path class="st1" d="M42.3,91c0-9.5,6.5-17.6,15.7-19.7l7.2-1.7l-1-7.3c-0.2-1.7-0.3-3.3-0.3-4.9c0-19.5,15.9-35.4,35.4-35.4"/>
</svg>
