<?xml version="1.0" encoding="utf-8"?>
<!-- Generator: Adobe Illustrator 20.1.0, SVG Export Plug-In . SVG Version: 6.00 Build 0)  -->
<svg version="1.1" id="Layer_1" xmlns="http://www.w3.org/2000/svg" xmlns:xlink="http://www.w3.org/1999/xlink" x="0px" y="0px"
	 viewBox="0 0 1049 444" style="enable-background:new 0 0 1049 444;" xml:space="preserve">
<style type="text/css">
	.st0{fill:#FBB034;}
	.st1{fill-rule:evenodd;clip-rule:evenodd;}
	.st2{fill:#231F20;}
	.st3{fill:#5A5B5E;}
	.st4{fill:none;stroke:#5A5B5E;stroke-width:4;stroke-miterlimit:10;}
</style>
<g>
	<g>
		<g>
			<polygon class="st0" points="211.1,116.4 179,105.7 179,59.2 211.1,68.7 			"/>
			<polyline class="st0" points="219.5,68.7 251.6,59.2 251.5,105.7 219.5,116.4 219.5,68.7 			"/>
			<polyline class="st0" points="245,54.2 215.1,44.9 185.6,54.2 215.2,62.1 245,54.2 			"/>
			<polygon class="st0" points="292,116.4 259.9,105.7 259.9,59.2 292,68.7 			"/>
			<polyline class="st0" points="300.3,68.7 332.4,59.2 332.3,105.7 300.3,116.4 300.3,68.7 			"/>
			<polyline class="st0" points="325.9,54.2 296,44.9 266.4,54.2 296,62.1 325.9,54.2 			"/>
			<polygon class="st0" points="89.8,136.7 57.7,127.1 57.7,173.6 89.8,184.4 			"/>
			<polyline class="st0" points="98.2,136.7 130.3,127.1 130.2,173.6 98.2,184.4 98.2,136.7 			"/>
			<polyline class="st0" points="123.7,122.1 93.8,112.8 64.3,122.1 93.8,130.1 123.7,122.1 			"/>
			<polygon class="st0" points="170.7,184.4 138.6,173.6 138.6,127.1 170.7,136.7 			"/>
			<polyline class="st0" points="179,136.7 211.1,127.1 211,173.6 179,184.4 179,136.7 			"/>
			<polyline class="st0" points="204.6,122.1 174.7,112.8 145.1,122.1 174.7,130.1 204.6,122.1 			"/>
			<polygon class="st0" points="130.2,252.3 98.2,241.6 98.2,195.1 130.3,204.6 			"/>
			<polyline class="st0" points="138.6,204.6 170.7,195.1 170.6,241.5 138.6,252.3 138.6,204.6 			"/>
			<polyline class="st0" points="164.2,190.1 134.2,180.8 104.7,190.1 134.3,198 164.2,190.1 			"/>
		</g>
		<g>
			<path d="M272.3,211.2l-2.4,0c-0.9,0-2,0.6-2.2,1.5l-7.2,25.3l-7.1-25.2c-0.2-0.8-1-1.6-2-1.6h-2.8c-1,0-1.7,0.8-1.9,1.6l-6.6,25
				l-6.8-25c-0.3-0.9-1.4-1.5-2.3-1.5l-3.4,0c-0.7,0-1.4,0.3-1.8,0.8c-0.2,0.3-0.3,0.7-0.2,1.1l10.5,37.3c0.2,0.8,0.9,1.6,1.9,1.6
				h3.4c0.9,0,1.7-0.7,1.9-1.6l6.5-24.8l7,24.9c0.2,0.8,0.9,1.6,1.9,1.6h3.3c0.9,0,1.7-0.6,1.9-1.6l10.1-37.3c0.1-0.4,0-0.8-0.2-1.1
				C273.6,211.5,273,211.2,272.3,211.2z"/>
			<path d="M292.8,210.9c-12.1,0-17.5,10.7-17.5,20.6c0,12.4,6.8,20.4,17.4,20.4c7.6,0,13.3-3.8,15.8-10.5c0.1-0.4,0.1-0.8-0.1-1.2
				c-0.2-0.4-0.7-0.8-1.3-0.9l-3.4-0.6c-0.9-0.1-1.9,0.4-2.3,1.2c-1.6,3.7-4.6,5.8-8.3,5.9c-3.6-0.1-6.9-2.2-8.4-5.4
				c-1.2-2.6-1.4-5.2-1.4-7.8l24.2,0c0.5,0,1-0.2,1.4-0.6c0.3-0.3,0.5-0.7,0.5-1.1C309.3,221.2,304.9,210.9,292.8,210.9z M301.5,227
				h-17.8c0.4-5,3.7-10.2,9.2-10.4C298.6,216.8,301.3,221.9,301.5,227z"/>
			<path d="M331.9,210.6h-0.6c-4,0-7.1,1.7-9.6,5.1l0-15.7c0-0.9-0.9-1.7-1.9-1.7h-3.5c-0.9,0-1.9,0.7-1.9,1.7V249
				c0,0.9,0.9,1.7,1.9,1.7l1,0c1,0,1.7-0.8,1.9-1.5l1.1-3.5c2.5,3.6,6.3,5.7,10.4,5.7h0.6c10.7,0,15.5-10.5,15.5-20.9
				c0-5.2-1.3-10.1-3.5-13.6C340.9,213.1,336.5,210.6,331.9,210.6z M339.2,231.6c0,2.3-0.4,13.7-8.5,14c-2.7-0.1-5.4-1.7-7-4.1
				c-1.1-1.8-1.8-4.3-1.9-7.3v-6.7c0.1-5.1,3.7-10.8,8.9-11C338.8,216.8,339.2,229.1,339.2,231.6z"/>
			<path d="M385.1,230.5c-2.3-1.6-5-2.2-7.7-2.7l-5.2-1c-3.8-0.6-5.9-1.6-5.9-4.9c0-3.5,3.6-4.9,6.7-4.9c3.8,0.1,6.6,1.8,8,4.7
				c0.3,0.7,1,1.2,1.8,1.2c0.1,0,0.3,0,0.4,0l3.3-0.7c0.5-0.1,1-0.5,1.3-1c0.2-0.4,0.3-0.8,0.1-1.2c-2-5.8-7.1-8.9-14.7-8.9
				c-6.9,0-14.3,3.1-14.3,11.7c0,5.9,3.7,9.6,11,11.1l5.9,1.1c3.2,0.6,6.5,1.7,6.5,5.2c0,5.1-5.9,5.6-7.7,5.7
				c-4-0.1-8.6-1.9-9.7-5.7c-0.2-0.8-1.3-1.4-2.2-1.2l-3.4,0.7c-0.5,0.1-1,0.4-1.3,0.9c-0.2,0.4-0.3,0.8-0.2,1.2
				c1.8,6.3,7.9,10.2,16.3,10.2h0.2c7.6,0,15.6-3.2,15.6-12.3C389.6,235.9,388,232.6,385.1,230.5z"/>
			<path d="M410.9,211c-12.1,0-17.5,10.7-17.5,20.6c0,12.4,6.8,20.4,17.4,20.4c7.6,0,13.3-3.8,15.8-10.5c0.1-0.4,0.1-0.8-0.1-1.2
				c-0.2-0.5-0.7-0.8-1.3-0.9l-3.3-0.6c-0.8-0.1-1.9,0.3-2.3,1.2c-1.6,3.7-4.6,5.8-8.3,5.9c-3.6-0.1-6.9-2.2-8.4-5.4
				c-1.2-2.6-1.4-5.2-1.4-7.8l24.2,0c0.5,0,1-0.2,1.4-0.6c0.3-0.3,0.5-0.7,0.5-1.1C427.5,221.3,423.1,211,410.9,211z M419.6,227.1
				h-17.9c0.4-5,3.7-10.2,9.2-10.4C416.8,216.9,419.5,221.9,419.6,227.1z"/>
			<path d="M450.4,211.4c-0.5-0.1-0.9-0.1-1.4-0.1c-4.1,0-7.4,2.2-9.7,6.4l0-3.7c0-0.9-0.9-1.7-1.9-1.7h-3c-1,0-1.9,0.8-1.9,1.7
				l0,36c0,0.9,0.9,1.7,1.9,1.7h3.5c0.9,0,2-0.7,2-1.7l0-18.1c0-3,0.3-5.2,1.7-7.9c2.1-3.8,4.9-5.7,8.7-5.7c0.9,0,1.8-0.8,1.8-1.8
				v-3.4C452.1,212.3,451.4,211.5,450.4,211.4z"/>
			<path d="M487.4,210.7h-2.8c-0.9,0-2,0.6-2.3,1.5l-9,28.5l-9.2-28.4c-0.3-0.9-1.4-1.6-2.3-1.6h-4c-0.7,0-1.4,0.3-1.8,0.8
				c-0.2,0.3-0.3,0.7-0.2,1.1l12.6,37.5c0.2,0.7,0.9,1.6,1.9,1.6h4.8c0.9,0,1.6-0.6,1.9-1.6l12.2-37.5c0.1-0.4,0.1-0.7-0.2-1.1
				C488.9,211.1,488.2,210.7,487.4,210.7z"/>
			<path d="M496.6,196.3c-2.6,0-4.7,2.1-4.7,4.7c0,2.6,2.1,4.7,4.7,4.7c2.6,0,4.7-2.1,4.7-4.7C501.2,198.4,499.2,196.3,496.6,196.3z
				"/>
			<path d="M498.5,210.5h-3.8c-1,0-2,0.8-2,1.8l0,38.2c0,0.5,0.2,0.9,0.6,1.3c0.4,0.3,0.9,0.5,1.3,0.5l3.8,0h0c1,0,2-0.8,2-1.7
				v-38.2C500.5,211.3,499.6,210.5,498.5,210.5z"/>
			<path d="M534.2,236.4l-3.2,0c-0.9,0-1.6,0.5-2,1.5c-1.2,5-3.8,7.7-7.8,7.8c-7.8-0.2-8.4-11.1-8.4-14.5c0-6.6,2.3-13.8,8.7-14
				c3.9,0.1,6.7,2.9,7.5,7.4c0.2,0.9,0.9,1.6,1.8,1.7l3.4,0c1-0.1,1.8-0.9,1.8-1.9c-1.2-8.2-6.9-13.5-14.4-13.5l-0.3,0l-0.3,0
				c-11,0-15.9,10.3-15.9,20.5c0,9.4,4.2,20.3,15.9,20.3h0.5c7.4,0,13-5.2,14.5-13.6c0-0.4-0.1-0.8-0.4-1.1
				C535.4,236.7,534.9,236.4,534.2,236.4z"/>
			<path d="M557,211c-12,0-17.5,10.7-17.5,20.6c0,12.4,6.8,20.4,17.4,20.4c7.6,0,13.3-3.8,15.8-10.5c0.1-0.4,0.1-0.8-0.1-1.2
				c-0.3-0.5-0.7-0.8-1.3-0.9l-3.4-0.6c-0.8-0.1-1.9,0.3-2.3,1.2c-1.6,3.7-4.6,5.8-8.3,5.9c-3.6-0.1-6.9-2.2-8.4-5.4
				c-1.2-2.6-1.4-5.2-1.4-7.8l24.2,0c0.5,0,1-0.2,1.4-0.6c0.3-0.3,0.5-0.7,0.5-1.1C573.6,221.3,569.2,211,557,211z M565.7,227.1
				h-17.8c0.4-5,3.6-10.2,9.2-10.4C562.9,216.9,565.6,221.9,565.7,227.1z"/>
			<path d="M604,230.5c-2.3-1.6-5-2.2-7.7-2.7l-5.2-1c-3.7-0.6-5.9-1.6-5.9-4.9c0-4.5,5.6-4.9,6.7-4.9c3.8,0.1,6.6,1.8,8,4.7
				c0.3,0.7,1,1.2,1.8,1.2c0.1,0,0.3,0,0.4,0l3.3-0.7c0.5-0.1,1-0.5,1.3-1c0.2-0.4,0.3-0.8,0.1-1.2c-2-5.8-7.1-8.9-14.7-8.9
				c-6.9,0-14.3,3.1-14.3,11.7c0,5.9,3.7,9.6,11,11.1l5.8,1.1c3.2,0.6,6.5,1.7,6.5,5.2c0,5.1-5.9,5.6-7.7,5.7
				c-3.7-0.1-8.5-1.6-9.7-5.7c-0.2-0.8-1.3-1.4-2.2-1.2l-3.4,0.7c-0.5,0.1-1,0.4-1.3,0.9c-0.2,0.4-0.3,0.8-0.2,1.2
				c1.8,6.3,7.9,10.2,16.3,10.2h0.2c7.5,0,15.6-3.2,15.6-12.3C608.6,235.9,606.9,232.6,604,230.5z"/>
		</g>
		<g>
			<path class="st1" d="M448.7,136.9v-8.7c0-1.3,1-2.2,2.2-2.2h38.8c1.2,0,2.2,0.9,2.2,2.2v7.4c0,1.2-1.1,2.9-2.9,5.5l-20.1,28.8
				c7.5-0.2,15.4,0.9,22.1,4.8c1.5,0.9,1.9,2.1,2.1,3.4v9.3c0,1.3-1.4,2.8-2.9,2c-11.9-6.3-27.8-7-41,0.1c-1.3,0.7-2.8-0.7-2.8-2
				v-8.8c0-1.4,0-3.8,1.5-6l23.3-33.5l-20.3,0C449.7,139.1,448.7,138.2,448.7,136.9"/>
			<path class="st1" d="M307.2,191.1h-11.8c-1.1-0.1-2-0.9-2.1-2l0-60.7c0-1.2,1-2.2,2.3-2.2l11,0c1.1,0.1,2.1,0.9,2.1,2v7.9h0.2
				c2.9-7.7,8.3-11.2,15.5-11.2c7.4,0,12,3.6,15.3,11.2c2.9-7.7,9.4-11.2,16.3-11.2c5,0,10.3,2,13.6,6.6c3.7,5.1,3,12.5,3,19l0,38.3
				c0,1.2-1,2.2-2.3,2.2h-11.8c-1.2-0.1-2.1-1-2.1-2.2v-32.2c0-2.6,0.2-8.9-0.3-11.4c-0.9-4.1-3.5-5.2-6.9-5.2c-2.9,0-5.8,1.9-7.1,5
				c-1.2,3.1-1.1,8.2-1.1,11.6v32.2c0,1.2-1,2.2-2.3,2.2H327c-1.2-0.1-2.1-1-2.1-2.2l0-32.2c0-6.8,1.1-16.7-7.3-16.7
				c-8.5,0-8.1,9.7-8.1,16.7l0,32.2C309.5,190.1,308.4,191.1,307.2,191.1"/>
			<path class="st1" d="M525.3,124.9c17.5,0,27,15.1,27,34.2c0,18.5-10.5,33.2-27,33.2c-17.2,0-26.5-15.1-26.5-33.9
				C498.7,139.6,508.2,124.9,525.3,124.9 M525.4,137.3c-8.7,0-9.3,11.9-9.3,19.3c0,7.4-0.1,23.2,9.1,23.2c9.1,0,9.6-12.8,9.6-20.6
				c0-5.1-0.2-11.2-1.8-16.1C531.8,139,529.1,137.3,525.4,137.3z"/>
			<path class="st1" d="M575,191.1h-11.7c-1.2-0.1-2.1-1-2.1-2.2l0-60.7c0.1-1.1,1.1-2,2.3-2l11,0c1,0.1,1.9,0.8,2.1,1.7v9.3h0.2
				c3.3-8.3,7.9-12.3,16.1-12.3c5.3,0,10.5,1.9,13.8,7.1c3.1,4.9,3.1,13,3.1,18.9v38.2c-0.1,1.1-1.1,1.9-2.3,1.9h-11.8
				c-1.1-0.1-2-0.9-2.1-1.9v-33c0-6.6,0.8-16.4-7.4-16.4c-2.9,0-5.5,1.9-6.8,4.9c-1.7,3.7-1.9,7.4-1.9,11.5v32.7
				C577.3,190.1,576.2,191.1,575,191.1"/>
			<path class="st1" d="M417.7,162.1c0,4.6,0.1,8.5-2.2,12.5c-1.9,3.3-4.9,5.4-8.2,5.4c-4.5,0-7.2-3.5-7.2-8.6
				c0-10.1,9-11.9,17.6-11.9V162.1 M429.6,190.9c-0.8,0.7-1.9,0.7-2.8,0.3c-3.9-3.3-4.6-4.8-6.8-7.9c-6.5,6.6-11.1,8.6-19.5,8.6
				c-9.9,0-17.7-6.1-17.7-18.4c0-9.6,5.2-16.1,12.6-19.3c6.4-2.8,15.4-3.3,22.2-4.1v-1.5c0-2.8,0.2-6.1-1.4-8.6
				c-1.4-2.2-4.2-3.1-6.6-3.1c-4.5,0-8.5,2.3-9.5,7.1c-0.2,1.1-1,2.1-2,2.2l-11.4-1.2c-1-0.2-2-1-1.8-2.5
				c2.6-13.9,15.2-18.1,26.4-18.1c5.7,0,13.2,1.5,17.8,5.9c5.7,5.4,5.2,12.5,5.2,20.4V169c0,5.5,2.3,8,4.5,11c0.7,1.1,0.9,2.3,0,3.1
				C436.3,185.1,432,188.9,429.6,190.9L429.6,190.9z"/>
			<path class="st1" d="M263,162.1c0,4.6,0.1,8.5-2.2,12.5c-1.9,3.3-4.9,5.4-8.2,5.4c-4.5,0-7.2-3.5-7.2-8.6
				c0-10.1,9-11.9,17.6-11.9V162.1 M274.9,190.9c-0.8,0.7-1.9,0.7-2.8,0.3c-3.9-3.3-4.6-4.8-6.8-7.9c-6.5,6.6-11.1,8.6-19.4,8.6
				c-9.9,0-17.7-6.1-17.7-18.4c0-9.6,5.2-16.1,12.6-19.3c6.4-2.8,15.3-3.3,22.2-4.1v-1.5c0-2.8,0.2-6.1-1.4-8.6
				c-1.4-2.2-4.2-3.1-6.6-3.1c-4.5,0-8.5,2.3-9.5,7.1c-0.2,1.1-1,2.1-2,2.2l-11.4-1.2c-1-0.2-2-1-1.8-2.5
				c2.6-13.9,15.2-18.1,26.4-18.1c5.7,0,13.3,1.5,17.8,5.9c5.7,5.4,5.2,12.5,5.2,20.4V169c0,5.5,2.3,8,4.4,11c0.8,1.1,0.9,2.3,0,3.1
				C281.6,185.1,277.3,188.9,274.9,190.9L274.9,190.9z"/>
		</g>
	</g>
	<g>
		<path class="st2" d="M704.6,201h4.7l38.4,52h0.2v-52h3.7v56.7h-4.4l-38.6-52.4h-0.2v52.4h-3.7V201z"/>
		<path class="st2" d="M761.7,237.7c-0.2,9.6,5.3,18.3,16.1,18.3c8.3,0,14.1-4.6,15.7-12.2h3.2c-1.7,9.5-8.5,14.8-18.9,14.8
			c-12.8,0-19.5-9.4-19.3-20.7c-0.2-11.2,6.1-22.1,19.3-22.1c13.7,0,19.8,10.1,19.2,21.8H761.7z M793.8,235.1
			c-0.2-8.6-6-16.5-16-16.5c-9.7,0-15.4,8.4-16.1,16.5H793.8z"/>
		<path class="st2" d="M820.3,219.5h-9.5v28.5c0,6.6,3.3,7.2,9.4,7.1v2.6c-6.6,0.4-13-0.5-12.7-9.7v-28.5h-8.1v-2.6h8.1v-12.7h3.2
			v12.7h9.5V219.5z"/>
		<path class="st2" d="M837.5,254.3h0.2l11.9-37.3h4.3l12,37.3h0.2l12.3-37.3h3.6l-14,40.8h-4l-12-37h-0.2l-12.1,37h-4.1l-13.9-40.8
			h3.5L837.5,254.3z"/>
		<path class="st2" d="M903.1,216c12.9,0,20.1,9.8,20.1,21.4c0,11.6-7.2,21.4-20.1,21.4c-12.8,0-20.1-9.8-20.1-21.4
			C883,225.7,890.3,216,903.1,216z M903.1,256.1c11,0,16.8-9,16.8-18.7c0-9.8-5.9-18.7-16.8-18.7c-11,0-16.8,9-16.8,18.7
			C886.3,247.1,892.1,256.1,903.1,256.1z"/>
		<path class="st2" d="M933.6,226h0.3c1.7-5.3,8.9-9.6,16.8-9.3v3c-3.4-0.4-8.2,0.4-12.1,4c-3.2,3.1-4.6,5.6-4.9,11.8v22.3h-3.2
			v-40.8h3.2V226z"/>
		<path class="st2" d="M954.3,201h3.2v37.6l27-21.7h4.7L970,232.2l20.5,25.6h-4.4l-18.6-23.3l-10,7.9v15.4h-3.2V201z"/>
	</g>
	<g>
		<path class="st2" d="M705.1,126.9h25.5c6.8,0,17.4,2.3,17.4,15.6c0,9.8-6.9,15.3-18.8,15.3h-20.4v24.9h-3.7V126.9z M708.8,154.9
			h21c10.8,0,14.5-6.6,14.5-12.4c0-4.1-2-12.6-14-12.6h-21.5V154.9z"/>
		<path class="st2" d="M785.9,175.3c0,2.3,0,4.8,2.8,4.8c0.6,0,1.3-0.1,2.3-0.2v2.5c-0.9,0.2-1.8,0.3-2.6,0.3c-5,0-5.8-2.6-5.8-5.9
			v-2.1h-0.2c-2,4.8-7.8,8.9-16,8.9c-8.1,0-14.4-2.9-14.4-11.3c0-9.4,8.7-11.3,15.8-11.9c14.2-0.9,14.8-1.8,14.8-8.4
			c0-1.8-2.2-7.9-12-7.9c-7.7,0-12.8,3.8-13.2,10.7h-3.2c0.4-8.8,6.3-13.3,16.4-13.3c7.5,0,15.1,2.2,15.1,10.5V175.3z M782.7,159.9
			c-2.5,2.7-9.4,2.3-15.6,3.1c-7.5,0.8-11.8,3.3-11.8,9.3c0,4.8,3.8,8.8,11.3,8.8c14.5,0,16.1-11.6,16.1-13.7V159.9z"/>
		<path class="st2" d="M799.4,151.5h0.3c1.7-5.2,8.7-9.5,16.5-9.1v3c-3.4-0.4-8,0.4-11.9,3.9c-3.2,3-4.5,5.6-4.9,11.6v22h-3.2v-40.2
			h3.2V151.5z"/>
		<path class="st2" d="M837.6,145.2h-9.4v28.1c0,6.5,3.3,7.1,9.3,7v2.6c-6.5,0.4-12.8-0.5-12.5-9.5v-28.1h-8v-2.6h8v-12.5h3.2v12.5
			h9.4V145.2z"/>
		<path class="st2" d="M843.6,142.6h3.2v8.6h0.2c2.2-6,8.7-9.5,15.4-9.5c15.2,0,15.3,11.3,15.3,16.3v24.9h-3.2v-25.4
			c0-4.1-0.5-13.1-12.2-13.1c-9.6,0-15.5,7-15.5,16.8v21.7h-3.2V142.6z"/>
		<path class="st2" d="M888.5,163.1c-0.2,9.5,5.2,18.1,15.8,18.1c8.1,0,13.9-4.5,15.4-12h3.2c-1.7,9.4-8.4,14.5-18.6,14.5
			c-12.6,0-19.2-9.2-19-20.3c-0.2-11,6-21.7,19-21.7c13.5,0,19.5,9.9,18.9,21.4H888.5z M920.1,160.5c-0.2-8.4-5.9-16.3-15.7-16.3
			c-9.5,0-15.2,8.3-15.8,16.3H920.1z"/>
		<path class="st2" d="M934.1,151.5h0.3c1.7-5.2,8.7-9.5,16.5-9.1v3c-3.4-0.4-8,0.4-11.9,3.9c-3.2,3-4.5,5.6-4.9,11.6v22h-3.2v-40.2
			h3.2V151.5z"/>
	</g>
	<g>
		<rect x="658.3" y="84.2" class="st2" width="3.5" height="218.5"/>
	</g>
</g>
<g>
	<path class="st3" d="M138.6,353.2l13.1,33.6h-4.9l-3.7-10.1h-14.2l-3.8,10.1h-4.6l13.1-33.6H138.6z M141.7,372.9l-5.6-15.7H136
		l-5.7,15.7H141.7z"/>
	<path class="st3" d="M166.5,353.2c5.2,0,9.1,1.3,11.9,3.9c2.8,2.6,4.2,6.6,4.2,12c0,2.8-0.3,5.3-0.9,7.5c-0.6,2.2-1.6,4-2.9,5.5
		c-1.3,1.5-3,2.6-5,3.4c-2,0.8-4.4,1.2-7.2,1.2H155v-33.6H166.5z M166.9,383c0.5,0,1.1,0,1.9-0.1c0.8-0.1,1.6-0.3,2.4-0.6
		c0.8-0.3,1.7-0.7,2.5-1.3c0.8-0.6,1.6-1.3,2.2-2.3c0.7-1,1.2-2.2,1.6-3.6c0.4-1.5,0.6-3.2,0.6-5.3c0-2-0.2-3.8-0.6-5.4
		c-0.4-1.6-1-2.9-1.9-4c-0.9-1.1-2-2-3.5-2.5c-1.4-0.6-3.1-0.9-5.2-0.9h-7.5v26H166.9z"/>
	<path class="st3" d="M196.2,386.8l-11.8-33.6h4.8l9.6,29.1h0.1l9.7-29.1h4.7l-11.9,33.6H196.2z"/>
	<path class="st3" d="M228.7,353.2l13.1,33.6h-4.9l-3.7-10.1H219l-3.8,10.1h-4.6l13.1-33.6H228.7z M231.8,372.9l-5.6-15.7h-0.1
		l-5.7,15.7H231.8z"/>
	<path class="st3" d="M249.8,353.2l17.7,27.2h0.1v-27.2h4.2v33.6h-4.9l-17.5-26.9h-0.1v26.9H245v-33.6H249.8z"/>
	<path class="st3" d="M299.3,358c-1.7-1.2-3.7-1.8-6.1-1.8c-2,0-3.7,0.4-5.1,1.1c-1.4,0.8-2.6,1.8-3.5,3c-0.9,1.3-1.6,2.7-2,4.3
		c-0.4,1.6-0.7,3.3-0.7,5.1c0,1.9,0.2,3.7,0.7,5.4c0.4,1.7,1.1,3.2,2,4.5c0.9,1.3,2.1,2.3,3.5,3c1.4,0.8,3.2,1.1,5.2,1.1
		c1.5,0,2.8-0.2,3.9-0.7c1.1-0.5,2.1-1.2,3-2c0.8-0.9,1.5-1.9,2-3.1c0.5-1.2,0.8-2.5,0.8-3.9h4.5c-0.4,4.2-1.9,7.5-4.4,9.9
		c-2.5,2.4-5.9,3.5-10.2,3.5c-2.6,0-4.9-0.4-6.8-1.3c-1.9-0.9-3.6-2.1-4.8-3.7c-1.3-1.6-2.2-3.4-2.9-5.5c-0.6-2.1-1-4.4-1-6.9
		c0-2.4,0.3-4.7,1-6.9c0.7-2.1,1.7-4,3-5.6c1.3-1.6,3-2.9,5-3.8c2-0.9,4.3-1.4,6.8-1.4c1.8,0,3.4,0.2,5,0.7c1.6,0.5,3,1.2,4.2,2.1
		c1.2,0.9,2.2,2,3.1,3.4c0.8,1.4,1.3,2.9,1.6,4.7h-4.5C302.1,360.9,301,359.2,299.3,358z"/>
	<path class="st3" d="M336.1,353.2v3.8h-18.7v10.7h17.4v3.8h-17.4V383h18.8v3.8h-23.3v-33.6H336.1z"/>
	<path class="st3" d="M353.2,353.2c5.2,0,9.1,1.3,11.9,3.9c2.8,2.6,4.2,6.6,4.2,12c0,2.8-0.3,5.3-0.9,7.5c-0.6,2.2-1.6,4-2.9,5.5
		c-1.3,1.5-3,2.6-5,3.4c-2,0.8-4.4,1.2-7.2,1.2h-11.5v-33.6H353.2z M353.5,383c0.5,0,1.1,0,1.9-0.1c0.8-0.1,1.6-0.3,2.4-0.6
		c0.8-0.3,1.7-0.7,2.5-1.3c0.8-0.6,1.6-1.3,2.2-2.3c0.7-1,1.2-2.2,1.6-3.6c0.4-1.5,0.6-3.2,0.6-5.3c0-2-0.2-3.8-0.6-5.4
		c-0.4-1.6-1-2.9-1.9-4c-0.9-1.1-2-2-3.5-2.5c-1.4-0.6-3.1-0.9-5.2-0.9h-7.5v26H353.5z"/>
	<path class="st3" d="M384.2,357v-3.8h26.8v3.8h-11.2v29.8h-4.5V357H384.2z"/>
	<path class="st3" d="M438,353.2v3.8h-18.7v10.7h17.4v3.8h-17.4V383h18.8v3.8h-23.3v-33.6H438z"/>
	<path class="st3" d="M463.8,358c-1.7-1.2-3.7-1.8-6.1-1.8c-2,0-3.7,0.4-5.1,1.1c-1.4,0.8-2.6,1.8-3.5,3c-0.9,1.3-1.6,2.7-2,4.3
		c-0.4,1.6-0.7,3.3-0.7,5.1c0,1.9,0.2,3.7,0.7,5.4c0.4,1.7,1.1,3.2,2,4.5c0.9,1.3,2.1,2.3,3.5,3c1.4,0.8,3.2,1.1,5.2,1.1
		c1.5,0,2.8-0.2,3.9-0.7c1.1-0.5,2.1-1.2,3-2c0.8-0.9,1.5-1.9,2-3.1c0.5-1.2,0.8-2.5,0.8-3.9h4.5c-0.4,4.2-1.9,7.5-4.4,9.9
		c-2.5,2.4-5.9,3.5-10.2,3.5c-2.6,0-4.9-0.4-6.8-1.3c-1.9-0.9-3.6-2.1-4.8-3.7c-1.3-1.6-2.2-3.4-2.9-5.5c-0.6-2.1-1-4.4-1-6.9
		c0-2.4,0.3-4.7,1-6.9c0.7-2.1,1.7-4,3-5.6c1.3-1.6,3-2.9,5-3.8c2-0.9,4.3-1.4,6.8-1.4c1.8,0,3.4,0.2,5,0.7c1.6,0.5,3,1.2,4.2,2.1
		c1.2,0.9,2.2,2,3.1,3.4c0.8,1.4,1.3,2.9,1.6,4.7h-4.5C466.6,360.9,465.5,359.2,463.8,358z"/>
	<path class="st3" d="M481.9,353.2v14.4h17.7v-14.4h4.5v33.6h-4.5v-15.4h-17.7v15.4h-4.5v-33.6H481.9z"/>
	<path class="st3" d="M516.1,353.2l17.7,27.2h0.1v-27.2h4.2v33.6h-4.9l-17.5-26.9h-0.1v26.9h-4.2v-33.6H516.1z"/>
	<path class="st3" d="M544.4,363.4c0.7-2.1,1.7-4,3-5.6c1.3-1.6,3-2.9,5-3.9c2-1,4.3-1.5,7-1.5c2.7,0,5,0.5,7,1.5c2,1,3.7,2.3,5,3.9
		c1.3,1.6,2.4,3.5,3,5.6c0.7,2.1,1,4.3,1,6.6c0,2.3-0.3,4.5-1,6.6c-0.7,2.1-1.7,4-3,5.6c-1.3,1.6-3,2.9-5,3.9c-2,1-4.3,1.4-7,1.4
		c-2.7,0-5-0.5-7-1.4c-2-1-3.7-2.2-5-3.9c-1.3-1.6-2.4-3.5-3-5.6c-0.7-2.1-1-4.3-1-6.6C543.4,367.7,543.8,365.5,544.4,363.4z
		 M548.5,375c0.4,1.6,1.1,3.1,2.1,4.4c0.9,1.3,2.1,2.4,3.6,3.2c1.5,0.8,3.2,1.2,5.3,1.2c2,0,3.8-0.4,5.3-1.2
		c1.5-0.8,2.7-1.9,3.6-3.2c0.9-1.3,1.6-2.8,2.1-4.4c0.4-1.6,0.7-3.3,0.7-5c0-1.7-0.2-3.4-0.7-5c-0.4-1.6-1.1-3.1-2.1-4.4
		c-0.9-1.3-2.1-2.4-3.6-3.2c-1.5-0.8-3.2-1.2-5.3-1.2c-2,0-3.8,0.4-5.3,1.2s-2.7,1.9-3.6,3.2c-0.9,1.3-1.6,2.8-2.1,4.4
		c-0.4,1.6-0.7,3.3-0.7,5C547.9,371.7,548.1,373.4,548.5,375z"/>
	<path class="st3" d="M585.5,353.2V383h17.8v3.8H581v-33.6H585.5z"/>
	<path class="st3" d="M606.3,363.4c0.7-2.1,1.7-4,3-5.6c1.3-1.6,3-2.9,5-3.9c2-1,4.3-1.5,7-1.5s5,0.5,7,1.5c2,1,3.7,2.3,5,3.9
		c1.3,1.6,2.4,3.5,3,5.6c0.7,2.1,1,4.3,1,6.6c0,2.3-0.3,4.5-1,6.6c-0.7,2.1-1.7,4-3,5.6c-1.3,1.6-3,2.9-5,3.9c-2,1-4.3,1.4-7,1.4
		s-5-0.5-7-1.4c-2-1-3.7-2.2-5-3.9c-1.3-1.6-2.4-3.5-3-5.6c-0.7-2.1-1-4.3-1-6.6C605.3,367.7,605.6,365.5,606.3,363.4z M610.4,375
		c0.4,1.6,1.1,3.1,2.1,4.4c0.9,1.3,2.1,2.4,3.6,3.2c1.5,0.8,3.2,1.2,5.3,1.2c2,0,3.8-0.4,5.3-1.2c1.5-0.8,2.7-1.9,3.6-3.2
		c0.9-1.3,1.6-2.8,2.1-4.4c0.4-1.6,0.7-3.3,0.7-5c0-1.7-0.2-3.4-0.7-5c-0.4-1.6-1.1-3.1-2.1-4.4c-0.9-1.3-2.1-2.4-3.6-3.2
		c-1.5-0.8-3.2-1.2-5.3-1.2c-2,0-3.8,0.4-5.3,1.2c-1.5,0.8-2.7,1.9-3.6,3.2c-0.9,1.3-1.6,2.8-2.1,4.4c-0.4,1.6-0.7,3.3-0.7,5
		C609.7,371.7,610,373.4,610.4,375z"/>
	<path class="st3" d="M663.1,386.4c-1.9,0.8-3.9,1.2-5.9,1.2c-2.5,0-4.7-0.5-6.7-1.4c-2-0.9-3.7-2.2-5-3.7c-1.4-1.6-2.4-3.4-3.1-5.4
		c-0.7-2-1.1-4.2-1.1-6.3c0-2.4,0.3-4.8,1-7c0.7-2.2,1.7-4.1,3-5.8c1.3-1.7,3-3,5-4c2-1,4.3-1.5,7-1.5c1.8,0,3.5,0.2,5.1,0.6
		c1.6,0.4,3.1,1.1,4.3,2c1.3,0.9,2.3,2.1,3.2,3.5c0.9,1.4,1.4,3.1,1.8,5.1h-4.5c-0.2-1.3-0.6-2.4-1.2-3.3c-0.6-0.9-1.3-1.7-2.2-2.3
		c-0.9-0.6-1.9-1-3-1.3c-1.1-0.3-2.3-0.4-3.5-0.4c-2,0-3.8,0.4-5.2,1.2c-1.5,0.8-2.6,1.9-3.6,3.2c-0.9,1.3-1.6,2.9-2,4.6
		c-0.4,1.7-0.7,3.5-0.7,5.2c0,1.8,0.3,3.4,0.8,5.1c0.5,1.6,1.2,3,2.2,4.3c1,1.2,2.2,2.2,3.6,3c1.4,0.7,3.1,1.1,5,1.1
		c1.8,0,3.3-0.3,4.7-0.8c1.3-0.6,2.5-1.3,3.4-2.3c0.9-1,1.6-2.1,2.1-3.5c0.5-1.3,0.7-2.8,0.6-4.3h-10.7v-3.8H672v17.7h-2.8l-1.2-4.2
		C666.7,384.3,665,385.6,663.1,386.4z"/>
	<path class="st3" d="M692.4,386.8h-4.5v-13.7l-13-19.8h5.3l10.1,16l9.8-16h5.1l-12.8,19.8V386.8z"/>
	<path class="st3" d="M736.8,353.2c3.4,0,5.9,0.9,7.7,2.6c1.7,1.7,2.6,4.2,2.6,7.3c0,3.1-0.9,5.6-2.6,7.3c-1.7,1.8-4.3,2.6-7.7,2.6
		h-10.2v13.7h-4.5v-33.6H736.8z M735.3,369.3c2.5,0,4.4-0.5,5.6-1.6c1.2-1.1,1.8-2.6,1.8-4.6c0-2-0.6-3.5-1.8-4.6
		c-1.2-1-3-1.6-5.6-1.6h-8.7v12.3H735.3z"/>
	<path class="st3" d="M763.1,353.2l13.1,33.6h-4.9l-3.7-10.1h-14.2l-3.8,10.1h-4.6l13.1-33.6H763.1z M766.2,372.9l-5.6-15.7h-0.1
		l-5.7,15.7H766.2z"/>
	<path class="st3" d="M795.3,353.2c3.2,0,5.7,0.8,7.5,2.4c1.8,1.6,2.7,3.7,2.7,6.4c0,2-0.5,3.8-1.4,5.4c-0.9,1.5-2.4,2.6-4.4,3.1
		v0.1c1,0.2,1.8,0.5,2.4,0.9c0.6,0.4,1.1,1,1.5,1.6c0.4,0.6,0.6,1.3,0.8,2c0.2,0.8,0.3,1.5,0.4,2.4c0.1,0.8,0.1,1.6,0.1,2.5
		c0,0.8,0.1,1.7,0.2,2.5c0.1,0.8,0.3,1.6,0.5,2.3c0.2,0.7,0.6,1.4,1.1,2h-5c-0.3-0.3-0.5-0.8-0.6-1.4c-0.1-0.6-0.2-1.3-0.2-2
		c0-0.7-0.1-1.5-0.1-2.4c0-0.8-0.1-1.7-0.3-2.5c-0.1-0.8-0.3-1.6-0.5-2.3c-0.2-0.7-0.5-1.4-0.9-1.9c-0.4-0.5-0.9-1-1.6-1.3
		s-1.5-0.5-2.6-0.5H784v14.3h-4.5v-33.6H795.3z M796.2,368.4c0.9-0.2,1.8-0.5,2.5-0.9c0.7-0.5,1.3-1.1,1.7-1.8
		c0.4-0.8,0.6-1.8,0.6-3c0-1.7-0.5-3.1-1.4-4.1c-0.9-1.1-2.5-1.6-4.6-1.6H784v11.7h9.3C794.3,368.7,795.3,368.6,796.2,368.4z"/>
	<path class="st3" d="M807.3,357v-3.8h26.8v3.8h-11.2v29.8h-4.5V357H807.3z"/>
	<path class="st3" d="M842.5,353.2l17.7,27.2h0.1v-27.2h4.2v33.6h-4.9l-17.5-26.9H842v26.9h-4.2v-33.6H842.5z"/>
	<path class="st3" d="M894.9,353.2v3.8h-18.7v10.7h17.4v3.8h-17.4V383h18.8v3.8h-23.3v-33.6H894.9z"/>
	<path class="st3" d="M916.3,353.2c3.2,0,5.7,0.8,7.5,2.4c1.8,1.6,2.7,3.7,2.7,6.4c0,2-0.5,3.8-1.4,5.4c-0.9,1.5-2.4,2.6-4.4,3.1
		v0.1c1,0.2,1.8,0.5,2.4,0.9c0.6,0.4,1.1,1,1.5,1.6c0.4,0.6,0.6,1.3,0.8,2c0.2,0.8,0.3,1.5,0.4,2.4c0.1,0.8,0.1,1.6,0.1,2.5
		s0.1,1.7,0.2,2.5c0.1,0.8,0.3,1.6,0.5,2.3c0.2,0.7,0.6,1.4,1.1,2h-5c-0.3-0.3-0.5-0.8-0.6-1.4c-0.1-0.6-0.2-1.3-0.2-2
		c0-0.7-0.1-1.5-0.1-2.4c0-0.8-0.1-1.7-0.3-2.5c-0.1-0.8-0.3-1.6-0.5-2.3c-0.2-0.7-0.5-1.4-0.9-1.9c-0.4-0.5-0.9-1-1.6-1.3
		s-1.5-0.5-2.6-0.5h-10.9v14.3h-4.5v-33.6H916.3z M917.2,368.4c0.9-0.2,1.8-0.5,2.5-0.9c0.7-0.5,1.3-1.1,1.7-1.8
		c0.4-0.8,0.6-1.8,0.6-3c0-1.7-0.5-3.1-1.4-4.1c-0.9-1.1-2.5-1.6-4.6-1.6h-11.1v11.7h9.3C915.3,368.7,916.3,368.6,917.2,368.4z"/>
</g>
<g>
	<path class="st4" d="M1047,20c0-9.9-8.1-18-18-18H20C10.1,2,2,10.1,2,20v404c0,9.9,8.1,18,18,18h1009c9.9,0,18-8.1,18-18V20z"/>
</g>
</svg>
