<?xml version="1.0" encoding="utf-8"?>
<!-- Generator: Adobe Illustrator 20.1.0, SVG Export Plug-In . SVG Version: 6.00 Build 0)  -->
<svg version="1.1" id="Layer_1" xmlns="http://www.w3.org/2000/svg" xmlns:xlink="http://www.w3.org/1999/xlink" x="0px" y="0px"
	 viewBox="0 0 95.2 77.1" style="enable-background:new 0 0 95.2 77.1;" xml:space="preserve">
<style type="text/css">
	.st0{fill:#69C4A5;}
	.st1{fill:#3F5579;}
</style>
<g>
	<path class="st0" d="M95.2,41.5c0,2.1-1.7,3.9-3.8,3.9c-2.1,0-3.8-1.7-3.8-3.9c0-2.1,1.7-3.9,3.8-3.9
		C93.5,37.7,95.2,39.4,95.2,41.5"/>
	<path class="st0" d="M65.2,11.6c0,1.2-0.9,2.1-2.1,2.1c-1.2,0-2.1-1-2.1-2.1c0-1.2,0.9-2.1,2.1-2.1C64.2,9.5,65.2,10.4,65.2,11.6"
		/>
	<path class="st0" d="M16.5,45.4c-0.6,0-1.2-0.5-1.2-1.2c0-0.7,0.5-1.2,1.2-1.2c0.6,0,1.2,0.5,1.2,1.2
		C17.6,44.8,17.1,45.4,16.5,45.4"/>
	<path class="st0" d="M21,3.1c-0.8,0-1.5-0.7-1.5-1.6S20.2,0,21,0c0.8,0,1.5,0.7,1.5,1.6S21.9,3.1,21,3.1"/>
	<path class="st0" d="M16.6,25h-5c-1,0-1.8-0.8-1.8-1.8V21c0-0.6-0.5-1-1-1H8.8c-0.6,0-1,0.5-1,1v2.1C7.8,24.2,7,25,6,25H1
		c-0.6,0-1,0.5-1,1v0.1c0,0.6,0.5,1,1,1h5c1,0,1.8,0.8,1.8,1.8v2.1c0,0.6,0.5,1,1,1h0.1c0.6,0,1-0.5,1-1V29c0-1,0.8-1.8,1.8-1.8h5
		c0.6,0,1-0.5,1-1V26C17.6,25.4,17.2,25,16.6,25"/>
	<path class="st0" d="M90.6,13.5h-3.2c-0.6,0-1.1-0.5-1.1-1.2V11c0-0.4-0.3-0.7-0.7-0.7h-0.1c-0.4,0-0.7,0.3-0.7,0.7v1.4
		c0,0.6-0.5,1.2-1.1,1.2h-3.2c-0.4,0-0.7,0.3-0.7,0.7v0.1c0,0.4,0.3,0.7,0.7,0.7h3.2c0.6,0,1.1,0.5,1.1,1.2v1.4
		c0,0.4,0.3,0.7,0.7,0.7h0.1c0.4,0,0.7-0.3,0.7-0.7V16c0-0.6,0.5-1.2,1.1-1.2h3.2c0.4,0,0.7-0.3,0.7-0.7v-0.1
		C91.3,13.8,91,13.5,90.6,13.5"/>
	<path class="st0" d="M94.4,74.2h-2c-0.4,0-0.7-0.3-0.7-0.7v-0.9c0-0.2-0.2-0.4-0.4-0.4h0c-0.2,0-0.4,0.2-0.4,0.4v0.9
		c0,0.4-0.3,0.7-0.7,0.7h-2c-0.2,0-0.4,0.2-0.4,0.4v0c0,0.2,0.2,0.4,0.4,0.4h2c0.4,0,0.7,0.3,0.7,0.7v0.9c0,0.2,0.2,0.4,0.4,0.4h0
		c0.2,0,0.4-0.2,0.4-0.4v-0.9c0-0.4,0.3-0.7,0.7-0.7h2c0.2,0,0.4-0.2,0.4-0.4v0C94.8,74.4,94.7,74.2,94.4,74.2"/>
	<path class="st1" d="M77.3,64.2h-3.6v-3.6h3.6V64.2z M67.9,64.4c-1.1,0-2-0.9-2-2c0-1.1,0.9-2,2-2c1.1,0,2,0.9,2,2
		C69.9,63.5,69,64.4,67.9,64.4 M60,63.8H28.2c-0.7,0-1.3-0.6-1.3-1.3c0-0.7,0.6-1.3,1.3-1.3H60c0.7,0,1.3,0.6,1.3,1.3
		C61.3,63.2,60.7,63.8,60,63.8 M76.2,56.4H26.9c-3.3,0-5.9,2.7-5.9,6.1c0,3.4,2.7,6.1,5.9,6.1h49.3c3.3,0,5.9-2.7,5.9-6.1
		C82.2,59.2,79.5,56.4,76.2,56.4"/>
	<path class="st1" d="M75.2,28.1c-1.4-4.8-5.1-6.9-8.9-6.9H46.4v8.9h4.5c0,0,1.4,0,0.8,1.3l-7.3,9.7c0,0-1.1,1.6-2.4-0.1l-7.1-9.8
		c-0.3-1.2,0.8-1.2,0.8-1.2h4.6v-8.9h-2.9c-4.5,0-8.2,2.3-9.4,6.9L21.1,56c1.5-1.4,3.6-2.3,5.8-2.3h34v-8.8h-4.5c0,0-1.4,0-0.8-1.3
		l7.3-9.7c0,0,1.1-1.6,2.4,0.1l7.1,9.8c0.3,1.2-0.8,1.2-0.8,1.2H67v8.8h9.2c2.2,0,4.3,0.9,5.8,2.3L75.2,28.1z"/>
</g>
<rect x="39.8" y="16.4" class="st1" width="6.6" height="2.8"/>
<rect x="39.8" y="11.6" class="st1" width="6.6" height="2.8"/>
</svg>
