<?xml version="1.0" encoding="utf-8"?>
<!-- Generator: Adobe Illustrator 20.1.0, SVG Export Plug-In . SVG Version: 6.00 Build 0)  -->
<svg version="1.1" id="Layer_1" xmlns="http://www.w3.org/2000/svg" xmlns:xlink="http://www.w3.org/1999/xlink" x="0px" y="0px"
	 viewBox="0 0 260.4 178.1" style="enable-background:new 0 0 260.4 178.1;" xml:space="preserve">
<style type="text/css">
	.st0{clip-path:url(#SVGID_2_);fill:#A9F8E1;}
	.st1{clip-path:url(#SVGID_2_);}
	.st2{fill:#29EDB5;}
	.st3{fill:#A9F8E1;}
	.st4{clip-path:url(#SVGID_4_);fill:#A9F8E1;}
	.st5{clip-path:url(#SVGID_4_);}
	.st6{fill:none;stroke:#FFFFFF;stroke-width:3;stroke-linecap:round;stroke-miterlimit:10;}
</style>
<g>
	<defs>
		<circle id="SVGID_1_" cx="120.3" cy="95.1" r="81.3"/>
	</defs>
	<clipPath id="SVGID_2_">
		<use xlink:href="#SVGID_1_"  style="overflow:visible;"/>
	</clipPath>
	<circle class="st0" cx="120.3" cy="95.1" r="81.3"/>
	<g class="st1">
		<rect x="24.2" y="46.8" class="st2" width="106.7" height="17.7"/>
		<circle class="st2" cx="130.9" cy="55.7" r="8.9"/>
	</g>
	<g class="st1">
		<rect x="27.9" y="81.3" class="st2" width="103" height="17.7"/>
		<circle class="st2" cx="130.9" cy="90.1" r="8.9"/>
	</g>
	<g class="st1">
		<rect x="31.2" y="64" class="st2" width="79.8" height="17.7"/>
		<circle class="st2" cx="111" cy="72.9" r="8.9"/>
	</g>
	<g class="st1">
		
			<rect x="118" y="64" transform="matrix(-1 -1.224647e-16 1.224647e-16 -1 315.7252 145.7383)" class="st3" width="79.8" height="17.7"/>
		<circle class="st3" cx="118" cy="72.9" r="8.9"/>
	</g>
	<g class="st1">
		<g>
			
				<rect x="171.7" y="147" transform="matrix(-1 -1.224647e-16 1.224647e-16 -1 423.2238 311.6968)" class="st2" width="79.8" height="17.7"/>
			<circle class="st2" cx="171.7" cy="155.8" r="8.9"/>
		</g>
		<g>
			
				<rect x="160.7" y="112.5" transform="matrix(-1 -1.224647e-16 1.224647e-16 -1 376.8437 242.8)" class="st2" width="55.5" height="17.7"/>
			<circle class="st2" cx="160.7" cy="121.4" r="8.9"/>
			<circle class="st2" cx="216" cy="121.4" r="8.9"/>
		</g>
		<g>
			
				<rect x="180.6" y="129.8" transform="matrix(-1 -1.224647e-16 1.224647e-16 -1 441.0804 277.3542)" class="st2" width="79.8" height="17.7"/>
			<circle class="st2" cx="180.6" cy="138.7" r="8.9"/>
		</g>
		<g>
			<rect x="93.8" y="129.8" class="st3" width="79.8" height="17.7"/>
			<circle class="st3" cx="173.6" cy="138.7" r="8.9"/>
		</g>
	</g>
	<g class="st1">
		<g>
			
				<rect x="167.1" y="34.4" transform="matrix(-1 -1.224647e-16 1.224647e-16 -1 414.0104 86.6194)" class="st2" width="79.8" height="17.7"/>
			<circle class="st2" cx="167.1" cy="43.3" r="8.9"/>
		</g>
		<g>
			
				<rect x="156.1" y="0" transform="matrix(-1 -1.224647e-16 1.224647e-16 -1 367.6303 17.7226)" class="st2" width="55.5" height="17.7"/>
			<circle class="st2" cx="156.1" cy="8.9" r="8.9"/>
			<circle class="st2" cx="211.4" cy="8.9" r="8.9"/>
		</g>
		<g>
			
				<rect x="176" y="17.3" transform="matrix(-1 -1.224647e-16 1.224647e-16 -1 431.867 52.2768)" class="st2" width="79.8" height="17.7"/>
			<circle class="st2" cx="176" cy="26.1" r="8.9"/>
		</g>
		<g>
			<rect x="151.3" y="17.3" class="st3" width="17.7" height="17.7"/>
			<circle class="st3" cx="169" cy="26.1" r="8.9"/>
		</g>
	</g>
	<g class="st1">
		<g>
			<rect x="26.3" y="115.5" class="st2" width="79.8" height="17.7"/>
			<circle class="st2" cx="106.1" cy="124.3" r="8.9"/>
		</g>
		<g>
			<rect x="15.5" y="98.2" class="st2" width="79.8" height="17.7"/>
			<circle class="st2" cx="95.3" cy="107.1" r="8.9"/>
		</g>
		<g>
			
				<rect x="102.3" y="98.2" transform="matrix(-1 -1.224647e-16 1.224647e-16 -1 244.4119 214.1241)" class="st3" width="39.9" height="17.7"/>
			<circle class="st3" cx="102.3" cy="107.1" r="8.9"/>
		</g>
		<g>
			<rect x="1.9" y="98.2" class="st3" width="39.9" height="17.7"/>
			<circle class="st3" cx="41.8" cy="107.1" r="8.9"/>
		</g>
	</g>
</g>
<g>
	<defs>
		<circle id="SVGID_3_" cx="120.3" cy="95.1" r="81.3"/>
	</defs>
	<clipPath id="SVGID_4_">
		<use xlink:href="#SVGID_3_"  style="overflow:visible;"/>
	</clipPath>
	<circle class="st4" cx="120.3" cy="95.1" r="81.3"/>
	<g class="st5">
		
			<rect x="118" y="64" transform="matrix(-1 -1.224647e-16 1.224647e-16 -1 315.7252 145.7383)" class="st3" width="79.8" height="17.7"/>
		<circle class="st3" cx="118" cy="72.9" r="8.9"/>
	</g>
</g>
<g>
	<path class="st2" d="M38.4,49.2c0,5-3.9,9-8.8,9c-4.9,0-8.8-4-8.8-9c0-5,3.9-9,8.8-9C34.5,40.3,38.4,44.3,38.4,49.2"/>
	<path class="st2" d="M224.7,50.5c0,2.8-2.2,5-4.9,5c-2.7,0-4.9-2.2-4.9-5c0-2.8,2.2-5,4.9-5C222.5,45.5,224.7,47.7,224.7,50.5"/>
	<path class="st2" d="M38.7,161.5H27.2c-2.3,0-4.1-1.9-4.1-4.2v-5c0-1.3-1.1-2.4-2.4-2.4h-0.2c-1.3,0-2.4,1.1-2.4,2.4v5
		c0,2.3-1.9,4.2-4.1,4.2H2.4c-1.3,0-2.4,1.1-2.4,2.4v0.2c0,1.3,1.1,2.4,2.4,2.4h11.6c2.3,0,4.1,1.9,4.1,4.2v5c0,1.3,1.1,2.4,2.4,2.4
		h0.2c1.3,0,2.4-1.1,2.4-2.4v-5c0-2.3,1.9-4.2,4.1-4.2h11.6c1.3,0,2.4-1.1,2.4-2.4v-0.2C41.1,162.6,40,161.5,38.7,161.5"/>
	<path class="st2" d="M239,156.2h-7.4c-1.5,0-2.7-1.2-2.7-2.7v-3.2c0-0.9-0.7-1.6-1.5-1.6h-0.1c-0.8,0-1.5,0.7-1.5,1.6v3.2
		c0,1.5-1.2,2.7-2.7,2.7h-7.4c-0.8,0-1.5,0.7-1.5,1.6v0.1c0,0.9,0.7,1.6,1.5,1.6h7.4c1.5,0,2.7,1.2,2.7,2.7v3.2
		c0,0.9,0.7,1.6,1.5,1.6h0.1c0.8,0,1.5-0.7,1.5-1.6v-3.2c0-1.5,1.2-2.7,2.7-2.7h7.4c0.8,0,1.5-0.7,1.5-1.6v-0.1
		C240.5,156.9,239.9,156.2,239,156.2"/>
	<path class="st2" d="M208.8,16.8h-4.7c-0.9,0-1.7-0.8-1.7-1.7v-2c0-0.5-0.4-1-1-1h-0.1c-0.5,0-1,0.4-1,1v2c0,0.9-0.8,1.7-1.7,1.7
		H194c-0.5,0-1,0.4-1,1v0.1c0,0.5,0.4,1,1,1h4.7c0.9,0,1.7,0.8,1.7,1.7v2c0,0.5,0.4,1,1,1h0.1c0.5,0,1-0.4,1-1v-2
		c0-0.9,0.8-1.7,1.7-1.7h4.7c0.5,0,1-0.4,1-1v-0.1C209.8,17.2,209.3,16.8,208.8,16.8"/>
</g>
<line class="st6" x1="187.8" y1="105.7" x2="217.8" y2="105.7"/>
<line class="st6" x1="68.8" y1="145.7" x2="109.8" y2="145.7"/>
<path class="st2" d="M160.3,112.2c-5,0-9,4-9,9s4,9,9,9h6h8c5,0,9,4,9,9s-4,9-9,9h-3c-5,0-9,3.8-9,8.8c0,2.4,1,4.5,2.6,6.2
	c6.5-4.3,12.3-9.5,17.3-15.3c4.6-5.4,8.6-11.3,11.6-17.8c2.7-5.7,4.7-11.8,6-17.8H160.3z"/>
<path class="st2" d="M173.5,34.2h-6.2c-5,0-9,4-9,9s4,9,9,9H189C184.7,45.2,179.5,39.2,173.5,34.2z"/>
<path class="st3" d="M53.3,110.2c0-5-4-9-9-9h-5.1c0.4,6,1.5,12,3.3,18h1.8C49.3,119.2,53.3,115.2,53.3,110.2z"/>
<path class="st2" d="M123.3,128.2c0-5-4-9-9-9h-24c-5,0-9-4-9-9s4-9,9-9h40c5,0,9-4,9-9s-4-9-9-9h-15c-5,0-9-4-9-9s4-9,9-9h10
	c5,0,9-4,9-9s-4-9-9-9H55c-10,13-16,30.2-16,48.4c0,1.9,0.1,3.6,0.2,5.6h5.1c5,0,9,4,9,9s-4,9-9,9h-1.8c1.9,6,4.6,12,8,18h63.8
	C119.3,137.2,123.3,133.2,123.3,128.2z"/>
<path class="st6" d="M64.3,145.2"/>
<line class="st6" x1="51.8" y1="39.7" x2="125.8" y2="39.7"/>
<path class="st2" d="M123.3,128.2c0-5-4-9-9-9h-24c-5,0-9-4-9-9s4-9,9-9h40c5,0,9-4,9-9s-4-9-9-9h-15c-5,0-9-4-9-9s4-9,9-9h10
	c5,0,9-4,9-9s-4-9-9-9H55c-10,13-16,30.2-16,48.4c0,1.9,0.1,3.6,0.2,5.6h5.1c5,0,9,4,9,9s-4,9-9,9h-1.8c1.9,6,4.6,12,8,18h63.8
	C119.3,137.2,123.3,133.2,123.3,128.2z"/>
</svg>
