<?xml version="1.0" encoding="utf-8"?>
<!-- Generator: Adobe Illustrator 20.1.0, SVG Export Plug-In . SVG Version: 6.00 Build 0)  -->
<svg version="1.1" id="Layer_1" xmlns="http://www.w3.org/2000/svg" xmlns:xlink="http://www.w3.org/1999/xlink" x="0px" y="0px"
	 viewBox="0 0 94.3 82.5" style="enable-background:new 0 0 94.3 82.5;" xml:space="preserve">
<style type="text/css">
	.st0{fill:#69C4A5;}
	.st1{fill:#3F5579;}
</style>
<g>
	<path class="st0" d="M24.7,3.9c0,2.1-1.7,3.9-3.8,3.9c-2.1,0-3.8-1.7-3.8-3.9c0-2.1,1.7-3.9,3.8-3.9C23,0,24.7,1.7,24.7,3.9"/>
	<path class="st0" d="M86.1,59.3c0,1.2-0.9,2.1-2.1,2.1c-1.2,0-2.1-1-2.1-2.1s0.9-2.1,2.1-2.1C85.1,57.2,86.1,58.1,86.1,59.3"/>
	<path class="st0" d="M93.1,36.6c-0.6,0-1.2-0.5-1.2-1.2c0-0.7,0.5-1.2,1.2-1.2c0.6,0,1.2,0.5,1.2,1.2
		C94.3,36.1,93.8,36.6,93.1,36.6"/>
	<path class="st0" d="M8.8,78.6c-0.8,0-1.5-0.7-1.5-1.6c0-0.9,0.7-1.6,1.5-1.6c0.8,0,1.5,0.7,1.5,1.6C10.3,77.9,9.6,78.6,8.8,78.6"
		/>
	<path class="st0" d="M60.5,8.3h-4.2c-0.8,0-1.5-0.7-1.5-1.5V4.9c0-0.5-0.4-0.9-0.9-0.9h-0.1c-0.5,0-0.9,0.4-0.9,0.9v1.8
		c0,0.9-0.7,1.5-1.5,1.5h-4.2c-0.5,0-0.9,0.4-0.9,0.9v0.1c0,0.5,0.4,0.9,0.9,0.9h4.2c0.8,0,1.5,0.7,1.5,1.5v1.8
		c0,0.5,0.4,0.9,0.9,0.9h0.1c0.5,0,0.9-0.4,0.9-0.9v-1.8c0-0.9,0.7-1.5,1.5-1.5h4.2c0.5,0,0.9-0.4,0.9-0.9V9.2
		C61.3,8.7,60.9,8.3,60.5,8.3"/>
	<path class="st0" d="M71.4,77.9h-3.2c-0.6,0-1.1-0.5-1.1-1.2v-1.4c0-0.4-0.3-0.7-0.7-0.7h-0.1c-0.4,0-0.7,0.3-0.7,0.7v1.4
		c0,0.6-0.5,1.2-1.1,1.2h-3.2c-0.4,0-0.7,0.3-0.7,0.7v0.1c0,0.4,0.3,0.7,0.7,0.7h3.2c0.6,0,1.1,0.5,1.1,1.2v1.4
		c0,0.4,0.3,0.7,0.7,0.7h0.1c0.4,0,0.7-0.3,0.7-0.7v-1.4c0-0.6,0.5-1.2,1.1-1.2h3.2c0.4,0,0.7-0.3,0.7-0.7v-0.1
		C72.1,78.2,71.8,77.9,71.4,77.9"/>
	<path class="st0" d="M6.7,48.4h-2C4.3,48.4,4,48,4,47.6v-0.9c0-0.2-0.2-0.4-0.4-0.4h0c-0.2,0-0.4,0.2-0.4,0.4v0.9
		c0,0.4-0.3,0.7-0.7,0.7h-2c-0.2,0-0.4,0.2-0.4,0.4v0c0,0.2,0.2,0.4,0.4,0.4h2c0.4,0,0.7,0.3,0.7,0.7v0.9c0,0.2,0.2,0.4,0.4,0.4h0
		c0.2,0,0.4-0.2,0.4-0.4V50c0-0.4,0.3-0.7,0.7-0.7h2c0.2,0,0.4-0.2,0.4-0.4v0C7.2,48.6,7,48.4,6.7,48.4"/>
	<path class="st1" d="M74.8,68c0,0,0,0.6-0.6,0.6H57.6C57,68.6,57,68,57,68h1.8h14.1H74.8z M59.6,57.7h12.6v7.6H59.6V57.7z M72.9,66
		c0-0.1,0-0.1,0-0.2v-8.4c0-0.3-0.2-0.5-0.5-0.5H59.3c-0.3,0-0.5,0.2-0.5,0.5v8.4c0,0.1,0,0.1,0,0.2H72.9z"/>
	<path class="st1" d="M74.8,33.3c0,0,0,0.6-0.6,0.6H57.6c-0.6,0-0.6-0.6-0.6-0.6h1.8h14.1H74.8z M59.6,23h12.6v7.6H59.6V23z
		 M72.9,31.3c0-0.1,0-0.1,0-0.2v-8.4c0-0.3-0.2-0.5-0.5-0.5H59.3c-0.3,0-0.5,0.2-0.5,0.5v8.4c0,0.1,0,0.1,0,0.2H72.9z"/>
	<path class="st1" d="M74.8,50.6c0,0,0,0.6-0.6,0.6H57.6c-0.6,0-0.6-0.6-0.6-0.6h1.8h14.1H74.8z M59.6,40.4h12.6v7.6H59.6V40.4z
		 M72.9,48.6c0-0.1,0-0.1,0-0.2v-8.4c0-0.3-0.2-0.5-0.5-0.5H59.3c-0.3,0-0.5,0.2-0.5,0.5v8.4c0,0.1,0,0.1,0,0.2H72.9z"/>
	<path class="st1" d="M44.1,32.8v11.2h-2.6v1.4h2.6v11.2c0,2,1.6,3.7,3.7,3.7h8.8v-1.2h-8.8c-1.3,0-2.4-1.1-2.4-2.4V45.3h9.3v-1.4
		h-9.3V32.8c0-1.3,1.1-2.4,2.4-2.4h8.8v-1.2h-8.8C45.8,29.1,44.1,30.7,44.1,32.8"/>
</g>
<rect x="35.9" y="41.2" class="st1" width="1.1" height="1.1"/>
<g>
	<path class="st1" d="M34.1,41.2c-0.3,0-0.6,0.3-0.6,0.6c0,0.3,0.3,0.6,0.6,0.6c0.3,0,0.6-0.3,0.6-0.6
		C34.7,41.4,34.4,41.2,34.1,41.2"/>
	<path class="st1" d="M31.6,36.2h-10c-0.2,0-0.4,0.2-0.4,0.4c0,0.2,0.2,0.4,0.4,0.4h10c0.2,0,0.4-0.2,0.4-0.4
		C32,36.3,31.8,36.2,31.6,36.2"/>
	<path class="st1" d="M31.6,41.4h-10c-0.2,0-0.4,0.2-0.4,0.4c0,0.2,0.2,0.4,0.4,0.4h10c0.2,0,0.4-0.2,0.4-0.4
		C32,41.6,31.8,41.4,31.6,41.4"/>
</g>
<rect x="35.9" y="51.6" class="st1" width="1.1" height="1.1"/>
<g>
	<path class="st1" d="M34.1,35.9c-0.3,0-0.6,0.3-0.6,0.6c0,0.3,0.3,0.6,0.6,0.6c0.3,0,0.6-0.3,0.6-0.6
		C34.7,36.2,34.4,35.9,34.1,35.9"/>
	<path class="st1" d="M31.6,46.6h-10c-0.2,0-0.4,0.2-0.4,0.4c0,0.2,0.2,0.4,0.4,0.4h10c0.2,0,0.4-0.2,0.4-0.4
		C32,46.8,31.8,46.6,31.6,46.6"/>
	<path class="st1" d="M31.6,51.8h-10c-0.2,0-0.4,0.2-0.4,0.4c0,0.2,0.2,0.4,0.4,0.4h10c0.2,0,0.4-0.2,0.4-0.4
		C32,52,31.8,51.8,31.6,51.8"/>
</g>
<rect x="35.9" y="46.4" class="st1" width="1.1" height="1.1"/>
<g>
	<path class="st1" d="M34.1,46.4c-0.3,0-0.6,0.3-0.6,0.6c0,0.3,0.3,0.6,0.6,0.6c0.3,0,0.6-0.3,0.6-0.6
		C34.7,46.6,34.4,46.4,34.1,46.4"/>
</g>
<rect x="35.9" y="25.6" class="st1" width="1.1" height="1.1"/>
<g>
	<path class="st1" d="M34.1,25.5c-0.3,0-0.6,0.3-0.6,0.6c0,0.3,0.3,0.6,0.6,0.6c0.3,0,0.6-0.3,0.6-0.6
		C34.7,25.8,34.4,25.5,34.1,25.5"/>
	<path class="st1" d="M31.6,25.7h-10c-0.2,0-0.4,0.2-0.4,0.4c0,0.2,0.2,0.4,0.4,0.4h10c0.2,0,0.4-0.2,0.4-0.4
		C32,25.9,31.8,25.7,31.6,25.7"/>
	<path class="st1" d="M34.1,51.6c-0.3,0-0.6,0.3-0.6,0.6c0,0.3,0.3,0.6,0.6,0.6c0.3,0,0.6-0.3,0.6-0.6
		C34.7,51.9,34.4,51.6,34.1,51.6"/>
	<path class="st1" d="M36.7,28.1H21.3c-1,0-1.9-0.9-1.9-1.9c0-1.1,0.8-1.9,1.9-1.9h15.4c1,0,1.9,0.9,1.9,1.9
		C38.5,27.2,37.7,28.1,36.7,28.1 M36.7,33.3H21.3c-1,0-1.9-0.9-1.9-1.9c0-1.1,0.8-1.9,1.9-1.9h15.4c1,0,1.9,0.9,1.9,1.9
		C38.5,32.4,37.7,33.3,36.7,33.3 M36.7,38.5H21.3c-1,0-1.9-0.9-1.9-1.9c0-1.1,0.8-1.9,1.9-1.9h15.4c1,0,1.9,0.9,1.9,1.9
		C38.5,37.7,37.7,38.5,36.7,38.5 M36.7,43.7H21.3c-1,0-1.9-0.9-1.9-1.9c0-1.1,0.8-1.9,1.9-1.9h15.4c1,0,1.9,0.9,1.9,1.9
		C38.5,42.9,37.7,43.7,36.7,43.7 M36.7,48.9H21.3c-1,0-1.9-0.9-1.9-1.9c0-1.1,0.8-1.9,1.9-1.9h15.4c1,0,1.9,0.9,1.9,1.9
		C38.5,48.1,37.7,48.9,36.7,48.9 M36.7,54.1H21.3c-1,0-1.9-0.9-1.9-1.9c0-1.1,0.8-1.9,1.9-1.9h15.4c1,0,1.9,0.9,1.9,1.9
		C38.5,53.3,37.7,54.1,36.7,54.1 M29,65.2c-1.4,0-2.5-1.1-2.5-2.5c0-1.4,1.1-2.5,2.5-2.5c1.4,0,2.5,1.1,2.5,2.5
		C31.5,64.1,30.4,65.2,29,65.2 M17.5,68.7h22.9V20.9H17.5V68.7z"/>
</g>
<rect x="35.9" y="30.8" class="st1" width="1.1" height="1.1"/>
<g>
	<path class="st1" d="M34.1,30.7c-0.3,0-0.6,0.3-0.6,0.6c0,0.3,0.3,0.6,0.6,0.6c0.3,0,0.6-0.3,0.6-0.6C34.7,31,34.4,30.7,34.1,30.7"
		/>
	<path class="st1" d="M31.6,30.9h-10c-0.2,0-0.4,0.2-0.4,0.4c0,0.2,0.2,0.4,0.4,0.4h10c0.2,0,0.4-0.2,0.4-0.4
		C32,31.1,31.8,30.9,31.6,30.9"/>
</g>
<rect x="35.9" y="36" class="st1" width="1.1" height="1.1"/>
</svg>
