<?xml version="1.0" encoding="utf-8"?>
<!-- Generator: Adobe Illustrator 20.1.0, SVG Export Plug-In . SVG Version: 6.00 Build 0)  -->
<svg version="1.1" id="Layer_1" xmlns="http://www.w3.org/2000/svg" xmlns:xlink="http://www.w3.org/1999/xlink" x="0px" y="0px"
	 viewBox="0 0 215.4 201.2" style="enable-background:new 0 0 215.4 201.2;" xml:space="preserve">
<style type="text/css">
	.st0{fill:#69C4A5;}
	.st1{fill:#C3E5D7;}
	.st2{fill:none;stroke:#FFFFFF;stroke-width:3;stroke-linecap:round;stroke-miterlimit:10;}
	.st3{fill:#3E5579;}
</style>
<g>
	<path class="st0" d="M198.4,145.4c0-2.8,2.2-5,4.9-5c2.7,0,4.9,2.2,4.9,5c0,2.8-2.2,5-4.9,5C200.6,150.4,198.4,148.2,198.4,145.4"
		/>
	<path class="st0" d="M176.7,41.2h11.6c2.3,0,4.1,1.9,4.1,4.2v4.9c0,1.3,1.1,2.4,2.4,2.4h0.2c1.3,0,2.4-1.1,2.4-2.4v-4.9
		c0-2.3,1.9-4.2,4.1-4.2H213c1.3,0,2.4-1.1,2.4-2.4v-0.2c0-1.3-1.1-2.4-2.4-2.4h-11.6c-2.3,0-4.1-1.9-4.1-4.2V27
		c0-1.3-1.1-2.4-2.4-2.4h-0.2c-1.3,0-2.4,1.1-2.4,2.4v4.9c0,2.3-1.9,4.2-4.1,4.2h-11.6c-1.3,0-2.4,1.1-2.4,2.4v0.2
		C174.3,40.1,175.4,41.2,176.7,41.2"/>
	<path class="st0" d="M1.7,93.8h8.5c1.7,0,3,1.4,3,3.1v3.6c0,1,0.8,1.8,1.7,1.8h0.1c1,0,1.7-0.8,1.7-1.8v-3.6c0-1.7,1.4-3.1,3-3.1
		h8.5c1,0,1.7-0.8,1.7-1.8v-0.1c0-1-0.8-1.8-1.7-1.8h-8.5c-1.7,0-3-1.4-3-3.1v-3.6c0-1-0.8-1.8-1.7-1.8h-0.1c-1,0-1.7,0.8-1.7,1.8
		V87c0,1.7-1.4,3.1-3,3.1H1.7c-1,0-1.7,0.8-1.7,1.8V92C0,93,0.8,93.8,1.7,93.8"/>
	<path class="st0" d="M22.7,140.7h4.7c0.9,0,1.7,0.8,1.7,1.7v2c0,0.5,0.4,1,1,1h0.1c0.5,0,1-0.4,1-1v-2c0-0.9,0.8-1.7,1.7-1.7h4.7
		c0.5,0,1-0.4,1-1v-0.1c0-0.5-0.4-1-1-1h-4.7c-0.9,0-1.7-0.8-1.7-1.7v-2c0-0.5-0.4-1-1-1H30c-0.5,0-1,0.4-1,1v2
		c0,0.9-0.8,1.7-1.7,1.7h-4.7c-0.5,0-1,0.4-1,1v0.1C21.7,140.3,22.1,140.7,22.7,140.7"/>
	<path class="st0" d="M52,6.7h4.7c0.9,0,1.7,0.8,1.7,1.7v2c0,0.5,0.4,1,1,1h0.1c0.5,0,1-0.4,1-1v-2c0-0.9,0.8-1.7,1.7-1.7h4.7
		c0.5,0,1-0.4,1-1V5.7c0-0.5-0.4-1-1-1H62c-0.9,0-1.7-0.8-1.7-1.7V1c0-0.5-0.4-1-1-1h-0.1c-0.5,0-1,0.4-1,1v2c0,0.9-0.8,1.7-1.7,1.7
		H52c-0.5,0-1,0.4-1,1v0.1C51,6.3,51.4,6.7,52,6.7"/>
</g>
<circle class="st1" cx="115.9" cy="40.5" r="23"/>
<path class="st2" d="M101,30.4c3.2-4.8,8.7-7.9,14.9-7.9"/>
<path class="st0" d="M177,68.2l-123.1,0c-5,0.5-9,4.8-9,9.9s4,10.9,9,10.9H177c5.5,0,10-4.9,10-10.5C187,73.1,182.5,68.2,177,68.2z"
	/>
<path class="st3" d="M116,68.9"/>
<polygon class="st0" points="51.1,69.1 91.9,45.1 140,45.1 180.7,69.1 "/>
<path class="st1" d="M187.9,183.1l-56.1-95h-30L44.4,183c-1.7,1.9-2.8,4.4-2.8,7.2c0,5.4,4.1,9.9,9.4,10.5l129.1,0.5
	c5.8,0,10.5-4.9,10.5-10.8C190.7,187.7,189.6,184.9,187.9,183.1z"/>
<path class="st2" d="M68.3,192.8L51.8,193c-1.3-0.1-2.2-1.3-2.2-2.6c0-0.8,0.4-1.4,0.7-1.8l55.8-91.9"/>
</svg>
