<?xml version="1.0" encoding="utf-8"?>
<!-- Generator: Adobe Illustrator 20.1.0, SVG Export Plug-In . SVG Version: 6.00 Build 0)  -->
<svg version="1.1" id="Layer_1" xmlns="http://www.w3.org/2000/svg" xmlns:xlink="http://www.w3.org/1999/xlink" x="0px" y="0px"
	 viewBox="0 0 284.3 238.9" style="enable-background:new 0 0 284.3 238.9;" xml:space="preserve">
<style type="text/css">
	.st0{fill:#BE529F;}
	.st1{fill:#FFFFFF;}
</style>
<g>
	<rect x="0.1" y="48" class="st0" width="83" height="191"/>
	<rect x="90.7" y="48" class="st0" width="192.4" height="125.3"/>
	<rect class="st0" width="283" height="42.5"/>
	<rect x="90.7" y="180.3" class="st0" width="59.2" height="58.6"/>
	<rect x="157.2" y="180.3" class="st0" width="59.2" height="58.6"/>
	<g>
		<path class="st1" d="M210.7,66.9c0-4,3.2-7.2,7.2-7.2c4,0,7.2,3.2,7.2,7.2c0,4-3.2,7.2-7.2,7.2C213.9,74,210.7,70.8,210.7,66.9"/>
		<path class="st1" d="M233.2,66.9c0-4,3.2-7.2,7.2-7.2c4,0,7.2,3.2,7.2,7.2c0,4-3.2,7.2-7.2,7.2C236.4,74,233.2,70.8,233.2,66.9"/>
		<path class="st1" d="M255.7,66.9c0-4,3.2-7.2,7.2-7.2s7.2,3.2,7.2,7.2c0,4-3.2,7.2-7.2,7.2S255.7,70.8,255.7,66.9"/>
	</g>
	<polygon class="st0" points="225.1,180.3 225.1,236.5 284.3,180.3 	"/>
</g>
</svg>
