<?xml version="1.0" encoding="utf-8"?>
<!-- Generator: Adobe Illustrator 20.1.0, SVG Export Plug-In . SVG Version: 6.00 Build 0)  -->
<svg version="1.1" id="Layer_1" xmlns="http://www.w3.org/2000/svg" xmlns:xlink="http://www.w3.org/1999/xlink" x="0px" y="0px"
	 viewBox="0 0 228.7 196.7" style="enable-background:new 0 0 228.7 196.7;" xml:space="preserve">
<style type="text/css">
	.st0{fill:#29EDB5;}
	.st1{fill:#A9F8E1;}
	.st2{fill:none;stroke:#FFFFFF;stroke-width:3;stroke-linecap:round;stroke-miterlimit:10;}
</style>
<path class="st0" d="M118.1,133.3c-2.3-2.3-2-6.3,0.3-8.6c2.1-2.1,5.8-2.5,8.2-0.6c17.9,18,32,32.1,32.1,32.1c2.6,2.6,6.8,2.6,9.5,0
	c2.6-2.6,2.7-6.8,0.1-9.5c0,0-58.4-58.5-58.4-58.5c-2.3-2.3-2-6.3,0.3-8.6c2.1-2.1,5.9-2.5,8.2-0.6c22.6,22.7,42.6,42.6,42.6,42.7
	c2.6,2.6,6.8,2.6,9.5,0c2.6-2.6,2.7-6.8,0.1-9.5c-0.1-0.1-92.2-92.3-92.2-92.3c-17.9-17.9-46.8-17.9-64.7,0
	c-17.9,17.9-17.9,46.8,0,64.7c0.1,0.1,0.2,0.2,0.3,0.3c6.9,6.9,91.9,92,92,92c2.6,2.6,6.8,2.6,9.5,0c2.6-2.6,2.7-7,0.1-9.6
	c0,0-26.1-26.2-26.1-26.2c-2.3-2.3-2-6.2,0.3-8.5c2.2-2.2,6-2.4,8.3-0.5c29.4,29.4,62.7,62.8,62.8,62.8c2.6,2.6,6.8,2.6,9.5,0
	c2.6-2.6,2.7-6.8,0.1-9.5C170,185.3,118.1,133.3,118.1,133.3z"/>
<g>
	<path class="st0" d="M122.4,5c0,2.8-2.2,5-4.9,5c-2.7,0-4.9-2.2-4.9-5c0-2.8,2.2-5,4.9-5C120.2,0,122.4,2.2,122.4,5"/>
	<path class="st0" d="M38.7,144H27.1c-2.3,0-4.1-1.9-4.1-4.2v-4.9c0-1.3-1.1-2.4-2.4-2.4h-0.2c-1.3,0-2.4,1.1-2.4,2.4v4.9
		c0,2.3-1.9,4.2-4.1,4.2H2.4c-1.3,0-2.4,1.1-2.4,2.4v0.2c0,1.3,1.1,2.4,2.4,2.4h11.6c2.3,0,4.1,1.9,4.1,4.2v4.9
		c0,1.3,1.1,2.4,2.4,2.4h0.2c1.3,0,2.4-1.1,2.4-2.4v-4.9c0-2.3,1.9-4.2,4.1-4.2h11.6c1.3,0,2.4-1.1,2.4-2.4v-0.2
		C41.1,145.1,40,144,38.7,144"/>
	<path class="st0" d="M227,89.7h-8.5c-1.7,0-3-1.4-3-3.1V83c0-1-0.8-1.8-1.7-1.8h-0.1c-1,0-1.7,0.8-1.7,1.8v3.6c0,1.7-1.4,3.1-3,3.1
		h-8.5c-1,0-1.7,0.8-1.7,1.8v0.1c0,1,0.8,1.8,1.7,1.8h8.5c1.7,0,3,1.4,3,3.1v3.6c0,1,0.8,1.8,1.7,1.8h0.1c1,0,1.7-0.8,1.7-1.8v-3.6
		c0-1.7,1.4-3.1,3-3.1h8.5c1,0,1.7-0.8,1.7-1.8v-0.1C228.7,90.5,227.9,89.7,227,89.7"/>
	<path class="st0" d="M179.8,22.9h-4.7c-0.9,0-1.7-0.8-1.7-1.7v-2c0-0.5-0.4-1-1-1h-0.1c-0.5,0-1,0.4-1,1v2c0,0.9-0.8,1.7-1.7,1.7
		H165c-0.5,0-1,0.4-1,1V24c0,0.5,0.4,1,1,1h4.7c0.9,0,1.7,0.8,1.7,1.7v2c0,0.5,0.4,1,1,1h0.1c0.5,0,1-0.4,1-1v-2
		c0-0.9,0.8-1.7,1.7-1.7h4.7c0.5,0,1-0.4,1-1v-0.1C180.7,23.4,180.3,22.9,179.8,22.9"/>
	<path class="st0" d="M214.4,141.6h-4.7c-0.9,0-1.7-0.8-1.7-1.7v-2c0-0.5-0.4-1-1-1H207c-0.5,0-1,0.4-1,1v2c0,0.9-0.8,1.7-1.7,1.7
		h-4.7c-0.5,0-1,0.4-1,1v0.1c0,0.5,0.4,1,1,1h4.7c0.9,0,1.7,0.8,1.7,1.7v2c0,0.5,0.4,1,1,1h0.1c0.5,0,1-0.4,1-1v-2
		c0-0.9,0.8-1.7,1.7-1.7h4.7c0.5,0,1-0.4,1-1v-0.1C215.3,142.1,214.9,141.6,214.4,141.6"/>
</g>
<path class="st0" d="M158.4,77.1c-0.1-0.1-0.1-0.2-0.2-0.2c-0.4-0.4-0.8-0.7-1.2-0.9l1.3,1.3L158.4,77.1z"/>
<path class="st0" d="M159.1,78.1c-0.2-0.3-0.5-0.6-0.7-0.9l-0.1,0.1L159.1,78.1z"/>
<path class="st0" d="M88.9,146.2l0.2,0.2l0,0C89,146.3,89,146.2,88.9,146.2z"/>
<path class="st0" d="M109.4,125.7l0.2,0.2l0,0C109.5,125.8,109.5,125.7,109.4,125.7z"/>
<path class="st0" d="M129.9,105.2l0.2,0.2l0,0C130.1,105.3,130,105.2,129.9,105.2z"/>
<path class="st0" d="M150.4,84.7l0.2,0.2l0,0C150.6,84.8,150.5,84.7,150.4,84.7z"/>
<path class="st0" d="M138.6,96.9l-0.2-0.2C138.5,96.7,138.5,96.8,138.6,96.9L138.6,96.9z"/>
<ellipse transform="matrix(0.7071 -0.7071 0.7071 0.7071 -23.4329 47.7043)" class="st1" cx="45.9" cy="52.1" rx="31.4" ry="31.4"/>
<path class="st2" d="M55.2,28.7c-2.5-1-5-1.6-7.5-1.8c-9.3-0.7-18.4,3.9-23.2,12.2c-0.6,1-1.1,2-1.5,3"/>
</svg>
