<svg id="Layer_1" data-name="Layer 1" xmlns="http://www.w3.org/2000/svg" xmlns:xlink="http://www.w3.org/1999/xlink" viewBox="0 0 123.81 61.71"><defs><style>.cls-1{fill:none;}.cls-2{clip-path:url(#clip-path);}.cls-3{fill:#69c4a5;}.cls-4{fill:#3f5579;}</style><clipPath id="clip-path" transform="translate(0 0)"><rect class="cls-1" width="123.81" height="61.71"/></clipPath></defs><title>fast-icon</title><g class="cls-2"><path class="cls-3" d="M25.26,15.12a3.78,3.78,0,1,1-3.78-3.85,3.81,3.81,0,0,1,3.78,3.85" transform="translate(0 0)"/><path class="cls-3" d="M72,2.14a2.1,2.1,0,1,1-4.2,0,2.1,2.1,0,1,1,4.2,0" transform="translate(0 0)"/><path class="cls-3" d="M111.87,11.27A1.19,1.19,0,1,1,113,10.08a1.17,1.17,0,0,1-1.16,1.19" transform="translate(0 0)"/><path class="cls-3" d="M106.18,50.82a1.56,1.56,0,1,1,1.52-1.56,1.54,1.54,0,0,1-1.52,1.56" transform="translate(0 0)"/><path class="cls-3" d="M122.8,32.87h-5a1.8,1.8,0,0,1-1.78-1.81V28.94a1,1,0,0,0-1-1H115a1,1,0,0,0-1,1v2.12a1.8,1.8,0,0,1-1.78,1.81h-5a1,1,0,0,0-1,1V34a1,1,0,0,0,1,1h5a1.8,1.8,0,0,1,1.78,1.81V39a1,1,0,0,0,1,1H115a1,1,0,0,0,1-1V36.85A1.8,1.8,0,0,1,117.83,35h5a1,1,0,0,0,1-1v-.09a1,1,0,0,0-1-1" transform="translate(0 0)"/><path class="cls-3" d="M52.66,9.39H49.46a1.16,1.16,0,0,1-1.15-1.17V6.85a.66.66,0,0,0-.65-.67h-.06a.66.66,0,0,0-.65.67V8.22a1.16,1.16,0,0,1-1.14,1.17H42.62a.66.66,0,0,0-.65.67v.06a.66.66,0,0,0,.65.67h3.19A1.16,1.16,0,0,1,47,11.94v1.37a.66.66,0,0,0,.65.67h.06a.66.66,0,0,0,.65-.67V11.94a1.16,1.16,0,0,1,1.15-1.17h3.19a.66.66,0,0,0,.65-.67v-.06a.66.66,0,0,0-.65-.67" transform="translate(0 0)"/><path class="cls-3" d="M6.75,39.86h-2A.73.73,0,0,1,4,39.13v-.86a.42.42,0,0,0-.41-.42h0a.42.42,0,0,0-.41.42v.86a.73.73,0,0,1-.72.74h-2a.42.42,0,0,0-.41.42v0a.42.42,0,0,0,.41.42h2a.73.73,0,0,1,.72.74v.86a.42.42,0,0,0,.41.42h0A.42.42,0,0,0,4,42.34v-.86a.73.73,0,0,1,.72-.74h2a.42.42,0,0,0,.41-.42v0a.42.42,0,0,0-.41-.42" transform="translate(0 0)"/></g><rect class="cls-4" x="72.73" y="58.7" width="15.97" height="1.44"/><rect class="cls-4" x="34.38" y="58.7" width="15.97" height="1.44"/><polygon class="cls-4" points="60.19 52.81 60.19 57.33 51.58 57.33 51.58 61.71 71.5 61.71 71.5 57.33 62.89 57.33 62.89 52.81 60.19 52.81"/><g class="cls-2"><path class="cls-4" d="M92,17.89V51.23H31.11V23.8a4,4,0,0,1,4-3.91h31A2.94,2.94,0,0,0,69,17.6a2,2,0,0,0,0-.24A4,4,0,0,1,73,14H88a4,4,0,0,1,4,3.91" transform="translate(0 0)"/></g></svg>