<?xml version="1.0" encoding="utf-8"?>
<!-- Generator: Adobe Illustrator 20.1.0, SVG Export Plug-In . SVG Version: 6.00 Build 0)  -->
<svg version="1.1" id="Layer_1" xmlns="http://www.w3.org/2000/svg" xmlns:xlink="http://www.w3.org/1999/xlink" x="0px" y="0px"
	 viewBox="0 0 1400 800" style="enable-background:new 0 0 1400 800;" xml:space="preserve">
<style type="text/css">
	.st0{fill:#FFFFFF;}
	.st1{fill:none;stroke:#FFFFFF;stroke-miterlimit:10;}
	.st2{fill:none;stroke:#FFFFFF;stroke-width:3;stroke-linecap:round;}
	.st3{fill:none;stroke:#FFFFFF;stroke-dasharray:4.728,4.728;}
	.st4{fill:none;stroke:#FFFFFF;}
	.st5{fill:none;stroke:#FFFFFF;stroke-dasharray:5.198,5.198;}
	.st6{fill:none;stroke:#FFFFFF;stroke-dasharray:4.541,4.541;}
	.st7{fill:none;stroke:#FFFFFF;stroke-dasharray:5.009,5.009;}
</style>
<g>
	<path class="st0" d="M747.9,277.7c0,3.1-2.5,5.7-5.7,5.7c-3.1,0-5.7-2.5-5.7-5.7c0-3.1,2.5-5.7,5.7-5.7
		C745.4,272.1,747.9,274.6,747.9,277.7"/>
	<path class="st0" d="M402.9,74c0,3.1-2.5,5.7-5.7,5.7c-3.1,0-5.7-2.5-5.7-5.7c0-3.1,2.5-5.7,5.7-5.7
		C400.3,68.3,402.9,70.8,402.9,74"/>
	<path class="st0" d="M871.3,71.4c0,1.7-1.4,3.2-3.2,3.2c-1.7,0-3.2-1.4-3.2-3.2c0-1.7,1.4-3.2,3.2-3.2
		C869.9,68.3,871.3,69.7,871.3,71.4"/>
	<path class="st0" d="M632.7,270.4c-1,0-1.7-0.8-1.7-1.7s0.8-1.7,1.7-1.7c1,0,1.7,0.8,1.7,1.7S633.6,270.4,632.7,270.4"/>
	<path class="st0" d="M491.4,385.9c-1.3,0-2.3-1-2.3-2.3c0-1.3,1-2.3,2.3-2.3c1.3,0,2.3,1,2.3,2.3
		C493.7,384.9,492.7,385.9,491.4,385.9"/>
	<path class="st0" d="M606,292.8h-7.5c-1.5,0-2.7-1.2-2.7-2.7V287c0-0.8-0.7-1.5-1.5-1.5h-0.1c-0.8,0-1.5,0.7-1.5,1.5v3.1
		c0,1.5-1.2,2.7-2.7,2.7h-7.5c-0.8,0-1.5,0.7-1.5,1.5v0.1c0,0.8,0.7,1.5,1.5,1.5h7.5c1.5,0,2.7,1.2,2.7,2.7v3.1
		c0,0.8,0.7,1.5,1.5,1.5h0.1c0.8,0,1.5-0.7,1.5-1.5v-3.1c0-1.5,1.2-2.7,2.7-2.7h7.5c0.8,0,1.5-0.7,1.5-1.5v-0.1
		C607.6,293.5,606.9,292.8,606,292.8"/>
	<path class="st0" d="M728.2,156.6h-4.8c-1,0-1.7-0.8-1.7-1.7v-2c0-0.5-0.4-1-1-1h-0.1c-0.5,0-1,0.4-1,1v2c0,1-0.8,1.7-1.7,1.7h-4.8
		c-0.5,0-1,0.4-1,1v0.1c0,0.5,0.4,1,1,1h4.8c1,0,1.7,0.8,1.7,1.7v2c0,0.5,0.4,1,1,1h0.1c0.5,0,1-0.4,1-1v-2c0-1,0.8-1.7,1.7-1.7h4.8
		c0.5,0,1-0.4,1-1v-0.1C729.2,157,728.8,156.6,728.2,156.6"/>
	<path class="st0" d="M588.6,639.6h-4.8c-1,0-1.7-0.8-1.7-1.7v-2c0-0.5-0.4-1-1-1H581c-0.5,0-1,0.4-1,1v2c0,1-0.8,1.7-1.7,1.7h-4.8
		c-0.5,0-1,0.4-1,1v0.1c0,0.5,0.4,1,1,1h4.8c1,0,1.7,0.8,1.7,1.7v2c0,0.5,0.4,1,1,1h0.1c0.5,0,1-0.4,1-1v-2c0-1,0.8-1.7,1.7-1.7h4.8
		c0.5,0,1-0.4,1-1v-0.1C589.6,640,589.1,639.6,588.6,639.6"/>
	<path class="st0" d="M764.6,400.9h-3c-0.6,0-1.1-0.5-1.1-1.1v-1.3c0-0.3-0.3-0.6-0.6-0.6h-0.1c-0.3,0-0.6,0.3-0.6,0.6v1.3
		c0,0.6-0.5,1.1-1.1,1.1h-3c-0.3,0-0.6,0.3-0.6,0.6v0.1c0,0.3,0.3,0.6,0.6,0.6h3c0.6,0,1.1,0.5,1.1,1.1v1.3c0,0.3,0.3,0.6,0.6,0.6
		h0.1c0.3,0,0.6-0.3,0.6-0.6v-1.3c0-0.6,0.5-1.1,1.1-1.1h3c0.3,0,0.6-0.3,0.6-0.6v-0.1C765.2,401.2,765,400.9,764.6,400.9"/>
	<g>
		<path class="st0" d="M132.3,301.7c0,4.4-3.5,8-7.8,8c-4.3,0-7.8-3.6-7.8-8c0-4.4,3.5-7.9,7.8-7.9
			C128.8,293.7,132.3,297.3,132.3,301.7"/>
		<ellipse class="st1" cx="124.5" cy="301.7" rx="7.8" ry="7.9"/>
		<path class="st0" d="M1211.8,499.9c0,4.4-3.5,8-7.8,8c-4.3,0-7.8-3.6-7.8-8c0-4.4,3.5-7.9,7.8-7.9
			C1208.3,492,1211.8,495.5,1211.8,499.9"/>
		<ellipse class="st1" cx="1204" cy="499.9" rx="7.8" ry="7.9"/>
		<path class="st0" d="M1092.5,170.1c0,2.1-1.6,3.7-3.6,3.7c-2,0-3.6-1.7-3.6-3.7c0-2.1,1.6-3.7,3.6-3.7
			C1090.8,166.4,1092.5,168.1,1092.5,170.1"/>
		<ellipse class="st1" cx="1088.8" cy="170.1" rx="3.6" ry="3.7"/>
		<path class="st0" d="M1359.2,207.2c-1.7,0-3.1-1.4-3.1-3.2s1.4-3.2,3.1-3.2c1.7,0,3.1,1.4,3.1,3.2S1360.9,207.2,1359.2,207.2"/>
		<ellipse class="st1" cx="1359.2" cy="204" rx="3.1" ry="3.2"/>
		<path class="st0" d="M1065.6,468c-1.7,0-3.1-1.4-3.1-3.2c0-1.8,1.4-3.2,3.1-3.2c1.7,0,3.1,1.4,3.1,3.2
			C1068.7,466.6,1067.3,468,1065.6,468"/>
		<ellipse class="st1" cx="1065.6" cy="464.8" rx="3.1" ry="3.2"/>
		<path class="st0" d="M1259.5,669.3c-1.7,0-3.1-1.4-3.1-3.2c0-1.8,1.4-3.2,3.1-3.2c1.7,0,3.1,1.4,3.1,3.2
			C1262.6,667.9,1261.2,669.3,1259.5,669.3"/>
		<ellipse class="st1" cx="1259.5" cy="666.1" rx="3.1" ry="3.2"/>
		<path class="st0" d="M1243.3,177.7c-1.7,0-3.1-1.4-3.1-3.2s1.4-3.2,3.1-3.2c1.7,0,3.1,1.4,3.1,3.2S1245,177.7,1243.3,177.7"/>
		<ellipse class="st1" cx="1243.3" cy="174.5" rx="3.1" ry="3.2"/>
		<path class="st0" d="M1320.1,371c-1.7,0-3.1-1.4-3.1-3.2c0-1.8,1.4-3.2,3.1-3.2c1.7,0,3.1,1.4,3.1,3.2
			C1323.2,369.6,1321.8,371,1320.1,371"/>
		<ellipse class="st1" cx="1320.1" cy="367.8" rx="3.1" ry="3.2"/>
		<path class="st0" d="M529.7,230.4c-1.7,0-3.1-1.4-3.1-3.2s1.4-3.2,3.1-3.2c1.7,0,3.1,1.4,3.1,3.2S531.4,230.4,529.7,230.4"/>
		<ellipse class="st1" cx="529.7" cy="227.2" rx="3.1" ry="3.2"/>
		<path class="st0" d="M215.5,588.4c-1.7,0-3.1-1.4-3.1-3.2s1.4-3.2,3.1-3.2c1.7,0,3.1,1.4,3.1,3.2S217.3,588.4,215.5,588.4"/>
		<ellipse class="st1" cx="215.5" cy="585.1" rx="3.1" ry="3.2"/>
		<path class="st0" d="M369.3,728c-1.7,0-3.1-1.4-3.1-3.2s1.4-3.2,3.1-3.2c1.7,0,3.1,1.4,3.1,3.2S371,728,369.3,728"/>
		<ellipse class="st1" cx="369.3" cy="724.8" rx="3.1" ry="3.2"/>
		<path class="st0" d="M855,731.7c-1.7,0-3.1-1.4-3.1-3.2s1.4-3.2,3.1-3.2c1.7,0,3.1,1.4,3.1,3.2S856.7,731.7,855,731.7"/>
		<ellipse class="st1" cx="855" cy="728.5" rx="3.1" ry="3.2"/>
		<path class="st0" d="M854.9,495.5c-3.4,0-6.1-2.8-6.1-6.3c0-3.5,2.7-6.3,6.1-6.3c3.4,0,6.1,2.8,6.1,6.3
			C861.1,492.7,858.3,495.5,854.9,495.5"/>
		<ellipse class="st1" cx="854.9" cy="489.2" rx="6.1" ry="6.3"/>
		<path class="st0" d="M250.2,550.2c-0.9,0-1.6-0.7-1.6-1.6s0.7-1.6,1.6-1.6c0.9,0,1.6,0.7,1.6,1.6S251,550.2,250.2,550.2"/>
		<ellipse class="st1" cx="250.2" cy="548.6" rx="1.6" ry="1.6"/>
		<path class="st0" d="M425.7,568.5c-0.9,0-1.6-0.7-1.6-1.6s0.7-1.6,1.6-1.6c0.9,0,1.6,0.7,1.6,1.6S426.6,568.5,425.7,568.5"/>
		<ellipse class="st1" cx="425.7" cy="566.9" rx="1.6" ry="1.6"/>
		<path class="st0" d="M83.7,359c-0.9,0-1.6-0.7-1.6-1.6s0.7-1.6,1.6-1.6c0.9,0,1.6,0.7,1.6,1.6S84.6,359,83.7,359"/>
		<ellipse class="st1" cx="83.7" cy="357.4" rx="1.6" ry="1.6"/>
		<path class="st0" d="M443.8,669.3c-0.9,0-1.6-0.7-1.6-1.6s0.7-1.6,1.6-1.6c0.9,0,1.6,0.7,1.6,1.6S444.7,669.3,443.8,669.3"/>
		<ellipse class="st1" cx="443.8" cy="667.7" rx="1.6" ry="1.6"/>
		<path class="st0" d="M1275.4,162.6c-0.9,0-1.6-0.7-1.6-1.6c0-0.9,0.7-1.6,1.6-1.6c0.9,0,1.6,0.7,1.6,1.6
			C1277,161.8,1276.3,162.6,1275.4,162.6"/>
		<ellipse class="st1" cx="1275.4" cy="160.9" rx="1.6" ry="1.6"/>
		<path class="st0" d="M873.4,713.6c-0.9,0-1.6-0.7-1.6-1.6c0-0.9,0.7-1.6,1.6-1.6c0.9,0,1.6,0.7,1.6,1.6
			C874.9,712.9,874.2,713.6,873.4,713.6"/>
		<ellipse class="st1" cx="873.4" cy="712" rx="1.6" ry="1.6"/>
		<path class="st0" d="M103.5,598.7c-0.9,0-1.6-0.7-1.6-1.6c0-0.9,0.7-1.6,1.6-1.6c0.9,0,1.6,0.7,1.6,1.6
			C105.1,598,104.4,598.7,103.5,598.7"/>
		<ellipse class="st1" cx="103.5" cy="597.1" rx="1.6" ry="1.6"/>
		<path class="st0" d="M354.8,250.9h-10.2c-2,0-3.7-1.7-3.7-3.7v-4.4c0-1.2-0.9-2.1-2.1-2.1h-0.2c-1.2,0-2.1,1-2.1,2.1v4.4
			c0,2.1-1.6,3.7-3.7,3.7h-10.2c-1.2,0-2.1,1-2.1,2.1v0.2c0,1.2,0.9,2.1,2.1,2.1h10.2c2,0,3.7,1.7,3.7,3.7v4.4
			c0,1.2,0.9,2.1,2.1,2.1h0.2c1.2,0,2.1-1,2.1-2.1v-4.4c0-2.1,1.6-3.7,3.7-3.7h10.2c1.2,0,2.1-1,2.1-2.1V253
			C356.9,251.8,355.9,250.9,354.8,250.9"/>
		<path class="st1" d="M354.8,250.9h-10.2c-2,0-3.7-1.7-3.7-3.7v-4.4c0-1.2-0.9-2.1-2.1-2.1h-0.2c-1.2,0-2.1,1-2.1,2.1v4.4
			c0,2.1-1.6,3.7-3.7,3.7h-10.2c-1.2,0-2.1,1-2.1,2.1v0.2c0,1.2,0.9,2.1,2.1,2.1h10.2c2,0,3.7,1.7,3.7,3.7v4.4
			c0,1.2,0.9,2.1,2.1,2.1h0.2c1.2,0,2.1-1,2.1-2.1v-4.4c0-2.1,1.6-3.7,3.7-3.7h10.2c1.2,0,2.1-1,2.1-2.1V253
			C356.9,251.8,355.9,250.9,354.8,250.9z"/>
		<path class="st0" d="M1008.2,274h-7.4c-1.5,0-2.7-1.2-2.7-2.7v-3.2c0-0.9-0.7-1.5-1.5-1.5h-0.1c-0.8,0-1.5,0.7-1.5,1.5v3.2
			c0,1.5-1.2,2.7-2.7,2.7H985c-0.8,0-1.5,0.7-1.5,1.5v0.1c0,0.9,0.7,1.5,1.5,1.5h7.4c1.5,0,2.7,1.2,2.7,2.7v3.2
			c0,0.9,0.7,1.5,1.5,1.5h0.1c0.8,0,1.5-0.7,1.5-1.5V280c0-1.5,1.2-2.7,2.7-2.7h7.4c0.8,0,1.5-0.7,1.5-1.5v-0.1
			C1009.8,274.7,1009.1,274,1008.2,274"/>
		<path class="st1" d="M1008.2,274h-7.4c-1.5,0-2.7-1.2-2.7-2.7v-3.2c0-0.9-0.7-1.5-1.5-1.5h-0.1c-0.8,0-1.5,0.7-1.5,1.5v3.2
			c0,1.5-1.2,2.7-2.7,2.7H985c-0.8,0-1.5,0.7-1.5,1.5v0.1c0,0.9,0.7,1.5,1.5,1.5h7.4c1.5,0,2.7,1.2,2.7,2.7v3.2
			c0,0.9,0.7,1.5,1.5,1.5h0.1c0.8,0,1.5-0.7,1.5-1.5V280c0-1.5,1.2-2.7,2.7-2.7h7.4c0.8,0,1.5-0.7,1.5-1.5v-0.1
			C1009.8,274.7,1009.1,274,1008.2,274z"/>
		<path class="st0" d="M1354.1,341.5h-9.2c-1.8,0-3.3-1.5-3.3-3.4v-3.9c0-1.1-0.8-1.9-1.9-1.9h-0.2c-1,0-1.9,0.9-1.9,1.9v3.9
			c0,1.9-1.5,3.4-3.3,3.4h-9.2c-1,0-1.9,0.9-1.9,1.9v0.2c0,1.1,0.8,1.9,1.9,1.9h9.2c1.8,0,3.3,1.5,3.3,3.4v3.9
			c0,1.1,0.8,1.9,1.9,1.9h0.2c1,0,1.9-0.9,1.9-1.9v-3.9c0-1.9,1.5-3.4,3.3-3.4h9.2c1,0,1.9-0.9,1.9-1.9v-0.2
			C1356,342.3,1355.2,341.5,1354.1,341.5"/>
		<path class="st1" d="M1354.1,341.5h-9.2c-1.8,0-3.3-1.5-3.3-3.4v-3.9c0-1.1-0.8-1.9-1.9-1.9h-0.2c-1,0-1.9,0.9-1.9,1.9v3.9
			c0,1.9-1.5,3.4-3.3,3.4h-9.2c-1,0-1.9,0.9-1.9,1.9v0.2c0,1.1,0.8,1.9,1.9,1.9h9.2c1.8,0,3.3,1.5,3.3,3.4v3.9
			c0,1.1,0.8,1.9,1.9,1.9h0.2c1,0,1.9-0.9,1.9-1.9v-3.9c0-1.9,1.5-3.4,3.3-3.4h9.2c1,0,1.9-0.9,1.9-1.9v-0.2
			C1356,342.3,1355.2,341.5,1354.1,341.5z"/>
		<path class="st0" d="M246.2,687.8h-6.8c-1.4,0-2.5-1.1-2.5-2.5v-2.9c0-0.8-0.6-1.4-1.4-1.4h-0.1c-0.8,0-1.4,0.6-1.4,1.4v2.9
			c0,1.4-1.1,2.5-2.4,2.5h-6.8c-0.8,0-1.4,0.6-1.4,1.4v0.1c0,0.8,0.6,1.4,1.4,1.4h6.8c1.4,0,2.4,1.1,2.4,2.5v2.9
			c0,0.8,0.6,1.4,1.4,1.4h0.1c0.8,0,1.4-0.6,1.4-1.4v-2.9c0-1.4,1.1-2.5,2.5-2.5h6.8c0.8,0,1.4-0.6,1.4-1.4v-0.1
			C247.6,688.4,247,687.8,246.2,687.8"/>
		<path class="st1" d="M246.2,687.8h-6.8c-1.4,0-2.5-1.1-2.5-2.5v-2.9c0-0.8-0.6-1.4-1.4-1.4h-0.1c-0.8,0-1.4,0.6-1.4,1.4v2.9
			c0,1.4-1.1,2.5-2.4,2.5h-6.8c-0.8,0-1.4,0.6-1.4,1.4v0.1c0,0.8,0.6,1.4,1.4,1.4h6.8c1.4,0,2.4,1.1,2.4,2.5v2.9
			c0,0.8,0.6,1.4,1.4,1.4h0.1c0.8,0,1.4-0.6,1.4-1.4v-2.9c0-1.4,1.1-2.5,2.5-2.5h6.8c0.8,0,1.4-0.6,1.4-1.4v-0.1
			C247.6,688.4,247,687.8,246.2,687.8z"/>
		<path class="st0" d="M63,118.9h-5.6c-1.1,0-2-0.8-2-1.8v-2.1c0-0.6-0.5-1-1.2-1h-0.1c-0.6,0-1.2,0.5-1.2,1v2.1c0,1-0.9,1.8-2,1.8
			h-5.6c-0.6,0-1.2,0.5-1.2,1v0.1c0,0.6,0.5,1,1.2,1h5.6c1.1,0,2,0.8,2,1.8v2.1c0,0.6,0.5,1,1.2,1h0.1c0.6,0,1.2-0.5,1.2-1v-2.1
			c0-1,0.9-1.8,2-1.8H63c0.6,0,1.2-0.5,1.2-1v-0.1C64.2,119.3,63.7,118.9,63,118.9"/>
		<path class="st1" d="M63,118.9h-5.6c-1.1,0-2-0.8-2-1.8v-2.1c0-0.6-0.5-1-1.2-1h-0.1c-0.6,0-1.2,0.5-1.2,1v2.1c0,1-0.9,1.8-2,1.8
			h-5.6c-0.6,0-1.2,0.5-1.2,1v0.1c0,0.6,0.5,1,1.2,1h5.6c1.1,0,2,0.8,2,1.8v2.1c0,0.6,0.5,1,1.2,1h0.1c0.6,0,1.2-0.5,1.2-1v-2.1
			c0-1,0.9-1.8,2-1.8H63c0.6,0,1.2-0.5,1.2-1v-0.1C64.2,119.3,63.7,118.9,63,118.9z"/>
		<path class="st0" d="M1083.9,675.5h-9.3c-1.8,0-3.3-1.5-3.3-3.4v-4c0-1.1-0.8-2-1.9-2h-0.2c-1.1,0-1.9,0.9-1.9,1.9v4
			c0,1.9-1.5,3.4-3.3,3.4h-9.3c-1.1,0-1.9,0.9-1.9,1.9v0.2c0,1.1,0.9,2,1.9,2h9.3c1.8,0,3.3,1.5,3.3,3.4v4c0,1.1,0.9,2,1.9,2h0.2
			c1.1,0,1.9-0.9,1.9-1.9v-4c0-1.9,1.5-3.4,3.3-3.4h9.3c1,0,1.9-0.9,1.9-2v-0.2C1085.8,676.3,1084.9,675.5,1083.9,675.5"/>
		<path class="st1" d="M1083.9,675.5h-9.3c-1.8,0-3.3-1.5-3.3-3.4v-4c0-1.1-0.8-2-1.9-2h-0.2c-1.1,0-1.9,0.9-1.9,1.9v4
			c0,1.9-1.5,3.4-3.3,3.4h-9.3c-1.1,0-1.9,0.9-1.9,1.9v0.2c0,1.1,0.9,2,1.9,2h9.3c1.8,0,3.3,1.5,3.3,3.4v4c0,1.1,0.9,2,1.9,2h0.2
			c1.1,0,1.9-0.9,1.9-1.9v-4c0-1.9,1.5-3.4,3.3-3.4h9.3c1,0,1.9-0.9,1.9-2v-0.2C1085.8,676.3,1084.9,675.5,1083.9,675.5z"/>
		<path class="st0" d="M166.2,491.6c-9.8,0-17.8-8.1-17.8-18.2c0-10,8-18.2,17.8-18.2c9.8,0,17.8,8.1,17.8,18.2
			C184,483.5,176,491.6,166.2,491.6"/>
		<ellipse class="st1" cx="166.2" cy="473.4" rx="17.8" ry="18.2"/>
	</g>
	<line class="st2" x1="129.1" y1="473.4" x2="203.3" y2="473.4"/>
	<g>
		<path class="st3" d="M1211.1,535.4c15.1-3,26.8-15.3,28.8-30.7"/>
		<path class="st3" d="M1239.5,492.9c-3-15.1-15.3-26.8-30.7-28.8"/>
		<path class="st3" d="M1197,464.5c-15.1,3-26.8,15.3-28.8,30.7"/>
		<path class="st3" d="M1168.6,507c3,15.1,15.3,26.8,30.7,28.8"/>
		<path class="st4" d="M1201.7,536c0.8,0,1.6,0.1,2.4,0.1c0.8,0,1.6,0,2.4-0.1 M1168,497.6c-0.1,0.8-0.1,1.6-0.1,2.4
			c0,0.8,0,1.6,0.1,2.4 M1206.4,463.9c-0.8,0-1.6-0.1-2.4-0.1c-0.8,0-1.6,0-2.4,0.1 M1240.1,502.3c0-0.8,0.1-1.6,0.1-2.4
			c0-0.8,0-1.6-0.1-2.4"/>
		<path class="st5" d="M1096.6,242.5c34.8-3.7,62.3-32,64.8-67.2"/>
		<path class="st5" d="M1161.2,162.3c-3.7-34.8-32-62.3-67.2-64.8"/>
		<path class="st5" d="M1081.1,97.7c-34.8,3.7-62.3,32-64.8,67.2"/>
		<path class="st5" d="M1016.5,177.9c3.7,34.8,32,62.3,67.2,64.8"/>
		<path class="st4" d="M1086.2,242.9c0.9,0,1.7,0,2.6,0s1.7,0,2.6,0 M1016.1,167.5c0,0.9,0,1.7,0,2.6c0,0.9,0,1.7,0,2.6
			 M1091.4,97.4c-0.9,0-1.7,0-2.6,0s-1.7,0-2.6,0 M1161.6,172.7c0-0.9,0-1.7,0-2.6c0-0.9,0-1.7,0-2.6"/>
		<path class="st6" d="M536.4,249.9c7.8-2.6,13.8-9.6,15.4-18.2"/>
		<path class="st6" d="M551.2,220.5c-2.3-8.4-8.9-14.8-17-16.6"/>
		<path class="st6" d="M523,204.5c-7.8,2.6-13.8,9.6-15.4,18.2"/>
		<path class="st6" d="M508.1,233.9c2.3,8.4,8.9,14.8,17,16.6"/>
		<path class="st4" d="M527.4,250.9c0.7,0.1,1.5,0.1,2.3,0.1s1.5,0,2.3-0.1 M507.3,225c-0.1,0.7-0.1,1.5-0.1,2.3
			c0,0.8,0,1.5,0.1,2.3 M532,203.6c-0.7-0.1-1.5-0.1-2.3-0.1s-1.5,0-2.3,0.1 M552,229.5c0.1-0.7,0.1-1.5,0.1-2.3
			c0-0.8,0-1.5-0.1-2.3"/>
		<path class="st7" d="M132,393.1c42.9-3.9,76.8-40.7,79.2-86.4"/>
		<path class="st7" d="M211,294.2c-3.5-45.4-38.2-81.5-81.5-84.1"/>
		<path class="st7" d="M117,210.3c-42.9,3.9-76.8,40.7-79.2,86.4"/>
		<path class="st7" d="M38,309.2c3.5,45.4,38.2,81.5,81.5,84.1"/>
		<path class="st4" d="M122,393.4c0.8,0,1.7,0,2.5,0c0.8,0,1.7,0,2.5,0 M37.7,299.2c0,0.8,0,1.7,0,2.5c0,0.8,0,1.7,0,2.5 M127,210
			c-0.8,0-1.7,0-2.5,0c-0.8,0-1.7,0-2.5,0 M211.2,304.2c0-0.8,0-1.7,0-2.5c0-0.8,0-1.7,0-2.5"/>
	</g>
</g>
</svg>
