<?xml version="1.0" encoding="utf-8"?>
<!-- Generator: Adobe Illustrator 20.1.0, SVG Export Plug-In . SVG Version: 6.00 Build 0)  -->
<svg version="1.1" id="Layer_1" xmlns="http://www.w3.org/2000/svg" xmlns:xlink="http://www.w3.org/1999/xlink" x="0px" y="0px"
	 viewBox="0 0 1369.4 335.7" style="enable-background:new 0 0 1369.4 335.7;" xml:space="preserve">
<style type="text/css">
	.st0{fill:#29EDB5;}
	.st1{fill:none;stroke:#29EDB5;stroke-width:3;stroke-linecap:round;}
	.st2{fill:none;stroke:#29EDB5;stroke-dasharray:4.728,4.728;}
	.st3{fill:none;stroke:#29EDB5;}
	.st4{fill:none;stroke:#29EDB5;stroke-dasharray:4.541,4.541;}
	.st5{fill:none;stroke:#29EDB5;stroke-dasharray:5.009,5.009;}
</style>
<g>
	<path class="st0" d="M95.1,151.8c0,4.4-3.5,8-7.8,8c-4.3,0-7.8-3.6-7.8-8c0-4.4,3.5-7.9,7.8-7.9C91.6,143.8,95.1,147.4,95.1,151.8"
		/>
	<path class="st0" d="M1218.9,299.1c0,4.4-3.5,7.9-7.8,7.9c-4.3,0-7.8-3.6-7.8-7.9c0-4.4,3.5-7.9,7.8-7.9
		C1215.4,291.2,1218.9,294.7,1218.9,299.1"/>
	<path class="st0" d="M893.1,11.8c0,4.7-3.8,8.5-8.5,8.5c-4.7,0-8.5-3.8-8.5-8.5c0-4.7,3.8-8.5,8.5-8.5
		C889.3,3.2,893.1,7,893.1,11.8"/>
	<path class="st0" d="M1366.2,6.4c-1.7,0-3.1-1.4-3.1-3.2c0-1.8,1.4-3.2,3.1-3.2c1.7,0,3.1,1.4,3.1,3.2
		C1369.4,5,1367.9,6.4,1366.2,6.4"/>
	<path class="st0" d="M1072.6,267.2c-1.7,0-3.1-1.4-3.1-3.2s1.4-3.2,3.1-3.2c1.7,0,3.1,1.4,3.1,3.2S1074.4,267.2,1072.6,267.2"/>
	<path class="st0" d="M1327.1,170.2c-1.7,0-3.1-1.4-3.1-3.2s1.4-3.2,3.1-3.2c1.7,0,3.1,1.4,3.1,3.2S1328.9,170.2,1327.1,170.2"/>
	<path class="st0" d="M281.4,29.6c-1.7,0-3.1-1.4-3.1-3.2c0-1.8,1.4-3.2,3.1-3.2c1.7,0,3.1,1.4,3.1,3.2
		C284.5,28.2,283.1,29.6,281.4,29.6"/>
	<path class="st0" d="M862,294.6c-3.4,0-6.1-2.8-6.1-6.3c0-3.5,2.7-6.3,6.1-6.3c3.4,0,6.1,2.8,6.1,6.3
		C868.1,291.8,865.4,294.6,862,294.6"/>
	<path class="st0" d="M280.3,277.2c-0.9,0-1.6-0.7-1.6-1.6c0-0.9,0.7-1.6,1.6-1.6c0.9,0,1.6,0.7,1.6,1.6
		C281.8,276.5,281.1,277.2,280.3,277.2"/>
	<path class="st0" d="M175.1,211.3c-0.9,0-1.6-0.7-1.6-1.6c0-0.9,0.7-1.6,1.6-1.6c0.9,0,1.6,0.7,1.6,1.6
		C176.6,210.6,175.9,211.3,175.1,211.3"/>
	<path class="st0" d="M361.8,50.1h-10.2c-2,0-3.7-1.7-3.7-3.7V42c0-1.2-0.9-2.1-2.1-2.1h-0.2c-1.2,0-2.1,1-2.1,2.1v4.4
		c0,2.1-1.6,3.7-3.7,3.7h-10.2c-1.2,0-2.1,1-2.1,2.1v0.2c0,1.2,0.9,2.1,2.1,2.1h10.2c2,0,3.7,1.7,3.7,3.7v4.4c0,1.2,0.9,2.1,2.1,2.1
		h0.2c1.2,0,2.1-1,2.1-2.1v-4.4c0-2.1,1.6-3.7,3.7-3.7h10.2c1.2,0,2.1-1,2.1-2.1v-0.2C363.9,51,363,50.1,361.8,50.1"/>
	<path class="st0" d="M1196.5,41.7h-7.4c-1.5,0-2.7-1.2-2.7-2.7v-3.2c0-0.9-0.7-1.5-1.5-1.5h-0.1c-0.8,0-1.5,0.7-1.5,1.5V39
		c0,1.5-1.2,2.7-2.7,2.7h-7.4c-0.8,0-1.5,0.7-1.5,1.5v0.1c0,0.9,0.7,1.5,1.5,1.5h7.4c1.5,0,2.7,1.2,2.7,2.7v3.2
		c0,0.9,0.7,1.5,1.5,1.5h0.1c0.8,0,1.5-0.7,1.5-1.5v-3.2c0-1.5,1.2-2.7,2.7-2.7h7.4c0.8,0,1.5-0.7,1.5-1.5v-0.1
		C1198,42.4,1197.3,41.7,1196.5,41.7"/>
	<path class="st0" d="M1361.2,140.7h-9.2c-1.8,0-3.3-1.5-3.3-3.4v-3.9c0-1.1-0.8-1.9-1.9-1.9h-0.2c-1,0-1.9,0.9-1.9,1.9v3.9
		c0,1.9-1.5,3.4-3.3,3.4h-9.2c-1,0-1.9,0.9-1.9,1.9v0.2c0,1.1,0.8,1.9,1.9,1.9h9.2c1.8,0,3.3,1.5,3.3,3.4v3.9c0,1.1,0.8,1.9,1.9,1.9
		h0.2c1,0,1.9-0.9,1.9-1.9v-3.9c0-1.9,1.5-3.4,3.3-3.4h9.2c1,0,1.9-0.9,1.9-1.9v-0.2C1363.1,141.5,1362.2,140.7,1361.2,140.7"/>
	<path class="st0" d="M61.4,40h-5.6c-1.1,0-2-0.8-2-1.8V36c0-0.6-0.5-1-1.2-1h-0.1c-0.6,0-1.2,0.5-1.2,1v2.1c0,1-0.9,1.8-2,1.8h-5.6
		c-0.6,0-1.2,0.5-1.2,1v0.1c0,0.6,0.5,1,1.2,1h5.6c1.1,0,2,0.8,2,1.8V46c0,0.6,0.5,1,1.2,1h0.1c0.6,0,1.2-0.5,1.2-1v-2.1
		c0-1,0.9-1.8,2-1.8h5.6c0.6,0,1.2-0.5,1.2-1V41C62.5,40.4,62,40,61.4,40"/>
	<path class="st0" d="M304.2,209H301c-0.6,0-1.1-0.5-1.1-1.1v-1.3c0-0.4-0.3-0.7-0.7-0.7h-0.1c-0.4,0-0.7,0.3-0.7,0.7v1.3
		c0,0.6-0.5,1.1-1.1,1.1h-3.2c-0.4,0-0.7,0.3-0.7,0.7v0.1c0,0.4,0.3,0.7,0.7,0.7h3.2c0.6,0,1.1,0.5,1.1,1.1v1.3
		c0,0.4,0.3,0.7,0.7,0.7h0.1c0.4,0,0.7-0.3,0.7-0.7v-1.3c0-0.6,0.5-1.1,1.1-1.1h3.2c0.4,0,0.7-0.3,0.7-0.7v-0.1
		C304.8,209.3,304.5,209,304.2,209"/>
	<path class="st0" d="M227.2,276.1c-10.9,0-19.7-9-19.7-20.1c0-11.1,8.8-20.1,19.7-20.1c10.9,0,19.7,9,19.7,20.1
		C246.9,267.1,238,276.1,227.2,276.1"/>
</g>
<line class="st1" x1="186" y1="256" x2="268.3" y2="256"/>
<g>
	<path class="st2" d="M1218.1,334.6c15.1-3,26.8-15.3,28.8-30.7"/>
	<path class="st2" d="M1246.5,292.1c-3-15.1-15.3-26.8-30.7-28.8"/>
	<path class="st2" d="M1204,263.7c-15.1,3-26.8,15.3-28.8,30.7"/>
	<path class="st2" d="M1175.7,306.2c3,15.1,15.3,26.8,30.7,28.8"/>
	<path class="st3" d="M1208.7,335.2c0.8,0.1,1.6,0.1,2.4,0.1c0.8,0,1.6,0,2.4-0.1 M1175,296.8c-0.1,0.8-0.1,1.6-0.1,2.4
		c0,0.8,0,1.6,0.1,2.4 M1213.4,263.1c-0.8,0-1.6-0.1-2.4-0.1c-0.8,0-1.6,0-2.4,0.1 M1247.1,301.5c0-0.8,0.1-1.6,0.1-2.4
		c0-0.8,0-1.6-0.1-2.4"/>
	<path class="st4" d="M288.1,49.1c7.8-2.6,13.8-9.6,15.4-18.2"/>
	<path class="st4" d="M302.9,19.7c-2.3-8.4-8.9-14.8-17-16.6"/>
	<path class="st4" d="M274.7,3.7c-7.8,2.6-13.8,9.6-15.4,18.2"/>
	<path class="st4" d="M259.8,33.1c2.3,8.4,8.9,14.8,17,16.6"/>
	<path class="st3" d="M279.1,50.1c0.7,0.1,1.5,0.1,2.3,0.1c0.8,0,1.5,0,2.3-0.1 M259,24.1c-0.1,0.7-0.1,1.5-0.1,2.3
		c0,0.8,0,1.5,0.1,2.3 M283.6,2.8c-0.7-0.1-1.5-0.1-2.3-0.1c-0.8,0-1.5,0-2.3,0.1 M303.7,28.7c0.1-0.7,0.1-1.5,0.1-2.3
		c0-0.8,0-1.5-0.1-2.3"/>
	<path class="st5" d="M94.8,243.2c42.9-3.9,76.8-40.7,79.2-86.4"/>
	<path class="st5" d="M173.8,144.3c-3.5-45.4-38.2-81.5-81.5-84.1"/>
	<path class="st5" d="M79.8,60.4C36.9,64.3,3,101.1,0.6,146.8"/>
	<path class="st5" d="M0.8,159.3c3.5,45.4,38.2,81.5,81.5,84.1"/>
	<path class="st3" d="M84.8,243.5c0.8,0,1.7,0,2.5,0c0.8,0,1.7,0,2.5,0 M0.5,149.3c0,0.8,0,1.7,0,2.5c0,0.8,0,1.7,0,2.5 M89.8,60.1
		c-0.8,0-1.7,0-2.5,0c-0.8,0-1.7,0-2.5,0 M174,154.3c0-0.8,0-1.7,0-2.5c0-0.8,0-1.7,0-2.5"/>
</g>
</svg>
