<?xml version="1.0" encoding="utf-8"?>
<!-- Generator: Adobe Illustrator 20.1.0, SVG Export Plug-In . SVG Version: 6.00 Build 0)  -->
<svg version="1.1" id="Layer_1" xmlns="http://www.w3.org/2000/svg" xmlns:xlink="http://www.w3.org/1999/xlink" x="0px" y="0px"
	 viewBox="0 0 40 40" style="enable-background:new 0 0 40 40;" xml:space="preserve">
<style type="text/css">
	.st0{fill:#FFFFFF;}
</style>
<g>
	<path class="st0" d="M40,40H0V0h40V40z M2.2,37.8h35.7V2.2H2.2V37.8z"/>
</g>
<g>
	<path class="st0" d="M18.1,24.1c-0.1,0.6-0.3,1.1-0.7,1.6c-0.3,0.5-0.8,0.9-1.5,1.2c-0.6,0.3-1.5,0.5-2.6,0.5
		c-0.6,0-1.2-0.1-1.8-0.3c-0.6-0.2-1.1-0.4-1.5-0.8C9.7,26,9.3,25.6,9,25s-0.4-1.2-0.4-2.1v-1.3h2.9v0.7c0,0.4,0,0.7,0.1,1
		s0.1,0.6,0.3,0.8c0.1,0.2,0.3,0.4,0.6,0.5c0.2,0.1,0.5,0.2,0.9,0.2s0.7-0.1,1-0.2c0.2-0.2,0.4-0.3,0.5-0.6c0.1-0.2,0.2-0.5,0.2-0.8
		s0-0.5,0-0.8v-9.9h3.2v10C18.3,23,18.2,23.5,18.1,24.1z"/>
	<path class="st0" d="M20.7,16c0.2-0.7,0.5-1.3,1-1.8c0.4-0.5,1-0.9,1.6-1.2c0.7-0.3,1.4-0.4,2.3-0.4c0.7,0,1.3,0.1,1.9,0.3
		s1.1,0.5,1.6,0.9s0.8,0.9,1.1,1.4c0.3,0.6,0.4,1.2,0.4,1.9s-0.1,1.3-0.3,1.9c-0.2,0.5-0.5,1-0.9,1.4s-0.8,0.8-1.3,1.1
		c-0.5,0.3-1,0.7-1.5,1s-1,0.7-1.4,1c-0.5,0.4-0.9,0.8-1.2,1.3h6.8v2.5H20.1c0-0.8,0.1-1.6,0.4-2.2c0.2-0.6,0.6-1.2,1-1.6
		c0.4-0.5,0.9-0.9,1.4-1.3c0.6-0.4,1.1-0.8,1.7-1.2c0.3-0.2,0.6-0.4,1-0.7c0.4-0.2,0.7-0.5,1-0.7c0.3-0.3,0.5-0.6,0.7-0.9
		s0.3-0.7,0.3-1.2c0-0.7-0.2-1.2-0.6-1.6s-0.9-0.6-1.5-0.6c-0.4,0-0.8,0.1-1.1,0.3c-0.3,0.2-0.5,0.5-0.7,0.8
		c-0.2,0.3-0.3,0.7-0.4,1.1s-0.1,0.8-0.1,1.2h-2.8C20.4,17.5,20.5,16.7,20.7,16z"/>
</g>
</svg>
