<?xml version="1.0" encoding="utf-8"?>
<!-- Generator: Adobe Illustrator 20.1.0, SVG Export Plug-In . SVG Version: 6.00 Build 0)  -->
<svg version="1.1" id="Layer_1" xmlns="http://www.w3.org/2000/svg" xmlns:xlink="http://www.w3.org/1999/xlink" x="0px" y="0px"
	 viewBox="0 0 210.5 218.5" style="enable-background:new 0 0 210.5 218.5;" xml:space="preserve">
<style type="text/css">
	.st0{fill:#69C4A5;}
	.st1{fill:none;stroke:#69C4A5;stroke-width:3;stroke-miterlimit:10;}
	.st2{fill:none;stroke:#FFFFFF;stroke-width:3;stroke-linecap:round;stroke-miterlimit:10;}
</style>
<path class="st0" d="M157.7,204.7c0,2.4-1.9,4.3-4.3,4.3c-2.3,0-4.3-1.9-4.3-4.3s1.9-4.3,4.3-4.3
	C155.8,200.3,157.7,202.3,157.7,204.7"/>
<path class="st0" d="M23.4,192.4c-1.7,0-3.1-1.4-3.1-3.2c0-1.7,1.4-3.2,3.1-3.2c1.7,0,3.1,1.4,3.1,3.2
	C26.5,191,25.1,192.4,23.4,192.4"/>
<path class="st0" d="M54.8,204H44.7c-2,0-3.6-1.6-3.6-3.7V196c0-1.2-0.9-2.1-2.1-2.1h-0.2c-1.1,0-2.1,0.9-2.1,2.1v4.3
	c0,2-1.6,3.7-3.6,3.7H23.1c-1.1,0-2.1,0.9-2.1,2.1v0.2c0,1.2,0.9,2.1,2.1,2.1h10.1c2,0,3.6,1.6,3.6,3.7v4.3c0,1.2,0.9,2.1,2.1,2.1
	H39c1.1,0,2.1-0.9,2.1-2.1v-4.3c0-2,1.6-3.7,3.6-3.7h10.1c1.1,0,2.1-0.9,2.1-2.1v-0.2C56.8,204.9,55.9,204,54.8,204"/>
<path class="st0" d="M209.2,117.6h-6.5c-1.3,0-2.3-1.1-2.3-2.4v-2.8c0-0.7-0.6-1.4-1.3-1.4h-0.1c-0.7,0-1.3,0.6-1.3,1.4v2.8
	c0,1.3-1,2.4-2.3,2.4h-6.5c-0.7,0-1.3,0.6-1.3,1.4v0.1c0,0.7,0.6,1.4,1.3,1.4h6.5c1.3,0,2.3,1.1,2.3,2.4v2.8c0,0.7,0.6,1.4,1.3,1.4
	h0.1c0.7,0,1.3-0.6,1.3-1.4v-2.8c0-1.3,1-2.4,2.3-2.4h6.5c0.7,0,1.3-0.6,1.3-1.4V119C210.5,118.2,209.9,117.6,209.2,117.6"/>
<path class="st0" d="M3.1,54.3c1.7,0,3.1,1.4,3.1,3.2c0,1.7-1.4,3.2-3.1,3.2c-1.7,0-3.1-1.4-3.1-3.2C0,55.8,1.4,54.3,3.1,54.3"/>
<path class="st0" d="M128.4,9.3h6.5c1.3,0,2.3,1.1,2.3,2.4v2.8c0,0.7,0.6,1.4,1.3,1.4h0.1c0.7,0,1.3-0.6,1.3-1.4v-2.8
	c0-1.3,1-2.4,2.3-2.4h6.5c0.7,0,1.3-0.6,1.3-1.4V7.8c0-0.7-0.6-1.4-1.3-1.4h-6.5c-1.3,0-2.3-1.1-2.3-2.4V1.4c0-0.7-0.6-1.4-1.3-1.4
	h-0.1c-0.7,0-1.3,0.6-1.3,1.4v2.8c0,1.3-1,2.4-2.3,2.4h-6.5c-0.7,0-1.3,0.6-1.3,1.4V8C127.1,8.7,127.7,9.3,128.4,9.3"/>
<path class="st0" d="M12.8,23h4.1c0.8,0,1.5,0.7,1.5,1.5v1.7c0,0.5,0.4,0.9,0.8,0.9h0.1c0.5,0,0.8-0.4,0.8-0.9v-1.7
	c0-0.8,0.7-1.5,1.5-1.5h4.1c0.5,0,0.8-0.4,0.8-0.9v-0.1c0-0.5-0.4-0.9-0.8-0.9h-4.1c-0.8,0-1.5-0.7-1.5-1.5V18
	c0-0.5-0.4-0.9-0.8-0.9h-0.1c-0.5,0-0.8,0.4-0.8,0.9v1.7c0,0.8-0.7,1.5-1.5,1.5h-4.1c-0.5,0-0.8,0.4-0.8,0.9v0.1
	C12,22.6,12.4,23,12.8,23"/>
<circle class="st1" cx="88.6" cy="109.6" r="50"/>
<circle class="st1" cx="88.6" cy="109.6" r="80"/>
<circle class="st0" cx="88.6" cy="109.6" r="20"/>
<circle class="st0" cx="46" cy="133.9" r="7"/>
<circle class="st0" cx="128" cy="39.6" r="7"/>
<circle class="st0" cx="88.6" cy="109.6" r="20"/>
<path class="st2" d="M73.6,109.6c0-8.3,6.7-15,15-15"/>
</svg>
