<svg id="Layer_1" data-name="Layer 1" xmlns="http://www.w3.org/2000/svg" viewBox="0 0 103.08 76.32"><defs><style>.cls-1{fill:#69c4a5;}.cls-2{fill:#3f5579;}</style></defs><title>managed-icon</title><path class="cls-1" d="M38.11,3.85a3.78,3.78,0,1,1-7.55,0,3.78,3.78,0,1,1,7.55,0"/><path class="cls-1" d="M83.79,4.38a2.1,2.1,0,1,1-2.1-2.14,2.12,2.12,0,0,1,2.1,2.14"/><path class="cls-1" d="M78.06,31.32a1.56,1.56,0,1,1,1.52-1.56,1.54,1.54,0,0,1-1.52,1.56"/><path class="cls-1" d="M16.62,34.74h-5a1.8,1.8,0,0,1-1.78-1.81V30.8a1,1,0,0,0-1-1H8.77a1,1,0,0,0-1,1v2.12A1.8,1.8,0,0,1,6,34.74H1a1,1,0,0,0-1,1v.09a1,1,0,0,0,1,1H6a1.8,1.8,0,0,1,1.78,1.81v2.12a1,1,0,0,0,1,1h.09a1,1,0,0,0,1-1V38.71a1.8,1.8,0,0,1,1.78-1.81h5a1,1,0,0,0,1-1v-.09a1,1,0,0,0-1-1"/><path class="cls-1" d="M102.43,23.62H99.23a1.16,1.16,0,0,1-1.15-1.17V21.08a.66.66,0,0,0-.65-.67h-.06a.66.66,0,0,0-.65.67v1.37a1.16,1.16,0,0,1-1.14,1.17H92.39a.66.66,0,0,0-.65.67v.06a.66.66,0,0,0,.65.67h3.19a1.16,1.16,0,0,1,1.14,1.17v1.37a.66.66,0,0,0,.65.67h.06a.66.66,0,0,0,.65-.67V26.17A1.16,1.16,0,0,1,99.23,25h3.19a.66.66,0,0,0,.65-.67v-.06a.66.66,0,0,0-.65-.67"/><path class="cls-1" d="M100.93,50.18h-2a.73.73,0,0,1-.72-.74v-.86a.42.42,0,0,0-.41-.42h0a.42.42,0,0,0-.41.42v.86a.73.73,0,0,1-.72.74h-2a.42.42,0,0,0-.41.42v0a.42.42,0,0,0,.41.42h2a.73.73,0,0,1,.72.74v.86a.42.42,0,0,0,.41.42h0a.42.42,0,0,0,.41-.42v-.86a.73.73,0,0,1,.72-.74h2a.42.42,0,0,0,.41-.42v0a.42.42,0,0,0-.41-.42"/><path class="cls-2" d="M34.33,63.29H18.62v8.87H34.33Zm1-.73V73.81a.53.53,0,0,1-.49.55H18.12a.53.53,0,0,1-.49-.55V62.56a.49.49,0,0,1,.49-.49H34.87a.49.49,0,0,1,.49.49M24,75.67l-.24.5s0,.15.12.15h5.66c.1,0,.1-.15.1-.15l-.24-.5Zm5.4-.12H24v-1h5.42Z"/><path class="cls-2" d="M62.63,63.29H46.92v8.87H62.63Zm1-.73V73.81a.53.53,0,0,1-.49.55H46.42a.53.53,0,0,1-.49-.55V62.56a.49.49,0,0,1,.49-.49H63.17a.49.49,0,0,1,.49.49M52.29,75.67l-.24.5s0,.15.12.15h5.66c.1,0,.1-.15.1-.15l-.24-.5Zm5.4-.12H52.27v-1h5.42Z"/><path class="cls-2" d="M90.7,63.29H75v8.87H90.7Zm1-.73V73.81a.53.53,0,0,1-.49.55H74.5a.53.53,0,0,1-.49-.55V62.56a.49.49,0,0,1,.49-.49H91.24a.49.49,0,0,1,.49.49M80.36,75.67l-.24.5s0,.15.12.15h5.66c.1,0,.1-.15.1-.15l-.24-.5Zm5.4-.12H80.34v-1h5.42Z"/><rect class="cls-2" x="26.11" y="45.37" width="1.18" height="1.49"/><rect class="cls-2" x="26.11" y="48.35" width="1.18" height="1.49"/><rect class="cls-2" x="26.11" y="51.33" width="1.18" height="1.49"/><rect class="cls-2" x="26.11" y="54.32" width="1.18" height="1.49"/><rect class="cls-2" x="26.11" y="57.3" width="1.18" height="1.49"/><polygon class="cls-2" points="26.11 42.54 26.11 43.88 27.29 43.88 27.29 43.73 27.44 43.73 27.44 42.54 26.11 42.54"/><rect class="cls-2" x="28.93" y="42.54" width="1.49" height="1.19"/><rect class="cls-2" x="31.92" y="42.54" width="1.49" height="1.19"/><rect class="cls-2" x="34.9" y="42.54" width="1.49" height="1.19"/><rect class="cls-2" x="37.88" y="42.54" width="1.49" height="1.19"/><rect class="cls-2" x="40.87" y="42.54" width="1.49" height="1.19"/><rect class="cls-2" x="82.18" y="45.37" width="1.18" height="1.49"/><rect class="cls-2" x="82.18" y="48.35" width="1.18" height="1.49"/><rect class="cls-2" x="82.18" y="51.33" width="1.18" height="1.49"/><rect class="cls-2" x="82.18" y="54.32" width="1.18" height="1.49"/><rect class="cls-2" x="82.18" y="57.3" width="1.18" height="1.49"/><polygon class="cls-2" points="83.36 42.54 83.36 43.88 82.18 43.88 82.18 43.73 82.03 43.73 82.03 42.54 83.36 42.54"/><rect class="cls-2" x="79.05" y="42.54" width="1.49" height="1.19"/><rect class="cls-2" x="76.06" y="42.54" width="1.49" height="1.19"/><rect class="cls-2" x="73.08" y="42.54" width="1.49" height="1.19"/><rect class="cls-2" x="70.1" y="42.54" width="1.49" height="1.19"/><rect class="cls-2" x="67.11" y="42.54" width="1.49" height="1.19"/><rect class="cls-2" x="54.44" y="54.32" width="1.18" height="1.49"/><rect class="cls-2" x="54.44" y="57.3" width="1.18" height="1.49"/><rect class="cls-2" x="54.44" y="27.72" width="1.18" height="1.49"/><rect class="cls-2" x="54.44" y="30.7" width="1.18" height="1.49"/><path class="cls-2" d="M47.26,50.2a.91.91,0,1,1,.91-.91.91.91,0,0,1-.91.91m15.42-3.56H46.91a2.65,2.65,0,1,0,0,5.3H62.68a2.65,2.65,0,1,0,0-5.3"/><path class="cls-2" d="M47.26,43.81a.91.91,0,1,1,.91-.9.91.91,0,0,1-.91.9m15.42-3.56H46.91a2.65,2.65,0,1,0,0,5.3H62.68a2.65,2.65,0,1,0,0-5.3"/><path class="cls-2" d="M47.26,37.42a.91.91,0,1,1,.91-.91.91.91,0,0,1-.91.91m15.42-3.56H46.91a2.65,2.65,0,1,0,0,5.3H62.68a2.65,2.65,0,1,0,0-5.3"/><path class="cls-2" d="M63.34,12.51H46.2v9.68H63.34Zm1.12-.8V24a.58.58,0,0,1-.54.6H45.66a.58.58,0,0,1-.54-.6V11.71a.54.54,0,0,1,.54-.54H63.93a.54.54,0,0,1,.54.54M52.06,26l-.26.55s0,.16.13.16h6.18c.11,0,.11-.16.11-.16L58,26Zm5.9-.14H52v-1H58Z"/></svg>