<?xml version="1.0" encoding="utf-8"?>
<!-- Generator: Adobe Illustrator 20.1.0, SVG Export Plug-In . SVG Version: 6.00 Build 0)  -->
<svg version="1.1" id="Layer_1" xmlns="http://www.w3.org/2000/svg" xmlns:xlink="http://www.w3.org/1999/xlink" x="0px" y="0px"
	 viewBox="0 0 1387.4 680" style="enable-background:new 0 0 1387.4 680;" xml:space="preserve">
<style type="text/css">
	.st0{fill:#29ECB4;}
	.st1{fill:none;stroke:#29ECB4;stroke-dasharray:4.944,4.944;}
	.st2{fill:none;stroke:#29ECB4;stroke-dasharray:4.923,4.923;}
	.st3{fill:none;stroke:#29ECB4;stroke-dasharray:4.903,4.903;}
	.st4{fill:none;stroke:#29ECB4;stroke-dasharray:5.017,5.017;}
	.st5{fill:none;stroke:#29ECB4;stroke-dasharray:4.842,4.842;}
	.st6{fill:none;stroke:#29ECB4;stroke-dasharray:5.041,5.041;}
	.st7{fill:none;stroke:#29ECB4;stroke-dasharray:4.832,4.832;}
	.st8{fill:none;stroke:#29ECB4;}
</style>
<g>
	<path class="st0" d="M824.9,273.3c0,11.2-8.6,20.2-19.3,20.2c-10.6,0-19.2-9-19.2-20.2s8.6-20.2,19.2-20.2
		C816.3,253.1,824.9,262.2,824.9,273.3"/>
	<path class="st0" d="M879.5,299.8c-1.7,0-3.1-1.4-3.1-3.2s1.4-3.2,3.1-3.2c1.7,0,3.1,1.4,3.1,3.2S881.3,299.8,879.5,299.8"/>
	<path class="st0" d="M155.2,211.2c-4.7,0-8.5-3.8-8.5-8.5s3.8-8.5,8.5-8.5s8.5,3.8,8.5,8.5S159.9,211.2,155.2,211.2"/>
	<path class="st0" d="M419.7,241.4c-3.2,0-5.8-2.5-5.8-5.6s2.6-5.6,5.8-5.6c3.2,0,5.7,2.5,5.7,5.6
		C425.4,238.9,422.8,241.4,419.7,241.4"/>
	<path class="st0" d="M527,435.9c-1.7,0-3.1-1.4-3.1-3.2s1.4-3.2,3.1-3.2c1.7,0,3.1,1.4,3.1,3.2S528.7,435.9,527,435.9"/>
	<path class="st0" d="M123.5,279.7c-1.7,0-3.1-1.4-3.1-3.2s1.4-3.2,3.1-3.2s3.1,1.4,3.1,3.2S125.3,279.7,123.5,279.7"/>
	<path class="st0" d="M1278.5,241.2c-1.7,0-3.1-1.4-3.1-3.2s1.4-3.2,3.1-3.2s3.1,1.4,3.1,3.2
		C1281.7,239.8,1280.3,241.2,1278.5,241.2"/>
</g>
<line class="st1" x1="-17.2" y1="269.5" x2="118.6" y2="276.3"/>
<line class="st2" x1="126.5" y1="269.8" x2="153.2" y2="208.9"/>
<line class="st2" x1="162.5" y1="205.2" x2="414.4" y2="234"/>
<line class="st3" x1="422.8" y1="241.1" x2="524.6" y2="428.4"/>
<line class="st4" x1="533.5" y1="429" x2="801.3" y2="275.8"/>
<line class="st5" x1="812.6" y1="275.5" x2="874.9" y2="295.1"/>
<line class="st6" x1="887" y1="295.5" x2="1273.6" y2="238.7"/>
<line class="st7" x1="1285.8" y1="238.6" x2="1408.6" y2="248.5"/>
<g>
	<path class="st8" d="M1411,248.7l2.4,0.2 M1276.1,238.4l2.5-0.4l2.4,0.2 M877.2,295.8l2.3,0.7l2.5-0.4 M803.5,274.6l2.2-1.2
		l2.3,0.7 M525.8,430.6l1.2,2.2l2.2-1.2 M416.8,234.3l2.4,0.3l1.2,2.2 M154.2,206.6l1-2.3l2.4,0.3 M121.1,276.4l2.5,0.1l1-2.3
		 M-24.6,269.1l2.5,0.1"/>
</g>
</svg>
