<?xml version="1.0" encoding="utf-8"?>
<!-- Generator: Adobe Illustrator 20.1.0, SVG Export Plug-In . SVG Version: 6.00 Build 0)  -->
<svg version="1.1" id="Layer_1" xmlns="http://www.w3.org/2000/svg" xmlns:xlink="http://www.w3.org/1999/xlink" x="0px" y="0px"
	 viewBox="0 0 385.1 655.5" style="enable-background:new 0 0 385.1 655.5;" xml:space="preserve">
<style type="text/css">
	.st0{fill:#29EDB5;}
</style>
<g>
	<path class="st0" d="M192.6,134.9c-30.6,0-55.4,24.8-55.4,55.4s24.8,55.4,55.4,55.4c30.6,0,55.4-24.8,55.4-55.4
		S223.2,134.9,192.6,134.9 M192.2,0c46.6,0,87,99.8,107.1,245.9c51.7,33.4,85.8,90.6,85.8,155.2c-56.1-42.7-122.2-67-192.9-67
		C121.8,334.1,56,358.5,0,400.9c0-64.3,33.8-121.1,85.1-154.5C105.2,100,145.6,0,192.2,0"/>
	<path class="st0" d="M174.1,373.7V637c0,10.2,8.3,18.5,18.5,18.5c10.2,0,18.5-8.3,18.5-18.5V373.7c-6.1-0.4-12.3-0.6-18.5-0.6
		C186.3,373,180.2,373.3,174.1,373.7"/>
	<path class="st0" d="M240.9,573.6c0,10.2,8.3,18.5,18.5,18.5c10.2,0,18.5-8.3,18.5-18.5V386.4c-12.1-3.9-24.4-6.9-37-9.1V573.6z"/>
	<path class="st0" d="M107.2,573.6c0,10.2,8.3,18.5,18.5,18.5c10.2,0,18.5-8.3,18.5-18.5V377.3c-12.6,2.2-24.9,5.3-37,9.1V573.6z"/>
	<path class="st0" d="M307.8,397.9v112.3c0,10.2,8.3,18.5,18.5,18.5c10.2,0,18.5-8.3,18.5-18.5v-92.6
		C332.9,410.1,320.5,403.5,307.8,397.9"/>
	<path class="st0" d="M40.3,510.2c0,10.2,8.3,18.5,18.5,18.5c10.2,0,18.5-8.3,18.5-18.5V397.9c-12.7,5.7-25.1,12.3-37,19.7V510.2z"
		/>
</g>
</svg>
