<svg id="Layer_1" data-name="Layer 1" xmlns="http://www.w3.org/2000/svg" viewBox="0 0 210.03 301.24"><defs><style>.cls-1{fill:#fff;}</style></defs><title>pilott-logo-full--white</title><path class="cls-1" d="M103.89,39.75a16.32,16.32,0,1,0,16.32,16.32,16.32,16.32,0,0,0-16.32-16.32M103.8,0c13.72,0,25.62,29.4,31.54,72.45a54.48,54.48,0,0,1,25.28,45.72c-16.53-12.57-36-19.74-56.83-19.74s-40.13,7.18-56.62,19.66A54.33,54.33,0,0,1,72.24,72.58C78.16,29.46,90.07,0,103.8,0"/><path class="cls-1" d="M98.44,110.08v77.58a5.45,5.45,0,0,0,10.9,0V110.08c-1.8-.12-3.62-.18-5.45-.18s-3.64.07-5.45.18"/><path class="cls-1" d="M118.15,169a5.45,5.45,0,1,0,10.9,0V113.84a83,83,0,0,0-10.9-2.69Z"/><path class="cls-1" d="M78.74,169a5.45,5.45,0,1,0,10.9,0V111.15a83,83,0,0,0-10.9,2.69Z"/><path class="cls-1" d="M137.85,117.21V150.3a5.45,5.45,0,1,0,10.9,0V123a90.53,90.53,0,0,0-10.9-5.8"/><path class="cls-1" d="M59,150.3a5.45,5.45,0,1,0,10.9,0V117.21A90.59,90.59,0,0,0,59,123Z"/><path class="cls-1" d="M22.14,245.38a14.19,14.19,0,0,0-5.62,1.12,14.43,14.43,0,0,0-4.59,3.09,15.07,15.07,0,0,0-3.13,4.59,14.22,14.22,0,0,0,0,11.24,15,15,0,0,0,7.72,7.72,14.21,14.21,0,0,0,11.24,0A15,15,0,0,0,32.35,270a14.45,14.45,0,0,0,3.09-4.59,14.75,14.75,0,0,0,0-11.24,14.43,14.43,0,0,0-7.68-7.68,14.19,14.19,0,0,0-5.62-1.12m0,36.55a21.64,21.64,0,0,1-7.81-1.41,22.73,22.73,0,0,1-6.69-4v20.85a3.74,3.74,0,0,1-1.11,2.75,3.64,3.64,0,0,1-2.66,1.12,3.74,3.74,0,0,1-2.75-1.12A3.73,3.73,0,0,1,0,297.38V241.52a3.63,3.63,0,0,1,1.12-2.66,3.74,3.74,0,0,1,2.75-1.12,3.64,3.64,0,0,1,2.66,1.12,3.63,3.63,0,0,1,1.11,2.66v1.63a22.69,22.69,0,0,1,6.69-4,21.62,21.62,0,0,1,7.81-1.42,21.23,21.23,0,0,1,8.58,1.76,22.71,22.71,0,0,1,7,4.76,22.27,22.27,0,0,1,4.72,7,21.39,21.39,0,0,1,1.72,8.54,21.7,21.7,0,0,1-1.72,8.58,22.08,22.08,0,0,1-4.72,7,22.65,22.65,0,0,1-7,4.76,21.23,21.23,0,0,1-8.58,1.76"/><path class="cls-1" d="M59.72,281.93a3.81,3.81,0,0,1-3.77-3.77V241.52a3.81,3.81,0,0,1,3.77-3.78,3.78,3.78,0,0,1,2.7,1.12,3.57,3.57,0,0,1,1.16,2.66v36.64a3.57,3.57,0,0,1-1.16,2.66,3.77,3.77,0,0,1-2.7,1.12m0-50a5.13,5.13,0,0,1-5.06-5.06,4.69,4.69,0,0,1,1.5-3.56,5.24,5.24,0,0,1,7.16,0,4.76,4.76,0,0,1,1.46,3.56,5.13,5.13,0,0,1-5.06,5.06"/><path class="cls-1" d="M82.8,281.93A3.81,3.81,0,0,1,79,278.16V218a3.78,3.78,0,0,1,7.55,0v60.15a3.81,3.81,0,0,1-3.77,3.77"/><path class="cls-1" d="M119.26,245.38a13.74,13.74,0,0,0-5.62,1.16,15,15,0,0,0-7.72,7.72,14.21,14.21,0,0,0,0,11.24,15,15,0,0,0,3.13,4.59,14.38,14.38,0,0,0,4.59,3.09,14.72,14.72,0,0,0,11.24,0,14.41,14.41,0,0,0,7.68-7.68,14.17,14.17,0,0,0,1.12-5.62,13.77,13.77,0,0,0-1.16-5.62,15.49,15.49,0,0,0-3.09-4.59,14.41,14.41,0,0,0-4.59-3.13,13.85,13.85,0,0,0-5.58-1.16m0,36.55a21.23,21.23,0,0,1-8.58-1.76,22.57,22.57,0,0,1-11.8-11.75,20.91,20.91,0,0,1-1.76-8.54,21.2,21.2,0,0,1,1.76-8.58,22.44,22.44,0,0,1,11.8-11.8,21.23,21.23,0,0,1,8.58-1.76,21,21,0,0,1,8.54,1.76,22.56,22.56,0,0,1,11.75,11.8,21.25,21.25,0,0,1,1.76,8.58,21,21,0,0,1-1.76,8.54,22.69,22.69,0,0,1-11.75,11.75,21,21,0,0,1-8.54,1.76"/><path class="cls-1" d="M171.77,245.38h-6.95v32.78a3.64,3.64,0,0,1-1.12,2.66,3.74,3.74,0,0,1-2.75,1.11,3.81,3.81,0,0,1-3.77-3.77V245.38h-7a3.81,3.81,0,0,1-3.77-3.77,3.73,3.73,0,0,1,1.12-2.75,3.63,3.63,0,0,1,2.66-1.12h7V225.13a3.59,3.59,0,0,1,1.12-2.7,3.7,3.7,0,0,1,2.66-1.07,3.82,3.82,0,0,1,2.75,1.07,3.6,3.6,0,0,1,1.12,2.7v12.61h6.95a3.81,3.81,0,0,1,3.86,3.86,3.64,3.64,0,0,1-1.11,2.66,3.73,3.73,0,0,1-2.75,1.11"/><path class="cls-1" d="M206.17,245.38h-7v32.78a3.64,3.64,0,0,1-1.11,2.66,3.73,3.73,0,0,1-2.75,1.11,3.81,3.81,0,0,1-3.78-3.77V245.38h-7a3.81,3.81,0,0,1-3.77-3.77,3.73,3.73,0,0,1,1.12-2.75,3.63,3.63,0,0,1,2.66-1.12h7V225.13a3.6,3.6,0,0,1,1.12-2.7,3.7,3.7,0,0,1,2.66-1.07,3.81,3.81,0,0,1,2.75,1.07,3.6,3.6,0,0,1,1.11,2.7v12.61h7a3.81,3.81,0,0,1,3.86,3.86,3.63,3.63,0,0,1-1.11,2.66,3.72,3.72,0,0,1-2.74,1.11"/></svg>