<?xml version="1.0" encoding="utf-8"?>
<!-- Generator: Adobe Illustrator 20.1.0, SVG Export Plug-In . SVG Version: 6.00 Build 0)  -->
<svg version="1.1" id="Layer_1" xmlns="http://www.w3.org/2000/svg" xmlns:xlink="http://www.w3.org/1999/xlink" x="0px" y="0px"
	 viewBox="0 0 167.6 209.1" style="enable-background:new 0 0 167.6 209.1;" xml:space="preserve">
<style type="text/css">
	.st0{fill:#3C3C3B;}
</style>
<g>
	<g>
		<path class="st0" d="M88.4,66.7c-8.2,0-14.9,6.8-14.9,15.2S80.2,97,88.4,97c8.2,0,14.8-6.8,14.8-15.2S96.6,66.7,88.4,66.7
			 M88.3,29.8c12.5,0,23.3,27.3,28.7,67.3c13.9,9.1,23,24.8,23,42.5c-15-11.7-32.8-18.3-51.7-18.3c-18.9,0-36.5,6.7-51.5,18.3
			c0-17.6,9.1-33.1,22.8-42.3C65,57.2,75.8,29.8,88.3,29.8"/>
		<path class="st0" d="M83.4,132v72c0,2.8,2.2,5.1,5,5.1c2.7,0,5-2.3,5-5.1v-72c-1.6-0.1-3.3-0.2-5-0.2
			C86.7,131.9,85.1,131.9,83.4,132"/>
		<path class="st0" d="M101.4,186.7c0,2.8,2.2,5.1,5,5.1c2.7,0,5-2.3,5-5.1v-51.2c-3.2-1.1-6.6-1.9-9.9-2.5V186.7z"/>
		<path class="st0" d="M65.5,186.7c0,2.8,2.2,5.1,5,5.1c2.7,0,5-2.3,5-5.1V133c-3.4,0.6-6.7,1.4-9.9,2.5V186.7z"/>
		<path class="st0" d="M119.3,138.7v30.7c0,2.8,2.2,5.1,5,5.1c2.7,0,5-2.3,5-5.1V144C126,142,122.7,140.2,119.3,138.7"/>
		<path class="st0" d="M47.6,169.4c0,2.8,2.2,5.1,5,5.1c2.7,0,5-2.3,5-5.1v-30.7c-3.4,1.6-6.7,3.4-9.9,5.4V169.4z"/>
		<path class="st0" d="M151.8,69.2c0,2.9-2.3,5.3-5.2,5.3c-2.9,0-5.2-2.4-5.2-5.3c0-2.9,2.3-5.3,5.2-5.3
			C149.5,63.9,151.8,66.3,151.8,69.2"/>
		<path class="st0" d="M112.1,2.9c0,1.6-1.3,2.9-2.9,2.9c-1.6,0-2.9-1.3-2.9-2.9c0-1.6,1.3-2.9,2.9-2.9C110.8,0,112.1,1.3,112.1,2.9
			"/>
		<path class="st0" d="M47,62.4c-0.9,0-1.6-0.7-1.6-1.6s0.7-1.6,1.6-1.6c0.9,0,1.6,0.7,1.6,1.6S47.9,62.4,47,62.4"/>
		<path class="st0" d="M9.1,136.1c-1.2,0-2.1-1-2.1-2.1s0.9-2.1,2.1-2.1s2.1,1,2.1,2.1S10.2,136.1,9.1,136.1"/>
		<path class="st0" d="M22.8,83.2H16c-1.3,0-2.4-1.1-2.4-2.5v-2.9c0-0.8-0.6-1.4-1.4-1.4H12c-0.8,0-1.4,0.6-1.4,1.4v2.9
			c0,1.4-1.1,2.5-2.4,2.5H1.4c-0.8,0-1.4,0.6-1.4,1.4v0.1c0,0.8,0.6,1.4,1.4,1.4h6.8c1.3,0,2.4,1.1,2.4,2.5v2.9
			c0,0.8,0.6,1.4,1.4,1.4h0.1c0.8,0,1.4-0.6,1.4-1.4v-2.9c0-1.4,1.1-2.5,2.4-2.5h6.8c0.8,0,1.4-0.6,1.4-1.4v-0.1
			C24.1,83.9,23.5,83.2,22.8,83.2"/>
		<path class="st0" d="M146.9,17.2h-4.4c-0.9,0-1.6-0.7-1.6-1.6v-1.9c0-0.5-0.4-0.9-0.9-0.9H140c-0.5,0-0.9,0.4-0.9,0.9v1.9
			c0,0.9-0.7,1.6-1.6,1.6h-4.4c-0.5,0-0.9,0.4-0.9,0.9v0.1c0,0.5,0.4,0.9,0.9,0.9h4.4c0.9,0,1.6,0.7,1.6,1.6v1.9
			c0,0.5,0.4,0.9,0.9,0.9h0.1c0.5,0,0.9-0.4,0.9-0.9v-1.9c0-0.9,0.7-1.6,1.6-1.6h4.4c0.5,0,0.9-0.4,0.9-0.9v-0.1
			C147.8,17.6,147.4,17.2,146.9,17.2"/>
		<path class="st0" d="M167,183.6h-2.8c-0.5,0-1-0.5-1-1v-1.2c0-0.3-0.3-0.6-0.6-0.6h0c-0.3,0-0.6,0.3-0.6,0.6v1.2c0,0.6-0.4,1-1,1
			h-2.8c-0.3,0-0.6,0.3-0.6,0.6v0c0,0.3,0.3,0.6,0.6,0.6h2.8c0.5,0,1,0.5,1,1v1.2c0,0.3,0.3,0.6,0.6,0.6h0c0.3,0,0.6-0.3,0.6-0.6
			v-1.2c0-0.6,0.4-1,1-1h2.8c0.3,0,0.6-0.3,0.6-0.6v0C167.6,183.8,167.3,183.6,167,183.6"/>
	</g>
</g>
</svg>
