<?xml version="1.0" encoding="utf-8"?>
<!-- Generator: Adobe Illustrator 20.1.0, SVG Export Plug-In . SVG Version: 6.00 Build 0)  -->
<svg version="1.1" id="Layer_1" xmlns="http://www.w3.org/2000/svg" xmlns:xlink="http://www.w3.org/1999/xlink" x="0px" y="0px"
	 viewBox="0 0 67.9 75.1" style="enable-background:new 0 0 67.9 75.1;" xml:space="preserve">
<style type="text/css">
	.st0{fill:#BE529F;}
</style>
<g>
	<path class="st0" d="M40.7,7.9V0H27.1v7.9C11.7,11.1,0,24.8,0,41.2c0,18.7,15.2,33.9,33.9,33.9c18.7,0,33.9-15.2,33.9-33.9
		C67.9,24.8,56.2,11.1,40.7,7.9z M33.9,67.5c-14.5,0-26.3-11.8-26.3-26.3c0-12.1,8.3-22.4,19.5-25.4v25.4h13.6V15.8
		c11.2,3,19.5,13.2,19.5,25.4C60.2,55.7,48.4,67.5,33.9,67.5z"/>
</g>
</svg>
