<?xml version="1.0" encoding="utf-8"?>
<!-- Generator: Adobe Illustrator 20.1.0, SVG Export Plug-In . SVG Version: 6.00 Build 0)  -->
<svg version="1.1" id="Layer_1" xmlns="http://www.w3.org/2000/svg" xmlns:xlink="http://www.w3.org/1999/xlink" x="0px" y="0px"
	 viewBox="0 0 93.4 68.6" style="enable-background:new 0 0 93.4 68.6;" xml:space="preserve">
<style type="text/css">
	.st0{fill:#69C4A5;}
	.st1{fill:#3F5579;}
</style>
<g>
	<path class="st0" d="M92.1,11.6c0,2.1-1.7,3.9-3.8,3.9c-2.1,0-3.8-1.7-3.8-3.9c0-2.1,1.7-3.9,3.8-3.9C90.4,7.8,92.1,9.5,92.1,11.6"
		/>
	<path class="st0" d="M65.8,11.6c0,1.2-0.9,2.1-2.1,2.1c-1.2,0-2.1-1-2.1-2.1c0-1.2,0.9-2.1,2.1-2.1C64.9,9.5,65.8,10.4,65.8,11.6"
		/>
	<path class="st0" d="M17.1,45.4c-0.6,0-1.2-0.5-1.2-1.2s0.5-1.2,1.2-1.2c0.6,0,1.2,0.5,1.2,1.2S17.8,45.4,17.1,45.4"/>
	<path class="st0" d="M21.7,3.1c-0.8,0-1.5-0.7-1.5-1.6S20.8,0,21.7,0c0.8,0,1.5,0.7,1.5,1.6S22.5,3.1,21.7,3.1"/>
	<path class="st0" d="M16.6,61.5h-5c-1,0-1.8-0.8-1.8-1.8v-2.1c0-0.6-0.5-1-1-1H8.8c-0.6,0-1,0.5-1,1v2.1c0,1-0.8,1.8-1.8,1.8H1
		c-0.6,0-1,0.5-1,1v0.1c0,0.6,0.5,1,1,1h5c1,0,1.8,0.8,1.8,1.8v2.1c0,0.6,0.5,1,1,1h0.1c0.6,0,1-0.5,1-1v-2.1c0-1,0.8-1.8,1.8-1.8h5
		c0.6,0,1-0.5,1-1v-0.1C17.6,61.9,17.2,61.5,16.6,61.5"/>
	<path class="st0" d="M19.5,27.8h-3.2c-0.6,0-1.1-0.5-1.1-1.2v-1.4c0-0.4-0.3-0.7-0.7-0.7h-0.1c-0.4,0-0.7,0.3-0.7,0.7v1.4
		c0,0.6-0.5,1.2-1.1,1.2H9.5c-0.4,0-0.7,0.3-0.7,0.7v0.1c0,0.4,0.3,0.7,0.7,0.7h3.2c0.6,0,1.1,0.5,1.1,1.2v1.4
		c0,0.4,0.3,0.7,0.7,0.7h0.1c0.4,0,0.7-0.3,0.7-0.7v-1.4c0-0.6,0.5-1.2,1.1-1.2h3.2c0.4,0,0.7-0.3,0.7-0.7v-0.1
		C20.2,28.1,19.9,27.8,19.5,27.8"/>
	<path class="st0" d="M93,46.2h-2c-0.4,0-0.7-0.3-0.7-0.7v-0.9c0-0.2-0.2-0.4-0.4-0.4h0c-0.2,0-0.4,0.2-0.4,0.4v0.9
		c0,0.4-0.3,0.7-0.7,0.7h-2c-0.2,0-0.4,0.2-0.4,0.4v0c0,0.2,0.2,0.4,0.4,0.4h2c0.4,0,0.7,0.3,0.7,0.7v0.9c0,0.2,0.2,0.4,0.4,0.4h0
		c0.2,0,0.4-0.2,0.4-0.4v-0.9c0-0.4,0.3-0.7,0.7-0.7h2c0.2,0,0.4-0.2,0.4-0.4v0C93.4,46.4,93.2,46.2,93,46.2"/>
	<path class="st1" d="M75.2,54.4h-3.1v-3.2h3.1V54.4z M67.1,54.6c-1,0-1.7-0.8-1.7-1.8c0-1,0.8-1.8,1.7-1.8c1,0,1.7,0.8,1.7,1.8
		C68.8,53.8,68,54.6,67.1,54.6 M60.2,54H32.6c-0.6,0-1.1-0.5-1.1-1.2c0-0.7,0.5-1.2,1.1-1.2h27.6c0.6,0,1.1,0.5,1.1,1.2
		C61.3,53.5,60.8,54,60.2,54 M74.3,47.5H31.5c-2.8,0-5.1,2.4-5.1,5.4c0,3,2.3,5.4,5.1,5.4h42.8c2.8,0,5.1-2.4,5.1-5.4
		C79.4,49.9,77.1,47.5,74.3,47.5"/>
	<path class="st1" d="M75.2,41.1h-3.1v-3.2h3.1V41.1z M67.1,41.3c-1,0-1.7-0.8-1.7-1.8c0-1,0.8-1.8,1.7-1.8c1,0,1.7,0.8,1.7,1.8
		C68.8,40.5,68,41.3,67.1,41.3 M60.2,40.7H32.6c-0.6,0-1.1-0.5-1.1-1.2c0-0.7,0.5-1.2,1.1-1.2h27.6c0.6,0,1.1,0.5,1.1,1.2
		C61.3,40.2,60.8,40.7,60.2,40.7 M74.3,34.2H31.5c-2.8,0-5.1,2.4-5.1,5.4c0,3,2.3,5.4,5.1,5.4h42.8c2.8,0,5.1-2.4,5.1-5.4
		C79.4,36.6,77.1,34.2,74.3,34.2"/>
	<path class="st1" d="M75.2,27.8h-3.1v-3.2h3.1V27.8z M67.1,28c-1,0-1.7-0.8-1.7-1.8c0-1,0.8-1.8,1.7-1.8c1,0,1.7,0.8,1.7,1.8
		C68.8,27.2,68,28,67.1,28 M60.2,27.4H32.6c-0.6,0-1.1-0.5-1.1-1.2c0-0.7,0.5-1.2,1.1-1.2h27.6c0.6,0,1.1,0.5,1.1,1.2
		C61.3,26.9,60.8,27.4,60.2,27.4 M74.3,20.9H31.5c-2.8,0-5.1,2.4-5.1,5.4c0,3,2.3,5.4,5.1,5.4h42.8c2.8,0,5.1-2.4,5.1-5.4
		C79.4,23.3,77.1,20.9,74.3,20.9"/>
</g>
<rect x="63.3" y="65.7" class="st1" width="14.8" height="1.4"/>
<rect x="27.8" y="65.7" class="st1" width="14.8" height="1.4"/>
<polygon class="st1" points="51.7,59.9 51.7,64.3 43.7,64.3 43.7,68.6 62.1,68.6 62.1,64.3 54.2,64.3 54.2,59.9 "/>
</svg>
