<?xml version="1.0" encoding="utf-8"?>
<!-- Generator: Adobe Illustrator 20.1.0, SVG Export Plug-In . SVG Version: 6.00 Build 0)  -->
<svg version="1.1" id="Layer_1" xmlns="http://www.w3.org/2000/svg" xmlns:xlink="http://www.w3.org/1999/xlink" x="0px" y="0px"
	 viewBox="0 0 284.3 269.2" style="enable-background:new 0 0 284.3 269.2;" xml:space="preserve">
<style type="text/css">
	.st0{fill:none;stroke:#3C3C3B;stroke-width:0.5;}
	.st1{fill:#BE529F;}
</style>
<line class="st0" x1="198" y1="53.1" x2="198" y2="96.5"/>
<line class="st0" x1="152.1" y1="95.5" x2="246" y2="95.5"/>
<line class="st0" x1="152.4" y1="96.5" x2="152.4" y2="139.8"/>
<line class="st0" x1="246.2" y1="95.7" x2="246.2" y2="237.9"/>
<g>
	<line class="st0" x1="152.6" y1="150.7" x2="0" y2="150.7"/>
</g>
<polygon class="st1" points="209.4,115.5 209.4,187.3 284.3,115.5 "/>
<rect x="116.3" y="115.5" class="st1" width="70.4" height="70.4"/>
<g>
	<path class="st1" d="M122,75.8C122,33.9,155.9,0,197.8,0c41.9,0,75.8,33.9,75.8,75.8H122z"/>
</g>
<g>
	<path class="st1" d="M25.3,125.4c14,0,25.3,11.3,25.3,25.3S39.2,176,25.3,176S0,164.7,0,150.7S11.3,125.4,25.3,125.4"/>
</g>
<rect x="156.9" y="218.6" class="st1" width="127.4" height="50.5"/>
</svg>
