<svg id="Layer_1" data-name="Layer 1" xmlns="http://www.w3.org/2000/svg" xmlns:xlink="http://www.w3.org/1999/xlink" viewBox="0 0 1399.5 426"><defs><style>.cls-1{fill:none;}.cls-2{font-size:16px;fill:#898989;font-family:Montserrat-Regular, Montserrat;}.cls-3{clip-path:url(#clip-path);}.cls-4{fill:#ee2a5a;}</style><clipPath id="clip-path"><rect class="cls-1" width="1399.5" height="426"/></clipPath></defs><title>shape-bkg</title><rect class="cls-1" width="1399.5" height="426"/><text class="cls-2" transform="translate(887.08 256.82)"> </text><g class="cls-3"><path class="cls-4" d="M1126,82.36a17.27,17.27,0,1,1-17.27-17.26A17.27,17.27,0,0,1,1126,82.36"/></g><rect class="cls-4" x="48.63" y="38.87" width="34.53" height="67.91"/><rect class="cls-4" x="998.04" y="324.14" width="67.91" height="34.53"/><g class="cls-3"><path class="cls-4" d="M102,251.41a17.26,17.26,0,1,1-17.26-17.26A17.26,17.26,0,0,1,102,251.41"/></g><rect class="cls-4" x="249.86" y="331.29" width="34.53" height="34.53" transform="translate(-168.23 290.98) rotate(-45)"/><polygon class="cls-4" points="1324.5 258.56 1348.92 234.14 1373.33 258.56 1324.5 258.56"/><polygon class="cls-4" points="372.03 106.78 372.03 141.31 337.5 141.31 372.03 106.78"/></svg>