<?xml version="1.0" encoding="utf-8"?>
<!-- Generator: Adobe Illustrator 20.1.0, SVG Export Plug-In . SVG Version: 6.00 Build 0)  -->
<svg version="1.1" id="Layer_1" xmlns="http://www.w3.org/2000/svg" xmlns:xlink="http://www.w3.org/1999/xlink" x="0px" y="0px"
	 viewBox="0 0 130.5 30.3" style="enable-background:new 0 0 130.5 30.3;" xml:space="preserve">
<style type="text/css">
	.st0{fill:#FFFFFF;}
</style>
<g>
	<path class="st0" d="M58.4,8.9h-4.5v21.2h4.5V8.9z M6.9,9.3c0-1.9,1.8-2.9,4.5-2.9c2.1,0,5.1,0.8,8.2,2.6l2-4.2
		C19,3.1,15.4,2,11.8,2C5.7,2,1.6,5,1.6,9.7c0,9.9,15.1,6.5,15.1,12.7c0,2.2-2,3.4-5.2,3.4c-3,0-6.6-1.4-9.4-4.1l-2,4.1
		c2.9,2.6,7,4.4,11.4,4.4c6.1,0,10.5-3.1,10.5-8.1C22,12.1,6.9,15.4,6.9,9.3 M43.1,30.1h4.6V16.9c0-5.1-2.9-8.2-7.9-8.2
		c-3.6,0-6.3,1.3-7.9,4.3V0.5h-4.6v29.6h4.6V19.6c0-3.8,2.3-6.6,6.1-6.6c3.2,0,5.1,2,5.1,5.1V30.1z M58.8,2.8c0-1.6-1.2-2.8-2.7-2.8
		c-1.5,0-2.7,1.2-2.7,2.8c0,1.6,1.2,2.8,2.7,2.8C57.6,5.5,58.8,4.4,58.8,2.8 M84.5,23.3V13.1h6.3V9.7h-6.3V3.8H80v5.8h-9.4V7.1
		c0-2,1.3-2.9,2.9-2.9c1,0,2,0.4,2.9,1l1.8-3.5c-1.4-1-3.1-1.5-4.8-1.5c-3.7,0-7.3,2.4-7.3,7.3v2.1h-2.8v3.4H66v17h4.5v-17H80v11
		c0,4.4,2.8,6.2,5.9,6.2c1.8,0,3.5-0.6,5.2-1.6L90,25.2c-1.2,0.6-2.2,0.9-3.2,0.9C85.4,26.1,84.5,25.5,84.5,23.3 M109.8,17.9H97.7
		c0.5-3.4,2.9-5.5,6.2-5.5C107.4,12.4,109.7,14.5,109.8,17.9 M113.8,21.2c0.6-7.7-2.5-12.5-9.9-12.5c-6.3,0-10.7,4.4-10.7,10.8
		c0,6.4,4.3,10.7,10.8,10.7c3.7,0,6.7-1.3,8.8-3.6l-2.4-2.6c-1.6,1.6-3.7,2.5-6,2.5c-3.3,0-5.9-2-6.6-5.3H113.8z M130.5,13.1V8.7
		c-3.3,0-5.9,1.5-7.3,4.4V8.9h-4.6v21.2h4.6V19C123.5,15.4,126.2,12.9,130.5,13.1"/>
</g>
</svg>
