<svg id="Layer_1" data-name="Layer 1" xmlns="http://www.w3.org/2000/svg" xmlns:xlink="http://www.w3.org/1999/xlink" viewBox="0 0 99.66 127.23"><defs><style>.cls-1{fill:none;}.cls-2{fill:#fff;}.cls-3{clip-path:url(#clip-path);}.cls-4{fill:url(#linear-gradient);}</style><clipPath id="clip-path"><path class="cls-1" d="M16.31,96.06a31.13,31.13,0,1,0,62.25,0ZM4.11,51.33A10.45,10.45,0,1,0,14.56,40.86,10.46,10.46,0,0,0,4.11,51.33M37.67,87H57.2V33.07H37.67ZM71.19,33.07V62.88L99.66,33.07ZM0,29.16H29.11V0H0Z"/></clipPath><linearGradient id="linear-gradient" x1="-168.29" y1="481.42" x2="-167.29" y2="481.42" gradientTransform="matrix(99.66, 0, 0, -99.66, 16772.6, 48043.8)" gradientUnits="userSpaceOnUse"><stop offset="0" stop-color="#be529f"/><stop offset="0.99" stop-color="#ee2a5a"/><stop offset="1" stop-color="#ee2a5a"/></linearGradient></defs><title>shifter-logo--color</title><path class="cls-2" d="M16.31,96.06a31.13,31.13,0,1,0,62.25,0ZM14.56,40.86A10.47,10.47,0,1,0,25,51.33,10.46,10.46,0,0,0,14.56,40.86m85.11-7.8H71.19V62.88Zm-42.47,0H37.67V87H57.2ZM29.11,29.16H0V0H29.11Z"/><g class="cls-3"><rect class="cls-4" width="99.66" height="127.23"/></g></svg>