<?xml version="1.0" encoding="utf-8"?>
<!-- Generator: Adobe Illustrator 20.1.0, SVG Export Plug-In . SVG Version: 6.00 Build 0)  -->
<svg version="1.1" id="Layer_1" xmlns="http://www.w3.org/2000/svg" xmlns:xlink="http://www.w3.org/1999/xlink" x="0px" y="0px"
	 viewBox="0 0 1395.6 312.3" style="enable-background:new 0 0 1395.6 312.3;" xml:space="preserve">
<style type="text/css">
	.st0{fill:#29ECB4;}
	.st1{clip-path:url(#SVGID_2_);fill:#A8F7E0;}
	.st2{clip-path:url(#SVGID_2_);fill:none;stroke:#A8F7E0;stroke-width:2;stroke-dasharray:6.184,6.184;}
	.st3{clip-path:url(#SVGID_2_);fill:none;stroke:#A8F7E0;stroke-width:2;stroke-dasharray:5.986,5.986;}
	.st4{font-family:'Montserrat-Regular';}
	.st5{font-size:10px;}
	.st6{letter-spacing:1;}
	.st7{clip-path:url(#SVGID_4_);fill:none;stroke:#A8F7E0;stroke-width:2;stroke-dasharray:5.916,5.916;}
	.st8{clip-path:url(#SVGID_4_);fill:none;stroke:#A8F7E0;stroke-width:2;stroke-dasharray:6.001,6.001;}
	.st9{clip-path:url(#SVGID_4_);fill:none;stroke:#A8F7E0;stroke-width:2;stroke-dasharray:5.945,5.945;}
	.st10{clip-path:url(#SVGID_4_);fill:none;stroke:#A8F7E0;stroke-width:2;}
	.st11{clip-path:url(#SVGID_4_);fill:#A8F7E0;}
</style>
<rect y="0.3" class="st0" width="1400" height="315.5"/>
<g>
	<defs>
		<rect id="SVGID_1_" y="0" width="1409.1" height="325.2"/>
	</defs>
	<clipPath id="SVGID_2_">
		<use xlink:href="#SVGID_1_"  style="overflow:visible;"/>
	</clipPath>
	<path class="st1" d="M328,229.2c0,4.4-3.5,8-7.8,8c-4.3,0-7.8-3.6-7.8-8c0-4.4,3.5-7.9,7.8-7.9C324.6,221.2,328,224.8,328,229.2"/>
	<path class="st1" d="M1140.6,155.3c0,4.4-3.5,8-7.8,8c-4.3,0-7.8-3.6-7.8-8c0-4.4,3.5-7.9,7.8-7.9
		C1137.1,147.3,1140.6,150.9,1140.6,155.3"/>
	<path class="st1" d="M1291.3,49.9c0,9.9-8.1,18-18.2,18c-10,0-18.2-8.1-18.2-18c0-9.9,8.1-18,18.2-18
		C1283.2,31.9,1291.3,39.9,1291.3,49.9"/>
	<path class="st1" d="M1066.4,225.9c-1.7,0-3.1-1.4-3.1-3.2s1.4-3.2,3.1-3.2c1.7,0,3.1,1.4,3.1,3.2S1068.2,225.9,1066.4,225.9"/>
	<path class="st1" d="M1299.1,36.2c-1.7,0-3.1-1.4-3.1-3.2c0-1.8,1.4-3.2,3.1-3.2c1.7,0,3.1,1.4,3.1,3.2
		C1302.3,34.7,1300.9,36.2,1299.1,36.2"/>
	<path class="st1" d="M239.4,274c-1.7,0-3.1-1.4-3.1-3.2c0-1.8,1.4-3.2,3.1-3.2c1.7,0,3.1,1.4,3.1,3.2
		C242.5,272.5,241.1,274,239.4,274"/>
	<path class="st1" d="M855.8,253.3c-3.4,0-6.1-2.8-6.1-6.3s2.7-6.3,6.1-6.3c3.4,0,6.1,2.8,6.1,6.3S859.1,253.3,855.8,253.3"/>
	<path class="st1" d="M274,235.9c-0.9,0-1.6-0.7-1.6-1.6c0-0.9,0.7-1.6,1.6-1.6c0.9,0,1.6,0.7,1.6,1.6
		C275.6,235.2,274.9,235.9,274,235.9"/>
	<path class="st1" d="M73.3,234.3c-0.9,0-1.6-0.7-1.6-1.6c0-0.9,0.7-1.6,1.6-1.6c0.9,0,1.6,0.7,1.6,1.6
		C74.8,233.5,74.1,234.3,73.3,234.3"/>
	<path class="st1" d="M428.1,271.6c-0.9,0-1.6-0.7-1.6-1.6c0-0.9,0.7-1.6,1.6-1.6c0.9,0,1.6,0.7,1.6,1.6
		C429.7,270.9,429,271.6,428.1,271.6"/>
	<path class="st1" d="M479.2,42.2H469c-2,0-3.7-1.7-3.7-3.7V34c0-1.2-0.9-2.1-2.1-2.1H463c-1.2,0-2.1,1-2.1,2.1v4.4
		c0,2.1-1.6,3.7-3.7,3.7H447c-1.2,0-2.1,1-2.1,2.1v0.2c0,1.2,0.9,2.1,2.1,2.1h10.2c2,0,3.7,1.7,3.7,3.7v4.4c0,1.2,0.9,2.1,2.1,2.1
		h0.2c1.2,0,2.1-1,2.1-2.1v-4.4c0-2.1,1.6-3.7,3.7-3.7h10.2c1.2,0,2.1-1,2.1-2.1v-0.2C481.3,43.1,480.4,42.2,479.2,42.2"/>
	<path class="st1" d="M1284.8,265.9h-7.4c-1.5,0-2.7-1.2-2.7-2.7v-3.2c0-0.9-0.7-1.5-1.5-1.5h-0.1c-0.8,0-1.5,0.7-1.5,1.5v3.2
		c0,1.5-1.2,2.7-2.7,2.7h-7.4c-0.8,0-1.5,0.7-1.5,1.5v0.1c0,0.9,0.7,1.5,1.5,1.5h7.4c1.5,0,2.7,1.2,2.7,2.7v3.2
		c0,0.9,0.7,1.5,1.5,1.5h0.1c0.8,0,1.5-0.7,1.5-1.5v-3.2c0-1.5,1.2-2.7,2.7-2.7h7.4c0.8,0,1.5-0.7,1.5-1.5v-0.1
		C1286.3,266.6,1285.6,265.9,1284.8,265.9"/>
	<path class="st1" d="M1371.3,200h-9.2c-1.8,0-3.3-1.5-3.3-3.4v-3.9c0-1.1-0.8-1.9-1.9-1.9h-0.2c-1,0-1.9,0.9-1.9,1.9v3.9
		c0,1.9-1.5,3.4-3.3,3.4h-9.2c-1,0-1.9,0.9-1.9,1.9v0.2c0,1.1,0.8,1.9,1.9,1.9h9.2c1.8,0,3.3,1.5,3.3,3.4v3.9c0,1.1,0.8,1.9,1.9,1.9
		h0.2c1,0,1.9-0.9,1.9-1.9v-3.9c0-1.9,1.5-3.4,3.3-3.4h9.2c1,0,1.9-0.9,1.9-1.9v-0.2C1373.2,200.9,1372.4,200,1371.3,200"/>
	<path class="st1" d="M53.8,49.7h-5.6c-1.1,0-2-0.8-2-1.8v-2.1c0-0.6-0.5-1-1.2-1h-0.1c-0.6,0-1.2,0.5-1.2,1v2.1c0,1-0.9,1.8-2,1.8
		H36c-0.6,0-1.2,0.5-1.2,1v0.1c0,0.6,0.5,1,1.2,1h5.6c1.1,0,2,0.8,2,1.8v2.1c0,0.6,0.5,1,1.2,1H45c0.6,0,1.2-0.5,1.2-1v-2.1
		c0-1,0.9-1.8,2-1.8h5.6c0.6,0,1.2-0.5,1.2-1v-0.1C54.9,50.2,54.4,49.7,53.8,49.7"/>
	<path class="st1" d="M298,167.7h-3.2c-0.6,0-1.1-0.5-1.1-1.1v-1.3c0-0.4-0.3-0.7-0.7-0.7h-0.1c-0.4,0-0.7,0.3-0.7,0.7v1.3
		c0,0.6-0.5,1.1-1.1,1.1h-3.2c-0.4,0-0.7,0.3-0.7,0.7v0.1c0,0.4,0.3,0.7,0.7,0.7h3.2c0.6,0,1.1,0.5,1.1,1.1v1.3
		c0,0.4,0.3,0.7,0.7,0.7h0.1c0.4,0,0.7-0.3,0.7-0.7v-1.3c0-0.6,0.5-1.1,1.1-1.1h3.2c0.4,0,0.7-0.3,0.7-0.7v-0.1
		C298.6,168,298.3,167.7,298,167.7"/>
	<path class="st1" d="M208.8,126.7c-3.5-2.4-8.1-1.7-10.5,1.6c-2.3,3.3-1.4,8,2.1,10.4c3.5,2.4,8.1,1.7,10.5-1.6
		C213.2,133.8,212.3,129.1,208.8,126.7 M219,112.1c5.3,3.7,2.3,17.7-6.5,35.1c3.3,7.7,2.8,16.6-2.1,23.6
		c-3.1-9.1-8.7-16.9-16.7-22.5c-8-5.6-17.2-8.1-26.8-8c4.9-7,13-10.4,21.3-10C201.6,116,213.8,108.4,219,112.1"/>
	<path class="st1" d="M188.7,151.1l-19.9,28.5c-0.8,1.1-0.5,2.7,0.7,3.5c1.2,0.8,2.7,0.6,3.5-0.5l19.9-28.5c-0.7-0.5-1.3-1-2-1.5
		C190.1,152,189.4,151.5,188.7,151.1"/>
	<path class="st1" d="M181.1,178c-0.8,1.1-0.5,2.7,0.7,3.5c1.2,0.8,2.7,0.6,3.5-0.5l14.2-20.2c-1.1-1.4-2.2-2.7-3.5-3.9L181.1,178z"
		/>
	<path class="st1" d="M166,167.4c-0.8,1.1-0.5,2.7,0.7,3.5c1.2,0.8,2.7,0.6,3.5-0.5l14.9-21.2c-1.6-0.8-3.2-1.4-4.9-1.9L166,167.4z"
		/>
	<path class="st1" d="M202,164.3l-8.5,12.1c-0.8,1.1-0.5,2.7,0.7,3.5c1.2,0.8,2.7,0.6,3.5-0.5l7-10C203.9,167.6,203,165.9,202,164.3
		"/>
	<path class="st1" d="M163.2,155.2c-0.8,1.1-0.5,2.7,0.7,3.5c1.2,0.8,2.7,0.6,3.5-0.5l8.5-12.1c-1.9-0.4-3.8-0.7-5.7-0.8
		L163.2,155.2z"/>
	<path class="st2" d="M225.4,101.3c12.2-23.8,23.6-61,26.5-101.1"/>
	<path class="st3" d="M165,190.7c-36,50.1-88,106.6-143,133.6"/>
</g>
<text transform="matrix(1 0 0 1 657.2109 213.7895)"><tspan x="0" y="0" class="st0 st4 st5 st6">G</tspan><tspan x="8.6" y="0" class="st0 st4 st5 st6">E</tspan><tspan x="16.2" y="0" class="st0 st4 st5 st6">T</tspan><tspan x="23.1" y="0" class="st0 st4 st5 st6"> </tspan><tspan x="26.7" y="0" class="st0 st4 st5 st6">I</tspan><tspan x="30.8" y="0" class="st0 st4 st5 st6">N</tspan><tspan x="39.8" y="0" class="st0 st4 st5 st6"> </tspan><tspan x="43.4" y="0" class="st0 st4 st5">T</tspan><tspan x="49.9" y="0" class="st0 st4 st5 st6">O</tspan><tspan x="59.1" y="0" class="st0 st4 st5 st6">UC</tspan><tspan x="75.9" y="0" class="st0 st4 st5">H</tspan></text>
<g>
	<defs>
		<rect id="SVGID_3_" y="0" width="1409.1" height="325.2"/>
	</defs>
	<clipPath id="SVGID_4_">
		<use xlink:href="#SVGID_3_"  style="overflow:visible;"/>
	</clipPath>
	<path class="st7" d="M350,0.3c-37.5,126.1-9,240.5,57.2,318.1"/>
	<path class="st8" d="M880.3,308.4c195.4-270.1,297.1-200.5,344.1-139.9"/>
	<path class="st9" d="M1233.4,180.4c43.9,55.8,107.4,94.3,169.7,87.9"/>
	<path class="st10" d="M1406.1,268c1-0.1,2-0.3,2.9-0.4 M1226.2,170.9c0.6,0.8,1.2,1.6,1.8,2.4c0.6,0.8,1.2,1.6,1.8,2.4 M875,315.7
		c0.6-0.8,1.2-1.6,1.7-2.4"/>
	<path class="st11" d="M711.3,284c-95.2,0-187.9,11-276.8,31.7h553.6C899.2,295,806.5,284,711.3,284"/>
</g>
</svg>
