<?xml version="1.0" encoding="utf-8"?>
<!-- Generator: Adobe Illustrator 20.1.0, SVG Export Plug-In . SVG Version: 6.00 Build 0)  -->
<svg version="1.1" id="Layer_1" xmlns="http://www.w3.org/2000/svg" xmlns:xlink="http://www.w3.org/1999/xlink" x="0px" y="0px"
	 viewBox="0 0 246.2 239.2" style="enable-background:new 0 0 246.2 239.2;" xml:space="preserve">
<style type="text/css">
	.st0{fill:#C3E5D7;}
	.st1{fill:#69C4A5;}
	.st2{fill:none;stroke:#FFFFFF;stroke-width:3;stroke-linecap:round;stroke-linejoin:round;stroke-miterlimit:10;}
	.st3{fill:none;stroke:#FFFFFF;stroke-width:3;stroke-linecap:round;stroke-miterlimit:10;}
</style>
<g>
	<path class="st0" d="M112.5,191.4c-1.1-1.1-0.9-2.9,0.1-4c1-1,2.7-1.1,3.8-0.3c8.3,8.4,33.1,33.1,33.1,33.2c1.2,1.2,3.2,1.2,4.4,0
		c1.2-1.2,1.2-3.2,0-4.4c0,0-27.2-27.2-27.2-27.2c-1.1-1.1-0.9-2.9,0.1-4c1-1,2.7-1.2,3.8-0.3c10.5,10.5,19.8,19.8,19.8,19.8
		c1.2,1.2,3.2,1.2,4.4,0c1.2-1.2,1.2-3.2,0-4.4c0,0-91.7-91.7-91.7-91.7c-8.3-8.3-21.8-8.3-30.1,0c-8.3,8.3-8.3,21.8,0,30.1
		c0,0,0.1,0.1,0.1,0.1c3.2,3.2,91.5,91.6,91.6,91.6c1.2,1.2,3.2,1.2,4.4,0c1.2-1.2,1.2-3.2,0-4.5c0,0-12.2-12.2-12.2-12.2
		c-1.1-1.1-0.9-2.9,0.1-4c1-1,2.8-1.1,3.9-0.2c13.7,13.7,29.2,29.2,29.2,29.2c1.2,1.2,3.2,1.2,4.4,0c1.2-1.2,1.2-3.2,0-4.4
		C154.9,233.8,112.5,191.4,112.5,191.4z"/>
	<path class="st0" d="M136.4,130.5c-1.1-1.1-2.9-0.9-4,0.1c-1,1-1.1,2.7-0.3,3.8c8.4,8.3,33.1,33.1,33.2,33.1c1.2,1.2,1.2,3.2,0,4.4
		c-1.2,1.2-3.2,1.2-4.4,0c0,0-27.2-27.2-27.2-27.2c-1.1-1.1-2.9-0.9-4,0.1c-1,1-1.2,2.7-0.3,3.8c10.5,10.5,19.8,19.8,19.8,19.8
		c1.2,1.2,1.2,3.2,0,4.4c-1.2,1.2-3.2,1.2-4.4,0c0,0-91.7-91.7-91.7-91.7c-8.3-8.3-8.3-21.8,0-30.1c8.3-8.3,21.8-8.3,30.1,0
		c0,0,0.1,0.1,0.1,0.1c3.2,3.2,91.6,91.5,91.6,91.6c1.2,1.2,1.2,3.2,0,4.4c-1.2,1.2-3.2,1.2-4.5,0c0,0-12.2-12.2-12.2-12.2
		c-1.1-1.1-2.9-0.9-4,0.1c-1,1-1.1,2.8-0.2,3.9c13.7,13.7,29.2,29.2,29.2,29.2c1.2,1.2,1.2,3.2,0,4.4c-1.2,1.2-3.2,1.2-4.4,0
		C178.8,172.9,136.4,130.5,136.4,130.5z"/>
	<path class="st0" d="M198.4,115.5c-1.1-1.1-2.9-0.9-4,0.1c-1,1-1.1,2.7-0.3,3.8c8.4,8.3,33.1,33.1,33.2,33.1c1.2,1.2,1.2,3.2,0,4.4
		c-1.2,1.2-3.2,1.2-4.4,0c0,0-27.2-27.2-27.2-27.2c-1.1-1.1-2.9-0.9-4,0.1c-1,1-1.2,2.7-0.3,3.8c10.5,10.5,19.8,19.8,19.8,19.8
		c1.2,1.2,1.2,3.2,0,4.4c-1.2,1.2-3.2,1.2-4.4,0c0,0-91.7-91.7-91.7-91.7c-8.3-8.3-8.3-21.8,0-30.1c8.3-8.3,21.8-8.3,30.1,0
		c0,0,0.1,0.1,0.1,0.1c3.2,3.2,91.6,91.5,91.6,91.6c1.2,1.2,1.2,3.2,0,4.4c-1.2,1.2-3.2,1.2-4.5,0c0,0-12.2-12.2-12.2-12.2
		c-1.1-1.1-2.9-0.9-4,0.1c-1,1-1.1,2.8-0.2,3.9c13.7,13.7,29.2,29.2,29.2,29.2c1.2,1.2,1.2,3.2,0,4.4c-1.2,1.2-3.2,1.2-4.4,0
		C240.8,157.9,198.4,115.5,198.4,115.5z"/>
	<path class="st1" d="M210.1,53c0,2.3,1.8,4.1,4,4.1c2.2,0,4-1.8,4-4.1c0-2.3-1.8-4.1-4-4.1C211.9,48.9,210.1,50.7,210.1,53"/>
	<path class="st1" d="M0,112.5c0,2.8,2.2,5,4.9,5c2.7,0,4.9-2.2,4.9-5c0-2.8-2.2-5-4.9-5C2.2,107.5,0,109.7,0,112.5"/>
	<path class="st1" d="M65.9,128.5c2,0,3.6-1.6,3.6-3.6c0-2-1.6-3.6-3.6-3.6c-2,0-3.6,1.6-3.6,3.6C62.4,126.9,64,128.5,65.9,128.5"/>
	<path class="st1" d="M181,200.2h11.6c2.3,0,4.1-1.9,4.1-4.2v-5c0-1.3,1.1-2.4,2.4-2.4h0.2c1.3,0,2.4,1.1,2.4,2.4v5
		c0,2.3,1.9,4.2,4.1,4.2h11.6c1.3,0,2.4,1.1,2.4,2.4v0.2c0,1.3-1.1,2.4-2.4,2.4h-11.6c-2.3,0-4.1,1.9-4.1,4.2v5
		c0,1.3-1.1,2.4-2.4,2.4h-0.2c-1.3,0-2.4-1.1-2.4-2.4v-5c0-2.3-1.9-4.2-4.1-4.2H181c-1.3,0-2.4-1.1-2.4-2.4v-0.2
		C178.6,201.2,179.7,200.2,181,200.2"/>
	<path class="st1" d="M11.3,167.4h7.4c1.5,0,2.7-1.2,2.7-2.7v-3.2c0-0.9,0.7-1.6,1.5-1.6h0.1c0.8,0,1.5,0.7,1.5,1.6v3.2
		c0,1.5,1.2,2.7,2.7,2.7h7.4c0.8,0,1.5,0.7,1.5,1.6v0.1c0,0.9-0.7,1.6-1.5,1.6h-7.4c-1.5,0-2.7,1.2-2.7,2.7v3.2
		c0,0.9-0.7,1.6-1.5,1.6H23c-0.8,0-1.5-0.7-1.5-1.6v-3.2c0-1.5-1.2-2.7-2.7-2.7h-7.4c-0.8,0-1.5-0.7-1.5-1.6V169
		C9.8,168.1,10.5,167.4,11.3,167.4"/>
	<path class="st1" d="M71,4.7h4.7c0.9,0,1.7-0.8,1.7-1.7V1c0-0.5,0.4-1,1-1h0.1c0.5,0,1,0.4,1,1v2c0,0.9,0.8,1.7,1.7,1.7h4.7
		c0.5,0,1,0.4,1,1v0.1c0,0.5-0.4,1-1,1H81c-0.9,0-1.7,0.8-1.7,1.7v2c0,0.5-0.4,1-1,1h-0.1c-0.5,0-1-0.4-1-1v-2
		c0-0.9-0.8-1.7-1.7-1.7H71c-0.5,0-1-0.4-1-1V5.7C70,5.1,70.4,4.7,71,4.7"/>
	<path class="st1" d="M84.1,85.9c-1.1-1.1-0.9-2.9,0.1-4c1-1,2.7-1.1,3.8-0.3c8.3,8.4,33.1,33.1,33.1,33.2c1.2,1.2,3.2,1.2,4.4,0
		c1.2-1.2,1.2-3.2,0-4.4c0,0-27.2-27.2-27.2-27.2c-1.1-1.1-0.9-2.9,0.1-4c1-1,2.7-1.2,3.8-0.3c10.5,10.5,19.8,19.8,19.8,19.8
		c1.2,1.2,3.2,1.2,4.4,0c1.2-1.2,1.2-3.2,0-4.4c0,0-61.1-61.2-61.1-61.2c-8.3-8.3-21.8-8.3-30.1,0c-8.3,8.3-8.3,21.8,0,30.1
		c0,0,0.1,0.1,0.1,0.1c3.2,3.2,61,61,61,61c1.2,1.2,3.2,1.2,4.4,0c1.2-1.2,1.2-3.2,0-4.5c0,0-12.2-12.2-12.2-12.2
		c-1.1-1.1-0.9-2.9,0.1-4c1-1,2.8-1.1,3.9-0.2c13.7,13.7,29.2,29.2,29.2,29.2c1.2,1.2,3.2,1.2,4.4,0c1.2-1.2,1.2-3.2,0-4.4
		C126.5,128.3,84.1,85.9,84.1,85.9z"/>
	
		<ellipse transform="matrix(0.7071 -0.7071 0.7071 0.7071 -19.6091 50.4502)" class="st0" cx="51.1" cy="48.9" rx="14.4" ry="14.4"/>
	<path class="st1" d="M73.4,152.3c-1.1-1.1-0.9-2.9,0.1-4c1-1,2.7-1.1,3.8-0.3c8.3,8.4,33.1,33.1,33.1,33.2c1.2,1.2,3.2,1.2,4.4,0
		c1.2-1.2,1.2-3.2,0-4.4c0,0-18.6-18.7-18.6-18.7c-1.1-1.1-0.9-2.9,0.1-4c1-1,2.7-1.2,3.8-0.3c10.5,10.5,11.3,11.3,11.3,11.3
		c1.2,1.2,3.2,1.2,4.4,0c1.2-1.2,1.2-3.2,0-4.4c0,0-52.6-52.6-52.6-52.6c-8.3-8.3-21.8-8.3-30.1,0c-8.3,8.3-8.3,21.8,0,30.1
		c0,0,0.1,0.1,0.1,0.1c3.2,3.2,43.9,43.9,52.5,52.5c1.2,1.2,3.2,1.2,4.4,0c1.2-1.2,1.2-3.2,0-4.5c0,0-12.2-12.2-12.2-12.2
		c-1.1-1.1-0.9-2.9,0.1-4c1-1,2.8-1.1,3.9-0.2c13.7,13.7,29.2,29.2,29.2,29.2c1.2,1.2,3.2,1.2,4.4,0c1.2-1.2,1.2-3.2,0-4.4
		C115.7,194.7,73.4,152.3,73.4,152.3z"/>
	
		<ellipse transform="matrix(0.7071 -0.7071 0.7071 0.7071 -73.2511 70.875)" class="st0" cx="48.9" cy="123.9" rx="14.4" ry="14.4"/>
	<path class="st1" d="M164,88.1c-1.1-1.1-0.9-2.9,0.1-4c1-1,2.7-1.1,3.8-0.3c8.3,8.4,33.1,33.1,33.1,33.2c1.2,1.2,3.2,1.2,4.4,0
		c1.2-1.2,1.2-3.2,0-4.4c0,0-27.2-27.2-27.2-27.2c-1.1-1.1-0.9-2.9,0.1-4c1-1,2.7-1.2,3.8-0.3c10.5,10.5,19.8,19.8,19.8,19.8
		c1.2,1.2,3.2,1.2,4.4,0c1.2-1.2,1.2-3.2,0-4.4c0,0-61.1-61.2-61.1-61.2c-8.3-8.3-21.8-8.3-30.1,0c-8.3,8.3-8.3,21.8,0,30.1
		c0,0,0.1,0.1,0.1,0.1c3.2,3.2,61,61,61,61c1.2,1.2,3.2,1.2,4.4,0c1.2-1.2,1.2-3.2,0-4.5c0,0-12.2-12.2-12.2-12.2
		c-1.1-1.1-0.9-2.9,0.1-4c1-1,2.8-1.1,3.9-0.2c13.7,13.7,29.2,29.2,29.2,29.2c1.2,1.2,3.2,1.2,4.4,0c1.2-1.2,1.2-3.2,0-4.4
		C206.3,130.5,164,88.1,164,88.1z"/>
	<ellipse transform="matrix(0.7071 -0.7071 0.7071 0.7071 2.2536 107.5767)" class="st0" cx="131" cy="51.1" rx="14.4" ry="14.4"/>
	<path class="st2" d="M68,172.9"/>
	<path class="st3" d="M54.1,36.6c-1-0.4-2-0.6-3-0.7c-3.7-0.3-7.3,1.6-9.2,4.8c-0.2,0.4-0.4,0.8-0.6,1.2"/>
	<path class="st3" d="M134.6,38.8c-1-0.4-2-0.6-3-0.7c-3.7-0.3-7.3,1.6-9.2,4.8c-0.2,0.4-0.4,0.8-0.6,1.2"/>
	<path class="st3" d="M51.9,112.1c-1-0.4-2-0.6-3-0.7c-3.7-0.3-7.3,1.6-9.2,4.8c-0.2,0.4-0.4,0.8-0.6,1.2"/>
</g>
</svg>
