<svg id="Layer_1" xmlns="http://www.w3.org/2000/svg" viewBox="0 0 64 64"><style>.st0{fill:#414042}</style><path class="st0" d="M32 13.2c-3 0-5.4 2.4-5.4 5.4S29 24 32 24s5.4-2.4 5.4-5.4-2.4-5.4-5.4-5.4M32 0c4.5 0 8.5 9.7 10.5 24 5 3.3 8.4 8.8 8.4 15.2-5.6-4.2-12-6.6-18.9-6.6-6.9 0-13.3 2.4-18.8 6.5 0-6.3 3.3-11.8 8.3-15.1C23.5 9.8 27.4 0 32 0"/><path class="st0" d="M30.2 36.5v25.7c0 1 .8 1.8 1.8 1.8s1.8-.8 1.8-1.8V36.5c-.6 0-1.2-.1-1.8-.1-.6 0-1.2 0-1.8.1M36.7 56c0 1 .8 1.8 1.8 1.8s1.8-.8 1.8-1.8V37.7c-1.2-.4-2.4-.7-3.6-.9V56zm-13 0c0 1 .8 1.8 1.8 1.8s1.8-.8 1.8-1.8V36.8c-1.2.2-2.4.5-3.6.9V56zm19.6-17.2v11c0 1 .8 1.8 1.8 1.8s1.8-.8 1.8-1.8v-9c-1.2-.8-2.4-1.4-3.6-2m-26.2 11c0 1 .8 1.8 1.8 1.8s1.8-.8 1.8-1.8v-11c-1.2.6-2.5 1.2-3.6 1.9v9.1z"/></svg>